<svg width="96" height="96" xmlns="http://www.w3.org/2000/svg" xmlns:xlink="http://www.w3.org/1999/xlink" xml:space="preserve" overflow="hidden"><g transform="translate(-582 -202)"><path d="M630 288C609.013 288 592 270.987 592 250 592 229.013 609.013 212 630 212 650.987 212 668 229.013 668 250 667.976 270.977 650.977 287.976 630 288ZM630 214C610.118 214 594 230.118 594 250 594 269.882 610.118 286 630 286 649.882 286 666 269.882 666 250 665.978 230.127 649.873 214.022 630 214Z" stroke="#000000" stroke-width="0.333333" fill="#FFFFFF"/><path d="M643.293 264.707 629.293 250.707C629.105 250.52 629 250.265 629 250L629 231 631 231 631 249.586 644.707 263.293Z" stroke="#000000" stroke-width="0.333333" fill="#FFFFFF"/><path d="M632 225C632 226.105 631.105 227 630 227 628.895 227 628 226.105 628 225 628 223.895 628.895 223 630 223 631.105 223 632 223.895 632 225Z" stroke="#000000" stroke-width="0.333333" fill="#FFFFFF"/><path d="M607 250C607 251.105 606.105 252 605 252 603.895 252 603 251.105 603 250 603 248.895 603.895 248 605 248 606.105 248 607 248.895 607 250Z" stroke="#000000" stroke-width="0.333333" fill="#FFFFFF"/><path d="M632 275C632 276.105 631.105 277 630 277 628.895 277 628 276.105 628 275 628 273.895 628.895 273 630 273 631.105 273 632 273.895 632 275Z" stroke="#000000" stroke-width="0.333333" fill="#FFFFFF"/><path d="M657 250C657 251.105 656.105 252 655 252 653.895 252 653 251.105 653 250 653 248.895 653.895 248 655 248 656.105 248 657 248.895 657 250Z" stroke="#000000" stroke-width="0.333333" fill="#FFFFFF"/><path d="M630 283C611.775 283 597 268.225 597 250 597 231.775 611.775 217 630 217 648.225 217 663 231.775 663 250 662.979 268.217 648.217 282.979 630 283ZM630 219C612.879 219 599 232.879 599 250 599 267.121 612.879 281 630 281 647.121 281 661 267.121 661 250 660.98 232.887 647.113 219.02 630 219Z" stroke="#000000" stroke-width="0.333333" fill="#FFFFFF"/></g></svg>