<svg width="3266" height="1626" xmlns="http://www.w3.org/2000/svg" xmlns:xlink="http://www.w3.org/1999/xlink" xml:space="preserve" overflow="hidden"><g transform="translate(-767 -506)"><rect x="3083.5" y="1215.5" width="728" height="167" stroke="#FFFFFF" stroke-width="6.875" stroke-miterlimit="8" fill="#4472C4"/><text fill="#FFFFFF" font-family="Calibri,Calibri_MSFontService,sans-serif" font-weight="400" font-size="110" transform="matrix(1 0 0 1 3119.42 1335)">Transportation</text><rect x="797.5" y="1149.5" width="776" height="300" stroke="#FFFFFF" stroke-width="6.875" stroke-miterlimit="8" fill="#ED7D31"/><text fill="#FFFFFF" font-family="Calibri,Calibri_MSFontService,sans-serif" font-weight="400" font-size="110" transform="matrix(1 0 0 1 918.909 1268)">Land Use &amp; </text><text fill="#FFFFFF" font-family="Calibri,Calibri_MSFontService,sans-serif" font-weight="400" font-size="110" transform="matrix(1 0 0 1 833.316 1400)">Spatial Location</text><path d="M1164.78 1079 1228.9 1035.01 1289.59 994.243 1350.61 954.492 1381.32 935.07 1412.13 916.04 1443.08 897.428 1474.19 879.278 1505.46 861.634 1536.91 844.539 1568.56 828.035 1600.4 812.167 1632.47 796.978 1664.77 782.512 1697.31 768.812 1730.1 755.923 1763.16 743.888 1796.51 732.753 1830.15 722.56 1864.09 713.356 1898.35 705.183 1932.94 698.087 1967.87 692.111 2003.15 687.301 2038.79 683.701 2074.8 681.353 2111.19 680.303 2147.96 680.594 2185.12 682.253 2222.64 685.25 2260.5 689.539 2298.69 695.075 2337.2 701.812 2376.02 709.707 2415.14 718.714 2454.54 728.791 2494.22 739.892 2534.17 751.974 2574.36 764.994 2614.8 778.908 2655.47 793.673 2696.36 809.246 2737.45 825.584 2778.74 842.644 2820.22 860.382 2861.87 878.757 2903.68 897.725 2945.64 917.243 2987.73 937.27 3029.96 957.761 3072.29 978.675 3114.75 999.975 3199.86 1043.52 3285.26 1088.08 3370.81 1133.3 3395.76 1146.57 3382.85 1170.85 3357.96 1157.61 3272.44 1112.41 3272.51 1112.45 3187.19 1067.93 3187.29 1067.98 3102.27 1024.48 3102.37 1024.53 3060 1003.27 3060.08 1003.31 3017.82 982.438 3017.91 982.48 2975.78 962.034 2975.87 962.08 2933.88 942.102 2933.98 942.153 2892.14 922.687 2892.26 922.741 2850.57 903.83 2850.7 903.888 2809.19 885.574 2809.33 885.636 2768.01 867.962 2768.16 868.028 2727.04 851.036 2727.21 851.105 2686.29 834.838 2686.48 834.91 2645.78 819.411 2645.98 819.486 2605.53 804.797 2605.74 804.874 2565.53 791.038 2565.77 791.117 2525.82 778.177 2526.08 778.257 2486.4 766.256 2486.68 766.336 2447.28 755.315 2447.58 755.395 2408.49 745.398 2408.81 745.476 2370.02 736.545 2370.37 736.62 2331.91 728.798 2332.28 728.868 2294.15 722.198 2294.55 722.261 2256.77 716.785 2257.19 716.84 2219.77 712.601 2220.22 712.645 2183.17 709.685 2183.65 709.715 2146.99 708.078 2147.49 708.091 2111.22 707.805 2111.73 707.799 2075.84 708.835 2076.34 708.811 2040.82 711.126 2041.31 711.086 2006.15 714.638 2006.63 714.581 1971.82 719.328 1972.28 719.257 1937.8 725.155 1938.25 725.071 1904.09 732.078 1904.52 731.983 1870.68 740.056 1871.09 739.952 1837.54 749.049 1837.93 748.937 1804.67 759.015 1805.04 758.898 1772.05 769.914 1772.4 769.793 1739.67 781.705 1740 781.581 1707.52 794.346 1707.82 794.221 1675.58 807.797 1675.87 807.672 1643.84 822.015 1644.11 821.893 1612.3 836.961 1612.55 836.842 1580.93 852.592 1581.16 852.477 1549.74 868.867 1549.94 868.756 1518.69 885.744 1518.88 885.638 1487.79 903.18 1487.96 903.081 1457.02 921.135 1457.18 921.042 1426.37 939.565 1426.51 939.48 1395.83 958.429 1395.95 958.352 1365.38 977.685 1365.54 977.585 1304.68 1017.23 1304.84 1017.13 1244.29 1057.8 1244.4 1057.72 1180.34 1101.68ZM1207.32 1116.46 1116 1129.43 1160.41 1048.59ZM3396.54 1115.84 3450 1191 3357.79 1188.67Z" fill="#FFFFFF"/><text fill="#FFFFFF" font-family="Calibri,Calibri_MSFontService,sans-serif" font-weight="400" font-size="83" transform="matrix(1 0 0 1 1710.78 608)">Accessibility or Travel Time</text><rect x="1837.5" y="1843.5" width="916" height="286" stroke="#FFFFFF" stroke-width="4.58333" stroke-miterlimit="8" fill="#70AD47"/><text fill="#FFFFFF" font-family="Calibri,Calibri_MSFontService,sans-serif" font-weight="400" font-size="110" transform="matrix(1 0 0 1 1946.25 2023)">Macroeconomy</text><path d="M1158.75 1520.33 1165.51 1541.21 1165.35 1540.75 1173.08 1562.05 1172.95 1561.7 1181.26 1582.79 1181.09 1582.38 1190.1 1603.22 1189.89 1602.75 1199.72 1623.3 1199.45 1622.77 1210.21 1642.99 1209.89 1642.42 1221.7 1662.27 1221.32 1661.66 1234.3 1681.09 1233.85 1680.47 1248.11 1699.44 1247.74 1698.97 1255.39 1708.27 1255.13 1707.96 1263.14 1717.13 1262.86 1716.82 1271.25 1725.86 1270.96 1725.56 1279.74 1734.45 1279.44 1734.16 1288.63 1742.91 1288.31 1742.62 1297.93 1751.22 1297.61 1750.94 1307.66 1759.39 1307.33 1759.12 1317.83 1767.4 1317.5 1767.15 1328.47 1775.27 1328.15 1775.04 1339.56 1783 1339.26 1782.8 1351.11 1790.6 1350.83 1790.42 1363.1 1798.07 1362.83 1797.91 1375.52 1805.41 1375.26 1805.27 1388.34 1812.64 1388.1 1812.5 1401.56 1819.74 1401.34 1819.62 1415.16 1826.72 1414.85 1826.57 1443.53 1840.41 1443.16 1840.24 1473.12 1853.62 1472.8 1853.48 1503.92 1866.45 1503.65 1866.33 1535.82 1878.93 1535.59 1878.84 1568.69 1891.1 1568.49 1891.03 1602.42 1902.99 1602.25 1902.94 1636.88 1914.66 1636.74 1914.61 1671.95 1926.13 1671.84 1926.09 1707.52 1937.44 1707.42 1937.41 1750.34 1950.71 1742.2 1976.98 1699.23 1963.66 1663.45 1952.28 1628.13 1940.73 1593.35 1928.96 1559.24 1916.92 1525.92 1904.58 1493.49 1891.89 1462.06 1878.8 1431.76 1865.26 1402.74 1851.26 1388.65 1844.02 1374.96 1836.66 1361.64 1829.15 1348.69 1821.49 1336.13 1813.66 1323.99 1805.66 1312.26 1797.49 1300.97 1789.12 1290.13 1780.58 1279.75 1771.86 1269.82 1762.97 1260.32 1753.93 1251.24 1744.73 1242.56 1735.38 1234.28 1725.9 1226.31 1716.2 1211.64 1696.68 1198.25 1676.64 1186.09 1656.2 1175.04 1635.43 1164.97 1614.38 1155.76 1593.09 1147.29 1571.61 1139.42 1549.91 1132.58 1528.81ZM1110.46 1550.08 1125 1459 1189.14 1525.29ZM1745.22 1920.38 1812 1984 1721.03 1999.26Z" fill="#FFFFFF"/><text fill="#FFFFFF" font-family="Calibri,Calibri_MSFontService,sans-serif" font-weight="400" font-size="83" transform="matrix(1 0 0 1 905.323 1789)">Land &amp; </text><text fill="#FFFFFF" font-family="Calibri,Calibri_MSFontService,sans-serif" font-weight="400" font-size="83" transform="matrix(1 0 0 1 905.323 1888)">Capital Costs</text><path d="M2843.9 1981.02 2862.13 1979.08 2862.03 1979.09 2904.93 1974.19 2904.8 1974.2 2947.22 1968.97 2947.05 1969 2988.82 1963.33 2988.61 1963.36 3029.57 1957.14 3029.31 1957.19 3069.31 1950.31 3068.99 1950.37 3107.87 1942.73 3107.48 1942.81 3145.07 1934.29 3144.74 1934.37 3163 1929.75 3162.76 1929.81 3180.64 1924.93 3180.37 1925.01 3197.85 1919.85 3197.56 1919.94 3214.62 1914.49 3214.31 1914.6 3230.93 1908.85 3230.59 1908.97 3246.75 1902.91 3246.39 1903.05 3262.06 1896.66 3261.68 1896.82 3276.85 1890.08 3276.44 1890.28 3291.09 1883.18 3290.65 1883.41 3304.76 1875.94 3304.3 1876.2 3317.84 1868.35 3317.36 1868.65 3330.32 1860.41 3329.81 1860.75 3342.17 1852.09 3341.65 1852.48 3353.39 1843.4 3352.85 1843.83 3363.96 1834.32 3363.44 1834.78 3373.92 1824.85 3373.44 1825.33 3383.32 1814.98 3382.87 1815.48 3392.16 1804.73 3391.74 1805.24 3400.48 1794.1 3400.1 1794.62 3408.29 1783.11 3407.94 1783.62 3415.61 1771.76 3415.31 1772.27 3422.47 1760.06 3422.2 1760.56 3428.89 1748.03 3428.64 1748.5 3434.87 1735.66 3434.66 1736.12 3440.44 1722.97 3440.25 1723.41 3445.62 1709.97 3445.46 1710.39 3450.42 1696.68 3450.28 1697.08 3454.86 1683.11 3454.69 1683.65 3462.79 1654.98 3462.62 1655.63 3469.43 1626.09 3469.31 1626.64 3475 1596.33 3474.92 1596.79 3479.64 1565.82 3479.59 1566.19 3483.5 1534.67 3483.47 1534.97 3486.75 1503.01 3486.72 1503.29 3489.07 1474.43 3516.48 1476.67 3514.12 1505.67 3510.81 1537.92 3506.85 1569.77 3502.07 1601.17 3496.29 1631.99 3489.34 1662.13 3481.08 1691.4 3476.35 1705.84 3471.24 1719.96 3465.71 1733.82 3459.73 1747.42 3453.27 1760.74 3446.33 1773.75 3438.87 1786.45 3430.87 1798.82 3422.31 1810.83 3413.18 1822.47 3403.44 1833.72 3393.1 1844.56 3382.11 1854.98 3370.48 1864.94 3358.21 1874.43 3345.33 1883.45 3331.87 1892.01 3317.85 1900.13 3303.29 1907.83 3288.21 1915.13 3272.64 1922.04 3256.59 1928.58 3240.09 1934.78 3223.14 1940.64 3205.78 1946.18 3188.02 1951.42 3169.88 1956.38 3151.32 1961.07 3113.36 1969.67 3074.13 1977.39 3033.83 1984.31 2992.63 1990.56 2950.67 1996.26 2908.11 2001.5 2865.1 2006.42 2846.82 2008.37ZM2863.42 2034.25 2777 2002 2854.65 1952.22ZM3460.6 1486.13 3508 1407 3542.87 1492.39Z" fill="#FFFFFF"/><text fill="#FFFFFF" font-family="Calibri,Calibri_MSFontService,sans-serif" font-weight="400" font-size="83" transform="matrix(1 0 0 1 3498.4 1771)">Travel Costs or</text><text fill="#FFFFFF" font-family="Calibri,Calibri_MSFontService,sans-serif" font-weight="400" font-size="83" transform="matrix(1 0 0 1 3488.47 1870)">Agglomeration</text></g></svg>