<svg width="64" height="64" xmlns="http://www.w3.org/2000/svg" xmlns:xlink="http://www.w3.org/1999/xlink" xml:space="preserve" overflow="hidden"><g transform="translate(-865 -490)"><path d="M906.953 523.333C904.7 521.413 901.773 520.513 899 519.647L899 503.527C901.693 503.783 904.209 504.979 906.107 506.907L909.307 503.84C906.568 501.054 902.898 499.376 899 499.127L899 493.333 895 493.333 895 499.38C893.63 499.647 892.309 500.119 891.08 500.78 886.027 503.533 883.447 510 885.52 515.447 887.127 519.647 891 521.52 895 522.927L895 540.38C891.9 540 889.327 538.22 887.193 536L883.993 539.06C885.517 540.789 887.334 542.236 889.36 543.333 891.131 544.176 893.044 544.68 895 544.82L895 550.667 899 550.667 899 544.667C903.587 543.9 907.8 541.08 909.613 536.667 911.427 532.253 910.767 526.593 906.953 523.333ZM891.667 516.487C888 513.393 888.893 507.407 892.78 504.927 893.469 504.485 894.216 504.142 895 503.907L895 518.367C893.793 517.928 892.667 517.292 891.667 516.487ZM903.727 537.7C902.425 538.972 900.784 539.84 899 540.2L899 524.273C901.667 525.187 904.727 526.347 905.813 529.187 906.9 532.027 905.807 535.58 903.727 537.7Z" stroke="#FFFFFF" stroke-width="0.666667" fill="#FFFFFF"/></g></svg>