<svg width="1305" height="952" xmlns="http://www.w3.org/2000/svg" xmlns:xlink="http://www.w3.org/1999/xlink" xml:space="preserve" overflow="hidden"><g transform="translate(-570 -484)"><g><g><g><path d="M1093.03 535.562C1093.03 548.852 1082.26 559.625 1068.97 559.625 1055.68 559.625 1044.91 548.852 1044.91 535.562 1044.91 522.273 1055.68 511.5 1068.97 511.5 1082.26 511.5 1093.03 522.273 1093.03 535.562Z" stroke="#000000" stroke-width="3.4375" fill="#FFFFFF"/><path d="M1130.5 667.562 1114.34 586.438C1107.81 579.219 1099.56 573.719 1089.94 570.281 1083.41 567.875 1076.19 566.5 1068.63 566.5 1061.06 566.5 1054.19 567.875 1047.31 570.281 1038.03 573.719 1029.78 579.219 1022.91 586.438L1006.75 667.562C1005.72 673.062 1009.16 678.562 1015 679.594 1015.69 679.594 1016.38 679.938 1017.06 679.938 1021.88 679.938 1026.34 676.5 1027.03 671.688L1041.47 601.906 1041.47 786.5 1062.09 786.5 1062.09 679.938 1075.84 679.938 1075.84 786.5 1096.47 786.5 1096.47 601.906 1110.56 671.688C1111.25 676.5 1115.72 679.938 1120.53 679.938 1121.22 679.938 1121.91 679.938 1122.59 679.594 1128.09 678.562 1131.88 673.062 1130.5 667.562Z" stroke="#000000" stroke-width="3.4375" fill="#FFFFFF"/><path d="M1178.97 676.5C1178.97 685.992 1171.27 693.688 1161.78 693.688 1152.29 693.688 1144.59 685.992 1144.59 676.5 1144.59 667.008 1152.29 659.312 1161.78 659.312 1171.27 659.312 1178.97 667.008 1178.97 676.5Z" stroke="#000000" stroke-width="3.4375" fill="#FFFFFF"/><path d="M1198.91 739.062 1186.88 710.188C1182.75 704.344 1176.22 699.875 1169 697.812 1166.94 697.469 1164.19 697.125 1161.78 697.125L1144.59 697.125 1126.38 666.188C1124.31 662.75 1120.19 661.719 1117.09 663.781 1113.66 665.844 1112.63 669.969 1114.69 673.062L1144.59 723.938 1144.59 786.5 1158.34 786.5 1158.34 745.25 1165.22 745.25 1165.22 786.5 1178.97 786.5 1178.97 726.688 1186.53 744.562C1187.56 747.312 1190.31 748.688 1192.72 748.688 1193.75 748.688 1194.44 748.688 1195.47 748 1198.91 746.625 1200.63 742.5 1198.91 739.062Z" stroke="#000000" stroke-width="3.4375" fill="#FFFFFF"/></g></g></g><g><g><g><path d="M786.562 777.525 724.687 718.606 724.687 718.606 600.937 836.341 614.309 847.753 724.687 742.909 724.687 742.909 782.128 797.497C783.175 790.751 784.656 784.08 786.562 777.525Z" stroke="#000000" stroke-width="3.4375" fill="#FFFFFF"/><path d="M841.562 927.812 841.562 858.409C862.187 854.697 877.656 834.691 877.656 806.194 877.656 774.569 845 709.187 834.687 709.187 824.375 709.187 791.719 774.5 791.719 806.194 791.719 834.691 807.359 854.697 827.812 858.409L827.812 927.812 814.062 927.812 814.062 864.769C795.844 856.209 783.125 836.375 781.612 811.625L724.687 759.375 635.312 841.428 635.312 927.812 614.687 927.812 614.687 922.691 620.497 922.691C622.9 922.669 624.955 920.959 625.412 918.6L625.412 918.6C626.397 914.253 628.535 910.251 631.6 907.016 632.029 906.612 632.049 905.938 631.646 905.509 631.361 905.207 630.928 905.097 630.534 905.228 624.528 906.629 619.037 909.69 614.687 914.062L614.687 904.437C630.019 901.894 621.562 881.922 621.562 881.922 621.273 881.409 620.623 881.228 620.111 881.517 619.942 881.613 619.802 881.753 619.706 881.922L616.028 888.178 612.35 881.922C612.147 881.584 611.782 881.375 611.387 881.372 611.005 881.387 610.656 881.594 610.459 881.922L606.781 888.178 602.966 881.922C602.655 881.4 601.98 881.228 601.458 881.539 601.3 881.633 601.169 881.764 601.075 881.922 601.075 881.922 592.516 901.859 607.95 904.437L607.95 913.856C603.587 909.573 598.128 906.575 592.172 905.194 591.613 905.008 591.01 905.311 590.825 905.87 590.695 906.263 590.804 906.697 591.106 906.981 594.183 910.209 596.322 914.214 597.294 918.566L597.294 918.566C597.751 920.924 599.807 922.635 602.209 922.656L607.812 922.656 607.812 927.812 580.312 927.812 580.312 948.437 886.25 948.437 886.25 927.812ZM690.312 890 655.937 890 655.937 855.625 690.312 855.625ZM741.875 927.812 707.5 927.812 707.5 855.625 741.875 855.625ZM793.437 890 759.062 890 759.062 855.625 793.437 855.625Z" stroke="#000000" stroke-width="3.4375" fill="#FFFFFF"/></g></g></g><g><g><g><path d="M1531 722.937 1580.5 772.781 1590.13 763.156 1531 706.437 1470.5 764.187 1480.13 773.812Z" stroke="#000000" stroke-width="3.4375" fill="#FFFFFF"/><path d="M1641 847.031 1613.5 847.031 1613.5 819.531 1641 819.531 1641 847.031ZM1641 888.281 1613.5 888.281 1613.5 860.781 1641 860.781 1641 888.281ZM1599.75 847.031 1572.25 847.031 1572.25 819.531 1599.75 819.531 1599.75 847.031ZM1599.75 888.281 1572.25 888.281 1572.25 860.781 1599.75 860.781 1599.75 888.281ZM1555.06 847.031 1506.94 847.031 1506.94 833.281 1555.06 833.281 1555.06 847.031ZM1531 781.719C1536.84 781.719 1541.31 786.187 1541.31 792.031 1541.31 797.875 1536.84 802.344 1531 802.344 1525.16 802.344 1520.69 797.875 1520.69 792.031 1520.69 786.187 1525.16 781.719 1531 781.719ZM1489.75 847.031 1462.25 847.031 1462.25 819.531 1489.75 819.531 1489.75 847.031ZM1489.75 888.281 1462.25 888.281 1462.25 860.781 1489.75 860.781 1489.75 888.281ZM1448.5 847.031 1421 847.031 1421 819.531 1448.5 819.531 1448.5 847.031ZM1448.5 888.281 1421 888.281 1421 860.781 1448.5 860.781 1448.5 888.281ZM1572.25 802.344 1572.25 781.719 1531 740.469 1489.75 781.719 1489.75 802.344 1407.25 802.344 1407.25 919.219 1506.94 919.219 1506.94 881.406C1506.94 871.781 1513.81 860.781 1531 860.781 1548.19 860.781 1555.06 871.781 1555.06 881.406L1555.06 919.219 1654.75 919.219 1654.75 802.344 1572.25 802.344Z" stroke="#000000" stroke-width="3.4375" fill="#FFFFFF"/></g></g></g><g><g><g><path d="M1130.5 1065.81C1130.5 1081 1118.19 1093.31 1103 1093.31 1087.81 1093.31 1075.5 1081 1075.5 1065.81 1075.5 1050.62 1087.81 1038.31 1103 1038.31 1118.19 1038.31 1130.5 1050.62 1130.5 1065.81Z" stroke="#000000" stroke-width="3.4375" fill="#FFFFFF"/><path d="M1177.94 1207.44 1158.69 1125.63C1158 1122.88 1156.63 1120.13 1154.56 1118.06 1146.31 1111.19 1136.69 1106.38 1125.69 1102.94 1118.13 1101.56 1110.56 1100.19 1103 1100.19 1095.44 1100.19 1087.88 1101.56 1080.31 1103.63 1069.31 1106.38 1059.69 1111.88 1051.44 1118.75 1049.38 1120.81 1048 1123.56 1047.31 1126.31L1028.06 1208.13C1028.06 1208.81 1027.38 1210.19 1027.38 1211.56 1027.38 1219.13 1033.56 1225.31 1041.13 1225.31 1047.31 1225.31 1052.81 1220.5 1054.19 1215L1068.63 1155.19 1068.63 1347.69 1096.13 1347.69 1096.13 1223.94 1109.88 1223.94 1109.88 1347.69 1137.38 1347.69 1137.38 1154.5 1151.81 1214.31C1153.19 1219.81 1158.69 1224.63 1164.88 1224.63 1172.44 1224.63 1178.63 1218.44 1178.63 1210.88 1178.63 1209.5 1177.94 1208.13 1177.94 1207.44Z" stroke="#000000" stroke-width="3.4375" fill="#FFFFFF"/></g></g></g><path d="M920.654 876.792 943.961 864.667 967.598 852.846 991.621 841.783 1003.97 836.606 1016.42 831.796 1029.06 827.381 1041.92 823.416 1054.99 819.961 1068.31 817.071 1081.88 814.804 1095.71 813.22 1109.8 812.374 1124.17 812.323 1138.77 813.099 1153.54 814.659 1168.46 816.94 1183.53 819.884 1198.74 823.434 1214.07 827.534 1229.5 832.132 1245.04 837.174 1260.67 842.608 1276.47 848.417 1307.61 860.909 1297.37 886.432 1266.41 874.015 1266.79 874.158 1251.29 868.46 1251.52 868.543 1236.15 863.196 1236.42 863.287 1221.18 858.341 1221.5 858.44 1206.4 853.945 1206.77 854.05 1191.84 850.056 1192.27 850.163 1177.53 846.721 1178.02 846.826 1163.47 843.984 1164.03 844.081 1149.7 841.892 1150.33 841.973 1136.23 840.485 1136.95 840.542 1123.1 839.805 1123.88 839.824 1110.29 839.873 1111.06 839.848 1097.72 840.648 1098.47 840.584 1085.36 842.085 1086.06 841.987 1073.17 844.14 1073.82 844.015 1061.13 846.77 1061.72 846.626 1049.21 849.932 1049.75 849.778 1037.41 853.585 1037.89 853.427 1025.7 857.685 1026.12 857.53 1014.06 862.188 1014.42 862.042 1002.48 867.052 1002.91 866.861 979.302 877.732 979.701 877.541 956.359 889.214 956.555 889.114 933.346 901.188ZM1305.59 830.299 1366 900 1273.99 906.51Z" fill="#C00000"/><path d="M1366.28 958.094 1342.97 970.055 1319.34 981.715 1295.32 992.627 1282.97 997.733 1270.52 1002.48 1257.88 1006.83 1245.04 1010.74 1231.97 1014.15 1218.66 1017 1205.1 1019.23 1191.28 1020.79 1177.19 1021.63 1162.83 1021.68 1148.25 1020.91 1133.49 1019.38 1118.57 1017.13 1103.5 1014.22 1088.3 1010.72 1072.98 1006.68 1057.55 1002.14 1042.01 997.171 1026.38 991.811 1010.59 986.081 979.575 973.808 989.694 948.237 1020.53 960.438 1020.16 960.298 1035.65 965.918 1035.42 965.838 1050.8 971.113 1050.53 971.023 1065.77 975.902 1065.46 975.805 1080.55 980.24 1080.18 980.138 1095.11 984.077 1094.69 983.973 1109.43 987.369 1108.95 987.267 1123.5 990.07 1122.94 989.975 1137.27 992.135 1136.65 992.056 1150.75 993.524 1150.04 993.469 1163.89 994.195 1163.12 994.177 1176.71 994.129 1175.95 994.153 1189.29 993.363 1188.56 993.426 1201.66 991.945 1200.97 992.041 1213.86 989.917 1213.22 990.038 1225.91 987.321 1225.32 987.461 1237.83 984.2 1237.3 984.351 1249.64 980.595 1249.16 980.75 1261.36 976.549 1260.94 976.701 1273 972.105 1272.64 972.248 1284.59 967.306 1284.16 967.493 1307.76 956.769 1307.37 956.956 1330.71 945.441 1330.51 945.539 1353.72 933.628ZM981.748 1004.41 921 935 1012.98 928.046Z" fill="#C00000"/><text fill="#FFFFFF" font-family="Calibri,Calibri_MSFontService,sans-serif" font-weight="400" font-size="83" transform="matrix(1 0 0 1 1155.06 608)">Walk child to school</text><text fill="#FFFFFF" font-family="Calibri,Calibri_MSFontService,sans-serif" font-weight="400" font-size="83" transform="matrix(1 0 0 1 629.041 1364)">Walk home</text></g></svg>