<svg width="2026" height="1292" xmlns="http://www.w3.org/2000/svg" xmlns:xlink="http://www.w3.org/1999/xlink" xml:space="preserve" overflow="hidden"><g transform="translate(-1981 -899)"><g><g><g><path d="M3211.56 1804.29C3211.19 1794.29 3206.55 1784.93 3198.82 1778.57 3188.05 1769.43 3173.29 1761.55 3152.66 1753.9 3159.89 1753.11 3166.99 1751.34 3173.75 1748.64 3173.75 1748.64 3165.97 1743.99 3161.16 1724.96 3158.1 1713 3169.8 1683.1 3169.9 1662.05 3169.9 1645.21 3165.11 1637.67 3156.07 1632.55 3150.86 1629.6 3138.84 1632.32 3138.84 1632.32 3138.84 1632.32 3132.64 1620.53 3111.84 1614.07 3094.75 1609.41 3076.52 1611.74 3061.14 1620.53 3048.28 1628.85 3042.09 1637.99 3041.78 1669.41 3041.51 1698.22 3045.47 1723.79 3043.64 1735.85 3042.79 1742.53 3040.25 1748.88 3036.25 1754.29 3042.55 1754.82 3048.88 1754.96 3055.2 1754.71 3035.69 1762.11 3021.57 1769.75 3011.17 1778.57 3003.42 1784.97 2998.78 1794.39 2998.44 1804.44L2998.44 1864.83 3001.5 1866.87C3018.34 1878.1 3062.32 1883.69 3105.97 1883.69 3150 1883.69 3193.69 1878 3208.81 1866.66L3211.56 1864.59ZM3154.86 1794.12C3158.66 1794.12 3161.74 1797.2 3161.74 1801 3161.74 1804.8 3158.66 1807.87 3154.86 1807.87 3151.06 1807.87 3147.99 1804.8 3147.99 1801 3147.99 1797.2 3151.06 1794.12 3154.86 1794.12ZM3063.75 1677.04C3065.43 1676.94 3067.09 1676.74 3068.74 1676.44 3080.28 1674.92 3091.53 1671.75 3102.17 1667.04 3114.12 1661.02 3120.97 1658.08 3130.89 1649.1 3132.2 1647.81 3134.3 1647.83 3135.59 1649.13 3136.08 1649.63 3136.4 1650.27 3136.5 1650.96 3137.3 1656.42 3139.35 1668.45 3142.08 1673.25 3143.32 1675.6 3144.71 1677.88 3146.25 1680.05L3146.25 1694.44C3146.25 1717.22 3127.78 1735.69 3105 1735.69 3082.22 1735.69 3063.75 1717.22 3063.75 1694.44ZM3131.88 1759.44C3123.16 1762.01 3114.1 1763.27 3105 1763.19 3095.89 1763.27 3086.83 1762.01 3078.09 1759.43 3082.07 1756.18 3084.38 1751.3 3084.38 1746.15L3084.38 1745.38C3097.6 1750.78 3112.42 1750.78 3125.64 1745.38L3125.64 1746.14C3125.62 1751.29 3127.92 1756.17 3131.89 1759.44ZM3197.81 1857.41C3167.7 1873.97 3045.19 1873.83 3012.22 1857.2L3012.22 1804.58C3012.47 1798.51 3015.34 1792.84 3020.09 1789.05 3029.66 1781.43 3040.32 1775.31 3051.72 1770.89L3051.72 1785.61C3038.18 1786.51 3027.67 1797.75 3027.66 1811.31 3027.66 1812.77 3028.29 1814.16 3029.38 1815.13L3029.38 1837.09C3029.39 1841.88 3032.69 1846.03 3037.35 1847.11 3039.09 1849.37 3042.32 1849.79 3044.58 1848.06 3046.84 1846.32 3047.26 1843.08 3045.52 1840.83 3043.79 1838.57 3040.55 1838.15 3038.29 1839.88 3038.22 1839.94 3038.14 1840 3038.07 1840.07 3036.96 1839.49 3036.26 1838.34 3036.25 1837.09L3036.25 1815.13C3037.34 1814.16 3037.97 1812.77 3037.97 1811.31 3037.97 1802.77 3044.89 1795.84 3053.44 1795.84L3056.88 1795.84C3065.42 1795.84 3072.34 1802.77 3072.34 1811.31 3072.35 1812.77 3072.97 1814.16 3074.06 1815.13L3074.06 1837.09C3074.05 1838.34 3073.35 1839.48 3072.25 1840.07 3070.09 1838.21 3066.84 1838.45 3064.98 1840.6 3063.11 1842.76 3063.35 1846.01 3065.51 1847.87 3067.67 1849.73 3070.92 1849.5 3072.78 1847.34 3072.85 1847.27 3072.91 1847.19 3072.97 1847.11 3077.63 1846.03 3080.93 1841.88 3080.94 1837.09L3080.94 1815.13C3082.03 1814.16 3082.65 1812.77 3082.66 1811.31 3082.64 1797.75 3072.12 1786.52 3058.59 1785.62L3058.59 1768.12C3059.55 1767.75 3060.48 1767.38 3061.47 1767 3071.57 1773.27 3087.44 1776.94 3105 1776.94 3122.56 1776.94 3138.43 1773.27 3148.51 1767 3149.52 1767.38 3150.44 1767.76 3151.42 1768.13L3151.42 1787.51C3151.42 1787.59 3151.46 1787.65 3151.46 1787.72 3144.1 1789.6 3139.66 1797.08 3141.53 1804.44 3143.41 1811.8 3150.89 1816.25 3158.25 1814.37 3165.61 1812.5 3170.05 1805.01 3168.18 1797.65 3166.94 1792.78 3163.13 1788.97 3158.25 1787.72 3158.25 1787.65 3158.29 1787.58 3158.29 1787.51L3158.29 1770.9C3169.69 1775.31 3180.36 1781.44 3189.92 1789.05 3194.64 1792.81 3197.52 1798.41 3197.81 1804.44Z" stroke="#000000" stroke-width="3.4375" fill="#FFFFFF"/><path d="M3158.3 1801C3158.3 1802.9 3156.76 1804.44 3154.86 1804.44 3152.96 1804.44 3151.42 1802.9 3151.42 1801 3151.42 1799.1 3152.96 1797.56 3154.86 1797.56 3156.76 1797.56 3158.3 1799.1 3158.3 1801Z" stroke="#000000" stroke-width="3.4375" fill="#FFFFFF"/></g></g></g><g><g><g><path d="M2523 1957.12C2523 1972.31 2510.69 1984.62 2495.5 1984.62 2480.31 1984.62 2468 1972.31 2468 1957.12 2468 1941.94 2480.31 1929.62 2495.5 1929.62 2510.69 1929.62 2523 1941.94 2523 1957.12Z" stroke="#000000" stroke-width="3.4375" fill="#FFFFFF"/><path d="M2688 1957.12C2688 1972.31 2675.69 1984.62 2660.5 1984.62 2645.31 1984.62 2633 1972.31 2633 1957.12 2633 1941.94 2645.31 1929.62 2660.5 1929.62 2675.69 1929.62 2688 1941.94 2688 1957.12Z" stroke="#000000" stroke-width="3.4375" fill="#FFFFFF"/><path d="M2547.06 1888.37 2547.06 1847.12 2594.16 1847.12C2597.94 1847.12 2601.38 1848.5 2603.78 1851.25L2640.91 1888.37 2547.06 1888.37ZM2533.31 1888.37 2446.34 1888.37 2483.47 1851.25C2486.22 1848.5 2489.66 1847.12 2493.09 1847.12L2533.31 1847.12 2533.31 1888.37ZM2694.88 1888.37 2666.34 1888.37C2662.56 1888.37 2659.13 1887 2656.72 1884.25L2613.41 1841.28C2608.25 1836.12 2601.38 1833.37 2593.81 1833.37L2493.09 1833.37C2485.88 1833.37 2478.66 1836.12 2473.5 1841.28L2430.88 1884.25C2428.13 1887 2426.75 1890.44 2426.75 1894.22L2426.75 1929.62C2426.75 1944.75 2439.13 1957.12 2454.25 1957.12L2457.69 1957.12C2457.69 1936.16 2474.53 1919.31 2495.5 1919.31 2516.47 1919.31 2533.31 1936.16 2533.31 1957.12L2622.69 1957.12C2622.69 1936.16 2639.53 1919.31 2660.5 1919.31 2681.47 1919.31 2698.31 1936.16 2698.31 1957.12L2715.5 1957.12C2723.06 1957.12 2729.25 1950.94 2729.25 1943.37L2729.25 1922.75C2729.25 1903.84 2713.78 1888.37 2694.88 1888.37Z" stroke="#000000" stroke-width="3.4375" fill="#FFFFFF"/></g></g></g><g><g><g><path d="M3900.44 1338.69 3879.81 1338.69 3879.81 1318.06 3900.44 1318.06 3900.44 1338.69ZM3900.44 1393.69 3879.81 1393.69 3879.81 1373.06 3900.44 1373.06 3900.44 1393.69ZM3900.44 1448.69 3879.81 1448.69 3879.81 1428.06 3900.44 1428.06 3900.44 1448.69ZM3900.44 1503.69 3879.81 1503.69 3879.81 1483.06 3900.44 1483.06 3900.44 1503.69ZM3852.31 1338.69 3831.69 1338.69 3831.69 1318.06 3852.31 1318.06 3852.31 1338.69ZM3852.31 1393.69 3831.69 1393.69 3831.69 1373.06 3852.31 1373.06 3852.31 1393.69ZM3852.31 1448.69 3831.69 1448.69 3831.69 1428.06 3852.31 1428.06 3852.31 1448.69ZM3852.31 1524.31 3831.69 1524.31 3831.69 1483.06 3852.31 1483.06 3852.31 1524.31ZM3804.19 1338.69 3783.56 1338.69 3783.56 1318.06 3804.19 1318.06 3804.19 1338.69ZM3804.19 1393.69 3783.56 1393.69 3783.56 1373.06 3804.19 1373.06 3804.19 1393.69ZM3804.19 1448.69 3783.56 1448.69 3783.56 1428.06 3804.19 1428.06 3804.19 1448.69ZM3804.19 1503.69 3783.56 1503.69 3783.56 1483.06 3804.19 1483.06 3804.19 1503.69ZM3924.5 1524.31 3924.5 1294 3914.19 1294 3914.19 1273.37 3903.88 1273.37 3903.88 1259.62 3780.12 1259.62 3780.12 1273.37 3769.81 1273.37 3769.81 1294 3759.5 1294 3759.5 1524.31 3745.75 1524.31 3745.75 1548.37 3938.25 1548.37 3938.25 1524.31 3924.5 1524.31Z" stroke="#000000" stroke-width="3.4375" fill="#FFFFFF"/></g></g></g><g><g><g><path d="M2526 1364.12C2526 1379.31 2513.69 1391.62 2498.5 1391.62 2483.31 1391.62 2471 1379.31 2471 1364.12 2471 1348.94 2483.31 1336.62 2498.5 1336.62 2513.69 1336.62 2526 1348.94 2526 1364.12Z" stroke="#000000" stroke-width="3.4375" fill="#FFFFFF"/><path d="M2691 1364.12C2691 1379.31 2678.69 1391.62 2663.5 1391.62 2648.31 1391.62 2636 1379.31 2636 1364.12 2636 1348.94 2648.31 1336.62 2663.5 1336.62 2678.69 1336.62 2691 1348.94 2691 1364.12Z" stroke="#000000" stroke-width="3.4375" fill="#FFFFFF"/><path d="M2550.06 1295.37 2550.06 1254.12 2597.16 1254.12C2600.94 1254.12 2604.37 1255.5 2606.78 1258.25L2643.91 1295.37 2550.06 1295.37ZM2536.31 1295.37 2449.34 1295.37 2486.47 1258.25C2489.22 1255.5 2492.66 1254.12 2496.09 1254.12L2536.31 1254.12 2536.31 1295.37ZM2697.87 1295.37 2669.34 1295.37C2665.56 1295.37 2662.12 1294 2659.72 1291.25L2616.41 1248.28C2611.25 1243.12 2604.37 1240.37 2596.81 1240.37L2496.09 1240.37C2488.87 1240.37 2481.66 1243.12 2476.5 1248.28L2433.87 1291.25C2431.12 1294 2429.75 1297.44 2429.75 1301.22L2429.75 1336.62C2429.75 1351.75 2442.12 1364.12 2457.25 1364.12L2460.69 1364.12C2460.69 1343.16 2477.53 1326.31 2498.5 1326.31 2519.47 1326.31 2536.31 1343.16 2536.31 1364.12L2625.69 1364.12C2625.69 1343.16 2642.53 1326.31 2663.5 1326.31 2684.47 1326.31 2701.31 1343.16 2701.31 1364.12L2718.5 1364.12C2726.06 1364.12 2732.25 1357.94 2732.25 1350.37L2732.25 1329.75C2732.25 1310.84 2716.78 1295.37 2697.87 1295.37Z" stroke="#000000" stroke-width="3.4375" fill="#FFFFFF"/></g></g></g><g><g><g><path d="M2197.56 1498.53 2135.69 1439.61 2135.69 1439.61 2011.94 1557.34 2025.31 1568.75 2135.69 1463.91 2135.69 1463.91 2193.13 1518.5C2194.17 1511.75 2195.66 1505.08 2197.56 1498.53Z" stroke="#000000" stroke-width="3.4375" fill="#FFFFFF"/><path d="M2252.56 1648.81 2252.56 1579.41C2273.19 1575.7 2288.66 1555.69 2288.66 1527.19 2288.66 1495.57 2256 1430.19 2245.69 1430.19 2235.38 1430.19 2202.72 1495.5 2202.72 1527.19 2202.72 1555.69 2218.36 1575.7 2238.81 1579.41L2238.81 1648.81 2225.06 1648.81 2225.06 1585.77C2206.84 1577.21 2194.12 1557.38 2192.61 1532.63L2135.69 1480.38 2046.31 1562.43 2046.31 1648.81 2025.69 1648.81 2025.69 1643.69 2031.5 1643.69C2033.9 1643.67 2035.95 1641.96 2036.41 1639.6L2036.41 1639.6C2037.4 1635.25 2039.53 1631.25 2042.6 1628.02 2043.03 1627.61 2043.05 1626.94 2042.65 1626.51 2042.36 1626.21 2041.93 1626.1 2041.53 1626.23 2035.53 1627.63 2030.04 1630.69 2025.69 1635.06L2025.69 1625.44C2041.02 1622.89 2032.56 1602.92 2032.56 1602.92 2032.27 1602.41 2031.62 1602.23 2031.11 1602.52 2030.94 1602.61 2030.8 1602.75 2030.71 1602.92L2027.03 1609.18 2023.35 1602.92C2023.15 1602.58 2022.78 1602.38 2022.39 1602.37 2022.01 1602.39 2021.66 1602.59 2021.46 1602.92L2017.78 1609.18 2013.97 1602.92C2013.66 1602.4 2012.98 1602.23 2012.46 1602.54 2012.3 1602.63 2012.17 1602.76 2012.07 1602.92 2012.07 1602.92 2003.52 1622.86 2018.95 1625.44L2018.95 1634.86C2014.59 1630.57 2009.13 1627.58 2003.17 1626.19 2002.61 1626.01 2002.01 1626.31 2001.83 1626.87 2001.69 1627.26 2001.8 1627.7 2002.11 1627.98 2005.18 1631.21 2007.32 1635.21 2008.29 1639.57L2008.29 1639.57C2008.75 1641.92 2010.81 1643.64 2013.21 1643.66L2018.81 1643.66 2018.81 1648.81 1991.31 1648.81 1991.31 1669.44 2297.25 1669.44 2297.25 1648.81ZM2101.31 1611 2066.94 1611 2066.94 1576.63 2101.31 1576.63ZM2152.88 1648.81 2118.5 1648.81 2118.5 1576.63 2152.88 1576.63ZM2204.44 1611 2170.06 1611 2170.06 1576.63 2204.44 1576.63Z" stroke="#000000" stroke-width="3.4375" fill="#FFFFFF"/></g></g></g><g><g><g><path d="M3105 1241.94 3154.5 1291.78 3164.12 1282.16 3105 1225.44 3044.5 1283.19 3054.12 1292.81Z" stroke="#000000" stroke-width="3.4375" fill="#FFFFFF"/><path d="M3215 1366.03 3187.5 1366.03 3187.5 1338.53 3215 1338.53 3215 1366.03ZM3215 1407.28 3187.5 1407.28 3187.5 1379.78 3215 1379.78 3215 1407.28ZM3173.75 1366.03 3146.25 1366.03 3146.25 1338.53 3173.75 1338.53 3173.75 1366.03ZM3173.75 1407.28 3146.25 1407.28 3146.25 1379.78 3173.75 1379.78 3173.75 1407.28ZM3129.06 1366.03 3080.94 1366.03 3080.94 1352.28 3129.06 1352.28 3129.06 1366.03ZM3105 1300.72C3110.84 1300.72 3115.31 1305.19 3115.31 1311.03 3115.31 1316.88 3110.84 1321.34 3105 1321.34 3099.16 1321.34 3094.69 1316.88 3094.69 1311.03 3094.69 1305.19 3099.16 1300.72 3105 1300.72ZM3063.75 1366.03 3036.25 1366.03 3036.25 1338.53 3063.75 1338.53 3063.75 1366.03ZM3063.75 1407.28 3036.25 1407.28 3036.25 1379.78 3063.75 1379.78 3063.75 1407.28ZM3022.5 1366.03 2995 1366.03 2995 1338.53 3022.5 1338.53 3022.5 1366.03ZM3022.5 1407.28 2995 1407.28 2995 1379.78 3022.5 1379.78 3022.5 1407.28ZM3146.25 1321.34 3146.25 1300.72 3105 1259.47 3063.75 1300.72 3063.75 1321.34 2981.25 1321.34 2981.25 1438.22 3080.94 1438.22 3080.94 1400.41C3080.94 1390.78 3087.81 1379.78 3105 1379.78 3122.19 1379.78 3129.06 1390.78 3129.06 1400.41L3129.06 1438.22 3228.75 1438.22 3228.75 1321.34 3146.25 1321.34Z" stroke="#000000" stroke-width="3.4375" fill="#FFFFFF"/></g></g></g><g><g><g><path d="M3566 1975.13C3566 1990.31 3553.69 2002.63 3538.5 2002.63 3523.31 2002.63 3511 1990.31 3511 1975.13 3511 1959.94 3523.31 1947.63 3538.5 1947.63 3553.69 1947.63 3566 1959.94 3566 1975.13Z" stroke="#000000" stroke-width="3.4375" fill="#FFFFFF"/><path d="M3731 1975.13C3731 1990.31 3718.69 2002.63 3703.5 2002.63 3688.31 2002.63 3676 1990.31 3676 1975.13 3676 1959.94 3688.31 1947.63 3703.5 1947.63 3718.69 1947.63 3731 1959.94 3731 1975.13Z" stroke="#000000" stroke-width="3.4375" fill="#FFFFFF"/><path d="M3590.06 1906.38 3590.06 1865.13 3637.16 1865.13C3640.94 1865.13 3644.38 1866.5 3646.78 1869.25L3683.91 1906.38 3590.06 1906.38ZM3576.31 1906.38 3489.34 1906.38 3526.47 1869.25C3529.22 1866.5 3532.66 1865.13 3536.09 1865.13L3576.31 1865.13 3576.31 1906.38ZM3737.88 1906.38 3709.34 1906.38C3705.56 1906.38 3702.12 1905 3699.72 1902.25L3656.41 1859.28C3651.25 1854.13 3644.38 1851.38 3636.81 1851.38L3536.09 1851.38C3528.88 1851.38 3521.66 1854.13 3516.5 1859.28L3473.88 1902.25C3471.12 1905 3469.75 1908.44 3469.75 1912.22L3469.75 1947.63C3469.75 1962.75 3482.12 1975.13 3497.25 1975.13L3500.69 1975.13C3500.69 1954.16 3517.53 1937.31 3538.5 1937.31 3559.47 1937.31 3576.31 1954.16 3576.31 1975.13L3665.69 1975.13C3665.69 1954.16 3682.53 1937.31 3703.5 1937.31 3724.47 1937.31 3741.31 1954.16 3741.31 1975.13L3758.5 1975.13C3766.06 1975.13 3772.25 1968.94 3772.25 1961.38L3772.25 1940.75C3772.25 1921.84 3756.78 1906.38 3737.88 1906.38Z" stroke="#000000" stroke-width="3.4375" fill="#FFFFFF"/></g></g></g><g><g><g><path d="M3457 1165.12C3457 1180.31 3444.69 1192.62 3429.5 1192.62 3414.31 1192.62 3402 1180.31 3402 1165.12 3402 1149.94 3414.31 1137.62 3429.5 1137.62 3444.69 1137.62 3457 1149.94 3457 1165.12Z" stroke="#000000" stroke-width="3.4375" fill="#FFFFFF"/><path d="M3622 1165.12C3622 1180.31 3609.69 1192.62 3594.5 1192.62 3579.31 1192.62 3567 1180.31 3567 1165.12 3567 1149.94 3579.31 1137.62 3594.5 1137.62 3609.69 1137.62 3622 1149.94 3622 1165.12Z" stroke="#000000" stroke-width="3.4375" fill="#FFFFFF"/><path d="M3481.06 1096.37 3481.06 1055.12 3528.16 1055.12C3531.94 1055.12 3535.38 1056.5 3537.78 1059.25L3574.91 1096.37 3481.06 1096.37ZM3467.31 1096.37 3380.34 1096.37 3417.47 1059.25C3420.22 1056.5 3423.66 1055.12 3427.09 1055.12L3467.31 1055.12 3467.31 1096.37ZM3628.88 1096.37 3600.34 1096.37C3596.56 1096.37 3593.12 1095 3590.72 1092.25L3547.41 1049.28C3542.25 1044.12 3535.38 1041.37 3527.81 1041.37L3427.09 1041.37C3419.88 1041.37 3412.66 1044.12 3407.5 1049.28L3364.88 1092.25C3362.12 1095 3360.75 1098.44 3360.75 1102.22L3360.75 1137.62C3360.75 1152.75 3373.12 1165.12 3388.25 1165.12L3391.69 1165.12C3391.69 1144.16 3408.53 1127.31 3429.5 1127.31 3450.47 1127.31 3467.31 1144.16 3467.31 1165.12L3556.69 1165.12C3556.69 1144.16 3573.53 1127.31 3594.5 1127.31 3615.47 1127.31 3632.31 1144.16 3632.31 1165.12L3649.5 1165.12C3657.06 1165.12 3663.25 1158.94 3663.25 1151.37L3663.25 1130.75C3663.25 1111.84 3647.78 1096.37 3628.88 1096.37Z" stroke="#000000" stroke-width="3.4375" fill="#FFFFFF"/></g></g></g><text fill="#FFFFFF" font-family="Calibri,Calibri_MSFontService,sans-serif" font-weight="400" font-size="83" transform="matrix(1 0 0 1 2087.33 1178)">Drive child to school</text><text fill="#FFFFFF" font-family="Calibri,Calibri_MSFontService,sans-serif" font-weight="400" font-size="83" transform="matrix(1 0 0 1 3226.02 1001)">Drive to work</text><text fill="#FFFFFF" font-family="Calibri,Calibri_MSFontService,sans-serif" font-weight="400" font-size="83" transform="matrix(1 0 0 1 3422.7 2119)">Drive to doctor</text><text fill="#FFFFFF" font-family="Calibri,Calibri_MSFontService,sans-serif" font-weight="400" font-size="83" transform="matrix(1 0 0 1 2344.45 2101)">Drive to home</text><path d="M2356.89 1601.97 2382.18 1578.19 2407.92 1554.6 2434.39 1531.53 2448.1 1520.22 2462.08 1509.17 2476.43 1498.41 2491.18 1487.96 2506.38 1477.87 2522.06 1468.18 2538.26 1458.92 2555.02 1450.16 2572.39 1441.91 2590.39 1434.23 2609.01 1427.16 2628.21 1420.67 2647.94 1414.73 2668.16 1409.29 2688.83 1404.31 2709.9 1399.75 2731.36 1395.57 2753.14 1391.74 2775.22 1388.2 2797.59 1384.93 2842.85 1379.04 2866.34 1376.39 2869.43 1403.71 2846.05 1406.36 2846.28 1406.33 2801.25 1412.19 2801.46 1412.16 2779.29 1415.4 2779.48 1415.37 2757.59 1418.87 2757.8 1418.84 2736.25 1422.63 2736.49 1422.59 2715.3 1426.72 2715.58 1426.66 2694.8 1431.15 2695.11 1431.08 2674.78 1435.98 2675.13 1435.89 2655.29 1441.23 2655.68 1441.12 2636.37 1446.94 2636.8 1446.8 2618.06 1453.13 2618.54 1452.96 2600.41 1459.84 2600.92 1459.64 2583.44 1467.1 2583.94 1466.87 2567.06 1474.88 2567.53 1474.65 2551.23 1483.18 2551.67 1482.93 2535.9 1491.94 2536.31 1491.69 2521.02 1501.14 2521.4 1500.9 2506.57 1510.75 2506.91 1510.52 2492.48 1520.74 2492.78 1520.52 2478.72 1531.07 2478.99 1530.86 2465.26 1541.71 2465.49 1541.52 2452.04 1552.62 2452.32 1552.39 2426.12 1575.22 2426.37 1574.99 2400.82 1598.41 2400.95 1598.29 2375.73 1622ZM2849.65 1350.58 2936.21 1382.44 2858.78 1432.57Z" fill="#C00000"/><path d="M3271.86 1364.32 3296.96 1356.62 3322.34 1349.28 3347.97 1342.75 3361.04 1339.89 3374.16 1337.41 3387.39 1335.35 3400.75 1333.77 3414.24 1332.72 3427.87 1332.27 3441.63 1332.48 3455.53 1333.4 3469.56 1335.09 3483.71 1337.6 3497.95 1340.96 3512.22 1345.12 3526.51 1350.01 3540.83 1355.58 3555.18 1361.76 3569.55 1368.5 3583.94 1375.75 3598.36 1383.45 3612.79 1391.55 3627.32 1400.05 3655.79 1417.82 3641.23 1441.15 3612.92 1423.48 3613.26 1423.69 3599.01 1415.35 3599.22 1415.48 3585.02 1407.5 3585.27 1407.64 3571.13 1400.08 3571.42 1400.24 3557.35 1393.15 3557.7 1393.32 3543.7 1386.75 3544.1 1386.93 3530.18 1380.93 3530.64 1381.12 3516.81 1375.75 3517.34 1375.94 3503.61 1371.24 3504.22 1371.43 3490.59 1367.46 3491.28 1367.64 3477.77 1364.45 3478.53 1364.61 3465.13 1362.23 3465.89 1362.34 3452.61 1360.75 3453.35 1360.81 3440.17 1359.94 3440.87 1359.97 3427.79 1359.78 3428.45 1359.77 3415.46 1360.2 3416.06 1360.17 3403.16 1361.17 3403.71 1361.11 3390.88 1362.63 3391.37 1362.56 3378.61 1364.55 3379.05 1364.47 3366.34 1366.88 3366.72 1366.8 3354.07 1369.57 3354.53 1369.46 3329.35 1375.87 3329.77 1375.76 3304.71 1383.01 3304.92 1382.94 3279.92 1390.61ZM3659.17 1387.33 3706.4 1466.56 3614.68 1456.81Z" fill="#C00000"/><path d="M3703.59 1585.92 3689.03 1607.77 3674.03 1629.51 3658.33 1650.79 3650.02 1661.28 3641.43 1671.5 3632.49 1681.48 3623.15 1691.16 3613.37 1700.51 3603.1 1709.48 3592.32 1718.03 3580.98 1726.12 3569.05 1733.69 3556.5 1740.71 3543.36 1747.12 3529.68 1752.93 3515.51 1758.19 3500.9 1762.95 3485.88 1767.24 3470.49 1771.12 3454.76 1774.62 3438.73 1777.78 3422.43 1780.65 3405.8 1783.27 3372.51 1787.53 3369.02 1760.25 3402.11 1756.01 3401.72 1756.07 3418.03 1753.5 3417.79 1753.54 3433.83 1750.72 3433.55 1750.77 3449.28 1747.67 3448.95 1747.74 3464.33 1744.32 3463.96 1744.41 3478.96 1740.63 3478.53 1740.74 3493.1 1736.58 3492.63 1736.72 3506.73 1732.13 3506.2 1732.32 3519.8 1727.26 3519.21 1727.5 3532.27 1721.95 3531.63 1722.24 3544.11 1716.16 3543.42 1716.52 3555.3 1709.88 3554.64 1710.27 3565.93 1703.1 3565.32 1703.51 3576.07 1695.84 3575.51 1696.27 3585.76 1688.14 3585.25 1688.56 3595.04 1680 3594.59 1680.42 3603.95 1671.47 3603.55 1671.86 3612.53 1662.56 3612.18 1662.93 3620.81 1653.31 3620.52 1653.65 3628.83 1643.74 3628.58 1644.05 3636.63 1633.89 3636.34 1634.27 3651.77 1613.36 3651.52 1613.72 3666.33 1592.24 3666.21 1592.42 3680.71 1570.66ZM3389.19 1813.27 3302.47 1781.84 3379.65 1731.33Z" fill="#C00000"/><path d="M2969.42 1752.53 2937.9 1761.79 2906.06 1770.68 2873.85 1778.77 2857.44 1782.41 2840.92 1785.67 2824.21 1788.52 2807.31 1790.9 2790.2 1792.76 2772.85 1794.04 2755.27 1794.68 2737.44 1794.63 2719.34 1793.84 2700.97 1792.25 2682.35 1789.82 2663.53 1786.61 2644.52 1782.68 2625.34 1778.07 2606 1772.84 2586.52 1767.05 2566.9 1760.75 2547.16 1753.99 2527.32 1746.83 2507.35 1739.3 2467.3 1723.43 2450.26 1716.32 2460.85 1690.94 2477.78 1698.01 2477.55 1697.91 2517.37 1713.69 2517.16 1713.61 2536.93 1721.06 2536.74 1720.99 2556.39 1728.08 2556.18 1728.01 2575.68 1734.69 2575.43 1734.61 2594.78 1740.82 2594.5 1740.73 2613.67 1746.43 2613.35 1746.34 2632.33 1751.47 2631.96 1751.37 2650.74 1755.89 2650.32 1755.79 2668.87 1759.64 2668.39 1759.55 2686.71 1762.67 2686.17 1762.59 2704.22 1764.94 2703.64 1764.87 2721.42 1766.42 2720.84 1766.38 2738.36 1767.15 2737.8 1767.13 2755.08 1767.18 2754.54 1767.19 2771.6 1766.57 2771.09 1766.6 2787.94 1765.35 2787.46 1765.4 2804.12 1763.59 2803.69 1763.64 2820.18 1761.32 2819.78 1761.38 2836.11 1758.59 2835.76 1758.66 2851.95 1755.46 2851.64 1755.52 2867.72 1751.96 2867.34 1752.05 2899.19 1744.05 2898.84 1744.15 2930.41 1735.33 2930.24 1735.38 2961.67 1726.14ZM2452.31 1746.99 2392.14 1677.08 2484.17 1670.89Z" fill="#C00000"/></g></svg>