<svg width="128" height="128" xmlns="http://www.w3.org/2000/svg" xmlns:xlink="http://www.w3.org/1999/xlink" xml:space="preserve" overflow="hidden"><g transform="translate(-1133 -292)"><path d="M1229 338.4 1229 316 1218.33 316 1218.33 328.267 1197 308 1197 308 1141 361.333 1147 366.4 1197 318.933 1197 318.933 1247 366.4 1253 361.333Z"/><path d="M1157 364.4 1157 404 1189 404 1189 370.667 1205 370.667 1205 404 1237 404 1237 364.4 1197 326.4 1157 364.4ZM1181 386.667 1165 386.667 1165 370.667 1181 370.667 1181 386.667ZM1213 370.667 1229 370.667 1229 386.667 1213 386.667 1213 370.667Z"/></g></svg>