<svg width="128" height="128" xmlns="http://www.w3.org/2000/svg" xmlns:xlink="http://www.w3.org/1999/xlink" xml:space="preserve" overflow="hidden"><g transform="translate(-1090 -592)"><path d="M1152.8 618.267C1149.73 618.267 1147.2 620.8 1147.2 623.867 1147.2 626.933 1149.73 629.467 1152.8 629.467 1155.87 629.467 1158.4 626.933 1158.4 623.867 1158.4 620.8 1155.87 618.267 1152.8 618.267Z"/><path d="M1141.6 650.933C1141.6 654.026 1139.09 656.533 1136 656.533 1132.91 656.533 1130.4 654.026 1130.4 650.933 1130.4 647.841 1132.91 645.333 1136 645.333 1139.09 645.333 1141.6 647.841 1141.6 650.933Z"/><path d="M1168.67 625.733 1165.33 627.333C1165.07 628.4 1164.53 629.333 1164 630.267L1165.2 633.733 1162.53 636.4 1159.07 635.2C1158.13 635.733 1157.2 636.133 1156.13 636.4L1154.53 639.6 1150.8 639.6 1149.2 636.267C1148.13 636 1147.2 635.6 1146.27 635.067L1142.8 636.267 1140.13 633.6 1141.33 630.133C1140.8 629.2 1140.4 628.267 1140.13 627.2L1136.8 625.6 1136.8 621.867 1140.13 620.267C1140.4 619.2 1140.8 618.267 1141.33 617.333L1140.27 613.867 1142.93 611.2 1146.4 612.4C1147.33 611.867 1148.27 611.467 1149.33 611.2L1150.93 607.867 1154.67 607.867 1156.27 611.067C1157.33 611.333 1158.27 611.733 1159.2 612.267L1162.67 611.067 1165.33 613.733 1164.13 617.2C1164.67 618.133 1165.07 619.067 1165.33 620.133L1168.67 621.733 1168.67 625.733ZM1151.87 652.8 1148.53 654.4C1148.27 655.467 1147.87 656.4 1147.33 657.333L1148.4 660.8 1145.73 663.467 1142.27 662.267C1141.33 662.8 1140.4 663.2 1139.33 663.467L1137.87 666.667 1134.13 666.667 1132.53 663.333C1131.47 663.067 1130.53 662.667 1129.6 662.133L1126.13 663.2 1123.47 660.533 1124.67 657.067C1124.13 656.133 1123.73 655.2 1123.47 654.133L1120.13 652.533 1120.13 648.8 1123.47 647.2C1123.73 646.133 1124.13 645.2 1124.67 644.267L1123.47 640.8 1126.13 638.133 1129.6 639.333C1130.53 638.8 1131.47 638.4 1132.53 638.133L1134.13 634.8 1138 634.8 1139.6 638.133C1140.67 638.4 1141.6 638.8 1142.53 639.333L1146 638.133 1148.67 640.8 1147.47 644.267C1148 645.2 1148.4 646.133 1148.67 647.2L1152 648.8 1151.87 652.8 1151.87 652.8ZM1198 657.733 1188.8 641.733 1188.8 641.067C1189.33 626.4 1181.87 612.667 1169.2 605.067 1156.53 597.6 1140.93 597.6 1128.27 605.067 1115.6 612.533 1108.13 626.4 1108.67 641.067 1108.67 653.733 1114.4 665.6 1124.4 673.333L1124.4 707.067 1166.53 707.067 1166.53 691.067 1173.07 691.067C1177.33 691.067 1181.33 689.333 1184.27 686.4 1187.2 683.333 1188.8 679.333 1188.8 675.067L1188.8 667.067 1194.67 667.067C1198.13 666.667 1201.2 662.667 1198 657.733Z"/></g></svg>