<?xml version="1.0" encoding="UTF-8" standalone="no"?>
<!-- Created with Inkscape (http://www.inkscape.org/) -->

<svg
   width="4.3000002in"
   height="1in"
   viewBox="0 0 109.22001 25.399999"
   version="1.1"
   id="svg1"
   inkscape:version="1.4 (86a8ad7, 2024-10-11)"
   sodipodi:docname="simultaneous_logit1.svg"
   inkscape:export-filename="binary_multi_choice1.svg"
   inkscape:export-xdpi="300"
   inkscape:export-ydpi="300"
   xmlns:inkscape="http://www.inkscape.org/namespaces/inkscape"
   xmlns:sodipodi="http://sodipodi.sourceforge.net/DTD/sodipodi-0.dtd"
   xmlns="http://www.w3.org/2000/svg"
   xmlns:svg="http://www.w3.org/2000/svg">
  <sodipodi:namedview
     id="namedview1"
     pagecolor="#ffffff"
     bordercolor="#000000"
     borderopacity="0.25"
     inkscape:showpageshadow="2"
     inkscape:pageopacity="0.0"
     inkscape:pagecheckerboard="0"
     inkscape:deskcolor="#d1d1d1"
     inkscape:document-units="mm"
     inkscape:zoom="2.0334082"
     inkscape:cx="224.49993"
     inkscape:cy="113.84827"
     inkscape:window-width="1920"
     inkscape:window-height="1017"
     inkscape:window-x="-8"
     inkscape:window-y="-5"
     inkscape:window-maximized="1"
     inkscape:current-layer="text5" />
  <defs
     id="defs1">
    <rect
       x="-162.74449"
       y="-125.18807"
       width="963.94812"
       height="595.33881"
       id="rect5" />
    <g
       id="id-237aa2cc-9047-474b-85be-092b252c42b2-2">
      <g
         id="id-9b1d0606-b366-42dd-9336-ebca83651b23-4">
        <path
           d="M 4.859375,-2.765625 C 4.921875,-2.9375 4.9375,-3.078125 4.9375,-3.34375 c 0,-0.640625 -0.390625,-1.0625 -1.140625,-1.0625 -0.78125,0 -1.296875,0.515625 -1.546875,0.875 -0.046875,-0.578125 -0.46875,-0.875 -0.921875,-0.875 -0.453125,0 -0.640625,0.390625 -0.734375,0.5625 C 0.421875,-3.5 0.296875,-2.90625 0.296875,-2.875 c 0,0.109375 0.09375,0.109375 0.109375,0.109375 0.109375,0 0.109375,-0.015625 0.171875,-0.234375 0.171875,-0.703125 0.375,-1.1875 0.734375,-1.1875 0.15625,0 0.296875,0.078125 0.296875,0.453125 0,0.21875 -0.03125,0.328125 -0.15625,0.84375 L 0.875,-0.59375 c -0.03125,0.15625 -0.09375,0.390625 -0.09375,0.4375 0,0.171875 0.140625,0.265625 0.296875,0.265625 0.125,0 0.296875,-0.078125 0.375,-0.28125 0,-0.015625 0.125,-0.484375 0.1875,-0.734375 l 0.21875,-0.890625 C 1.90625,-2.03125 1.96875,-2.25 2.03125,-2.46875 2.046875,-2.53125 2.125,-2.859375 2.140625,-2.921875 2.15625,-3.015625 2.46875,-3.5625 2.8125,-3.84375 3.03125,-4 3.34375,-4.1875 3.765625,-4.1875 c 0.4375,0 0.546875,0.34375 0.546875,0.703125 0,0.046875 0,0.21875 -0.109375,0.625 l -1.125,4.578125 c -0.03125,0.125 -0.03125,0.140625 -0.03125,0.171875 0,0.140625 0.109375,0.265625 0.265625,0.265625 0.3125,0 0.390625,-0.296875 0.421875,-0.40625 z m 0,0"
           id="id-d6e86d4b-06b9-4baa-84d9-55cfc7d53292-5" />
      </g>
      <g
         id="id-1981db31-d913-4130-9e80-f43e0db4df01-5">
        <path
           d="m 2.328125,-4.4375 c 0,-0.1875 0,-0.1875 -0.203125,-0.1875 -0.453125,0.4375 -1.078125,0.4375 -1.359375,0.4375 v 0.25 c 0.15625,0 0.625,0 1,-0.1875 v 3.546875 c 0,0.234375 0,0.328125 -0.6875,0.328125 H 0.8125 V 0 c 0.125,0 0.984375,-0.03125 1.234375,-0.03125 0.21875,0 1.09375,0.03125 1.25,0.03125 V -0.25 H 3.03125 c -0.703125,0 -0.703125,-0.09375 -0.703125,-0.328125 z m 0,0"
           id="id-6aa62f4e-53b1-4ba5-846d-8a6c4e190cfd-1" />
      </g>
    </g>
    <g
       id="id-237aa2cc-9047-474b-85be-092b252c42b2-8">
      <g
         id="id-9b1d0606-b366-42dd-9336-ebca83651b23-5">
        <path
           d="M 4.859375,-2.765625 C 4.921875,-2.9375 4.9375,-3.078125 4.9375,-3.34375 c 0,-0.640625 -0.390625,-1.0625 -1.140625,-1.0625 -0.78125,0 -1.296875,0.515625 -1.546875,0.875 -0.046875,-0.578125 -0.46875,-0.875 -0.921875,-0.875 -0.453125,0 -0.640625,0.390625 -0.734375,0.5625 C 0.421875,-3.5 0.296875,-2.90625 0.296875,-2.875 c 0,0.109375 0.09375,0.109375 0.109375,0.109375 0.109375,0 0.109375,-0.015625 0.171875,-0.234375 0.171875,-0.703125 0.375,-1.1875 0.734375,-1.1875 0.15625,0 0.296875,0.078125 0.296875,0.453125 0,0.21875 -0.03125,0.328125 -0.15625,0.84375 L 0.875,-0.59375 c -0.03125,0.15625 -0.09375,0.390625 -0.09375,0.4375 0,0.171875 0.140625,0.265625 0.296875,0.265625 0.125,0 0.296875,-0.078125 0.375,-0.28125 0,-0.015625 0.125,-0.484375 0.1875,-0.734375 l 0.21875,-0.890625 C 1.90625,-2.03125 1.96875,-2.25 2.03125,-2.46875 2.046875,-2.53125 2.125,-2.859375 2.140625,-2.921875 2.15625,-3.015625 2.46875,-3.5625 2.8125,-3.84375 3.03125,-4 3.34375,-4.1875 3.765625,-4.1875 c 0.4375,0 0.546875,0.34375 0.546875,0.703125 0,0.046875 0,0.21875 -0.109375,0.625 l -1.125,4.578125 c -0.03125,0.125 -0.03125,0.140625 -0.03125,0.171875 0,0.140625 0.109375,0.265625 0.265625,0.265625 0.3125,0 0.390625,-0.296875 0.421875,-0.40625 z m 0,0"
           id="id-d6e86d4b-06b9-4baa-84d9-55cfc7d53292-7" />
      </g>
      <g
         id="id-1981db31-d913-4130-9e80-f43e0db4df01-6">
        <path
           d="m 2.328125,-4.4375 c 0,-0.1875 0,-0.1875 -0.203125,-0.1875 -0.453125,0.4375 -1.078125,0.4375 -1.359375,0.4375 v 0.25 c 0.15625,0 0.625,0 1,-0.1875 v 3.546875 c 0,0.234375 0,0.328125 -0.6875,0.328125 H 0.8125 V 0 c 0.125,0 0.984375,-0.03125 1.234375,-0.03125 0.21875,0 1.09375,0.03125 1.25,0.03125 V -0.25 H 3.03125 c -0.703125,0 -0.703125,-0.09375 -0.703125,-0.328125 z m 0,0"
           id="id-6aa62f4e-53b1-4ba5-846d-8a6c4e190cfd-18" />
      </g>
    </g>
    <g
       id="id-9557b879-9fde-4643-8c28-37327b418c35-2">
      <g
         id="id-3a52fd0f-35a8-4245-853b-63c4d683aa71-3">
        <path
           d="M 4.859375,-2.765625 C 4.921875,-2.9375 4.9375,-3.078125 4.9375,-3.34375 c 0,-0.640625 -0.390625,-1.0625 -1.140625,-1.0625 -0.78125,0 -1.296875,0.515625 -1.546875,0.875 -0.046875,-0.578125 -0.46875,-0.875 -0.921875,-0.875 -0.453125,0 -0.640625,0.390625 -0.734375,0.5625 C 0.421875,-3.5 0.296875,-2.90625 0.296875,-2.875 c 0,0.109375 0.09375,0.109375 0.109375,0.109375 0.109375,0 0.109375,-0.015625 0.171875,-0.234375 0.171875,-0.703125 0.375,-1.1875 0.734375,-1.1875 0.15625,0 0.296875,0.078125 0.296875,0.453125 0,0.21875 -0.03125,0.328125 -0.15625,0.84375 L 0.875,-0.59375 c -0.03125,0.15625 -0.09375,0.390625 -0.09375,0.4375 0,0.171875 0.140625,0.265625 0.296875,0.265625 0.125,0 0.296875,-0.078125 0.375,-0.28125 0,-0.015625 0.125,-0.484375 0.1875,-0.734375 l 0.21875,-0.890625 C 1.90625,-2.03125 1.96875,-2.25 2.03125,-2.46875 2.046875,-2.53125 2.125,-2.859375 2.140625,-2.921875 2.15625,-3.015625 2.46875,-3.5625 2.8125,-3.84375 3.03125,-4 3.34375,-4.1875 3.765625,-4.1875 c 0.4375,0 0.546875,0.34375 0.546875,0.703125 0,0.046875 0,0.21875 -0.109375,0.625 l -1.125,4.578125 c -0.03125,0.125 -0.03125,0.140625 -0.03125,0.171875 0,0.140625 0.109375,0.265625 0.265625,0.265625 0.3125,0 0.390625,-0.296875 0.421875,-0.40625 z m 0,0"
           id="id-262127ed-92fa-4bf9-9183-0168235a0238-3" />
      </g>
      <g
         id="id-008ebc28-9b35-452a-93be-611a93239981-4">
        <path
           d="M 3.515625,-1.265625 H 3.28125 c -0.015625,0.15625 -0.09375,0.5625 -0.1875,0.625 C 3.046875,-0.59375 2.515625,-0.59375 2.40625,-0.59375 H 1.125 c 0.734375,-0.640625 0.984375,-0.84375 1.390625,-1.171875 0.515625,-0.40625 1,-0.84375 1,-1.5 0,-0.84375 -0.734375,-1.359375 -1.625,-1.359375 -0.859375,0 -1.453125,0.609375 -1.453125,1.25 0,0.34375 0.296875,0.390625 0.375,0.390625 0.15625,0 0.359375,-0.125 0.359375,-0.375 0,-0.125 -0.046875,-0.375 -0.40625,-0.375 C 0.984375,-4.21875 1.453125,-4.375 1.78125,-4.375 c 0.703125,0 1.0625,0.546875 1.0625,1.109375 0,0.609375 -0.4375,1.078125 -0.65625,1.328125 L 0.515625,-0.265625 C 0.4375,-0.203125 0.4375,-0.1875 0.4375,0 h 2.875 z m 0,0"
           id="id-a9b6cb73-9461-4d14-881e-0ad9b6129ad3-1" />
      </g>
    </g>
    <g
       id="id-53e1abb1-8b7b-4c5d-b81d-e647bc64fd39">
      <g
         id="id-85b42c2f-b809-4276-a2f7-9cc488ede256">
        <path
           d="m 2.296875,-3.5 c 0.0625,-0.203125 0.15625,-0.59375 0.15625,-0.640625 0,-0.171875 -0.125,-0.265625 -0.296875,-0.265625 -0.015625,0 -0.296875,0.015625 -0.390625,0.359375 l -1.4375,5.765625 c -0.03125,0.125 -0.03125,0.140625 -0.03125,0.171875 0,0.140625 0.109375,0.265625 0.28125,0.265625 0.203125,0 0.328125,-0.1875 0.34375,-0.21875 C 0.96875,1.859375 1.09375,1.328125 1.46875,-0.203125 1.796875,0.0625 2.25,0.109375 2.4375,0.109375 c 0.703125,0 1.09375,-0.453125 1.328125,-0.734375 0.09375,0.453125 0.46875,0.734375 0.90625,0.734375 0.34375,0 0.578125,-0.234375 0.734375,-0.546875 0.171875,-0.359375 0.296875,-0.96875 0.296875,-0.984375 0,-0.109375 -0.09375,-0.109375 -0.125,-0.109375 -0.09375,0 -0.109375,0.046875 -0.140625,0.1875 -0.15625,0.640625 -0.34375,1.234375 -0.75,1.234375 -0.265625,0 -0.296875,-0.265625 -0.296875,-0.453125 0,-0.21875 0.109375,-0.6875 0.1875,-1.046875 L 4.859375,-2.6875 C 4.890625,-2.828125 5,-3.203125 5.03125,-3.359375 5.078125,-3.59375 5.1875,-3.96875 5.1875,-4.03125 c 0,-0.171875 -0.140625,-0.265625 -0.296875,-0.265625 -0.046875,0 -0.3125,0.015625 -0.390625,0.34375 l -0.46875,1.875 c -0.109375,0.5 -0.21875,0.90625 -0.25,1.015625 -0.015625,0.046875 -0.484375,0.953125 -1.296875,0.953125 -0.5,0 -0.734375,-0.328125 -0.734375,-0.875 0,-0.28125 0.0625,-0.5625 0.140625,-0.84375 z m 0,0"
           id="id-a738865e-125c-47eb-920b-fdfac7a38edf" />
      </g>
      <g
         id="id-23a113f8-a081-426b-9c61-aa8d019970d4">
        <path
           d="m 2.328125,-4.4375 c 0,-0.1875 0,-0.1875 -0.203125,-0.1875 -0.453125,0.4375 -1.078125,0.4375 -1.359375,0.4375 v 0.25 c 0.15625,0 0.625,0 1,-0.1875 v 3.546875 c 0,0.234375 0,0.328125 -0.6875,0.328125 H 0.8125 V 0 c 0.125,0 0.984375,-0.03125 1.234375,-0.03125 0.21875,0 1.09375,0.03125 1.25,0.03125 V -0.25 H 3.03125 c -0.703125,0 -0.703125,-0.09375 -0.703125,-0.328125 z m 0,0"
           id="id-290a0646-60d6-42ab-813e-f85fc7fe229a" />
      </g>
    </g>
    <g
       id="id-4077d690-7dc9-4a3d-8022-992769306c7f">
      <g
         id="id-b1be593c-198d-416f-8704-0d00607c63e8">
        <path
           d="m 2.296875,-3.5 c 0.0625,-0.203125 0.15625,-0.59375 0.15625,-0.640625 0,-0.171875 -0.125,-0.265625 -0.296875,-0.265625 -0.015625,0 -0.296875,0.015625 -0.390625,0.359375 l -1.4375,5.765625 c -0.03125,0.125 -0.03125,0.140625 -0.03125,0.171875 0,0.140625 0.109375,0.265625 0.28125,0.265625 0.203125,0 0.328125,-0.1875 0.34375,-0.21875 C 0.96875,1.859375 1.09375,1.328125 1.46875,-0.203125 1.796875,0.0625 2.25,0.109375 2.4375,0.109375 c 0.703125,0 1.09375,-0.453125 1.328125,-0.734375 0.09375,0.453125 0.46875,0.734375 0.90625,0.734375 0.34375,0 0.578125,-0.234375 0.734375,-0.546875 0.171875,-0.359375 0.296875,-0.96875 0.296875,-0.984375 0,-0.109375 -0.09375,-0.109375 -0.125,-0.109375 -0.09375,0 -0.109375,0.046875 -0.140625,0.1875 -0.15625,0.640625 -0.34375,1.234375 -0.75,1.234375 -0.265625,0 -0.296875,-0.265625 -0.296875,-0.453125 0,-0.21875 0.109375,-0.6875 0.1875,-1.046875 L 4.859375,-2.6875 C 4.890625,-2.828125 5,-3.203125 5.03125,-3.359375 5.078125,-3.59375 5.1875,-3.96875 5.1875,-4.03125 c 0,-0.171875 -0.140625,-0.265625 -0.296875,-0.265625 -0.046875,0 -0.3125,0.015625 -0.390625,0.34375 l -0.46875,1.875 c -0.109375,0.5 -0.21875,0.90625 -0.25,1.015625 -0.015625,0.046875 -0.484375,0.953125 -1.296875,0.953125 -0.5,0 -0.734375,-0.328125 -0.734375,-0.875 0,-0.28125 0.0625,-0.5625 0.140625,-0.84375 z m 0,0"
           id="id-35c0f069-87e4-4407-b88f-8ecb26466e53" />
      </g>
      <g
         id="id-f08bc2e0-8998-4f19-a435-bcdce39b4044">
        <path
           d="M 3.515625,-1.265625 H 3.28125 c -0.015625,0.15625 -0.09375,0.5625 -0.1875,0.625 C 3.046875,-0.59375 2.515625,-0.59375 2.40625,-0.59375 H 1.125 c 0.734375,-0.640625 0.984375,-0.84375 1.390625,-1.171875 0.515625,-0.40625 1,-0.84375 1,-1.5 0,-0.84375 -0.734375,-1.359375 -1.625,-1.359375 -0.859375,0 -1.453125,0.609375 -1.453125,1.25 0,0.34375 0.296875,0.390625 0.375,0.390625 0.15625,0 0.359375,-0.125 0.359375,-0.375 0,-0.125 -0.046875,-0.375 -0.40625,-0.375 C 0.984375,-4.21875 1.453125,-4.375 1.78125,-4.375 c 0.703125,0 1.0625,0.546875 1.0625,1.109375 0,0.609375 -0.4375,1.078125 -0.65625,1.328125 L 0.515625,-0.265625 C 0.4375,-0.203125 0.4375,-0.1875 0.4375,0 h 2.875 z m 0,0"
           id="id-a4f6a5f4-ebd8-4b09-992f-d821be5e40d8" />
      </g>
    </g>
    <g
       id="id-bab95e3a-1ab6-4e31-b0f7-5e7543a59d4c">
      <g
         id="id-d033603e-5614-4c27-9405-0b2fd9b97f1b">
        <path
           d="m 2.296875,-3.5 c 0.0625,-0.203125 0.15625,-0.59375 0.15625,-0.640625 0,-0.171875 -0.125,-0.265625 -0.296875,-0.265625 -0.015625,0 -0.296875,0.015625 -0.390625,0.359375 l -1.4375,5.765625 c -0.03125,0.125 -0.03125,0.140625 -0.03125,0.171875 0,0.140625 0.109375,0.265625 0.28125,0.265625 0.203125,0 0.328125,-0.1875 0.34375,-0.21875 C 0.96875,1.859375 1.09375,1.328125 1.46875,-0.203125 1.796875,0.0625 2.25,0.109375 2.4375,0.109375 c 0.703125,0 1.09375,-0.453125 1.328125,-0.734375 0.09375,0.453125 0.46875,0.734375 0.90625,0.734375 0.34375,0 0.578125,-0.234375 0.734375,-0.546875 0.171875,-0.359375 0.296875,-0.96875 0.296875,-0.984375 0,-0.109375 -0.09375,-0.109375 -0.125,-0.109375 -0.09375,0 -0.109375,0.046875 -0.140625,0.1875 -0.15625,0.640625 -0.34375,1.234375 -0.75,1.234375 -0.265625,0 -0.296875,-0.265625 -0.296875,-0.453125 0,-0.21875 0.109375,-0.6875 0.1875,-1.046875 L 4.859375,-2.6875 C 4.890625,-2.828125 5,-3.203125 5.03125,-3.359375 5.078125,-3.59375 5.1875,-3.96875 5.1875,-4.03125 c 0,-0.171875 -0.140625,-0.265625 -0.296875,-0.265625 -0.046875,0 -0.3125,0.015625 -0.390625,0.34375 l -0.46875,1.875 c -0.109375,0.5 -0.21875,0.90625 -0.25,1.015625 -0.015625,0.046875 -0.484375,0.953125 -1.296875,0.953125 -0.5,0 -0.734375,-0.328125 -0.734375,-0.875 0,-0.28125 0.0625,-0.5625 0.140625,-0.84375 z m 0,0"
           id="id-b6009300-3a39-4987-b1b8-5b8400a0e70a" />
      </g>
      <g
         id="id-53227421-c0c6-4583-a5d7-fae3cb6f9baa">
        <path
           d="M 6.734375,-2.265625 C 6.84375,-2.328125 6.921875,-2.375 6.921875,-2.5 c 0,-0.109375 -0.078125,-0.15625 -0.1875,-0.21875 L 1.203125,-5.3125 C 1.078125,-5.390625 1.0625,-5.390625 1.03125,-5.390625 c -0.109375,0 -0.203125,0.09375 -0.203125,0.203125 0,0.09375 0.046875,0.15625 0.1875,0.21875 L 6.25,-2.5 1.015625,-0.015625 c -0.140625,0.0625 -0.1875,0.125 -0.1875,0.21875 0,0.109375 0.09375,0.203125 0.203125,0.203125 0.03125,0 0.046875,0 0.171875,-0.078125 z m 0,0"
           id="id-0ba2fa40-b85e-4386-82f1-564d3b764367" />
      </g>
      <g
         id="id-0c84fb92-a27f-4ea1-bddf-020c8c7ef02e">
        <path
           d="m 2.328125,-4.4375 c 0,-0.1875 0,-0.1875 -0.203125,-0.1875 -0.453125,0.4375 -1.078125,0.4375 -1.359375,0.4375 v 0.25 c 0.15625,0 0.625,0 1,-0.1875 v 3.546875 c 0,0.234375 0,0.328125 -0.6875,0.328125 H 0.8125 V 0 c 0.125,0 0.984375,-0.03125 1.234375,-0.03125 0.21875,0 1.09375,0.03125 1.25,0.03125 V -0.25 H 3.03125 c -0.703125,0 -0.703125,-0.09375 -0.703125,-0.328125 z m 0,0"
           id="id-ec4684e2-0f29-438f-9abe-27283d66e68f" />
      </g>
      <g
         id="id-63d230cd-32ae-4f4b-b788-da64f470e6ed">
        <path
           d="M 3.515625,-1.265625 H 3.28125 c -0.015625,0.15625 -0.09375,0.5625 -0.1875,0.625 C 3.046875,-0.59375 2.515625,-0.59375 2.40625,-0.59375 H 1.125 c 0.734375,-0.640625 0.984375,-0.84375 1.390625,-1.171875 0.515625,-0.40625 1,-0.84375 1,-1.5 0,-0.84375 -0.734375,-1.359375 -1.625,-1.359375 -0.859375,0 -1.453125,0.609375 -1.453125,1.25 0,0.34375 0.296875,0.390625 0.375,0.390625 0.15625,0 0.359375,-0.125 0.359375,-0.375 0,-0.125 -0.046875,-0.375 -0.40625,-0.375 C 0.984375,-4.21875 1.453125,-4.375 1.78125,-4.375 c 0.703125,0 1.0625,0.546875 1.0625,1.109375 0,0.609375 -0.4375,1.078125 -0.65625,1.328125 L 0.515625,-0.265625 C 0.4375,-0.203125 0.4375,-0.1875 0.4375,0 h 2.875 z m 0,0"
           id="id-1a70475b-093e-4e3f-979f-4fd97915439e" />
      </g>
    </g>
  </defs>
  <g
     inkscape:label="Layer 1"
     inkscape:groupmode="layer"
     id="layer1">
    <text
       xml:space="preserve"
       style="font-size:4.9389px;line-height:1.25;font-family:Arial;-inkscape-font-specification:'Arial, Normal';font-variant-ligatures:none;text-align:center;text-anchor:middle;stroke-width:0.264583"
       x="59.98885"
       y="91.455391"
       id="text2"><tspan
         sodipodi:role="line"
         id="tspan2"
         style="stroke-width:0.264583"
         x="59.98885"
         y="91.455391" /></text>
    <text
       xml:space="preserve"
       style="font-size:4.9389px;line-height:1.25;font-family:Arial;-inkscape-font-specification:'Arial, Normal';font-variant-ligatures:none;text-align:center;text-anchor:middle;stroke-width:0.264583"
       x="104.70446"
       y="52.076206"
       id="text3"><tspan
         sodipodi:role="line"
         id="tspan3"
         style="stroke-width:0.264583"
         x="104.70446"
         y="52.076206" /></text>
    <text
       xml:space="preserve"
       style="font-size:4.9389px;line-height:1.25;font-family:Arial;-inkscape-font-specification:'Arial, Normal';font-variant-ligatures:none;text-align:center;text-anchor:middle;stroke-width:0.264583"
       x="164.10129"
       y="91.523033"
       id="text2-5"><tspan
         sodipodi:role="line"
         id="tspan2-1"
         style="stroke-width:0.264583"
         x="164.10129"
         y="91.523033" /></text>
    <text
       xml:space="preserve"
       style="font-size:4.9389px;line-height:1.25;font-family:Arial;-inkscape-font-specification:'Arial, Normal';font-variant-ligatures:none;text-align:center;text-anchor:middle;stroke-width:0.264583"
       x="208.81689"
       y="52.143848"
       id="text3-7"><tspan
         sodipodi:role="line"
         id="tspan3-1"
         style="stroke-width:0.264583"
         x="208.81689"
         y="52.143848" /></text>
    <text
       xml:space="preserve"
       style="font-size:6.35px;line-height:1.25;font-family:'Bookman Old Style';-inkscape-font-specification:'Bookman Old Style, Normal';font-variant-ligatures:none;text-align:center;white-space:pre-wrap;shape-inside:url(#rect11);display:inline;stroke-width:0.264583"
       x="20.558668"
       y="17.69607"
       id="text1"><tspan
         x="22.79679"
         y="6.5863524"
         id="tspan1">Simultaneous Model</tspan></text>
    <g
       id="text4"
       style="font-size:6.35px;line-height:1.25;font-family:'Bookman Old Style';-inkscape-font-specification:'Bookman Old Style, Normal';font-variant-ligatures:none;text-align:center;white-space:pre-wrap;stroke-width:0.264583"
       transform="translate(-0.1659589,0.49322773)"
       aria-label="mmdd">
      <path
         d="m 88.099314,19.447021 v -0.263549 q 0.232544,-0.0217 0.406177,-0.07441 0.173632,-0.05581 0.396874,-0.182934 h 0.229444 v 0.520898 q 0.353467,-0.279052 0.551904,-0.375171 0.303858,-0.145727 0.57981,-0.145727 0.189135,0 0.368969,0.07131 0.182935,0.06821 0.291455,0.170533 0.111622,0.102319 0.189136,0.279052 0.325562,-0.288354 0.601514,-0.403076 0.279053,-0.117822 0.564307,-0.117822 0.272851,0 0.48059,0.114722 0.21084,0.111621 0.303858,0.282153 0.09612,0.170532 0.09612,0.499194 v 1.438672 q 0,0.226343 0.0093,0.26355 0.0155,0.05891 0.06511,0.111621 0.05271,0.05271 0.117822,0.07441 0.06511,0.0217 0.241846,0.0217 h 0.09922 v 0.260449 h -1.559595 v -0.260449 q 0.26665,-0.0031 0.344165,-0.03721 0.08062,-0.03721 0.117822,-0.117822 0.04031,-0.08062 0.04031,-0.31626 v -1.367358 q 0,-0.26045 -0.04651,-0.359668 -0.04651,-0.09922 -0.167432,-0.164331 -0.117822,-0.06821 -0.294555,-0.06821 -0.220142,0 -0.461987,0.117822 -0.322461,0.161231 -0.508497,0.362769 v 1.478979 q 0,0.213941 0.0186,0.282153 0.0217,0.06511 0.06821,0.111621 0.04961,0.04341 0.111621,0.06201 0.06511,0.0155 0.310059,0.0155 v 0.260449 h -1.528589 v -0.260449 h 0.08682 q 0.182935,0 0.257349,-0.04341 0.07751,-0.04341 0.120923,-0.133325 0.031,-0.07131 0.031,-0.294556 v -1.32085 q 0,-0.291455 -0.04651,-0.393774 -0.04341,-0.102319 -0.170533,-0.173633 -0.127124,-0.07131 -0.297656,-0.07131 -0.201538,0 -0.406177,0.09922 -0.303857,0.145727 -0.558105,0.381372 v 1.593701 q 0,0.142627 0.03721,0.21084 0.04031,0.06511 0.124023,0.10542 0.08372,0.04031 0.229444,0.04031 h 0.114721 v 0.260449 h -1.559594 v -0.260449 h 0.08372 q 0.21394,0 0.282153,-0.03411 0.09922,-0.04651 0.142627,-0.148828 0.02481,-0.05581 0.02481,-0.288355 v -1.813843 z"
         id="path5" />
      <path
         style="font-size:65%;baseline-shift:sub"
         d="m 93.989807,21.607975 v -0.171308 q 0.151153,-0.01411 0.264015,-0.04837 0.112861,-0.03628 0.257968,-0.118907 h 0.149139 v 0.338584 q 0.229753,-0.181384 0.358737,-0.243861 0.197508,-0.09472 0.376877,-0.09472 0.122938,0 0.23983,0.04635 0.118907,0.04434 0.189446,0.110846 0.07255,0.06651 0.122938,0.181384 0.211615,-0.187431 0.390984,-0.262 0.181384,-0.07658 0.366799,-0.07658 0.177354,0 0.312384,0.07457 0.137046,0.07255 0.197507,0.1834 0.06248,0.110846 0.06248,0.324476 v 0.935136 q 0,0.147123 0.006,0.171308 0.01008,0.03829 0.04232,0.07255 0.03426,0.03426 0.07659,0.04837 0.04232,0.01411 0.157199,0.01411 h 0.06449 v 0.169292 H 96.611817 V 23.09331 q 0.173323,-0.002 0.223707,-0.02418 0.0524,-0.02418 0.07658,-0.07659 0.0262,-0.0524 0.0262,-0.205569 V 21.89819 q 0,-0.169292 -0.03023,-0.233785 -0.03023,-0.06449 -0.10883,-0.106815 -0.07659,-0.04434 -0.191462,-0.04434 -0.143092,0 -0.300291,0.07658 -0.2096,0.1048 -0.330523,0.2358 v 0.961336 q 0,0.139062 0.01209,0.1834 0.01411,0.04232 0.04434,0.07255 0.03225,0.02821 0.07255,0.04031 0.04232,0.01008 0.201538,0.01008 v 0.169292 H 95.313912 V 23.09331 h 0.05643 q 0.118907,0 0.167276,-0.02821 0.05038,-0.02821 0.0786,-0.08666 0.02015,-0.04635 0.02015,-0.191462 V 21.92842 q 0,-0.189445 -0.03023,-0.255953 -0.02822,-0.06651 -0.110846,-0.112861 -0.08263,-0.04635 -0.193476,-0.04635 -0.131,0 -0.264015,0.06449 -0.197507,0.09472 -0.362769,0.247892 v 1.035906 q 0,0.09271 0.02418,0.137045 0.0262,0.04232 0.08062,0.06852 0.05441,0.0262 0.149138,0.0262 h 0.07457 v 0.169292 H 93.989807 V 23.09331 h 0.05442 q 0.139061,0 0.1834,-0.02217 0.06449,-0.03023 0.09271,-0.09674 0.01612,-0.03628 0.01612,-0.187431 v -1.178997 z"
         id="path6" />
      <path
         d="m 99.885416,17.968042 v -0.26355 q 0.210844,-0.0186 0.384474,-0.07131 0.17673,-0.05581 0.44028,-0.189136 h 0.23255 v 3.761011 q 0,0.260449 0.0124,0.316259 0.031,0.117823 0.10542,0.164331 0.0744,0.04651 0.28835,0.04651 h 0.13333 v 0.260449 l -1.07591,0.04961 v -0.492993 q -0.31005,0.282153 -0.582906,0.399975 -0.269751,0.117822 -0.542602,0.117822 -0.561206,0 -0.933277,-0.449585 -0.368969,-0.452685 -0.368969,-1.088305 0,-0.452686 0.195337,-0.827857 0.198437,-0.378271 0.520898,-0.576709 0.322461,-0.198437 0.706934,-0.198437 0.294555,0 0.545703,0.102319 0.251152,0.10232 0.458882,0.306958 v -1.367358 z m 0.520894,3.274219 v -1.172022 q 0,-0.251147 -0.0961,-0.409277 -0.093,-0.161231 -0.31006,-0.279053 -0.213943,-0.117822 -0.440285,-0.117822 -0.269751,0 -0.499195,0.148828 -0.226343,0.145727 -0.356567,0.42478 -0.127124,0.275952 -0.127124,0.669727 0,0.37207 0.117822,0.644922 0.120923,0.269751 0.322461,0.412378 0.201538,0.139526 0.412378,0.139526 0.207739,0 0.471289,-0.117822 0.263551,-0.120923 0.505391,-0.344165 z"
         id="path7" />
      <path
         style="font-size:65%;baseline-shift:sub"
         d="m 103.06677,20.646638 v -0.171307 q 0.13705,-0.01209 0.24991,-0.04635 0.11488,-0.03628 0.28618,-0.122938 h 0.15116 v 2.444657 q 0,0.169292 0.008,0.205568 0.0202,0.07658 0.0685,0.106816 0.0484,0.03023 0.18743,0.03023 h 0.0867 v 0.169292 l -0.69933,0.03225 v -0.320445 q -0.20154,0.1834 -0.3789,0.259984 -0.17533,0.07658 -0.35269,0.07658 -0.36478,0 -0.60663,-0.29223 -0.23983,-0.294245 -0.23983,-0.707398 0,-0.294246 0.12697,-0.538107 0.12899,-0.245876 0.33859,-0.374861 0.2096,-0.128984 0.4595,-0.128984 0.19146,0 0.35471,0.06651 0.16325,0.06651 0.29828,0.199523 v -0.888783 z m 0.33859,2.128242 v -0.761814 q 0,-0.163246 -0.0625,-0.26603 -0.0605,-0.1048 -0.20154,-0.181384 -0.13906,-0.07659 -0.28618,-0.07659 -0.17534,0 -0.32448,0.09674 -0.14712,0.09472 -0.23177,0.276107 -0.0826,0.179369 -0.0826,0.435322 0,0.241846 0.0766,0.419199 0.0786,0.175338 0.2096,0.268046 0.131,0.09069 0.26804,0.09069 0.13503,0 0.30634,-0.07658 0.17131,-0.0786 0.32851,-0.223707 z"
         id="path8" />
    </g>
    <g
       id="text5"
       style="font-size:6.35px;line-height:1.25;font-family:'Bookman Old Style';-inkscape-font-specification:'Bookman Old Style, Normal';font-variant-ligatures:none;text-align:center;white-space:pre-wrap;stroke-width:0.264583"
       transform="translate(-0.02666893,0.35426313)"
       aria-label="m1d1">
      <path
         d="m 3.2808353,19.450928 v -0.26355 q 0.2325439,-0.0217 0.4061767,-0.07441 0.1736329,-0.05581 0.396875,-0.182935 h 0.2294434 v 0.520899 q 0.3534668,-0.279053 0.5519043,-0.375171 0.3038574,-0.145728 0.5798095,-0.145728 0.1891358,0 0.3689698,0.07131 0.1829345,0.06821 0.291455,0.170532 0.1116211,0.102319 0.1891358,0.279053 0.3255615,-0.288355 0.6015136,-0.403077 0.2790528,-0.117822 0.5643067,-0.117822 0.2728515,0 0.4805908,0.114722 0.2108398,0.111621 0.3038574,0.282153 0.096118,0.170532 0.096118,0.499194 v 1.438672 q 0,0.226343 0.0093,0.26355 0.015503,0.05891 0.065112,0.111621 0.05271,0.05271 0.1178223,0.07441 0.065112,0.0217 0.2418457,0.0217 h 0.099219 v 0.26045 H 7.3146975 v -0.26045 q 0.2666504,-0.0031 0.3441651,-0.03721 0.080615,-0.03721 0.1178222,-0.117822 0.040308,-0.08061 0.040308,-0.31626 v -1.367358 q 0,-0.260449 -0.046509,-0.359668 Q 7.7239749,19.438525 7.603052,19.373413 7.4852298,19.3052 7.3084964,19.3052 q -0.2201416,0 -0.4619873,0.117822 -0.322461,0.161231 -0.5084961,0.362769 v 1.478979 q 0,0.213941 0.018604,0.282154 0.021704,0.06511 0.068213,0.111621 0.049609,0.04341 0.1116211,0.06201 0.065112,0.0155 0.3100586,0.0155 v 0.26045 H 5.3179202 v -0.26045 h 0.086816 q 0.1829346,0 0.2573487,-0.04341 0.077515,-0.04341 0.1209228,-0.133325 0.031006,-0.07131 0.031006,-0.294556 v -1.320849 q 0,-0.291455 -0.046509,-0.393775 Q 5.724097,19.447827 5.596973,19.376514 5.4698489,19.3052 5.2993167,19.3052 q -0.2015381,0 -0.4061767,0.09922 -0.3038575,0.145727 -0.5581055,0.381372 v 1.593701 q 0,0.142627 0.037207,0.21084 0.040308,0.06511 0.1240235,0.10542 0.083716,0.04031 0.2294433,0.04031 H 4.84043 v 0.26045 H 3.2808353 v -0.26045 h 0.083716 q 0.2139404,0 0.2821533,-0.03411 0.099219,-0.04651 0.142627,-0.148828 0.024805,-0.05581 0.024805,-0.288355 v -1.813842 z"
         id="path1" />
      <path
         style="font-size:65%;baseline-shift:sub"
         d="m 10.412803,20.455053 h 0.151153 v 2.33381 q 0,0.165262 0.02015,0.213631 0.02217,0.04635 0.07054,0.07054 0.04837,0.02418 0.191461,0.02418 h 0.197507 v 0.169292 H 9.7154812 v -0.169292 h 0.2196765 q 0.1430923,0 0.1894453,-0.02418 0.04837,-0.0262 0.07457,-0.08062 0.0262,-0.05643 0.0262,-0.203554 V 20.870221 H 9.7154812 v -0.173323 q 0.4171838,-0.05845 0.6973218,-0.241845 z"
         id="path2" />
      <path
         d="m 13.746863,17.971948 v -0.26355 q 0.210839,-0.0186 0.384472,-0.07131 0.176734,-0.05581 0.440283,-0.189136 h 0.232544 v 3.761011 q 0,0.260449 0.0124,0.31626 0.03101,0.117822 0.10542,0.164331 0.07441,0.04651 0.288354,0.04651 h 0.133325 v 0.26045 l -1.075903,0.04961 v -0.492993 q -0.310059,0.282153 -0.58291,0.399975 -0.269751,0.117823 -0.542603,0.117823 -0.561206,0 -0.933276,-0.449585 -0.36897,-0.452686 -0.36897,-1.088306 0,-0.452685 0.195337,-0.827856 0.198438,-0.378272 0.520899,-0.576709 0.32246,-0.198438 0.706933,-0.198438 0.294556,0 0.545703,0.102319 0.251148,0.10232 0.458887,0.306958 v -1.367358 z m 0.520898,3.274219 v -1.172022 q 0,-0.251147 -0.09612,-0.409277 -0.09302,-0.16123 -0.310059,-0.279053 -0.21394,-0.117822 -0.440283,-0.117822 -0.269751,0 -0.499194,0.148828 -0.226343,0.145728 -0.356568,0.42478 -0.127124,0.275953 -0.127124,0.669727 0,0.37207 0.117823,0.644922 0.120922,0.269751 0.32246,0.412378 0.201539,0.139526 0.412378,0.139526 0.20774,0 0.471289,-0.117822 0.26355,-0.120923 0.505396,-0.344165 z"
         id="path3" />
      <path
         style="font-size:65%;baseline-shift:sub"
         d="m 16.91008,20.455053 h 0.151154 v 2.33381 q 0,0.165262 0.02015,0.213631 0.02217,0.04635 0.07054,0.07054 0.04837,0.02418 0.191461,0.02418 h 0.197507 v 0.169292 h -1.328136 v -0.169292 h 0.219677 q 0.143092,0 0.189446,-0.02418 0.04837,-0.0262 0.07457,-0.08062 0.0262,-0.05643 0.0262,-0.203554 v -1.918642 h -0.509892 v -0.173323 q 0.417184,-0.05845 0.697322,-0.241845 z"
         id="path4" />
    </g>
    <text
       xml:space="preserve"
       style="font-size:6.35px;line-height:1.25;font-family:'Bookman Old Style';-inkscape-font-specification:'Bookman Old Style, Normal';font-variant-ligatures:none;text-align:center;white-space:pre-wrap;shape-inside:url(#rect14);display:inline;stroke-width:0.264583"
       x="112.16185"
       y="26.544104"
       id="text6"
       transform="translate(-0.18936081,-0.24284356)"><tspan
         x="46.503845"
         y="22.051196"
         id="tspan4">md</tspan></text>
    <rect
       style="fill:none;stroke:#000000;stroke-width:0.525968;stroke-dasharray:none;stroke-opacity:1"
       id="rect11"
       width="64.47403"
       height="7.5520325"
       x="22.372988"
       y="0.96190786" />
    <rect
       style="fill:none;stroke:#000000;stroke-width:0.444578;stroke-dasharray:none;stroke-opacity:1"
       id="rect12"
       width="24.555422"
       height="7.7192292"
       x="83.770584"
       y="16.36623" />
    <rect
       style="fill:none;stroke:#000000;stroke-width:0.4;stroke-dasharray:none;stroke-opacity:1"
       id="rect13"
       width="19.708067"
       height="7.7080674"
       x="0.71636683"
       y="16.371811" />
    <rect
       style="fill:none;stroke:#000000;stroke-width:0.445846;stroke-dasharray:none;stroke-opacity:1"
       id="rect14"
       width="39.554153"
       height="7.599154"
       x="31.679428"
       y="16.426086" />
    <path
       style="fill:none;fill-rule:evenodd;stroke:#000000;stroke-width:0.4;stroke-linecap:butt;stroke-linejoin:miter;stroke-dasharray:none;stroke-opacity:1"
       d="M 10.570394,16.371811 52.672657,8.5768753"
       id="path31"
       inkscape:connector-type="polyline"
       inkscape:connector-curvature="0" />
    <path
       style="fill:none;fill-rule:evenodd;stroke:#000000;stroke-width:0.465;stroke-linecap:butt;stroke-linejoin:miter;stroke-dasharray:none;stroke-opacity:1"
       d="M 51.471225,16.500788 51.441795,8.5768753"
       id="path32"
       inkscape:connector-type="polyline"
       inkscape:connector-curvature="0" />
    <path
       style="fill:none;fill-rule:evenodd;stroke:#000000;stroke-width:0.4;stroke-linecap:butt;stroke-linejoin:miter;stroke-dasharray:none;stroke-opacity:1"
       d="M 96.048274,16.36623 52.540367,8.5763833"
       id="path33"
       inkscape:connector-type="polyline"
       inkscape:connector-curvature="0" />
  </g>
</svg>
