<?xml version="1.0" encoding="UTF-8" standalone="no"?>
<!-- Created with Inkscape (http://www.inkscape.org/) -->

<svg
   width="68.266899mm"
   height="111.23361mm"
   viewBox="0 0 68.266899 111.23361"
   version="1.1"
   id="svg1"
   xmlns="http://www.w3.org/2000/svg"
   xmlns:svg="http://www.w3.org/2000/svg">
  <defs
     id="defs1">
    <marker
       style="overflow:visible"
       id="Triangle"
       refX="0"
       refY="0"
       orient="auto-start-reverse"
       markerWidth="1"
       markerHeight="1"
       viewBox="0 0 1 1"
       preserveAspectRatio="xMidYMid">
      <path
         transform="scale(0.5)"
         style="fill:context-stroke;fill-rule:evenodd;stroke:context-stroke;stroke-width:1pt"
         d="M 5.77,0 -2.88,5 V -5 Z"
         id="path135" />
    </marker>
    <marker
       style="overflow:visible"
       id="Triangle-4"
       refX="0"
       refY="0"
       orient="auto-start-reverse"
       markerWidth="1"
       markerHeight="1"
       viewBox="0 0 1 1"
       preserveAspectRatio="xMidYMid">
      <path
         transform="scale(0.5)"
         style="fill:context-stroke;fill-rule:evenodd;stroke:context-stroke;stroke-width:1pt"
         d="M 5.77,0 -2.88,5 V -5 Z"
         id="path135-5" />
    </marker>
    <marker
       style="overflow:visible"
       id="Triangle-4-1"
       refX="0"
       refY="0"
       orient="auto-start-reverse"
       markerWidth="1"
       markerHeight="1"
       viewBox="0 0 1 1"
       preserveAspectRatio="xMidYMid">
      <path
         transform="scale(0.5)"
         style="fill:context-stroke;fill-rule:evenodd;stroke:context-stroke;stroke-width:1pt"
         d="M 5.77,0 -2.88,5 V -5 Z"
         id="path135-5-5" />
    </marker>
  </defs>
  <g
     id="layer1"
     transform="translate(-70.866548,-67.617439)">
    <path
       style="font-size:6.35px;-inkscape-font-specification:'sans-serif, Normal';text-align:center;text-anchor:middle;white-space:pre-wrap;stroke-width:0.264583"
       d="m 77.159839,160.06415 q 0.282154,0.31006 0.430982,0.75964 0.151928,0.44959 0.151928,1.02009 0,0.57051 -0.155029,1.0232 -0.151929,0.44958 -0.427881,0.75034 -0.285254,0.31316 -0.675927,0.47129 -0.387574,0.15813 -0.886768,0.15813 -0.486792,0 -0.886768,-0.16123 -0.396875,-0.16123 -0.675927,-0.46819 -0.279053,-0.30696 -0.430982,-0.75344 -0.148828,-0.44649 -0.148828,-1.0201 0,-0.5643 0.148828,-1.01079 0.148828,-0.44958 0.434082,-0.76894 0.272852,-0.30386 0.675928,-0.46509 0.406177,-0.16123 0.883667,-0.16123 0.496094,0 0.889868,0.16433 0.396875,0.16123 0.672827,0.46199 z m -0.05581,1.77973 q 0,-0.89917 -0.403076,-1.38596 -0.403077,-0.48989 -1.100708,-0.48989 -0.703833,0 -1.10691,0.48989 -0.399975,0.48679 -0.399975,1.38596 0,0.90848 0.409277,1.39217 0.409278,0.48059 1.097608,0.48059 0.68833,0 1.094506,-0.48059 0.409278,-0.48369 0.409278,-1.39217 z m 4.613672,0.54881 q 0,0.43408 -0.124024,0.78134 -0.120923,0.34727 -0.328662,0.58291 -0.220141,0.24495 -0.483691,0.36897 -0.26355,0.12093 -0.57981,0.12093 -0.294555,0 -0.514697,-0.0713 -0.220142,-0.0682 -0.434082,-0.18603 l -0.03721,0.16123 h -0.545703 v -4.82451 h 0.58291 v 1.72392 q 0.244946,-0.20153 0.520898,-0.32866 0.275953,-0.13022 0.620118,-0.13022 0.613916,0 0.967382,0.47129 0.356568,0.47128 0.356568,1.33015 z m -0.601514,0.0155 q 0,-0.62012 -0.204639,-0.93948 -0.204638,-0.32246 -0.660424,-0.32246 -0.254248,0 -0.514698,0.11162 -0.260449,0.10852 -0.483691,0.28216 v 1.98437 q 0.248047,0.11162 0.42478,0.15503 0.179834,0.0434 0.406177,0.0434 0.483691,0 0.756543,-0.31626 0.275952,-0.31936 0.275952,-0.99839 z m 3.984253,0.74414 q 0,0.47439 -0.393774,0.77825 -0.390674,0.30386 -1.069702,0.30386 -0.384473,0 -0.706934,-0.0899 -0.31936,-0.093 -0.536401,-0.20154 v -0.65422 h 0.03101 q 0.275952,0.20774 0.613916,0.33176 0.337964,0.12092 0.648022,0.12092 0.384473,0 0.601514,-0.12402 0.217041,-0.12402 0.217041,-0.39068 0,-0.20463 -0.117822,-0.31005 -0.117823,-0.10542 -0.452686,-0.17984 -0.124023,-0.0279 -0.325562,-0.0651 -0.198437,-0.0372 -0.362768,-0.0806 -0.455786,-0.12092 -0.648023,-0.35346 -0.189135,-0.23565 -0.189135,-0.57671 0,-0.21394 0.08682,-0.40308 0.08992,-0.18913 0.269751,-0.33796 0.173633,-0.14573 0.440283,-0.22944 0.269751,-0.0868 0.601514,-0.0868 0.310059,0 0.626318,0.0775 0.319361,0.0744 0.5302,0.18294 v 0.62322 h -0.03101 q -0.223243,-0.16434 -0.542603,-0.27596 -0.31936,-0.11472 -0.626318,-0.11472 -0.319361,0 -0.539502,0.12403 -0.220142,0.12092 -0.220142,0.36276 0,0.21394 0.133325,0.32247 0.130225,0.10852 0.42168,0.17673 0.161231,0.0372 0.359668,0.0744 0.201538,0.0372 0.334863,0.0682 0.406177,0.093 0.626319,0.31936 0.220141,0.22944 0.220141,0.60771 z m 3.733105,-0.67283 h -2.551782 q 0,0.31936 0.09612,0.55811 0.09612,0.23564 0.26355,0.38757 0.161231,0.14883 0.381372,0.22324 0.223242,0.0744 0.489893,0.0744 0.353467,0 0.710034,-0.13953 0.359668,-0.14262 0.511597,-0.27905 h 0.03101 v 0.63562 q -0.294555,0.12402 -0.601513,0.20774 -0.306958,0.0837 -0.644922,0.0837 -0.861963,0 -1.345654,-0.46508 -0.483692,-0.46819 -0.483692,-1.32705 0,-0.84956 0.461988,-1.34876 0.465087,-0.49919 1.22163,-0.49919 0.700733,0 1.079004,0.40927 0.381372,0.40928 0.381372,1.16272 z m -0.567407,-0.44648 q -0.0031,-0.45889 -0.232544,-0.71004 -0.226343,-0.25114 -0.69143,-0.25114 -0.468189,0 -0.747242,0.27595 -0.275952,0.27595 -0.313159,0.68523 z m 3.612183,-0.71004 h -0.03101 q -0.130225,-0.031 -0.254248,-0.0434 -0.120923,-0.0155 -0.288355,-0.0155 -0.269751,0 -0.520898,0.12093 -0.251148,0.11782 -0.483691,0.30695 v 2.45877 h -0.582911 v -3.46336 h 0.582911 v 0.5116 q 0.347265,-0.27905 0.610815,-0.39377 0.26665,-0.11783 0.542602,-0.11783 0.151929,0 0.220142,0.009 0.06821,0.006 0.204639,0.0279 z m 3.543969,-0.63562 -1.401465,3.46336 h -0.586011 l -1.392163,-3.46336 h 0.63252 l 1.072802,2.75643 1.063501,-2.75643 z m 3.605982,1.79214 H 96.47649 q 0,0.31936 0.09612,0.55811 0.09612,0.23564 0.26355,0.38757 0.161231,0.14883 0.381372,0.22324 0.223242,0.0744 0.489893,0.0744 0.353466,0 0.710034,-0.13953 0.359668,-0.14262 0.511597,-0.27905 h 0.03101 v 0.63562 q -0.294555,0.12402 -0.601513,0.20774 -0.306958,0.0837 -0.644922,0.0837 -0.861963,0 -1.345654,-0.46508 -0.483692,-0.46819 -0.483692,-1.32705 0,-0.84956 0.461987,-1.34876 0.465088,-0.49919 1.221631,-0.49919 0.700733,0 1.079004,0.40927 0.381372,0.40928 0.381372,1.16272 z m -0.567407,-0.44648 q -0.0031,-0.45889 -0.232544,-0.71004 -0.226343,-0.25114 -0.691431,-0.25114 -0.468188,0 -0.747241,0.27595 -0.275952,0.27595 -0.313159,0.68523 z m 4.260205,2.1177 h -0.58291 v -0.36277 q -0.25115,0.21704 -0.524,0.33796 -0.27285,0.12093 -0.59221,0.12093 -0.62012,0 -0.98599,-0.47749 -0.362766,-0.47749 -0.362766,-1.32395 0,-0.44029 0.124024,-0.78445 0.127124,-0.34417 0.341062,-0.58601 0.21084,-0.23565 0.48989,-0.35967 0.28216,-0.12402 0.58291,-0.12402 0.27286,0 0.4837,0.0589 0.21084,0.0558 0.44338,0.17673 v -1.50068 h 0.58291 z m -0.58291,-0.85266 v -1.98748 q -0.23564,-0.10542 -0.42168,-0.14572 -0.18603,-0.0403 -0.40618,-0.0403 -0.48989,0 -0.76274,0.34106 -0.27285,0.34107 -0.27285,0.96738 0,0.61702 0.21084,0.93948 0.21084,0.31936 0.67593,0.31936 0.24804,0 0.50229,-0.10852 0.25425,-0.11162 0.47439,-0.28525 z m 3.82302,-3.97185 -2.22312,5.76709 h -0.5364 l 2.21382,-5.76709 z m 4.94854,4.82451 h -0.61392 v -3.97805 l -1.28364,2.70681 h -0.36587 l -1.27434,-2.70681 v 3.97805 h -0.57361 v -4.61677 h 0.83716 l 1.23093,2.57038 1.19063,-2.57038 h 0.85266 z m 4.09277,-1.67122 h -2.55178 q 0,0.31936 0.0961,0.55811 0.0961,0.23564 0.26355,0.38757 0.16123,0.14883 0.38137,0.22324 0.22324,0.0744 0.48989,0.0744 0.35347,0 0.71004,-0.13953 0.35966,-0.14262 0.51159,-0.27905 h 0.031 v 0.63562 q -0.29456,0.12402 -0.60152,0.20774 -0.30695,0.0837 -0.64492,0.0837 -0.86196,0 -1.34565,-0.46508 -0.48369,-0.46819 -0.48369,-1.32705 0,-0.84956 0.46198,-1.34876 0.46509,-0.49919 1.22163,-0.49919 0.70074,0 1.07901,0.40927 0.38137,0.40928 0.38137,1.16272 z m -0.56741,-0.44648 q -0.003,-0.45889 -0.23254,-0.71004 -0.22634,-0.25114 -0.69143,-0.25114 -0.46819,0 -0.74724,0.27595 -0.27595,0.27595 -0.31316,0.68523 z m 4.14239,2.1177 h -0.57981 v -0.36897 q -0.0775,0.0527 -0.21084,0.14883 -0.13023,0.093 -0.25425,0.14883 -0.14573,0.0713 -0.33486,0.11782 -0.18914,0.0496 -0.44339,0.0496 -0.46819,0 -0.79375,-0.31006 -0.32556,-0.31006 -0.32556,-0.79065 0,-0.39377 0.16743,-0.63562 0.17053,-0.24495 0.48369,-0.38447 0.31626,-0.13953 0.75965,-0.18914 0.44338,-0.0496 0.95188,-0.0744 v -0.0899 q 0,-0.19844 -0.0713,-0.32866 -0.0682,-0.13023 -0.19843,-0.20464 -0.12403,-0.0713 -0.29766,-0.0961 -0.17363,-0.0248 -0.36277,-0.0248 -0.22944,0 -0.5116,0.062 -0.28215,0.0589 -0.58291,0.17363 h -0.031 v -0.59221 q 0.17053,-0.0465 0.49299,-0.10232 0.32246,-0.0558 0.63562,-0.0558 0.36587,0 0.63562,0.062 0.27285,0.0589 0.47129,0.20464 0.19534,0.14263 0.29766,0.36897 0.10232,0.22634 0.10232,0.56121 z m -0.57981,-0.85266 v -0.96428 q -0.26665,0.0155 -0.62942,0.0465 -0.35967,0.031 -0.57051,0.0899 -0.25115,0.0713 -0.40618,0.22324 -0.15503,0.14883 -0.15503,0.41238 0,0.29766 0.17984,0.44959 0.17983,0.14882 0.5488,0.14882 0.30696,0 0.56121,-0.11782 0.25425,-0.12092 0.47129,-0.28835 z m 4.17649,-0.14573 q 0,0.47439 -0.39378,0.77825 -0.39067,0.30386 -1.0697,0.30386 -0.38447,0 -0.70693,-0.0899 -0.31936,-0.093 -0.53641,-0.20154 v -0.65422 h 0.031 q 0.27595,0.20774 0.61392,0.33176 0.33796,0.12092 0.64802,0.12092 0.38447,0 0.60151,-0.12402 0.21704,-0.12402 0.21704,-0.39068 0,-0.20463 -0.11782,-0.31005 -0.11782,-0.10542 -0.45268,-0.17984 -0.12403,-0.0279 -0.32557,-0.0651 -0.19843,-0.0372 -0.36276,-0.0806 -0.45579,-0.12092 -0.64803,-0.35346 -0.18913,-0.23565 -0.18913,-0.57671 0,-0.21394 0.0868,-0.40308 0.0899,-0.18913 0.26975,-0.33796 0.17364,-0.14573 0.44029,-0.22944 0.26975,-0.0868 0.60151,-0.0868 0.31006,0 0.62632,0.0775 0.31936,0.0744 0.5302,0.18294 v 0.62322 h -0.031 q -0.22324,-0.16434 -0.5426,-0.27596 -0.31936,-0.11472 -0.62632,-0.11472 -0.31936,0 -0.5395,0.12403 -0.22014,0.12092 -0.22014,0.36276 0,0.21394 0.13333,0.32247 0.13022,0.10852 0.42167,0.17673 0.16124,0.0372 0.35967,0.0744 0.20154,0.0372 0.33487,0.0682 0.40617,0.093 0.62631,0.31936 0.22015,0.22944 0.22015,0.60771 z m 3.7052,0.99839 h -0.58291 v -0.38447 q -0.29456,0.23254 -0.56431,0.35656 -0.26975,0.12403 -0.59531,0.12403 -0.5457,0 -0.84956,-0.33177 -0.30386,-0.33486 -0.30386,-0.97978 v -2.24793 h 0.58291 v 1.97198 q 0,0.26355 0.0248,0.45268 0.0248,0.18604 0.10542,0.31936 0.0837,0.13643 0.21704,0.19844 0.13332,0.062 0.38757,0.062 0.22634,0 0.49299,-0.11782 0.26975,-0.11782 0.5023,-0.30076 v -2.58589 h 0.58291 z m 3.30832,-2.82774 h -0.031 q -0.13022,-0.031 -0.25424,-0.0434 -0.12093,-0.0155 -0.28836,-0.0155 -0.26975,0 -0.5209,0.12093 -0.25114,0.11782 -0.48369,0.30695 v 2.45877 h -0.58291 v -3.46336 h 0.58291 v 0.5116 q 0.34727,-0.27905 0.61082,-0.39377 0.26665,-0.11783 0.5426,-0.11783 0.15193,0 0.22014,0.009 0.0682,0.006 0.20464,0.0279 z m 3.44785,1.15652 h -2.55178 q 0,0.31936 0.0961,0.55811 0.0961,0.23564 0.26355,0.38757 0.16123,0.14883 0.38137,0.22324 0.22324,0.0744 0.48989,0.0744 0.35347,0 0.71004,-0.13953 0.35966,-0.14262 0.51159,-0.27905 h 0.031 v 0.63562 q -0.29456,0.12402 -0.60152,0.20774 -0.30695,0.0837 -0.64492,0.0837 -0.86196,0 -1.34565,-0.46508 -0.48369,-0.46819 -0.48369,-1.32705 0,-0.84956 0.46198,-1.34876 0.46509,-0.49919 1.22163,-0.49919 0.70074,0 1.07901,0.40927 0.38137,0.40928 0.38137,1.16272 z m -0.56741,-0.44648 q -0.003,-0.45889 -0.23254,-0.71004 -0.22634,-0.25114 -0.69143,-0.25114 -0.46819,0 -0.74724,0.27595 -0.27595,0.27595 -0.31316,0.68523 z m 4.26021,2.1177 h -0.58291 v -0.36277 q -0.25115,0.21704 -0.524,0.33796 -0.27285,0.12093 -0.59221,0.12093 -0.62012,0 -0.98599,-0.47749 -0.36277,-0.47749 -0.36277,-1.32395 0,-0.44029 0.12403,-0.78445 0.12712,-0.34417 0.34106,-0.58601 0.21084,-0.23565 0.48989,-0.35967 0.28216,-0.12402 0.58291,-0.12402 0.27285,0 0.48369,0.0589 0.21084,0.0558 0.44339,0.17673 v -1.50068 h 0.58291 z m -0.58291,-0.85266 v -1.98748 q -0.23565,-0.10542 -0.42168,-0.14572 -0.18604,-0.0403 -0.40618,-0.0403 -0.48989,0 -0.76274,0.34106 -0.27285,0.34107 -0.27285,0.96738 0,0.61702 0.21084,0.93948 0.21084,0.31936 0.67592,0.31936 0.24805,0 0.5023,-0.10852 0.25425,-0.11162 0.47439,-0.28525 z m -39.281323,4.17339 -1.680518,4.61677 h -0.818554 l -1.680518,-4.61677 h 0.657324 l 1.447974,4.06176 1.447974,-4.06176 z m 3.035474,4.61677 h -0.57981 v -0.36897 q -0.07752,0.0527 -0.21084,0.14883 -0.130224,0.093 -0.254248,0.14883 -0.145727,0.0713 -0.334863,0.11782 -0.189136,0.0496 -0.443384,0.0496 -0.468188,0 -0.79375,-0.31006 -0.325561,-0.31006 -0.325561,-0.79065 0,-0.39377 0.167431,-0.63562 0.170533,-0.24495 0.483692,-0.38447 0.316259,-0.13953 0.759643,-0.18914 0.443384,-0.0496 0.95188,-0.0744 v -0.0899 q 0,-0.19844 -0.07131,-0.32866 -0.06821,-0.13023 -0.198438,-0.20464 -0.124023,-0.0713 -0.297656,-0.0961 -0.173633,-0.0248 -0.362769,-0.0248 -0.229443,0 -0.511596,0.062 -0.282154,0.0589 -0.58291,0.17363 h -0.03101 v -0.59221 q 0.170532,-0.0465 0.492993,-0.10232 0.322461,-0.0558 0.63562,-0.0558 0.365869,0 0.63562,0.062 0.272852,0.0589 0.471289,0.20464 0.195337,0.14263 0.297656,0.36897 0.10232,0.22634 0.10232,0.56121 z m -0.57981,-0.85266 v -0.96428 q -0.26665,0.0155 -0.629419,0.0465 -0.359668,0.031 -0.570508,0.0899 -0.251147,0.0713 -0.406176,0.22324 -0.15503,0.14883 -0.15503,0.41238 0,0.29766 0.179834,0.44959 0.179834,0.14882 0.548804,0.14882 0.306958,0 0.561206,-0.11782 0.254248,-0.12092 0.471289,-0.28835 z m 3.863329,-1.97508 h -0.031 q -0.13023,-0.031 -0.25425,-0.0434 -0.12093,-0.0155 -0.28836,-0.0155 -0.26975,0 -0.5209,0.12093 -0.25114,0.11782 -0.48369,0.30695 v 2.45877 h -0.58291 v -3.46336 h 0.58291 v 0.5116 q 0.34727,-0.27905 0.61082,-0.39377 0.26665,-0.11783 0.5426,-0.11783 0.15193,0 0.22014,0.009 0.0682,0.006 0.20464,0.0279 z m 1.17512,-1.21542 h -0.65732 v -0.60462 h 0.65732 z m -0.0372,4.04316 h -0.58291 v -3.46336 h 0.58291 z m 3.84472,0 h -0.57981 v -0.36897 q -0.0775,0.0527 -0.21084,0.14883 -0.13022,0.093 -0.25424,0.14883 -0.14573,0.0713 -0.33487,0.11782 -0.18913,0.0496 -0.44338,0.0496 -0.46819,0 -0.79375,-0.31006 -0.32556,-0.31006 -0.32556,-0.79065 0,-0.39377 0.16743,-0.63562 0.17053,-0.24495 0.48369,-0.38447 0.31626,-0.13953 0.75964,-0.18914 0.44339,-0.0496 0.95188,-0.0744 v -0.0899 q 0,-0.19844 -0.0713,-0.32866 -0.0682,-0.13023 -0.19844,-0.20464 -0.12402,-0.0713 -0.29765,-0.0961 -0.17364,-0.0248 -0.36277,-0.0248 -0.22945,0 -0.5116,0.062 -0.28215,0.0589 -0.58291,0.17363 h -0.031 v -0.59221 q 0.17054,-0.0465 0.493,-0.10232 0.32246,-0.0558 0.63562,-0.0558 0.36587,0 0.63562,0.062 0.27285,0.0589 0.47129,0.20464 0.19533,0.14263 0.29765,0.36897 0.10232,0.22634 0.10232,0.56121 z m -0.57981,-0.85266 v -0.96428 q -0.26665,0.0155 -0.62942,0.0465 -0.35966,0.031 -0.5705,0.0899 -0.25115,0.0713 -0.40618,0.22324 -0.15503,0.14883 -0.15503,0.41238 0,0.29766 0.17983,0.44959 0.17984,0.14882 0.54881,0.14882 0.30696,0 0.5612,-0.11782 0.25425,-0.12092 0.47129,-0.28835 z m 4.7501,-0.90537 q 0,0.43408 -0.12402,0.78134 -0.12092,0.34727 -0.32866,0.58291 -0.22015,0.24495 -0.4837,0.36897 -0.26355,0.12093 -0.5798,0.12093 -0.29456,0 -0.5147,-0.0713 -0.22014,-0.0682 -0.43408,-0.18603 l -0.0372,0.16123 h -0.5457 v -4.82451 h 0.58291 v 1.72392 q 0.24494,-0.20153 0.52089,-0.32866 0.27596,-0.13022 0.62012,-0.13022 0.61392,0 0.96738,0.47129 0.35657,0.47128 0.35657,1.33015 z m -0.60151,0.0155 q 0,-0.62012 -0.20464,-0.93948 -0.20464,-0.32246 -0.66043,-0.32246 -0.25424,0 -0.51469,0.11162 -0.26045,0.10852 -0.48369,0.28216 v 1.98437 q 0.24804,0.11162 0.42478,0.15503 0.17983,0.0434 0.40617,0.0434 0.48369,0 0.75655,-0.31626 0.27595,-0.31936 0.27595,-0.99839 z m 2.09909,1.74253 h -0.58291 v -4.82451 h 0.58291 z m 4.05247,-1.67122 h -2.55178 q 0,0.31936 0.0961,0.55811 0.0961,0.23564 0.26355,0.38757 0.16124,0.14883 0.38138,0.22324 0.22324,0.0744 0.48989,0.0744 0.35347,0 0.71003,-0.13953 0.35967,-0.14262 0.5116,-0.27905 h 0.031 v 0.63562 q -0.29456,0.12402 -0.60152,0.20774 -0.30696,0.0837 -0.64492,0.0837 -0.86196,0 -1.34565,-0.46508 -0.4837,-0.46819 -0.4837,-1.32705 0,-0.84956 0.46199,-1.34876 0.46509,-0.49919 1.22163,-0.49919 0.70074,0 1.07901,0.40927 0.38137,0.40928 0.38137,1.16272 z m -0.56741,-0.44648 q -0.003,-0.45889 -0.23254,-0.71004 -0.22634,-0.25114 -0.69143,-0.25114 -0.46819,0 -0.74724,0.27595 -0.27596,0.27595 -0.31316,0.68523 z"
       id="text11"
       transform="translate(-0.1782834,2.5970357)"
       aria-label="Observed/Measured Variable" />
    <path
       style="font-size:6.35px;-inkscape-font-specification:'sans-serif, Normal';text-align:center;text-anchor:middle;white-space:pre-wrap;stroke-width:0.264583"
       d="m 83.83385,133.00423 h -1.823144 v -0.47128 h 0.604614 v -3.6742 h -0.604614 v -0.47129 h 1.823144 v 0.47129 h -0.604614 v 3.6742 h 0.604614 z m 3.894336,0 h -0.58291 v -1.97197 q 0,-0.23874 -0.0279,-0.44648 -0.02791,-0.21084 -0.10232,-0.32866 -0.07751,-0.13023 -0.223242,-0.19224 -0.145727,-0.0651 -0.378271,-0.0651 -0.238745,0 -0.499195,0.11782 -0.260449,0.11782 -0.499194,0.30076 v 2.58588 h -0.58291 v -3.46335 h 0.58291 v 0.38447 q 0.272852,-0.22634 0.564307,-0.35346 0.291455,-0.12713 0.598413,-0.12713 0.561206,0 0.855762,0.33797 0.294555,0.33796 0.294555,0.97358 z m 3.931543,0 h -0.58291 v -0.36276 q -0.251148,0.21704 -0.523999,0.33796 -0.272852,0.12092 -0.592212,0.12092 -0.620118,0 -0.985987,-0.47749 -0.362768,-0.47749 -0.362768,-1.32395 0,-0.44028 0.124023,-0.78445 0.127124,-0.34416 0.341065,-0.58601 0.21084,-0.23564 0.489892,-0.35966 0.282154,-0.12403 0.58291,-0.12403 0.272852,0 0.483692,0.0589 0.21084,0.0558 0.443384,0.17674 v -1.50069 h 0.58291 z m -0.58291,-0.85266 v -1.98747 q -0.235645,-0.10542 -0.42168,-0.14573 -0.186035,-0.0403 -0.406177,-0.0403 -0.489892,0 -0.762744,0.34107 -0.272852,0.34106 -0.272852,0.96738 0,0.61702 0.21084,0.93948 0.21084,0.31936 0.675928,0.31936 0.248047,0 0.502295,-0.10852 0.254248,-0.11162 0.47439,-0.28526 z m 4.601269,0.85266 h -0.58291 v -0.38447 q -0.294556,0.23255 -0.564307,0.35657 -0.269751,0.12402 -0.595312,0.12402 -0.545703,0 -0.849561,-0.33176 -0.303857,-0.33486 -0.303857,-0.97978 v -2.24793 h 0.58291 v 1.97197 q 0,0.26355 0.02481,0.45269 0.0248,0.18603 0.105419,0.31936 0.08372,0.13642 0.217041,0.19844 0.133326,0.062 0.387574,0.062 0.226342,0 0.492993,-0.11782 0.269751,-0.11783 0.502295,-0.30076 v -2.58589 h 0.58291 z m 3.708301,-0.21704 q -0.291455,0.13953 -0.555004,0.21704 -0.26045,0.0775 -0.555005,0.0775 -0.375171,0 -0.68833,-0.10852 -0.31316,-0.11162 -0.536402,-0.33486 -0.226342,-0.22325 -0.350366,-0.56431 -0.124023,-0.34107 -0.124023,-0.79685 0,-0.84956 0.465088,-1.33325 0.468188,-0.48369 1.234033,-0.48369 0.297656,0 0.58291,0.0837 0.288354,0.0837 0.527099,0.20464 v 0.64802 h -0.031 q -0.266651,-0.20774 -0.551905,-0.31936 -0.282153,-0.11162 -0.551904,-0.11162 -0.496094,0 -0.784448,0.33486 -0.285254,0.33177 -0.285254,0.97669 0,0.62632 0.279053,0.96428 0.282153,0.33486 0.790649,0.33486 0.176733,0 0.359668,-0.0465 0.182935,-0.0465 0.328662,-0.12093 0.127124,-0.0651 0.238745,-0.13642 0.111621,-0.0744 0.176734,-0.12713 h 0.031 z m 3.646291,-1.45417 h -2.55178 q 0,0.31936 0.0961,0.5581 0.0961,0.23565 0.26355,0.38758 0.16123,0.14883 0.38138,0.22324 0.22324,0.0744 0.48989,0.0744 0.35347,0 0.71003,-0.13952 0.35967,-0.14263 0.5116,-0.27906 h 0.031 v 0.63563 q -0.29456,0.12402 -0.60152,0.20773 -0.30696,0.0837 -0.64492,0.0837 -0.86196,0 -1.34565,-0.46509 -0.483696,-0.46819 -0.483696,-1.32705 0,-0.84956 0.461986,-1.34875 0.46509,-0.4992 1.22163,-0.4992 0.70073,0 1.07901,0.40928 0.38137,0.40928 0.38137,1.16272 z m -0.56741,-0.44649 q -0.003,-0.45888 -0.23254,-0.71003 -0.22635,-0.25115 -0.69143,-0.25115 -0.46819,0 -0.74724,0.27596 -0.27596,0.27595 -0.31316,0.68522 z m 4.26021,2.1177 h -0.58291 v -0.36276 q -0.25115,0.21704 -0.524,0.33796 -0.27285,0.12092 -0.59222,0.12092 -0.62011,0 -0.98598,-0.47749 -0.36277,-0.47749 -0.36277,-1.32395 0,-0.44028 0.12402,-0.78445 0.12713,-0.34416 0.34107,-0.58601 0.21084,-0.23564 0.48989,-0.35966 0.28215,-0.12403 0.58291,-0.12403 0.27285,0 0.48369,0.0589 0.21084,0.0558 0.44339,0.17674 v -1.50069 h 0.58291 z m -0.58291,-0.85266 v -1.98747 q -0.23565,-0.10542 -0.42168,-0.14573 -0.18604,-0.0403 -0.40618,-0.0403 -0.48989,0 -0.76274,0.34107 -0.27286,0.34106 -0.27286,0.96738 0,0.61702 0.21084,0.93948 0.21084,0.31936 0.67593,0.31936 0.24805,0 0.5023,-0.10852 0.25424,-0.11162 0.47439,-0.28526 z m 7.05073,0.85266 h -3.04168 v -4.61677 h 3.04168 v 0.54571 h -2.42776 v 1.26503 h 2.42776 v 0.54571 h -2.42776 v 1.71462 h 2.42776 z m 3.08818,-2.82773 h -0.031 q -0.13022,-0.031 -0.25424,-0.0434 -0.12093,-0.0155 -0.28836,-0.0155 -0.26975,0 -0.5209,0.12092 -0.25114,0.11782 -0.48369,0.30696 v 2.45876 h -0.58291 v -3.46335 h 0.58291 v 0.5116 q 0.34727,-0.27906 0.61082,-0.39378 0.26665,-0.11782 0.5426,-0.11782 0.15193,0 0.22014,0.009 0.0682,0.006 0.20464,0.0279 z m 2.70991,0 h -0.031 q -0.13023,-0.031 -0.25425,-0.0434 -0.12092,-0.0155 -0.28836,-0.0155 -0.26975,0 -0.52089,0.12092 -0.25115,0.11782 -0.4837,0.30696 v 2.45876 h -0.58291 v -3.46335 h 0.58291 v 0.5116 q 0.34727,-0.27906 0.61082,-0.39378 0.26665,-0.11782 0.5426,-0.11782 0.15193,0 0.22014,0.009 0.0682,0.006 0.20464,0.0279 z m 3.50057,1.09761 q 0,0.84646 -0.43409,1.33635 -0.43408,0.48989 -1.16272,0.48989 -0.73483,0 -1.16892,-0.48989 -0.43098,-0.48989 -0.43098,-1.33635 0,-0.84646 0.43098,-1.33635 0.43409,-0.493 1.16892,-0.493 0.72864,0 1.16272,0.493 0.43409,0.48989 0.43409,1.33635 z m -0.60152,0 q 0,-0.67283 -0.26355,-0.99839 -0.26355,-0.32866 -0.73174,-0.32866 -0.47438,0 -0.73793,0.32866 -0.26045,0.32556 -0.26045,0.99839 0,0.65112 0.26355,0.98908 0.26355,0.33487 0.73483,0.33487 0.46509,0 0.72864,-0.33176 0.26665,-0.33487 0.26665,-0.99219 z m 3.66489,-1.09761 h -0.031 q -0.13023,-0.031 -0.25425,-0.0434 -0.12092,-0.0155 -0.28835,-0.0155 -0.26976,0 -0.5209,0.12092 -0.25115,0.11782 -0.48369,0.30696 v 2.45876 h -0.58291 v -3.46335 h 0.58291 v 0.5116 q 0.34726,-0.27906 0.61081,-0.39378 0.26665,-0.11782 0.5426,-0.11782 0.15193,0 0.22015,0.009 0.0682,0.006 0.20463,0.0279 z m 2.6417,-1.99678 -2.22312,5.76709 h -0.5364 l 2.21382,-5.76709 z M 90.7094,139.08758 q 0,0.5023 -0.111621,0.87747 -0.108521,0.37207 -0.359668,0.62012 -0.238746,0.23564 -0.558106,0.34416 -0.31936,0.10852 -0.744141,0.10852 -0.434082,0 -0.756542,-0.11472 -0.322461,-0.11472 -0.542603,-0.33796 -0.251147,-0.25425 -0.362769,-0.61392 -0.10852,-0.35967 -0.10852,-0.88367 v -2.76262 h 0.613916 v 2.79363 q 0,0.37517 0.04961,0.59221 0.05271,0.21704 0.173633,0.39378 0.136426,0.20153 0.36897,0.30385 0.235644,0.10232 0.564306,0.10232 0.331763,0 0.564307,-0.0992 0.232544,-0.10231 0.37207,-0.30695 0.120923,-0.17674 0.170533,-0.40308 0.05271,-0.22944 0.05271,-0.56741 v -2.80913 H 90.7094 Z m 4.021459,1.85415 h -0.58291 v -1.97197 q 0,-0.23874 -0.02791,-0.44648 -0.0279,-0.21084 -0.102319,-0.32866 -0.07752,-0.13023 -0.223243,-0.19224 -0.145727,-0.0651 -0.378271,-0.0651 -0.238745,0 -0.499194,0.11782 -0.26045,0.11782 -0.499195,0.30076 v 2.58588 h -0.58291 v -3.46335 h 0.58291 v 0.38447 q 0.272852,-0.22634 0.564307,-0.35346 0.291455,-0.12713 0.598413,-0.12713 0.561206,0 0.855762,0.33797 0.294555,0.33796 0.294555,0.97358 z m 3.683497,-0.21704 q -0.291455,0.13953 -0.555005,0.21704 -0.260449,0.0775 -0.555005,0.0775 -0.375171,0 -0.68833,-0.10852 -0.313159,-0.11162 -0.536401,-0.33486 -0.226343,-0.22325 -0.350367,-0.56431 -0.124023,-0.34107 -0.124023,-0.79685 0,-0.84956 0.465088,-1.33325 0.468188,-0.48369 1.234033,-0.48369 0.297656,0 0.58291,0.0837 0.288355,0.0837 0.5271,0.20464 v 0.64802 h -0.03101 q -0.266651,-0.20774 -0.551904,-0.31936 -0.282154,-0.11162 -0.551905,-0.11162 -0.496093,0 -0.784448,0.33486 -0.285254,0.33177 -0.285254,0.97669 0,0.62632 0.279053,0.96428 0.282153,0.33486 0.790649,0.33486 0.176734,0 0.359668,-0.0465 0.182935,-0.0465 0.328662,-0.12093 0.127124,-0.0651 0.238745,-0.13642 0.111622,-0.0744 0.176734,-0.12713 h 0.03101 z m 3.646284,-1.45417 h -2.551778 q 0,0.31936 0.09612,0.5581 0.09612,0.23565 0.26355,0.38758 0.161228,0.14883 0.381368,0.22324 0.22324,0.0744 0.48989,0.0744 0.35347,0 0.71004,-0.13952 0.35967,-0.14263 0.5116,-0.27906 h 0.031 v 0.63563 q -0.29455,0.12402 -0.60151,0.20773 -0.30696,0.0837 -0.64492,0.0837 -0.861965,0 -1.345656,-0.46509 -0.483692,-0.46819 -0.483692,-1.32705 0,-0.84956 0.461988,-1.34875 0.465087,-0.4992 1.22163,-0.4992 0.70073,0 1.079,0.40928 0.38137,0.40928 0.38137,1.16272 z m -0.5674,-0.44649 q -0.003,-0.45888 -0.23255,-0.71003 -0.22634,-0.25115 -0.69143,-0.25115 -0.46819,0 -0.747239,0.27596 -0.275952,0.27595 -0.313159,0.68522 z m 3.61218,-0.71003 h -0.031 q -0.13022,-0.031 -0.25424,-0.0434 -0.12093,-0.0155 -0.28836,-0.0155 -0.26975,0 -0.5209,0.12092 -0.25114,0.11782 -0.48369,0.30696 v 2.45876 h -0.58291 v -3.46335 h 0.58291 v 0.5116 q 0.34727,-0.27906 0.61082,-0.39378 0.26665,-0.11782 0.5426,-0.11782 0.15193,0 0.22014,0.009 0.0682,0.006 0.20464,0.0279 z m 2.34714,2.79673 q -0.16433,0.0434 -0.35967,0.0713 -0.19223,0.0279 -0.34416,0.0279 -0.5302,0 -0.80615,-0.28526 -0.27595,-0.28525 -0.27595,-0.91467 v -1.84175 h -0.39378 v -0.48989 h 0.39378 v -0.99529 h 0.58291 v 0.99529 h 1.20302 v 0.48989 h -1.20302 v 1.5782 q 0,0.27285 0.0124,0.42788 0.0124,0.15193 0.0868,0.28526 0.0682,0.12402 0.18604,0.18293 0.12092,0.0558 0.36587,0.0558 0.14263,0 0.29765,-0.0403 0.15503,-0.0434 0.22325,-0.0713 h 0.031 z m 3.39514,0.031 h -0.57981 v -0.36896 q -0.0775,0.0527 -0.21084,0.14882 -0.13022,0.093 -0.25424,0.14883 -0.14573,0.0713 -0.33487,0.11782 -0.18913,0.0496 -0.44338,0.0496 -0.46819,0 -0.79375,-0.31006 -0.32556,-0.31005 -0.32556,-0.79064 0,-0.39378 0.16743,-0.63563 0.17053,-0.24494 0.48369,-0.38447 0.31626,-0.13952 0.75964,-0.18913 0.44339,-0.0496 0.95188,-0.0744 v -0.0899 q 0,-0.19844 -0.0713,-0.32867 -0.0682,-0.13022 -0.19844,-0.20464 -0.12402,-0.0713 -0.29765,-0.0961 -0.17364,-0.0248 -0.36277,-0.0248 -0.22944,0 -0.5116,0.062 -0.28215,0.0589 -0.58291,0.17364 h -0.031 v -0.59222 q 0.17053,-0.0465 0.49299,-0.10231 0.32246,-0.0558 0.63562,-0.0558 0.36587,0 0.63562,0.062 0.27285,0.0589 0.47129,0.20464 0.19534,0.14262 0.29765,0.36896 0.10232,0.22635 0.10232,0.56121 z m -0.57981,-0.85266 v -0.96428 q -0.26665,0.0155 -0.62941,0.0465 -0.35967,0.031 -0.57051,0.0899 -0.25115,0.0713 -0.40618,0.22324 -0.15503,0.14883 -0.15503,0.41238 0,0.29765 0.17984,0.44958 0.17983,0.14883 0.5488,0.14883 0.30696,0 0.56121,-0.11782 0.25424,-0.12092 0.47128,-0.28836 z m 2.32854,-3.1905 h -0.65732 v -0.60461 h 0.65732 z m -0.0372,4.04316 h -0.58291 v -3.46335 h 0.58291 z m 4.04936,0 h -0.58291 v -1.97197 q 0,-0.23874 -0.0279,-0.44648 -0.0279,-0.21084 -0.10232,-0.32866 -0.0775,-0.13023 -0.22324,-0.19224 -0.14573,-0.0651 -0.37827,-0.0651 -0.23875,0 -0.4992,0.11782 -0.26045,0.11782 -0.49919,0.30076 v 2.58588 h -0.58291 v -3.46335 h 0.58291 v 0.38447 q 0.27285,-0.22634 0.5643,-0.35346 0.29146,-0.12713 0.59842,-0.12713 0.5612,0 0.85576,0.33797 0.29455,0.33796 0.29455,0.97358 z m 2.92075,-0.031 q -0.16433,0.0434 -0.35966,0.0713 -0.19224,0.0279 -0.34417,0.0279 -0.5302,0 -0.80615,-0.28526 -0.27595,-0.28525 -0.27595,-0.91467 v -1.84175 h -0.39378 v -0.48989 h 0.39378 v -0.99529 h 0.58291 v 0.99529 h 1.20302 v 0.48989 h -1.20302 v 1.5782 q 0,0.27285 0.0124,0.42788 0.0124,0.15193 0.0868,0.28526 0.0682,0.12402 0.18603,0.18293 0.12092,0.0558 0.36587,0.0558 0.14263,0 0.29766,-0.0403 0.15503,-0.0434 0.22324,-0.0713 h 0.031 z m 3.668,-3.43235 -2.02158,4.7408 h -0.62322 l 0.64492,-1.44488 -1.37976,-3.29592 h 0.63252 l 1.0635,2.56729 1.0728,-2.56729 z"
       id="text12"
       transform="translate(-0.10386919,1.8556259)"
       aria-label="Induced Error/Uncertainty" />
    <g
       id="text13"
       style="font-size:6.35px;-inkscape-font-specification:'sans-serif, Normal';white-space:pre-wrap;stroke-width:0.264583"
       transform="translate(0.0062015,1.5552165)"
       aria-label="Theoretical Optimum&#10;(Quantity) Demand">
      <path
         style="text-align:center;text-anchor:middle"
         d="m 91.327967,90.483947 h -1.649512 v 4.071069 h -0.613916 v -4.071069 h -1.649512 v -0.545703 h 3.91294 z m 3.469555,4.071069 h -0.58291 v -1.971972 q 0,-0.238746 -0.02791,-0.446485 -0.02791,-0.21084 -0.10232,-0.328662 -0.07751,-0.130225 -0.223242,-0.192236 -0.145727,-0.06511 -0.378271,-0.06511 -0.238745,0 -0.499195,0.117823 -0.260449,0.117822 -0.499194,0.300757 v 2.585888 h -0.58291 v -4.824511 h 0.58291 v 1.745629 q 0.272852,-0.226342 0.564307,-0.353466 0.291455,-0.127124 0.598413,-0.127124 0.561206,0 0.855761,0.337963 0.294556,0.337964 0.294556,0.973584 z m 4.02146,-1.671216 h -2.551783 q 0,0.319361 0.09612,0.558106 0.09612,0.235644 0.263549,0.387573 0.161231,0.148828 0.381372,0.223242 0.223243,0.07441 0.489893,0.07441 0.353467,0 0.710034,-0.139526 0.359668,-0.142627 0.511597,-0.279053 h 0.03101 v 0.63562 q -0.294556,0.124024 -0.601514,0.20774 -0.306958,0.08371 -0.644922,0.08371 -0.861963,0 -1.345654,-0.465087 -0.483692,-0.468189 -0.483692,-1.327051 0,-0.849561 0.461988,-1.348755 0.465088,-0.499194 1.221631,-0.499194 0.700732,0 1.079004,0.409277 0.381372,0.409277 0.381372,1.16272 z m -0.567408,-0.446484 q -0.0031,-0.458887 -0.232544,-0.710034 -0.226342,-0.251148 -0.69143,-0.251148 -0.468189,0 -0.747241,0.275953 -0.275953,0.275952 -0.31316,0.685229 z m 4.402836,0.387573 q 0,0.84646 -0.43409,1.336353 -0.43408,0.489892 -1.16272,0.489892 -0.73483,0 -1.168916,-0.489892 -0.430982,-0.489893 -0.430982,-1.336353 0,-0.84646 0.430982,-1.336352 0.434086,-0.492993 1.168916,-0.492993 0.72864,0 1.16272,0.492993 0.43409,0.489892 0.43409,1.336352 z m -0.60152,0 q 0,-0.672827 -0.26355,-0.998388 -0.26355,-0.328663 -0.73174,-0.328663 -0.47438,0 -0.73793,0.328663 -0.26045,0.325561 -0.26045,0.998388 0,0.651123 0.26355,0.989087 0.26355,0.334863 0.73483,0.334863 0.46509,0 0.72864,-0.331762 0.26665,-0.334864 0.26665,-0.992188 z m 3.6649,-1.097607 h -0.031 q -0.13022,-0.03101 -0.25425,-0.04341 -0.12092,-0.0155 -0.28835,-0.0155 -0.26975,0 -0.5209,0.120923 -0.25115,0.117822 -0.48369,0.306958 v 2.458764 h -0.58291 v -3.463354 h 0.58291 v 0.511596 q 0.34726,-0.279052 0.61081,-0.393774 0.26665,-0.117822 0.54261,-0.117822 0.15192,0 0.22014,0.0093 0.0682,0.0062 0.20464,0.02791 z m 3.44785,1.156518 h -2.55178 q 0,0.319361 0.0961,0.558106 0.0961,0.235644 0.26355,0.387573 0.16123,0.148828 0.38138,0.223242 0.22324,0.07441 0.48989,0.07441 0.35346,0 0.71003,-0.139526 0.35967,-0.142627 0.5116,-0.279053 h 0.031 v 0.63562 q -0.29455,0.124024 -0.60151,0.20774 -0.30696,0.08371 -0.64492,0.08371 -0.86196,0 -1.34566,-0.465087 -0.48369,-0.468189 -0.48369,-1.327051 0,-0.849561 0.46199,-1.348755 0.46509,-0.499194 1.22163,-0.499194 0.70073,0 1.07901,0.409277 0.38137,0.409277 0.38137,1.16272 z m -0.56741,-0.446484 q -0.003,-0.458887 -0.23254,-0.710034 -0.22635,-0.251148 -0.69143,-0.251148 -0.46819,0 -0.74725,0.275953 -0.27595,0.275952 -0.31315,0.685229 z m 3.24941,2.086694 q -0.16433,0.04341 -0.35966,0.07131 -0.19224,0.0279 -0.34417,0.0279 -0.5302,0 -0.80615,-0.285254 -0.27595,-0.285254 -0.27595,-0.914673 v -1.841748 h -0.39378 v -0.489892 h 0.39378 v -0.995288 h 0.58291 v 0.995288 h 1.20302 v 0.489892 h -1.20302 v 1.578199 q 0,0.272851 0.0124,0.42788 0.0124,0.151929 0.0868,0.285254 0.0682,0.124024 0.18603,0.182935 0.12092,0.05581 0.36587,0.05581 0.14263,0 0.29766,-0.04031 0.15503,-0.04341 0.22324,-0.07131 h 0.031 z m 1.33016,-4.012158 h -0.65733 v -0.604614 h 0.65733 z m -0.0372,4.043164 h -0.58291 v -3.463354 h 0.58291 z m 3.7145,-0.217041 q -0.29146,0.139527 -0.55501,0.217041 -0.26044,0.07752 -0.555,0.07752 -0.37517,0 -0.68833,-0.108521 -0.31316,-0.111621 -0.5364,-0.334863 -0.22634,-0.223242 -0.35037,-0.564307 -0.12402,-0.341064 -0.12402,-0.79685 0,-0.849561 0.46509,-1.333252 0.46819,-0.483691 1.23403,-0.483691 0.29766,0 0.58291,0.08371 0.28835,0.08372 0.5271,0.204639 v 0.648022 h -0.031 q -0.26665,-0.207739 -0.5519,-0.31936 -0.28215,-0.111621 -0.5519,-0.111621 -0.4961,0 -0.78445,0.334863 -0.28526,0.331763 -0.28526,0.976685 0,0.626318 0.27906,0.964282 0.28215,0.334863 0.79065,0.334863 0.17673,0 0.35966,-0.04651 0.18294,-0.04651 0.32867,-0.120923 0.12712,-0.06511 0.23874,-0.136426 0.11162,-0.07441 0.17673,-0.127124 h 0.031 z m 3.43855,0.217041 h -0.57981 v -0.36897 q -0.0775,0.05271 -0.21084,0.148829 -0.13022,0.09302 -0.25425,0.148828 -0.14573,0.07131 -0.33486,0.117822 -0.18914,0.04961 -0.44339,0.04961 -0.46818,0 -0.79375,-0.310058 -0.32556,-0.310059 -0.32556,-0.79065 0,-0.393774 0.16743,-0.63562 0.17054,-0.244946 0.4837,-0.384472 0.31626,-0.139527 0.75964,-0.189136 0.44338,-0.04961 0.95188,-0.07441 v -0.08992 q 0,-0.198438 -0.0713,-0.328662 -0.0682,-0.130225 -0.19844,-0.204639 -0.12402,-0.07131 -0.29766,-0.09612 -0.17363,-0.02481 -0.36277,-0.02481 -0.22944,0 -0.51159,0.06201 -0.28216,0.05891 -0.58291,0.173633 h -0.031 v -0.592212 q 0.17053,-0.04651 0.49299,-0.10232 0.32247,-0.05581 0.63562,-0.05581 0.36587,0 0.63562,0.06201 0.27286,0.05891 0.47129,0.204638 0.19534,0.142627 0.29766,0.36897 0.10232,0.226343 0.10232,0.561206 z m -0.57981,-0.852661 v -0.964282 q -0.26665,0.0155 -0.62942,0.04651 -0.35967,0.031 -0.57051,0.08992 -0.25114,0.07131 -0.40617,0.223242 -0.15503,0.148828 -0.15503,0.412378 0,0.297656 0.17983,0.449585 0.17983,0.148828 0.5488,0.148828 0.30696,0 0.56121,-0.117822 0.25425,-0.120923 0.47129,-0.288355 z m 2.29133,0.852661 h -0.58291 v -4.824511 h 0.58291 z m -27.728536,3.850928 q 0.282153,0.310059 0.430981,0.759644 0.151929,0.449584 0.151929,1.020092 0,0.57051 -0.155029,1.02319 -0.151929,0.44959 -0.427881,0.75035 -0.285254,0.31315 -0.675928,0.47128 -0.387573,0.15813 -0.886768,0.15813 -0.486792,0 -0.886767,-0.16123 -0.396875,-0.16123 -0.675928,-0.46818 -0.279053,-0.30696 -0.430981,-0.75345 -0.148828,-0.44648 -0.148828,-1.02009 0,-0.564306 0.148828,-1.010791 0.148828,-0.449585 0.434082,-0.768945 0.272851,-0.303857 0.675927,-0.465088 0.406177,-0.16123 0.883667,-0.16123 0.496094,0 0.889869,0.164331 0.396875,0.16123 0.672827,0.461987 z m -0.05581,1.779736 q 0,-0.89917 -0.403076,-1.385962 -0.403076,-0.489892 -1.100708,-0.489892 -0.703833,0 -1.106909,0.489892 -0.399976,0.486792 -0.399976,1.385962 0,0.90847 0.409278,1.39216 0.409277,0.48059 1.097607,0.48059 0.68833,0 1.094507,-0.48059 0.409277,-0.48369 0.409277,-1.39216 z m 4.613672,0.5333 q 0,0.42168 -0.120923,0.77205 -0.120923,0.34726 -0.341064,0.58911 -0.204639,0.22944 -0.483692,0.35657 -0.275952,0.12402 -0.58601,0.12402 -0.269751,0 -0.489893,-0.0589 -0.217041,-0.0589 -0.443384,-0.18294 v 1.45108 h -0.58291 v -4.740798 h 0.58291 v 0.362768 q 0.232544,-0.195337 0.520899,-0.325561 0.291455,-0.133325 0.620117,-0.133325 0.626318,0 0.973584,0.474389 0.350366,0.471289 0.350366,1.311547 z m -0.601514,0.0155 q 0,-0.62631 -0.21394,-0.936373 -0.21394,-0.310059 -0.657324,-0.310059 -0.251148,0 -0.505396,0.108521 -0.254248,0.10852 -0.486792,0.285254 v 1.962667 q 0.248047,0.11162 0.424781,0.15193 0.179834,0.0403 0.406176,0.0403 0.486792,0 0.759644,-0.32866 0.272851,-0.32866 0.272851,-0.97359 z m 3.308328,1.72703 q -0.16433,0.0434 -0.35967,0.0713 -0.19224,0.0279 -0.34417,0.0279 -0.5302,0 -0.80615,-0.28525 -0.27595,-0.28526 -0.27595,-0.91468 v -1.841746 h -0.393774 v -0.489892 h 0.393774 v -0.995288 h 0.58291 v 0.995288 h 1.20303 v 0.489892 h -1.20303 v 1.578196 q 0,0.27285 0.0124,0.42788 0.0124,0.15193 0.0868,0.28526 0.0682,0.12402 0.18603,0.18293 0.12093,0.0558 0.36587,0.0558 0.14263,0 0.29766,-0.0403 0.15503,-0.0434 0.22324,-0.0713 h 0.031 z m 1.33015,-4.012158 h -0.65733 v -0.604614 h 0.65733 z m -0.0372,4.043168 h -0.58291 v -3.463358 h 0.58291 z m 6.20737,0 h -0.58291 v -1.97198 q 0,-0.22324 -0.0217,-0.43098 -0.0186,-0.207737 -0.0837,-0.331761 -0.0713,-0.133325 -0.20464,-0.201538 -0.13332,-0.06821 -0.38447,-0.06821 -0.24494,0 -0.48989,0.124024 -0.24495,0.120923 -0.48989,0.310058 0.009,0.07131 0.0155,0.167427 0.006,0.093 0.006,0.18604 v 2.21692 h -0.58291 v -1.97198 q 0,-0.22944 -0.0217,-0.43408 -0.0186,-0.207735 -0.0837,-0.331758 -0.0713,-0.133325 -0.20464,-0.198438 -0.13332,-0.06821 -0.38447,-0.06821 -0.23875,0 -0.48059,0.117823 -0.23875,0.117822 -0.47749,0.300757 v 2.585896 h -0.58291 v -3.463362 h 0.58291 v 0.384472 q 0.27285,-0.226342 0.5426,-0.353466 0.27285,-0.127124 0.57981,-0.127124 0.35347,0 0.59841,0.148828 0.24805,0.148828 0.36897,0.412378 0.35347,-0.297657 0.64493,-0.427881 0.29145,-0.133325 0.62321,-0.133325 0.57051,0 0.84026,0.347265 0.27285,0.344165 0.27285,0.964285 z m 3.99356,0 h -0.58291 v -0.38448 q -0.29456,0.23255 -0.56431,0.35657 -0.26975,0.12402 -0.59531,0.12402 -0.5457,0 -0.84956,-0.33176 -0.30386,-0.33486 -0.30386,-0.97978 v -2.247928 h 0.58291 v 1.971968 q 0,0.26355 0.0248,0.45269 0.0248,0.18604 0.10542,0.31936 0.0837,0.13643 0.21704,0.19844 0.13332,0.062 0.38757,0.062 0.22634,0 0.49299,-0.11782 0.26975,-0.11783 0.5023,-0.30076 v -2.585888 h 0.58291 z m 6.20117,0 h -0.58291 v -1.97198 q 0,-0.22324 -0.0217,-0.43098 -0.0186,-0.207737 -0.0837,-0.331761 -0.0713,-0.133325 -0.20464,-0.201538 -0.13332,-0.06821 -0.38447,-0.06821 -0.24495,0 -0.48989,0.124024 -0.24495,0.120923 -0.4899,0.310058 0.009,0.07131 0.0155,0.167427 0.006,0.093 0.006,0.18604 v 2.21692 h -0.58291 v -1.97198 q 0,-0.22944 -0.0217,-0.43408 -0.0186,-0.207735 -0.0837,-0.331758 -0.0713,-0.133325 -0.20464,-0.198438 -0.13333,-0.06821 -0.38447,-0.06821 -0.23875,0 -0.48059,0.117823 -0.23875,0.117822 -0.47749,0.300757 v 2.585896 h -0.58291 v -3.463362 h 0.58291 v 0.384472 q 0.27285,-0.226342 0.5426,-0.353466 0.27285,-0.127124 0.57981,-0.127124 0.35346,0 0.59841,0.148828 0.24805,0.148828 0.36897,0.412378 0.35347,-0.297657 0.64492,-0.427881 0.29146,-0.133325 0.62322,-0.133325 0.57051,0 0.84026,0.347265 0.27285,0.344165 0.27285,0.964285 z"
         id="path25" />
      <path
         style="text-align:center;text-anchor:middle"
         d="M 76.446705,111.70746 H 75.73667 q -0.548803,-0.62942 -0.852661,-1.37356 -0.303857,-0.74414 -0.303857,-1.67742 0,-0.93328 0.303857,-1.67742 0.303858,-0.74414 0.852661,-1.37356 h 0.710035 v 0.031 q -0.251148,0.22634 -0.480591,0.524 -0.226343,0.29456 -0.42168,0.68833 -0.186035,0.38137 -0.303857,0.84026 -0.114722,0.45888 -0.114722,0.96738 0,0.5302 0.111621,0.97048 0.114722,0.44029 0.306958,0.83716 0.186035,0.38137 0.42478,0.68833 0.238745,0.31006 0.477491,0.524 z m 5.193481,-0.14573 q -0.186035,0.0465 -0.36897,0.0651 -0.179834,0.0217 -0.36897,0.0217 -0.539501,0 -0.868164,-0.29766 -0.325561,-0.29456 -0.353466,-0.84646 -0.07441,0.0124 -0.145728,0.0155 -0.06821,0.006 -0.133325,0.006 -0.486792,0 -0.886768,-0.16123 -0.396875,-0.16123 -0.675927,-0.46818 -0.279053,-0.30696 -0.430982,-0.75345 -0.148828,-0.44648 -0.148828,-1.02009 0,-0.56431 0.148828,-1.01079 0.148828,-0.44959 0.434082,-0.76895 0.272852,-0.30385 0.675928,-0.46508 0.406177,-0.16123 0.883667,-0.16123 0.496094,0 0.889868,0.16433 0.396875,0.16123 0.672827,0.46198 0.282154,0.31006 0.430982,0.75965 0.151928,0.44958 0.151928,1.02009 0,0.84646 -0.347265,1.42627 -0.344165,0.57981 -0.927075,0.81235 0.0124,0.35347 0.167431,0.54881 0.155029,0.19533 0.564307,0.19533 0.127124,0 0.300757,-0.0403 0.176733,-0.0372 0.251147,-0.0682 h 0.08372 z m -0.731738,-3.43855 q 0,-0.89917 -0.403076,-1.38596 -0.403077,-0.48989 -1.100708,-0.48989 -0.703833,0 -1.10691,0.48989 -0.399975,0.48679 -0.399975,1.38596 0,0.90847 0.409277,1.39216 0.409277,0.48059 1.097608,0.48059 0.68833,0 1.094506,-0.48059 0.409278,-0.48369 0.409278,-1.39216 z m 4.436938,2.30684 h -0.58291 v -0.38448 q -0.294556,0.23255 -0.564307,0.35657 -0.269751,0.12402 -0.595312,0.12402 -0.545703,0 -0.849561,-0.33176 -0.303857,-0.33486 -0.303857,-0.97978 v -2.24793 h 0.58291 v 1.97197 q 0,0.26355 0.02481,0.45269 0.02481,0.18604 0.10542,0.31936 0.08372,0.13643 0.217041,0.19844 0.133325,0.062 0.387573,0.062 0.226343,0 0.492993,-0.11782 0.269751,-0.11783 0.502295,-0.30076 v -2.58589 h 0.58291 z m 3.838526,0 h -0.57981 v -0.36897 q -0.07751,0.0527 -0.210839,0.14882 -0.130225,0.093 -0.254249,0.14883 -0.145727,0.0713 -0.334863,0.11782 -0.189136,0.0496 -0.443384,0.0496 -0.468188,0 -0.79375,-0.31005 -0.325561,-0.31006 -0.325561,-0.79065 0,-0.39378 0.167432,-0.63562 0.170532,-0.24495 0.483691,-0.38448 0.31626,-0.13952 0.759644,-0.18913 0.443383,-0.0496 0.951879,-0.0744 v -0.0899 q 0,-0.19844 -0.07131,-0.32867 -0.06821,-0.13022 -0.198438,-0.20463 -0.124023,-0.0713 -0.297656,-0.0961 -0.173633,-0.0248 -0.362768,-0.0248 -0.229444,0 -0.511597,0.062 -0.282153,0.0589 -0.58291,0.17364 h -0.03101 v -0.59221 q 0.170532,-0.0465 0.492993,-0.10232 0.322461,-0.0558 0.63562,-0.0558 0.365869,0 0.63562,0.062 0.272852,0.0589 0.471289,0.20464 0.195337,0.14262 0.297657,0.36897 0.102319,0.22634 0.102319,0.5612 z m -0.57981,-0.85266 v -0.96429 q -0.26665,0.0155 -0.629419,0.0465 -0.359668,0.031 -0.570507,0.0899 -0.251148,0.0713 -0.406177,0.22324 -0.155029,0.14883 -0.155029,0.41238 0,0.29765 0.179834,0.44958 0.179834,0.14883 0.548803,0.14883 0.306958,0 0.561206,-0.11782 0.254248,-0.12092 0.471289,-0.28835 z m 4.598169,0.85266 h -0.58291 v -1.97198 q 0,-0.23874 -0.02791,-0.44648 -0.0279,-0.21084 -0.102319,-0.32866 -0.07752,-0.13023 -0.223243,-0.19224 -0.145727,-0.0651 -0.378271,-0.0651 -0.238745,0 -0.499194,0.11782 -0.26045,0.11782 -0.499195,0.30076 v 2.58589 h -0.58291 v -3.46336 h 0.58291 v 0.38447 q 0.272852,-0.22634 0.564307,-0.35346 0.291455,-0.12713 0.598413,-0.12713 0.561206,0 0.855762,0.33797 0.294555,0.33796 0.294555,0.97358 z m 2.920751,-0.031 q -0.164331,0.0434 -0.359668,0.0713 -0.192236,0.0279 -0.344165,0.0279 -0.5302,0 -0.806152,-0.28525 -0.275952,-0.28526 -0.275952,-0.91468 v -1.84175 H 93.94331 v -0.48989 h 0.393775 v -0.99529 h 0.58291 v 0.99529 h 1.203027 v 0.48989 h -1.203027 v 1.5782 q 0,0.27285 0.0124,0.42788 0.0124,0.15193 0.08682,0.28526 0.06821,0.12402 0.186035,0.18293 0.120923,0.0558 0.365869,0.0558 0.142627,0 0.297656,-0.0403 0.155029,-0.0434 0.223242,-0.0713 h 0.03101 z m 1.330151,-4.01216 h -0.657324 v -0.60461 h 0.657324 z m -0.03721,4.04317 h -0.58291 v -3.46336 h 0.58291 z m 2.951767,-0.031 q -0.16434,0.0434 -0.35967,0.0713 -0.192242,0.0279 -0.344171,0.0279 -0.5302,0 -0.806152,-0.28525 -0.275952,-0.28526 -0.275952,-0.91468 v -1.84175 h -0.393774 v -0.48989 h 0.393774 v -0.99529 h 0.58291 v 0.99529 h 1.203035 v 0.48989 h -1.203035 v 1.5782 q 0,0.27285 0.0124,0.42788 0.0124,0.15193 0.08682,0.28526 0.06821,0.12402 0.186035,0.18293 0.120923,0.0558 0.365869,0.0558 0.142627,0 0.297661,-0.0403 0.15503,-0.0434 0.22324,-0.0713 h 0.031 z m 3.66799,-3.43235 -2.02158,4.7408 h -0.62322 l 0.64492,-1.44488 -1.37976,-3.29592 h 0.63252 l 1.0635,2.56729 1.0728,-2.56729 z m 2.51147,1.68982 q 0,0.93328 -0.30385,1.67742 -0.30386,0.74414 -0.85267,1.37356 h -0.71003 v -0.031 q 0.23874,-0.21394 0.47749,-0.524 0.24185,-0.30696 0.42478,-0.68833 0.19224,-0.39687 0.30386,-0.83716 0.11472,-0.44028 0.11472,-0.97048 0,-0.5085 -0.11472,-0.96738 -0.11472,-0.45889 -0.30386,-0.84026 -0.19534,-0.39377 -0.42478,-0.68833 -0.22634,-0.29766 -0.47749,-0.524 v -0.031 h 0.71003 q 0.54881,0.62942 0.85267,1.37356 0.30385,0.74414 0.30385,1.67742 z m 7.31428,-0.5302 q 0,0.62942 -0.27595,1.14102 -0.27285,0.51159 -0.72864,0.79375 -0.31626,0.19533 -0.70693,0.28215 -0.38757,0.0868 -1.02319,0.0868 h -1.16582 v -4.61678 h 1.15341 q 0.67593,0 1.07281,0.0992 0.39997,0.0961 0.67592,0.26665 0.47129,0.29456 0.73484,0.78445 0.26355,0.48989 0.26355,1.16272 z m -0.64182,-0.009 q 0,-0.5426 -0.18913,-0.91467 -0.18914,-0.37207 -0.56431,-0.58601 -0.27285,-0.15503 -0.57981,-0.21394 -0.30696,-0.062 -0.73484,-0.062 h -0.57671 v 3.56258 h 0.57671 q 0.44338,0 0.77205,-0.0651 0.33176,-0.0651 0.60771,-0.24184 0.34417,-0.22014 0.5147,-0.57981 0.17363,-0.35967 0.17363,-0.89917 z m 4.48655,0.64182 h -2.55178 q 0,0.31936 0.0961,0.55811 0.0961,0.23564 0.26355,0.38757 0.16123,0.14883 0.38137,0.22324 0.22324,0.0744 0.48989,0.0744 0.35347,0 0.71004,-0.13953 0.35966,-0.14263 0.51159,-0.27905 h 0.031 v 0.63562 q -0.29456,0.12402 -0.60151,0.20774 -0.30696,0.0837 -0.64493,0.0837 -0.86196,0 -1.34565,-0.46509 -0.48369,-0.46818 -0.48369,-1.32705 0,-0.84956 0.46198,-1.34875 0.46509,-0.4992 1.22164,-0.4992 0.70073,0 1.079,0.40928 0.38137,0.40928 0.38137,1.16272 z m -0.56741,-0.44648 q -0.003,-0.45889 -0.23254,-0.71004 -0.22634,-0.25115 -0.69143,-0.25115 -0.46819,0 -0.74724,0.27596 -0.27595,0.27595 -0.31316,0.68523 z m 6.50503,2.1177 h -0.58291 v -1.97198 q 0,-0.22324 -0.0217,-0.43098 -0.0186,-0.20774 -0.0837,-0.33176 -0.0713,-0.13333 -0.20464,-0.20154 -0.13332,-0.0682 -0.38447,-0.0682 -0.24494,0 -0.48989,0.12402 -0.24495,0.12092 -0.48989,0.31006 0.009,0.0713 0.0155,0.16743 0.006,0.093 0.006,0.18604 v 2.21692 h -0.58291 v -1.97198 q 0,-0.22944 -0.0217,-0.43408 -0.0186,-0.20774 -0.0837,-0.33176 -0.0713,-0.13333 -0.20464,-0.19844 -0.13332,-0.0682 -0.38447,-0.0682 -0.23875,0 -0.48059,0.11782 -0.23875,0.11782 -0.47749,0.30076 v 2.58589 h -0.58291 V 106.967 h 0.58291 v 0.38447 q 0.27285,-0.22634 0.5426,-0.35346 0.27285,-0.12713 0.57981,-0.12713 0.35347,0 0.59841,0.14883 0.24805,0.14883 0.36897,0.41238 0.35347,-0.29766 0.64493,-0.42788 0.29145,-0.13333 0.62321,-0.13333 0.57051,0 0.84026,0.34727 0.27285,0.34416 0.27285,0.96428 z m 3.81372,0 h -0.57981 v -0.36897 q -0.0775,0.0527 -0.21084,0.14882 -0.13022,0.093 -0.25425,0.14883 -0.14572,0.0713 -0.33486,0.11782 -0.18913,0.0496 -0.44338,0.0496 -0.46819,0 -0.79375,-0.31005 -0.32556,-0.31006 -0.32556,-0.79065 0,-0.39378 0.16743,-0.63562 0.17053,-0.24495 0.48369,-0.38448 0.31626,-0.13952 0.75964,-0.18913 0.44339,-0.0496 0.95188,-0.0744 v -0.0899 q 0,-0.19844 -0.0713,-0.32867 -0.0682,-0.13022 -0.19844,-0.20463 -0.12402,-0.0713 -0.29765,-0.0961 -0.17364,-0.0248 -0.36277,-0.0248 -0.22945,0 -0.5116,0.062 -0.28215,0.0589 -0.58291,0.17364 h -0.031 v -0.59221 q 0.17054,-0.0465 0.493,-0.10232 0.32246,-0.0558 0.63562,-0.0558 0.36587,0 0.63562,0.062 0.27285,0.0589 0.47129,0.20464 0.19533,0.14262 0.29765,0.36897 0.10232,0.22634 0.10232,0.5612 z m -0.57981,-0.85266 v -0.96429 q -0.26665,0.0155 -0.62942,0.0465 -0.35966,0.031 -0.5705,0.0899 -0.25115,0.0713 -0.40618,0.22324 -0.15503,0.14883 -0.15503,0.41238 0,0.29765 0.17983,0.44958 0.17984,0.14883 0.54881,0.14883 0.30696,0 0.5612,-0.11782 0.25425,-0.12092 0.47129,-0.28835 z m 4.59817,0.85266 h -0.58291 v -1.97198 q 0,-0.23874 -0.0279,-0.44648 -0.0279,-0.21084 -0.10232,-0.32866 -0.0775,-0.13023 -0.22325,-0.19224 -0.14572,-0.0651 -0.37827,-0.0651 -0.23874,0 -0.49919,0.11782 -0.26045,0.11782 -0.4992,0.30076 v 2.58589 h -0.58291 v -3.46336 h 0.58291 v 0.38447 q 0.27286,-0.22634 0.56431,-0.35346 0.29146,-0.12713 0.59841,-0.12713 0.56121,0 0.85577,0.33797 0.29455,0.33796 0.29455,0.97358 z m 3.93155,0 h -0.58291 v -0.36277 q -0.25115,0.21704 -0.524,0.33796 -0.27286,0.12092 -0.59222,0.12092 -0.62011,0 -0.98598,-0.47749 -0.36277,-0.47749 -0.36277,-1.32395 0,-0.44028 0.12402,-0.78444 0.12713,-0.34417 0.34107,-0.58602 0.21084,-0.23564 0.48989,-0.35966 0.28215,-0.12403 0.58291,-0.12403 0.27285,0 0.48369,0.0589 0.21084,0.0558 0.44339,0.17674 v -1.50069 h 0.58291 z m -0.58291,-0.85266 v -1.98748 q -0.23565,-0.10542 -0.42168,-0.14573 -0.18604,-0.0403 -0.40618,-0.0403 -0.48989,0 -0.76275,0.34107 -0.27285,0.34106 -0.27285,0.96738 0,0.61702 0.21084,0.93948 0.21084,0.31936 0.67593,0.31936 0.24805,0 0.5023,-0.10852 0.25424,-0.11162 0.47439,-0.28525 z"
         id="path26" />
    </g>
    <path
       style="font-size:6.35px;-inkscape-font-specification:'sans-serif, Normal';text-align:center;text-anchor:middle;white-space:pre-wrap;stroke-width:0.264583"
       d="m 87.658423,71.903991 q 0,0.502295 -0.111621,0.877466 -0.10852,0.37207 -0.359668,0.620117 -0.238745,0.235644 -0.558105,0.344165 -0.319361,0.10852 -0.744141,0.10852 -0.434082,0 -0.756543,-0.114721 -0.322461,-0.114722 -0.542603,-0.337964 -0.251147,-0.254248 -0.362768,-0.613916 -0.108521,-0.359668 -0.108521,-0.883667 v -2.762622 h 0.613916 v 2.793628 q 0,0.375171 0.04961,0.592212 0.05271,0.217041 0.173633,0.393774 0.136425,0.201538 0.368969,0.303857 0.235645,0.10232 0.564307,0.10232 0.331763,0 0.564307,-0.09922 0.232544,-0.102319 0.37207,-0.306958 0.120923,-0.176733 0.170532,-0.403076 0.05271,-0.229444 0.05271,-0.567407 v -2.809131 h 0.613916 z m 2.923852,1.823144 q -0.164331,0.04341 -0.359668,0.07131 -0.192236,0.0279 -0.344165,0.0279 -0.5302,0 -0.806152,-0.285254 -0.275952,-0.285254 -0.275952,-0.914673 V 70.78467 h -0.393774 v -0.489892 h 0.393774 V 69.29949 h 0.58291 v 0.995288 h 1.203027 v 0.489892 h -1.203027 v 1.578199 q 0,0.272851 0.0124,0.42788 0.0124,0.151929 0.08682,0.285254 0.06821,0.124024 0.186035,0.182935 0.120923,0.05581 0.365869,0.05581 0.142627,0 0.297656,-0.04031 0.15503,-0.04341 0.223243,-0.07131 h 0.031 z m 1.330152,-4.012158 h -0.657324 v -0.604614 h 0.657324 z m -0.03721,4.043164 h -0.58291 v -3.463354 h 0.58291 z m 1.742529,0 h -0.58291 V 68.93363 h 0.58291 z m 1.779737,-4.043164 h -0.657325 v -0.604614 h 0.657325 z m -0.03721,4.043164 h -0.582911 v -3.463354 h 0.582911 z m 2.951757,-0.03101 q -0.164331,0.04341 -0.359668,0.07131 -0.192236,0.0279 -0.344165,0.0279 -0.5302,0 -0.806152,-0.285254 -0.275952,-0.285254 -0.275952,-0.914673 v -1.841748 h -0.393775 v -0.489892 h 0.393775 v -0.995288 h 0.58291 v 0.995288 h 1.203027 v 0.489892 h -1.203027 v 1.578199 q 0,0.272851 0.0124,0.42788 0.0124,0.151929 0.08682,0.285254 0.06821,0.124024 0.186036,0.182935 0.120922,0.05581 0.365869,0.05581 0.142627,0 0.297656,-0.04031 0.155029,-0.04341 0.223242,-0.07131 h 0.03101 z m 3.66799,-3.432348 -2.021579,4.740796 H 99.335229 L 99.980151,73.59071 98.60039,70.294787 h 0.63252 l 1.0635,2.567285 1.0728,-2.567285 z m 6.3345,-0.607715 H 106.665 v 4.071069 h -0.61391 v -4.071069 h -1.64951 v -0.545703 h 3.91294 z m 3.46955,4.071069 h -0.58291 v -1.971972 q 0,-0.238746 -0.0279,-0.446485 -0.0279,-0.21084 -0.10232,-0.328662 -0.0775,-0.130225 -0.22325,-0.192236 -0.14572,-0.06511 -0.37827,-0.06511 -0.23874,0 -0.49919,0.117823 -0.26045,0.117822 -0.4992,0.300757 v 2.585888 h -0.58291 v -4.82451 h 0.58291 v 1.745629 q 0.27286,-0.226342 0.56431,-0.353466 0.29146,-0.127124 0.59841,-0.127124 0.56121,0 0.85577,0.337963 0.29455,0.337964 0.29455,0.973584 z m 4.02146,-1.671216 h -2.55178 q 0,0.319361 0.0961,0.558106 0.0961,0.235644 0.26355,0.387573 0.16123,0.148828 0.38137,0.223242 0.22324,0.07441 0.48989,0.07441 0.35347,0 0.71004,-0.139526 0.35966,-0.142627 0.51159,-0.279053 h 0.031 v 0.63562 q -0.29456,0.124024 -0.60152,0.20774 -0.30695,0.08371 -0.64492,0.08371 -0.86196,0 -1.34565,-0.465087 -0.48369,-0.468189 -0.48369,-1.327051 0,-0.849561 0.46198,-1.348755 0.46509,-0.499194 1.22164,-0.499194 0.70073,0 1.079,0.409277 0.38137,0.409277 0.38137,1.16272 z m -0.56741,-0.446484 q -0.003,-0.458887 -0.23254,-0.710034 -0.22634,-0.251148 -0.69143,-0.251148 -0.46819,0 -0.74724,0.275953 -0.27595,0.275952 -0.31316,0.685229 z m 4.40284,0.387573 q 0,0.84646 -0.43409,1.336353 -0.43408,0.489892 -1.16272,0.489892 -0.73483,0 -1.16892,-0.489892 -0.43098,-0.489893 -0.43098,-1.336353 0,-0.84646 0.43098,-1.336352 0.43409,-0.492993 1.16892,-0.492993 0.72864,0 1.16272,0.492993 0.43409,0.489892 0.43409,1.336352 z m -0.60152,0 q 0,-0.672827 -0.26355,-0.998388 -0.26355,-0.328663 -0.73174,-0.328663 -0.47439,0 -0.73793,0.328663 -0.26045,0.325561 -0.26045,0.998388 0,0.651123 0.26355,0.989087 0.26355,0.334863 0.73483,0.334863 0.46509,0 0.72864,-0.331762 0.26665,-0.334864 0.26665,-0.992188 z m 3.66489,-1.097607 h -0.031 q -0.13023,-0.03101 -0.25425,-0.04341 -0.12092,-0.0155 -0.28835,-0.0155 -0.26976,0 -0.5209,0.120923 -0.25115,0.117822 -0.48369,0.306958 v 2.458764 h -0.58291 v -3.463354 h 0.58291 v 0.511596 q 0.34726,-0.279052 0.61081,-0.393774 0.26665,-0.117822 0.5426,-0.117822 0.15193,0 0.22015,0.0093 0.0682,0.0062 0.20463,0.02791 z m 3.54397,-0.63562 -2.02158,4.740796 h -0.62322 l 0.64492,-1.444873 -1.37976,-3.295923 h 0.63252 l 1.0635,2.567285 1.07281,-2.567285 z"
       id="text15"
       transform="translate(-0.18138304,0.72122119)"
       aria-label="Utility Theory" />
    <rect
       style="fill:none;fill-opacity:1;stroke:#000000;stroke-width:1.0078;stroke-dasharray:none;stroke-opacity:1"
       id="rect15"
       width="67.259094"
       height="19.989681"
       x="71.370453"
       y="158.35747" />
    <rect
       style="fill:none;fill-opacity:1;stroke:#000000;stroke-width:0.695677;stroke-dasharray:none;stroke-opacity:1"
       id="rect15-8"
       width="67.57122"
       height="9.4810972"
       x="71.214386"
       y="67.965279" />
    <rect
       style="fill:none;fill-opacity:1;stroke:#000000;stroke-width:0.913;stroke-dasharray:none;stroke-opacity:1"
       id="rect16"
       width="66.934509"
       height="19.688765"
       x="71.532745"
       y="127.21069" />
    <rect
       style="fill:none;fill-opacity:1;stroke:#000000;stroke-width:0.939;stroke-dasharray:none;stroke-opacity:1"
       id="rect18"
       width="66.037209"
       height="27.025705"
       x="71.9814"
       y="88.761345" />
    <path
       style="fill:none;fill-rule:evenodd;stroke:#000000;stroke-width:0.877038;stroke-linecap:butt;stroke-linejoin:miter;stroke-dasharray:none;stroke-opacity:1;marker-end:url(#Triangle)"
       d="m 105.09552,77.685379 -0.11968,7.703723"
       id="path24" />
    <path
       style="fill:none;fill-rule:evenodd;stroke:#000000;stroke-width:0.877038;stroke-linecap:butt;stroke-linejoin:miter;stroke-dasharray:none;stroke-opacity:1;marker-end:url(#Triangle-4)"
       d="m 105.09552,115.78705 -0.11968,7.70372"
       id="path24-1" />
    <path
       style="fill:none;fill-rule:evenodd;stroke:#000000;stroke-width:0.877038;stroke-linecap:butt;stroke-linejoin:miter;stroke-dasharray:none;stroke-opacity:1;marker-end:url(#Triangle-4-1)"
       d="m 105.09552,146.89946 -0.11968,7.70372"
       id="path24-1-7" />
  </g>
</svg>
