<?xml version="1.0" encoding="UTF-8" standalone="no"?>
<!-- Created with Inkscape (http://www.inkscape.org/) -->

<svg
   width="132.216mm"
   height="108.695mm"
   version="1.1"
   viewBox="0 0 132.21601 108.695"
   id="svg15"
   sodipodi:docname="utility_function.svg"
   inkscape:version="1.4 (86a8ad7, 2024-10-11)"
   inkscape:export-filename="supply_demand.svg"
   inkscape:export-xdpi="96"
   inkscape:export-ydpi="96"
   xmlns:inkscape="http://www.inkscape.org/namespaces/inkscape"
   xmlns:sodipodi="http://sodipodi.sourceforge.net/DTD/sodipodi-0.dtd"
   xmlns="http://www.w3.org/2000/svg"
   xmlns:svg="http://www.w3.org/2000/svg"
   xmlns:ns6="http://www.iki.fi/pav/software/textext/">
  <sodipodi:namedview
     id="namedview15"
     pagecolor="#ffffff"
     bordercolor="#000000"
     borderopacity="0.25"
     inkscape:showpageshadow="2"
     inkscape:pageopacity="0.0"
     inkscape:pagecheckerboard="0"
     inkscape:deskcolor="#d1d1d1"
     inkscape:document-units="mm"
     inkscape:zoom="1.5162318"
     inkscape:cx="280.30015"
     inkscape:cy="225.22941"
     inkscape:window-width="1920"
     inkscape:window-height="1017"
     inkscape:window-x="1912"
     inkscape:window-y="-8"
     inkscape:window-maximized="1"
     inkscape:current-layer="g14" />
  <defs
     id="defs15">
    <g
       id="g6845">
      <g
         id="g77">
        <path
           d="m 2.640625,-3.71875 h 1.125 C 3.4375,-2.25 3.34375,-1.8125 3.34375,-1.140625 c 0,0.140625 0,0.40625 0.078125,0.75 0.109375,0.4375 0.21875,0.5 0.359375,0.5 0.203125,0 0.421875,-0.171875 0.421875,-0.375 0,-0.0625 0,-0.078125 -0.0625,-0.21875 -0.296875,-0.71875 -0.296875,-1.375 -0.296875,-1.65625 0,-0.515625 0.078125,-1.0625 0.1875,-1.578125 h 1.125 c 0.140625,0 0.5,0 0.5,-0.34375 0,-0.234375 -0.21875,-0.234375 -0.40625,-0.234375 H 1.90625 c -0.21875,0 -0.59375,0 -1.03125,0.46875 -0.34375,0.390625 -0.609375,0.84375 -0.609375,0.890625 0,0.015625 0,0.109375 0.125,0.109375 0.078125,0 0.09375,-0.046875 0.15625,-0.125 C 1.03125,-3.71875 1.609375,-3.71875 1.8125,-3.71875 H 2.375 C 2.0625,-2.515625 1.53125,-1.3125 1.109375,-0.40625 1.03125,-0.25 1.03125,-0.234375 1.03125,-0.15625 c 0,0.1875 0.15625,0.265625 0.28125,0.265625 0.296875,0 0.375,-0.28125 0.5,-0.640625 C 1.953125,-1 1.953125,-1.015625 2.078125,-1.515625 Z m 0,0"
           id="path6627" />
      </g>
      <g
         id="g1978">
        <path
           d="m 2.859375,-6.8125 c 0,0 0,-0.109375 -0.125,-0.109375 -0.234375,0 -0.953125,0.078125 -1.21875,0.109375 -0.078125,0 -0.1875,0.015625 -0.1875,0.1875 0,0.125 0.09375,0.125 0.234375,0.125 0.484375,0 0.5,0.0625 0.5,0.171875 L 2.03125,-6.125 0.59375,-0.390625 c -0.046875,0.140625 -0.046875,0.15625 -0.046875,0.21875 0,0.234375 0.203125,0.28125 0.296875,0.28125 0.125,0 0.265625,-0.09375 0.328125,-0.203125 0.046875,-0.09375 0.5,-1.9375 0.5625,-2.1875 0.34375,0.03125 1.15625,0.1875 1.15625,0.84375 0,0.078125 0,0.109375 -0.03125,0.21875 -0.015625,0.109375 -0.03125,0.234375 -0.03125,0.34375 0,0.578125 0.390625,0.984375 0.90625,0.984375 0.296875,0 0.578125,-0.15625 0.796875,-0.53125 0.25,-0.4375 0.359375,-0.984375 0.359375,-1 0,-0.109375 -0.09375,-0.109375 -0.125,-0.109375 -0.09375,0 -0.109375,0.046875 -0.140625,0.1875 -0.203125,0.71875 -0.421875,1.234375 -0.859375,1.234375 -0.203125,0 -0.328125,-0.109375 -0.328125,-0.46875 0,-0.171875 0.046875,-0.40625 0.078125,-0.5625 C 3.5625,-1.3125 3.5625,-1.34375 3.5625,-1.453125 3.5625,-2.09375 2.9375,-2.375 2.078125,-2.5 2.390625,-2.671875 2.71875,-2.984375 2.9375,-3.234375 3.421875,-3.765625 3.875,-4.1875 4.359375,-4.1875 c 0.0625,0 0.078125,0 0.09375,0.015625 0.125,0.015625 0.125,0.015625 0.21875,0.078125 0.015625,0 0.015625,0.015625 0.03125,0.03125 -0.46875,0.03125 -0.5625,0.421875 -0.5625,0.546875 0,0.15625 0.109375,0.34375 0.375,0.34375 0.265625,0 0.546875,-0.21875 0.546875,-0.609375 0,-0.296875 -0.234375,-0.625 -0.671875,-0.625 -0.28125,0 -0.734375,0.078125 -1.453125,0.875 -0.34375,0.375 -0.734375,0.78125 -1.109375,0.921875 z m 0,0"
           id="path4495" />
      </g>
      <g
         id="g6343">
        <path
           d="M 3.515625,-1.265625 H 3.28125 c -0.015625,0.15625 -0.09375,0.5625 -0.1875,0.625 C 3.046875,-0.59375 2.515625,-0.59375 2.40625,-0.59375 H 1.125 c 0.734375,-0.640625 0.984375,-0.84375 1.390625,-1.171875 0.515625,-0.40625 1,-0.84375 1,-1.5 0,-0.84375 -0.734375,-1.359375 -1.625,-1.359375 -0.859375,0 -1.453125,0.609375 -1.453125,1.25 0,0.34375 0.296875,0.390625 0.375,0.390625 0.15625,0 0.359375,-0.125 0.359375,-0.375 0,-0.125 -0.046875,-0.375 -0.40625,-0.375 C 0.984375,-4.21875 1.453125,-4.375 1.78125,-4.375 c 0.703125,0 1.0625,0.546875 1.0625,1.109375 0,0.609375 -0.4375,1.078125 -0.65625,1.328125 L 0.515625,-0.265625 C 0.4375,-0.203125 0.4375,-0.1875 0.4375,0 h 2.875 z m 0,0"
           id="path4634" />
      </g>
      <g
         id="g5813">
        <path
           d="m 5.359375,-2.34375 c 0.09375,0 0.25,0 0.25,-0.171875 0,-0.171875 -0.15625,-0.171875 -0.25,-0.171875 H 0.75 c -0.09375,0 -0.265625,0 -0.265625,0.171875 0,0.171875 0.15625,0.171875 0.265625,0.171875 z m 0,1.53125 c 0.09375,0 0.25,0 0.25,-0.15625 0,-0.1875 -0.15625,-0.1875 -0.25,-0.1875 H 0.75 c -0.109375,0 -0.265625,0 -0.265625,0.1875 0,0.15625 0.171875,0.15625 0.265625,0.15625 z m 0,0"
           id="path9779" />
      </g>
      <g
         id="g4611">
        <path
           d="m 2.328125,-4.4375 c 0,-0.1875 0,-0.1875 -0.203125,-0.1875 -0.453125,0.4375 -1.078125,0.4375 -1.359375,0.4375 v 0.25 c 0.15625,0 0.625,0 1,-0.1875 v 3.546875 c 0,0.234375 0,0.328125 -0.6875,0.328125 H 0.8125 V 0 c 0.125,0 0.984375,-0.03125 1.234375,-0.03125 0.21875,0 1.09375,0.03125 1.25,0.03125 V -0.25 H 3.03125 c -0.703125,0 -0.703125,-0.09375 -0.703125,-0.328125 z m 0,0"
           id="path7427" />
      </g>
      <g
         id="g7923">
        <path
           d="m 1.3125,-3.265625 v -0.25 c 0,-2.515625 1.234375,-2.875 1.75,-2.875 0.234375,0 0.65625,0.0625 0.875,0.40625 -0.15625,0 -0.546875,0 -0.546875,0.4375 0,0.3125 0.234375,0.46875 0.453125,0.46875 0.15625,0 0.46875,-0.09375 0.46875,-0.484375 0,-0.59375 -0.4375,-1.078125 -1.265625,-1.078125 -1.28125,0 -2.625,1.28125 -2.625,3.484375 0,2.671875 1.15625,3.375 2.078125,3.375 1.109375,0 2.0625,-0.9375 2.0625,-2.25 0,-1.265625 -0.890625,-2.21875 -2,-2.21875 -0.671875,0 -1.046875,0.5 -1.25,0.984375 z M 2.5,-0.0625 c -0.625,0 -0.921875,-0.59375 -0.984375,-0.75 -0.1875,-0.46875 -0.1875,-1.265625 -0.1875,-1.4375 0,-0.78125 0.328125,-1.78125 1.21875,-1.78125 0.171875,0 0.625,0 0.9375,0.625 0.171875,0.359375 0.171875,0.875 0.171875,1.359375 0,0.484375 0,0.984375 -0.171875,1.34375 C 3.1875,-0.109375 2.734375,-0.0625 2.5,-0.0625 Z m 0,0"
           id="path3037" />
      </g>
      <g
         id="g7347">
        <path
           d="m 6.84375,-3.265625 c 0.15625,0 0.34375,0 0.34375,-0.1875 C 7.1875,-3.65625 7,-3.65625 6.859375,-3.65625 h -5.96875 c -0.140625,0 -0.328125,0 -0.328125,0.203125 0,0.1875 0.1875,0.1875 0.328125,0.1875 z m 0.015625,1.9375 c 0.140625,0 0.328125,0 0.328125,-0.203125 0,-0.1875 -0.1875,-0.1875 -0.34375,-0.1875 H 0.890625 c -0.140625,0 -0.328125,0 -0.328125,0.1875 0,0.203125 0.1875,0.203125 0.328125,0.203125 z m 0,0"
           id="path2063" />
      </g>
      <g
         id="g7661">
        <path
           d="M 1.765625,-6.921875 0.328125,-6.8125 V -6.5 c 0.703125,0 0.78125,0.0625 0.78125,0.5625 V -0.75 c 0,0.4375 -0.109375,0.4375 -0.78125,0.4375 V 0 C 0.65625,-0.015625 1.1875,-0.03125 1.4375,-0.03125 c 0.25,0 0.734375,0.015625 1.109375,0.03125 v -0.3125 c -0.671875,0 -0.78125,0 -0.78125,-0.4375 z m 0,0"
           id="path213" />
      </g>
      <g
         id="g287">
        <path
           d="M 1.765625,-4.40625 0.375,-4.296875 v 0.3125 c 0.640625,0 0.734375,0.0625 0.734375,0.546875 V -0.75 c 0,0.4375 -0.109375,0.4375 -0.78125,0.4375 V 0 C 0.640625,-0.015625 1.1875,-0.03125 1.421875,-0.03125 1.78125,-0.03125 2.125,-0.015625 2.46875,0 v -0.3125 c -0.671875,0 -0.703125,-0.046875 -0.703125,-0.4375 z m 0.03125,-1.734375 c 0,-0.3125 -0.234375,-0.53125 -0.515625,-0.53125 -0.3125,0 -0.53125,0.265625 -0.53125,0.53125 0,0.265625 0.21875,0.53125 0.53125,0.53125 0.28125,0 0.515625,-0.21875 0.515625,-0.53125 z m 0,0"
           id="path4980" />
      </g>
      <g
         id="g5933">
        <path
           d="M 1.09375,-3.421875 V -0.75 c 0,0.4375 -0.109375,0.4375 -0.78125,0.4375 V 0 c 0.359375,-0.015625 0.859375,-0.03125 1.140625,-0.03125 0.25,0 0.765625,0.015625 1.109375,0.03125 v -0.3125 c -0.671875,0 -0.78125,0 -0.78125,-0.4375 V -2.59375 C 1.78125,-3.625 2.5,-4.1875 3.125,-4.1875 c 0.640625,0 0.75,0.53125 0.75,1.109375 V -0.75 c 0,0.4375 -0.109375,0.4375 -0.78125,0.4375 V 0 c 0.34375,-0.015625 0.859375,-0.03125 1.125,-0.03125 0.25,0 0.78125,0.015625 1.109375,0.03125 v -0.3125 c -0.65625,0 -0.765625,0 -0.765625,-0.4375 v -1.84375 c 0,-1.03125 0.703125,-1.59375 1.34375,-1.59375 0.625,0 0.734375,0.53125 0.734375,1.109375 V -0.75 c 0,0.4375 -0.109375,0.4375 -0.78125,0.4375 V 0 c 0.34375,-0.015625 0.859375,-0.03125 1.125,-0.03125 0.265625,0 0.78125,0.015625 1.125,0.03125 v -0.3125 c -0.515625,0 -0.765625,0 -0.78125,-0.296875 v -1.90625 c 0,-0.859375 0,-1.15625 -0.3125,-1.515625 -0.140625,-0.171875 -0.46875,-0.375 -1.046875,-0.375 -0.828125,0 -1.28125,0.59375 -1.4375,0.984375 C 4.390625,-4.296875 3.65625,-4.40625 3.203125,-4.40625 2.46875,-4.40625 2,-3.984375 1.71875,-3.359375 V -4.40625 L 0.3125,-4.296875 v 0.3125 c 0.703125,0 0.78125,0.0625 0.78125,0.5625 z m 0,0"
           id="path2146" />
      </g>
      <g
         id="g9475">
        <path
           d="m 2.9375,-6.375 c 0,-0.25 0,-0.265625 -0.234375,-0.265625 C 2.078125,-6 1.203125,-6 0.890625,-6 v 0.3125 c 0.203125,0 0.78125,0 1.296875,-0.265625 v 5.171875 c 0,0.359375 -0.03125,0.46875 -0.921875,0.46875 h -0.3125 V 0 c 0.34375,-0.03125 1.203125,-0.03125 1.609375,-0.03125 0.390625,0 1.265625,0 1.609375,0.03125 v -0.3125 h -0.3125 c -0.90625,0 -0.921875,-0.109375 -0.921875,-0.46875 z m 0,0"
           id="path7214" />
      </g>
      <g
         id="g2270">
        <path
           d="m 0.84375,-0.4375 c -0.015625,0.09375 -0.0625,0.265625 -0.0625,0.28125 0,0.15625 0.125,0.21875 0.234375,0.21875 0.125,0 0.234375,-0.078125 0.28125,-0.140625 0.03125,-0.0625 0.078125,-0.296875 0.125,-0.4375 0.03125,-0.125 0.109375,-0.453125 0.140625,-0.625 0.046875,-0.15625 0.09375,-0.3125 0.125,-0.46875 0.078125,-0.28125 0.09375,-0.34375 0.296875,-0.625 C 2.171875,-2.515625 2.5,-2.875 3.03125,-2.875 c 0.390625,0 0.40625,0.359375 0.40625,0.484375 0,0.421875 -0.296875,1.1875 -0.40625,1.484375 -0.078125,0.203125 -0.109375,0.265625 -0.109375,0.375 0,0.375 0.296875,0.59375 0.65625,0.59375 0.703125,0 1,-0.953125 1,-1.0625 0,-0.09375 -0.078125,-0.09375 -0.109375,-0.09375 -0.09375,0 -0.09375,0.046875 -0.125,0.125 C 4.1875,-0.40625 3.875,-0.125 3.609375,-0.125 c -0.15625,0 -0.1875,-0.09375 -0.1875,-0.25 0,-0.15625 0.046875,-0.25 0.171875,-0.5625 0.078125,-0.21875 0.359375,-0.953125 0.359375,-1.34375 0,-0.671875 -0.53125,-0.796875 -0.90625,-0.796875 -0.578125,0 -0.96875,0.359375 -1.171875,0.640625 -0.046875,-0.484375 -0.453125,-0.640625 -0.75,-0.640625 -0.296875,0 -0.453125,0.21875 -0.546875,0.375 -0.15625,0.265625 -0.25,0.65625 -0.25,0.703125 0,0.078125 0.09375,0.078125 0.125,0.078125 0.09375,0 0.09375,-0.015625 0.140625,-0.203125 0.109375,-0.40625 0.25,-0.75 0.515625,-0.75 0.1875,0 0.234375,0.15625 0.234375,0.34375 0,0.125 -0.0625,0.390625 -0.125,0.578125 -0.046875,0.1875 -0.109375,0.46875 -0.140625,0.625 z m 0,0"
           id="path923" />
      </g>
      <g
         id="g2536">
        <path
           d="m 2.1875,-4.625 c 0,-0.015625 0.015625,-0.109375 0.015625,-0.109375 0,-0.046875 -0.015625,-0.109375 -0.109375,-0.109375 -0.140625,0 -0.71875,0.0625 -0.890625,0.078125 -0.046875,0 -0.15625,0.015625 -0.15625,0.15625 0,0.09375 0.109375,0.09375 0.1875,0.09375 0.328125,0 0.328125,0.0625 0.328125,0.109375 0,0.046875 -0.015625,0.09375 -0.015625,0.15625 L 0.5625,-0.3125 c -0.046875,0.125 -0.046875,0.140625 -0.046875,0.15625 0,0.109375 0.09375,0.21875 0.25,0.21875 0.1875,0 0.265625,-0.125 0.3125,-0.28125 0.015625,-0.03125 0.3125,-1.265625 0.34375,-1.359375 0.5,0.046875 0.890625,0.21875 0.890625,0.578125 0,0.03125 0,0.0625 -0.015625,0.140625 -0.03125,0.09375 -0.03125,0.140625 -0.03125,0.21875 0,0.484375 0.40625,0.703125 0.75,0.703125 0.671875,0 0.875,-1.046875 0.875,-1.0625 0,-0.09375 -0.078125,-0.09375 -0.109375,-0.09375 -0.09375,0 -0.109375,0.046875 -0.140625,0.171875 C 3.5625,-0.625 3.375,-0.125 3.03125,-0.125 c -0.1875,0 -0.25,-0.171875 -0.25,-0.359375 0,-0.125 0,-0.140625 0.046875,-0.3125 0.015625,-0.03125 0.03125,-0.140625 0.03125,-0.21875 0,-0.625 -0.828125,-0.71875 -1.125,-0.734375 C 1.9375,-1.875 2.1875,-2.109375 2.3125,-2.21875 2.671875,-2.546875 3.015625,-2.875 3.40625,-2.875 c 0.078125,0 0.171875,0.015625 0.234375,0.09375 C 3.34375,-2.734375 3.28125,-2.5 3.28125,-2.390625 c 0,0.140625 0.109375,0.25 0.265625,0.25 0.203125,0 0.40625,-0.15625 0.40625,-0.4375 0,-0.234375 -0.171875,-0.5 -0.53125,-0.5 -0.40625,0 -0.765625,0.296875 -1.125,0.625 C 2,-2.1875 1.78125,-1.96875 1.484375,-1.84375 Z m 0,0"
           id="path6034" />
      </g>
      <g
         id="g4891">
        <path
           d="m 6.40625,-1.578125 c -0.875,0.640625 -0.984375,1.5625 -0.984375,1.5625 0,0.109375 0.0625,0.109375 0.15625,0.109375 0.125,0 0.15625,0 0.1875,-0.125 0.046875,-0.171875 0.15625,-0.609375 0.515625,-1 0.40625,-0.421875 0.75,-0.53125 1.046875,-0.625 0.03125,-0.015625 0.0625,-0.046875 0.0625,-0.078125 0,-0.078125 -0.03125,-0.09375 -0.125,-0.125 C 6.265625,-2.171875 5.90625,-2.890625 5.75,-3.5 5.734375,-3.578125 5.671875,-3.578125 5.578125,-3.578125 c -0.09375,0 -0.15625,0 -0.15625,0.09375 0,0.015625 0.0625,0.484375 0.40625,0.96875 0.15625,0.234375 0.359375,0.4375 0.578125,0.59375 H 0.8125 c -0.109375,0 -0.28125,0 -0.28125,0.171875 0,0.171875 0.171875,0.171875 0.28125,0.171875 z m 0,0"
           id="path3012" />
      </g>
      <g
         id="g7169">
        <path
           d="m 4.03125,-1.90625 c -0.375,-0.4375 -0.484375,-0.546875 -0.75,-0.734375 -0.421875,-0.3125 -0.875,-0.4375 -1.25,-0.4375 -0.875,0 -1.5,0.75 -1.5,1.578125 0,0.8125 0.609375,1.5625 1.46875,1.5625 0.96875,0 1.65625,-0.78125 1.90625,-1.15625 0.359375,0.4375 0.484375,0.546875 0.734375,0.734375 0.4375,0.3125 0.875,0.421875 1.265625,0.421875 0.859375,0 1.484375,-0.734375 1.484375,-1.5625 0,-0.828125 -0.59375,-1.578125 -1.46875,-1.578125 -0.96875,0 -1.640625,0.796875 -1.890625,1.171875 z m 0.21875,0.25 c 0.28125,-0.453125 0.890625,-1.15625 1.734375,-1.15625 0.71875,0 1.21875,0.640625 1.21875,1.3125 0,0.65625 -0.546875,1.1875 -1.1875,1.1875 -0.65625,0 -1.09375,-0.53125 -1.765625,-1.34375 z M 3.671875,-1.359375 C 3.40625,-0.90625 2.796875,-0.1875 1.9375,-0.1875 c -0.71875,0 -1.203125,-0.640625 -1.203125,-1.3125 0,-0.671875 0.546875,-1.1875 1.1875,-1.1875 0.640625,0 1.09375,0.53125 1.75,1.328125 z m 0,0"
           id="path7397" />
      </g>
      <g
         id="g2373">
        <path
           d="m 12.625,13.953125 1.203125,-3.1875 h -0.25 c -0.390625,1.03125 -1.453125,1.71875 -2.59375,2.015625 -0.203125,0.04687 -1.1875,0.3125 -3.09375,0.3125 H 1.875 L 6.953125,7.140625 C 7.015625,7.0625 7.03125,7.03125 7.03125,6.984375 c 0,-0.03125 0,-0.0625 -0.0625,-0.15625 L 2.328125,0.484375 H 7.78125 c 1.34375,0 2.25,0.140625 2.34375,0.15625 0.53125,0.078125 1.40625,0.25 2.1875,0.75 0.25,0.15625 0.921875,0.609375 1.265625,1.40625 h 0.25 L 12.625,0 H 0.84375 c -0.234375,0 -0.25,0.015625 -0.28125,0.0625 0,0.03125 0,0.234375 0,0.34375 l 5.265625,7.203125 -5.15625,6.0625 C 0.5625,13.78125 0.5625,13.84375 0.5625,13.84375 c 0,0.109375 0.09375,0.109375 0.28125,0.109375 z m 0,0"
           id="path6912" />
      </g>
    </g>
  </defs>
  <path
     d="m 9.5016393,2.808386 -0.3518997,94.66"
     stroke-width="0.26458px"
     id="path1"
     style="fill:none;stroke:#000000" />
  <path
     d="m 9.0166396,97.465386 119.0699504,1.0552"
     stroke-width="0.26458px"
     id="path2"
     style="fill:none;stroke:#000000" />
  <text
     transform="translate(-7.1298819,-78.399612)"
     x="6.5100713"
     y="83.047394"
     style="font-style:normal;font-variant:normal;font-weight:normal;font-stretch:normal;font-size:6.35px;font-family:sans-serif;-inkscape-font-specification:'sans-serif, Normal';font-variant-ligatures:normal;font-variant-caps:normal;font-variant-numeric:normal;font-variant-east-asian:normal;white-space:pre;inline-size:29.2147;display:inline;fill:#000000;stroke-width:1.065;stroke-dasharray:none"
     xml:space="preserve"
     id="text7"><tspan
       x="6.5100713"
       y="83.047394"
       id="tspan8">U<tspan
   style="font-size:65%;baseline-shift:sub"
   id="tspan6">i</tspan></tspan></text>
  <text
     xml:space="preserve"
     style="font-style:normal;font-variant:normal;font-weight:normal;font-stretch:normal;font-size:6.35px;font-family:sans-serif;-inkscape-font-specification:'sans-serif, Normal';font-variant-ligatures:normal;font-variant-caps:normal;font-variant-numeric:normal;font-variant-east-asian:normal;fill:#000000;stroke-width:0.264583"
     x="125.65935"
     y="105.75461"
     id="text2"><tspan
       sodipodi:role="line"
       id="tspan2"
       style="font-style:normal;font-variant:normal;font-weight:normal;font-stretch:normal;font-size:6.35px;font-family:sans-serif;-inkscape-font-specification:'sans-serif, Normal';font-variant-ligatures:normal;font-variant-caps:normal;font-variant-numeric:normal;font-variant-east-asian:normal;stroke-width:0.264583"
       x="125.65935"
       y="105.75461">x<tspan
   style="font-size:65%;baseline-shift:sub"
   id="tspan5">i</tspan></tspan></text>
  <g
     transform="matrix(0.352778,0,0,0.352778,143.35,35.866)"
     ns6:version="1.10.2"
     ns6:texconverter="pdflatex"
     ns6:pdfconverter="inkscape"
     ns6:text="$\\frac{\\partial U_i}{\\partial q_i}$"
     ns6:preamble="C:\Users\jfhawkin\AppData\Roaming\inkscape\extensions\textext\default_packages.tex"
     ns6:scale="1.0"
     ns6:alignment="middle center"
     ns6:stroke-to-path="0"
     ns6:inkscapeversion="1.3.2"
     ns6:jacobian_sqrt="0.352778"
     id="g48">
    <defs
       id="id-3d0fd0e2-c7bb-4c01-b1f4-c518d4f763ca">
      <g
         id="id-b90f2da9-21b4-466b-8a68-cabaf41d1227">
        <g
           id="id-6031306c-5efb-4d88-bb02-82e1f2726fc6">
          <path
             d="m 3.65625,-2.359375 c -0.09375,-0.40625 -0.40625,-0.8125 -1.0625,-0.8125 -0.984375,0 -1.78125,0.71875 -2.03125,1.359375 -0.046875,0.109375 -0.140625,0.390625 -0.140625,0.671875 0,0.484375 0.375,1.28125 1.453125,1.28125 1.8125,0 2.546875,-2.25 2.546875,-3.234375 0,-1.203125 -0.78125,-1.875 -1.71875,-1.875 C 1.5625,-4.96875 1.25,-4.0625 1.25,-3.859375 c 0,0.0625 0.046875,0.25 0.28125,0.25 0.25,0 0.390625,-0.203125 0.390625,-0.375 0,-0.1875 -0.140625,-0.25 -0.265625,-0.265625 C 2,-4.78125 2.578125,-4.78125 2.6875,-4.78125 c 0.53125,0 1.140625,0.328125 1.140625,1.328125 0,0.296875 -0.03125,0.546875 -0.15625,1.09375 z m -1.765625,2.28125 c -0.78125,0 -0.875,-0.59375 -0.875,-0.8125 0,-0.265625 0.1875,-0.953125 0.265625,-1.125 0.125,-0.328125 0.546875,-0.96875 1.34375,-0.96875 0.671875,0 0.890625,0.53125 0.890625,0.953125 0,0.46875 -0.453125,1.953125 -1.625,1.953125 z m 0,0"
             id="id-65d64846-8dce-4529-a689-5509c7b42fd5" />
        </g>
        <g
           id="id-e2204f02-626c-49e9-80f9-b0bcded0b959">
          <path
             d="m 4.921875,-4 c 0.078125,-0.265625 0.1875,-0.5 0.75,-0.515625 0.03125,0 0.140625,0 0.140625,-0.140625 0,-0.046875 -0.046875,-0.109375 -0.109375,-0.109375 -0.21875,0 -0.484375,0.03125 -0.71875,0.03125 -0.234375,0 -0.53125,-0.03125 -0.734375,-0.03125 -0.03125,0 -0.140625,0 -0.140625,0.15625 0,0.09375 0.09375,0.09375 0.15625,0.09375 0.328125,0.015625 0.4375,0.125 0.4375,0.296875 0,0.03125 0,0.0625 0,0.09375 C 4.59375,-3.671875 4.078125,-1.578125 4,-1.359375 c -0.390625,0.890625 -1.21875,1.25 -1.78125,1.25 C 1.75,-0.109375 1.25,-0.34375 1.25,-1.03125 c 0,-0.171875 0.03125,-0.34375 0.0625,-0.5 L 2,-4.21875 c 0.0625,-0.234375 0.0625,-0.296875 0.609375,-0.296875 0.109375,0 0.203125,0 0.203125,-0.140625 0,-0.03125 -0.015625,-0.109375 -0.109375,-0.109375 -0.203125,0 -0.703125,0.03125 -0.90625,0.03125 -0.125,0 -0.375,0 -0.484375,0 C 1.171875,-4.75 1,-4.765625 0.875,-4.765625 c -0.046875,0 -0.15625,0 -0.15625,0.15625 0,0.09375 0.09375,0.09375 0.234375,0.09375 0,0 0.140625,0 0.265625,0.015625 0.140625,0.015625 0.15625,0.03125 0.15625,0.109375 0,0.03125 -0.078125,0.3125 -0.109375,0.453125 l -0.15625,0.625 -0.40625,1.59375 c -0.0625,0.28125 -0.0625,0.34375 -0.0625,0.484375 0,0.859375 0.71875,1.375 1.546875,1.375 0.96875,0 1.890625,-0.78125 2.125,-1.6875 z m 0,0"
             id="id-46dfc81f-4ae2-44da-86da-c4dbfcdf8d7c" />
        </g>
        <g
           id="id-b9e5f8fb-da92-4c58-a2aa-d4c120c1eda3">
          <path
             d="m 3.546875,-2.875 c 0,-0.03125 0.015625,-0.0625 0.015625,-0.09375 0,-0.046875 -0.03125,-0.109375 -0.09375,-0.109375 -0.0625,0 -0.359375,0.234375 -0.5,0.46875 -0.0625,-0.140625 -0.296875,-0.46875 -0.75,-0.46875 -0.890625,0 -1.796875,0.984375 -1.796875,1.984375 0,0.6875 0.453125,1.15625 1.0625,1.15625 0.390625,0 0.71875,-0.25 0.875,-0.375 C 2.34375,-0.296875 2.125,0.578125 2.109375,0.703125 2,1.09375 2,1.09375 1.5625,1.09375 c -0.078125,0 -0.171875,0 -0.171875,0.15625 0,0.046875 0.03125,0.109375 0.09375,0.109375 0.234375,0 0.5,-0.03125 0.734375,-0.03125 0.234375,0 0.53125,0.03125 0.75,0.03125 0.0625,0 0.125,-0.03125 0.125,-0.15625 C 3.09375,1.09375 3,1.09375 2.921875,1.09375 c -0.15625,0 -0.34375,0 -0.34375,-0.078125 0,-0.015625 0,-0.03125 0.03125,-0.15625 z M 2.5,-0.875 C 2.453125,-0.765625 2.453125,-0.75 2.375,-0.640625 2.09375,-0.3125 1.765625,-0.125 1.5,-0.125 c -0.265625,0 -0.515625,-0.1875 -0.515625,-0.671875 0,-0.375 0.203125,-1.140625 0.375,-1.421875 0.3125,-0.5625 0.671875,-0.65625 0.859375,-0.65625 0.484375,0 0.625,0.53125 0.625,0.609375 0,0.03125 -0.015625,0.078125 -0.015625,0.09375 z m 0,0"
             id="id-ccb38dad-6615-4a32-8d70-80dcaaa20837" />
        </g>
        <g
           id="id-dd3d7314-791e-49dc-8012-2ea7297a5b44">
          <path
             d="m 1.96875,-3.109375 c 0,-0.125 -0.078125,-0.21875 -0.21875,-0.21875 -0.140625,0 -0.296875,0.140625 -0.296875,0.296875 0,0.140625 0.109375,0.21875 0.21875,0.21875 0.15625,0 0.296875,-0.140625 0.296875,-0.296875 z m 0.234375,2.390625 c 0,-0.0625 -0.078125,-0.0625 -0.09375,-0.0625 -0.09375,0 -0.09375,0.015625 -0.125,0.109375 -0.078125,0.265625 -0.3125,0.5625 -0.5625,0.5625 -0.109375,0 -0.140625,-0.078125 -0.140625,-0.1875 0,-0.109375 0.015625,-0.171875 0.0625,-0.265625 0.03125,-0.09375 0.078125,-0.1875 0.109375,-0.265625 0.015625,-0.046875 0.203125,-0.5 0.28125,-0.6875 0.03125,-0.09375 0.0625,-0.171875 0.0625,-0.25 0,-0.234375 -0.234375,-0.4375 -0.546875,-0.4375 -0.515625,0 -0.796875,0.640625 -0.796875,0.765625 0,0.078125 0.078125,0.078125 0.109375,0.078125 0.078125,0 0.078125,-0.03125 0.109375,-0.09375 0.109375,-0.359375 0.34375,-0.578125 0.5625,-0.578125 0.09375,0 0.15625,0.046875 0.15625,0.1875 0,0.015625 0,0.078125 -0.03125,0.171875 -0.03125,0.09375 -0.265625,0.625 -0.328125,0.796875 -0.046875,0.09375 -0.046875,0.09375 -0.109375,0.265625 -0.03125,0.078125 -0.0625,0.140625 -0.0625,0.21875 0,0.265625 0.25,0.453125 0.546875,0.453125 0.515625,0 0.796875,-0.65625 0.796875,-0.78125 z m 0,0"
             id="id-8a4a401d-c062-42c8-8bf6-ac897f1c6a16" />
        </g>
      </g>
    </defs>
    <g
       transform="translate(-45.4568,-55.7239)"
       ns6:version="1.10.2"
       ns6:texconverter="pdflatex"
       ns6:pdfconverter="inkscape"
       ns6:text="\\fontsize{24pt}{1em}{$\\frac{\\partial U_i}{\\partial q_i}$U}"
       ns6:preamble="C:\Users\jfhawkin\AppData\Roaming\inkscape\extensions\textext\default_packages.tex"
       ns6:scale="1.0"
       ns6:alignment="middle center"
       ns6:stroke-to-path="0"
       ns6:inkscapeversion="1.3.2"
       ns6:jacobian_sqrt="1.0"
       id="g14">
      <defs
         id="id-d72d0f21-a7a0-4082-8a9f-4892b59e7db7">
        <g
           id="id-607c2136-5f9c-4aa0-b3c0-3c7ddc41ef09">
          <g
             id="id-d80f07ec-0d69-4b27-886e-1164c3f67877">
            <path
               d="m 7.8125,-5.75 c -0.09375,-0.96875 -0.703125,-2.125 -2.25,-2.125 -2.421875,0 -4.90625,2.46875 -4.90625,5.203125 0,1.046875 0.71875,3.03125 3.0625,3.03125 4.0625,0 5.796875,-5.921875 5.796875,-8.28125 0,-2.484375 -1.390625,-4.390625 -3.59375,-4.390625 -2.5,0 -3.234375,2.1875 -3.234375,2.65625 C 2.6875,-9.5 2.796875,-9.125 3.265625,-9.125 3.875,-9.125 4.125,-9.671875 4.125,-9.96875 4.125,-10.5 3.59375,-10.5 3.375,-10.5 c 0.703125,-1.28125 2.015625,-1.390625 2.484375,-1.390625 1.515625,0 2.46875,1.203125 2.46875,3.125 0,1.109375 -0.328125,2.375 -0.5,3.015625 z M 3.765625,-0.109375 C 2.15625,-0.109375 1.875,-1.375 1.875,-2.09375 c 0,-0.765625 0.484375,-2.53125 0.75,-3.171875 0.21875,-0.515625 1.203125,-2.265625 2.984375,-2.265625 1.578125,0 1.9375,1.359375 1.9375,2.296875 0,1.28125 -1.125,5.125 -3.78125,5.125 z m 0,0"
               id="id-7617b92a-c075-4dcc-9de3-8b0d7c9ddc5a" />
          </g>
          <g
             id="id-223b40d4-5386-4e6e-b417-d1183deaec85">
            <path
               d="m 8.71875,-3.953125 c -0.609375,2.40625 -2.609375,3.8125 -4.21875,3.8125 -1.25,0 -2.09375,-0.828125 -2.09375,-2.25 0,-0.078125 0,-0.59375 0.1875,-1.34375 L 4.28125,-10.5 c 0.15625,-0.59375 0.203125,-0.765625 1.421875,-0.765625 0.3125,0 0.484375,0 0.484375,-0.3125 0,-0.1875 -0.15625,-0.1875 -0.265625,-0.1875 -0.3125,0 -0.671875,0.04687 -1,0.04687 h -2.03125 c -0.328125,0 -0.6875,-0.04687 -1.015625,-0.04687 -0.125,0 -0.328125,0 -0.328125,0.328125 0,0.171875 0.125,0.171875 0.453125,0.171875 1.03125,0 1.03125,0.140625 1.03125,0.328125 0,0.109375 -0.125,0.609375 -0.203125,0.90625 l -1.5,6.015625 c -0.046875,0.1875 -0.15625,0.65625 -0.15625,1.125 0,1.890625 1.359375,3.25 3.234375,3.25 1.734375,0 3.671875,-1.375 4.546875,-3.5625 C 9.078125,-3.5 9.234375,-4.09375 9.328125,-4.5625 9.5,-5.1875 9.859375,-6.703125 9.984375,-7.140625 l 0.65625,-2.59375 c 0.21875,-0.890625 0.359375,-1.453125 1.875,-1.53125 0.140625,-0.01563 0.203125,-0.15625 0.203125,-0.3125 0,-0.1875 -0.15625,-0.1875 -0.21875,-0.1875 -0.234375,0 -0.546875,0.04687 -0.796875,0.04687 H 10.90625 c -1.078125,0 -1.625,-0.04687 -1.640625,-0.04687 -0.109375,0 -0.3125,0 -0.3125,0.328125 0,0.171875 0.140625,0.171875 0.265625,0.171875 1.03125,0.03125 1.09375,0.4375 1.09375,0.75 0,0.15625 0,0.203125 -0.0625,0.4375 z m 0,0"
               id="id-3cb7c4bd-6782-4182-ae76-7809ae5cd970" />
          </g>
          <g
             id="id-4c9aeefe-fffb-41b3-88bf-ab14ac420b30">
            <path
               d="m 7.59375,-7.421875 c 0,-0.078125 -0.0625,-0.15625 -0.15625,-0.15625 -0.140625,0 -0.8125,0.625 -1.140625,1.21875 C 5.984375,-7.125 5.453125,-7.59375 4.71875,-7.59375 c -1.953125,0 -4.046875,2.515625 -4.046875,5.0625 0,1.703125 1,2.703125 2.171875,2.703125 0.90625,0 1.671875,-0.6875 2.03125,-1.078125 l 0.015625,0.015625 -0.65625,2.578125 -0.15625,0.625 c -0.15625,0.515625 -0.40625,0.515625 -1.21875,0.53125 -0.1875,0 -0.359375,0 -0.359375,0.328125 0,0.109375 0.09375,0.171875 0.21875,0.171875 0.25,0 0.546875,-0.03125 0.796875,-0.03125 h 1.75 c 0.265625,0 0.546875,0.03125 0.8125,0.03125 0.109375,0 0.3125,0 0.3125,-0.328125 C 6.390625,2.84375 6.25,2.84375 5.984375,2.84375 5.1875,2.84375 5.125,2.71875 5.125,2.578125 5.125,2.5 5.140625,2.484375 5.203125,2.25 Z m -2.421875,5.375 C 5.078125,-1.75 5.078125,-1.71875 4.84375,-1.390625 c -0.390625,0.484375 -1.140625,1.21875 -1.953125,1.21875 -0.703125,0 -1.09375,-0.640625 -1.09375,-1.65625 0,-0.9375 0.53125,-2.875 0.859375,-3.59375 C 3.234375,-6.625 4.046875,-7.25 4.71875,-7.25 c 1.140625,0 1.359375,1.40625 1.359375,1.546875 0,0.015625 -0.046875,0.25 -0.0625,0.28125 z m 0,0"
               id="id-14ced1ef-fe9f-449d-811f-6db857d4e92f" />
          </g>
          <g
             id="id-12c95347-81a3-4179-bd51-710ce3713ac5">
            <path
               d="m 3.375,-1.703125 c 0,-0.0625 -0.046875,-0.109375 -0.109375,-0.109375 -0.109375,0 -0.125,0.03125 -0.1875,0.234375 -0.3125,1.09375 -0.796875,1.453125 -1.1875,1.453125 -0.140625,0 -0.3125,-0.03125 -0.3125,-0.390625 0,-0.328125 0.140625,-0.671875 0.28125,-1.03125 L 2.6875,-3.78125 c 0.03125,-0.09375 0.125,-0.3125 0.125,-0.53125 0,-0.5 -0.359375,-0.953125 -0.953125,-0.953125 -1.09375,0 -1.53125,1.734375 -1.53125,1.828125 0,0.046875 0.046875,0.109375 0.125,0.109375 0.109375,0 0.125,-0.046875 0.171875,-0.21875 0.28125,-1 0.734375,-1.484375 1.203125,-1.484375 0.109375,0 0.3125,0.015625 0.3125,0.390625 0,0.3125 -0.15625,0.703125 -0.25,0.96875 l -0.84375,2.21875 C 0.984375,-1.25 0.90625,-1.0625 0.90625,-0.84375 c 0,0.53125 0.375,0.96875 0.953125,0.96875 1.09375,0 1.515625,-1.75 1.515625,-1.828125 z m -0.09375,-5.75 c 0,-0.1875 -0.140625,-0.40625 -0.40625,-0.40625 -0.265625,0 -0.578125,0.265625 -0.578125,0.578125 0,0.296875 0.25,0.390625 0.390625,0.390625 0.328125,0 0.59375,-0.3125 0.59375,-0.5625 z m 0,0"
               id="id-f8bd0daa-3d88-4403-a44c-4e1787f0d219" />
          </g>
          <g
             id="id-fc3d1022-d8dd-46da-bae9-30859f40955b">
            <path
               d="m 5.796875,-2.296875 c 0,1.40625 -0.96875,2.203125 -1.90625,2.203125 -0.46875,0 -1.640625,-0.25 -1.640625,-2.140625 V -6.03125 C 2.25,-6.390625 2.265625,-6.5 3.03125,-6.5 h 0.234375 v -0.3125 c -0.34375,0.03125 -1.078125,0.03125 -1.46875,0.03125 -0.375,0 -1.125,0 -1.46875,-0.03125 V -6.5 H 0.5625 c 0.765625,0 0.796875,0.109375 0.796875,0.46875 v 3.765625 c 0,1.390625 1.15625,2.484375 2.515625,2.484375 1.140625,0 2.03125,-0.921875 2.203125,-2.0625 0.03125,-0.203125 0.03125,-0.296875 0.03125,-0.6875 v -3.1875 c 0,-0.328125 0,-0.78125 1.03125,-0.78125 v -0.3125 c -0.359375,0.015625 -0.84375,0.03125 -1.171875,0.03125 -0.359375,0 -0.828125,-0.015625 -1.1875,-0.03125 V -6.5 c 1.015625,0 1.015625,0.46875 1.015625,0.734375 z m 0,0"
               id="id-7c0885db-262f-40d8-b20b-621b0cae4b80" />
          </g>
        </g>
      </defs>
      <g
         transform="translate(-183.57876,49.698241)"
         ns6:version="1.10.2"
         ns6:texconverter="pdflatex"
         ns6:pdfconverter="inkscape"
         ns6:text="\\fontsize{24pt}{1em}{$\\frac{\\partial U_i}{\\partial x_i}$}"
         ns6:preamble="C:\Users\jfhawkin\AppData\Roaming\inkscape\extensions\textext\default_packages.tex"
         ns6:scale="1.0"
         ns6:alignment="middle center"
         ns6:stroke-to-path="0"
         ns6:inkscapeversion="1.4"
         ns6:jacobian_sqrt="1.0"
         id="g13">
        <defs
           id="id-3b722521-34e0-4ab9-9656-acceada4e809">
          <g
             id="id-91ab919e-df52-4039-9686-1df949384a9c">
            <g
               id="id-9ae990ab-2ec8-4860-b2c9-0af8d927eeab">
              <path
                 d="m 7.8125,-5.75 c -0.09375,-0.96875 -0.703125,-2.125 -2.25,-2.125 -2.421875,0 -4.90625,2.46875 -4.90625,5.203125 0,1.046875 0.71875,3.03125 3.0625,3.03125 4.0625,0 5.796875,-5.921875 5.796875,-8.28125 0,-2.484375 -1.390625,-4.390625 -3.59375,-4.390625 -2.5,0 -3.234375,2.1875 -3.234375,2.65625 C 2.6875,-9.5 2.796875,-9.125 3.265625,-9.125 3.875,-9.125 4.125,-9.671875 4.125,-9.96875 4.125,-10.5 3.59375,-10.5 3.375,-10.5 c 0.703125,-1.28125 2.015625,-1.390625 2.484375,-1.390625 1.515625,0 2.46875,1.203125 2.46875,3.125 0,1.109375 -0.328125,2.375 -0.5,3.015625 z M 3.765625,-0.109375 C 2.15625,-0.109375 1.875,-1.375 1.875,-2.09375 c 0,-0.765625 0.484375,-2.53125 0.75,-3.171875 0.21875,-0.515625 1.203125,-2.265625 2.984375,-2.265625 1.578125,0 1.9375,1.359375 1.9375,2.296875 0,1.28125 -1.125,5.125 -3.78125,5.125 z m 0,0"
                 id="id-d258fed6-ae40-4ef2-8747-6d38d588af41" />
            </g>
            <g
               id="id-1da61ea8-72c7-4b15-8da7-917ec370f4bd">
              <path
                 d="m 8.71875,-3.953125 c -0.609375,2.40625 -2.609375,3.8125 -4.21875,3.8125 -1.25,0 -2.09375,-0.828125 -2.09375,-2.25 0,-0.078125 0,-0.59375 0.1875,-1.34375 L 4.28125,-10.5 c 0.15625,-0.59375 0.203125,-0.765625 1.421875,-0.765625 0.3125,0 0.484375,0 0.484375,-0.3125 0,-0.1875 -0.15625,-0.1875 -0.265625,-0.1875 -0.3125,0 -0.671875,0.04687 -1,0.04687 h -2.03125 c -0.328125,0 -0.6875,-0.04687 -1.015625,-0.04687 -0.125,0 -0.328125,0 -0.328125,0.328125 0,0.171875 0.125,0.171875 0.453125,0.171875 1.03125,0 1.03125,0.140625 1.03125,0.328125 0,0.109375 -0.125,0.609375 -0.203125,0.90625 l -1.5,6.015625 c -0.046875,0.1875 -0.15625,0.65625 -0.15625,1.125 0,1.890625 1.359375,3.25 3.234375,3.25 1.734375,0 3.671875,-1.375 4.546875,-3.5625 C 9.078125,-3.5 9.234375,-4.09375 9.328125,-4.5625 9.5,-5.1875 9.859375,-6.703125 9.984375,-7.140625 l 0.65625,-2.59375 c 0.21875,-0.890625 0.359375,-1.453125 1.875,-1.53125 0.140625,-0.01563 0.203125,-0.15625 0.203125,-0.3125 0,-0.1875 -0.15625,-0.1875 -0.21875,-0.1875 -0.234375,0 -0.546875,0.04687 -0.796875,0.04687 H 10.90625 c -1.078125,0 -1.625,-0.04687 -1.640625,-0.04687 -0.109375,0 -0.3125,0 -0.3125,0.328125 0,0.171875 0.140625,0.171875 0.265625,0.171875 1.03125,0.03125 1.09375,0.4375 1.09375,0.75 0,0.15625 0,0.203125 -0.0625,0.4375 z m 0,0"
                 id="id-1f430c49-50b6-44a6-bd6b-b2a5bcd08e27" />
            </g>
            <g
               id="id-80667a00-4946-4b51-ba8a-61ea7bd1995b">
              <path
                 d="m 8.15625,-7.03125 c -0.546875,0.109375 -0.75,0.515625 -0.75,0.84375 0,0.421875 0.328125,0.5625 0.5625,0.5625 0.515625,0 0.875,-0.453125 0.875,-0.921875 0,-0.71875 -0.8125,-1.046875 -1.546875,-1.046875 -1.046875,0 -1.625,1.03125 -1.78125,1.359375 -0.40625,-1.296875 -1.46875,-1.359375 -1.78125,-1.359375 -1.75,0 -2.6875,2.25 -2.6875,2.640625 0,0.0625 0.078125,0.15625 0.1875,0.15625 0.140625,0 0.171875,-0.109375 0.21875,-0.171875 C 2.03125,-6.890625 3.1875,-7.25 3.6875,-7.25 c 0.765625,0 0.921875,0.71875 0.921875,1.140625 0,0.375 -0.09375,0.765625 -0.296875,1.59375 L 3.71875,-2.15625 c -0.25,1.03125 -0.75,1.984375 -1.671875,1.984375 -0.078125,0 -0.515625,0 -0.875,-0.21875 0.625,-0.125 0.75,-0.640625 0.75,-0.84375 0,-0.34375 -0.25,-0.5625 -0.578125,-0.5625 -0.40625,0 -0.859375,0.375 -0.859375,0.921875 0,0.71875 0.8125,1.046875 1.546875,1.046875 0.828125,0 1.40625,-0.65625 1.78125,-1.359375 0.265625,1.015625 1.125,1.359375 1.765625,1.359375 1.75,0 2.6875,-2.25 2.6875,-2.640625 0,-0.078125 -0.0625,-0.15625 -0.171875,-0.15625 -0.15625,0 -0.171875,0.09375 -0.21875,0.234375 -0.46875,1.515625 -1.46875,2.21875 -2.25,2.21875 -0.59375,0 -0.921875,-0.453125 -0.921875,-1.15625 0,-0.375 0.0625,-0.65625 0.34375,-1.78125 l 0.59375,-2.34375 C 5.90625,-6.484375 6.484375,-7.25 7.28125,-7.25 c 0.03125,0 0.515625,0 0.875,0.21875 z m 0,0"
                 id="id-86e6a20e-b3c1-44c6-ba75-dd59c3fc9c3a" />
            </g>
            <g
               id="id-cba39fb0-35a5-4e7f-b957-b53b095de85a">
              <path
                 d="m 3.375,-1.703125 c 0,-0.0625 -0.046875,-0.109375 -0.109375,-0.109375 -0.109375,0 -0.125,0.03125 -0.1875,0.234375 -0.3125,1.09375 -0.796875,1.453125 -1.1875,1.453125 -0.140625,0 -0.3125,-0.03125 -0.3125,-0.390625 0,-0.328125 0.140625,-0.671875 0.28125,-1.03125 L 2.6875,-3.78125 c 0.03125,-0.09375 0.125,-0.3125 0.125,-0.53125 0,-0.5 -0.359375,-0.953125 -0.953125,-0.953125 -1.09375,0 -1.53125,1.734375 -1.53125,1.828125 0,0.046875 0.046875,0.109375 0.125,0.109375 0.109375,0 0.125,-0.046875 0.171875,-0.21875 0.28125,-1 0.734375,-1.484375 1.203125,-1.484375 0.109375,0 0.3125,0.015625 0.3125,0.390625 0,0.3125 -0.15625,0.703125 -0.25,0.96875 l -0.84375,2.21875 C 0.984375,-1.25 0.90625,-1.0625 0.90625,-0.84375 c 0,0.53125 0.375,0.96875 0.953125,0.96875 1.09375,0 1.515625,-1.75 1.515625,-1.828125 z m -0.09375,-5.75 c 0,-0.1875 -0.140625,-0.40625 -0.40625,-0.40625 -0.265625,0 -0.578125,0.265625 -0.578125,0.578125 0,0.296875 0.25,0.390625 0.390625,0.390625 0.328125,0 0.59375,-0.3125 0.59375,-0.5625 z m 0,0"
                 id="id-3d58c25f-f5bf-4b58-ac01-8cdcd548afc4" />
            </g>
          </g>
        </defs>
        <g
           fill="#000000"
           fill-opacity="1"
           id="id-2b0bd119-0af9-440f-936e-96f0d5c1693d"
           transform="translate(0.9613383,-174.899)">
          <g
             transform="translate(149.908,136.757)"
             id="g7">
            <path
               d="m 7.8125,-5.75 c -0.09375,-0.96875 -0.703125,-2.125 -2.25,-2.125 -2.421875,0 -4.90625,2.46875 -4.90625,5.203125 0,1.046875 0.71875,3.03125 3.0625,3.03125 4.0625,0 5.796875,-5.921875 5.796875,-8.28125 0,-2.484375 -1.390625,-4.390625 -3.59375,-4.390625 -2.5,0 -3.234375,2.1875 -3.234375,2.65625 C 2.6875,-9.5 2.796875,-9.125 3.265625,-9.125 3.875,-9.125 4.125,-9.671875 4.125,-9.96875 4.125,-10.5 3.59375,-10.5 3.375,-10.5 c 0.703125,-1.28125 2.015625,-1.390625 2.484375,-1.390625 1.515625,0 2.46875,1.203125 2.46875,3.125 0,1.109375 -0.328125,2.375 -0.5,3.015625 z M 3.765625,-0.109375 C 2.15625,-0.109375 1.875,-1.375 1.875,-2.09375 c 0,-0.765625 0.484375,-2.53125 0.75,-3.171875 0.21875,-0.515625 1.203125,-2.265625 2.984375,-2.265625 1.578125,0 1.9375,1.359375 1.9375,2.296875 0,1.28125 -1.125,5.125 -3.78125,5.125 z m 0,0"
               id="id-1719ad8c-f891-4529-ba97-acb04df6ed57" />
          </g>
        </g>
        <g
           fill="#000000"
           fill-opacity="1"
           id="id-ce0d14eb-f673-43fa-98f5-d56050f6722c"
           transform="translate(0.9613383,-174.899)">
          <g
             transform="translate(159.736,136.757)"
             id="g8">
            <path
               d="m 8.71875,-3.953125 c -0.609375,2.40625 -2.609375,3.8125 -4.21875,3.8125 -1.25,0 -2.09375,-0.828125 -2.09375,-2.25 0,-0.078125 0,-0.59375 0.1875,-1.34375 L 4.28125,-10.5 c 0.15625,-0.59375 0.203125,-0.765625 1.421875,-0.765625 0.3125,0 0.484375,0 0.484375,-0.3125 0,-0.1875 -0.15625,-0.1875 -0.265625,-0.1875 -0.3125,0 -0.671875,0.04687 -1,0.04687 h -2.03125 c -0.328125,0 -0.6875,-0.04687 -1.015625,-0.04687 -0.125,0 -0.328125,0 -0.328125,0.328125 0,0.171875 0.125,0.171875 0.453125,0.171875 1.03125,0 1.03125,0.140625 1.03125,0.328125 0,0.109375 -0.125,0.609375 -0.203125,0.90625 l -1.5,6.015625 c -0.046875,0.1875 -0.15625,0.65625 -0.15625,1.125 0,1.890625 1.359375,3.25 3.234375,3.25 1.734375,0 3.671875,-1.375 4.546875,-3.5625 C 9.078125,-3.5 9.234375,-4.09375 9.328125,-4.5625 9.5,-5.1875 9.859375,-6.703125 9.984375,-7.140625 l 0.65625,-2.59375 c 0.21875,-0.890625 0.359375,-1.453125 1.875,-1.53125 0.140625,-0.01563 0.203125,-0.15625 0.203125,-0.3125 0,-0.1875 -0.15625,-0.1875 -0.21875,-0.1875 -0.234375,0 -0.546875,0.04687 -0.796875,0.04687 H 10.90625 c -1.078125,0 -1.625,-0.04687 -1.640625,-0.04687 -0.109375,0 -0.3125,0 -0.3125,0.328125 0,0.171875 0.140625,0.171875 0.265625,0.171875 1.03125,0.03125 1.09375,0.4375 1.09375,0.75 0,0.15625 0,0.203125 -0.0625,0.4375 z m 0,0"
               id="id-4c1ef7e7-b478-4cf5-bd97-b9a73e7e75ca" />
          </g>
        </g>
        <g
           fill="#000000"
           fill-opacity="1"
           id="id-ce4d14d6-a1a7-4419-834e-0107dc5204c6"
           transform="translate(0.9613383,-174.899)">
          <g
             transform="translate(171.191,139.339)"
             id="g9">
            <path
               d="m 3.375,-1.703125 c 0,-0.0625 -0.046875,-0.109375 -0.109375,-0.109375 -0.109375,0 -0.125,0.03125 -0.1875,0.234375 -0.3125,1.09375 -0.796875,1.453125 -1.1875,1.453125 -0.140625,0 -0.3125,-0.03125 -0.3125,-0.390625 0,-0.328125 0.140625,-0.671875 0.28125,-1.03125 L 2.6875,-3.78125 c 0.03125,-0.09375 0.125,-0.3125 0.125,-0.53125 0,-0.5 -0.359375,-0.953125 -0.953125,-0.953125 -1.09375,0 -1.53125,1.734375 -1.53125,1.828125 0,0.046875 0.046875,0.109375 0.125,0.109375 0.109375,0 0.125,-0.046875 0.171875,-0.21875 0.28125,-1 0.734375,-1.484375 1.203125,-1.484375 0.109375,0 0.3125,0.015625 0.3125,0.390625 0,0.3125 -0.15625,0.703125 -0.25,0.96875 l -0.84375,2.21875 C 0.984375,-1.25 0.90625,-1.0625 0.90625,-0.84375 c 0,0.53125 0.375,0.96875 0.953125,0.96875 1.09375,0 1.515625,-1.75 1.515625,-1.828125 z m -0.09375,-5.75 c 0,-0.1875 -0.140625,-0.40625 -0.40625,-0.40625 -0.265625,0 -0.578125,0.265625 -0.578125,0.578125 0,0.296875 0.25,0.390625 0.390625,0.390625 0.328125,0 0.59375,-0.3125 0.59375,-0.5625 z m 0,0"
               id="id-47a5f467-52ff-47e8-a2df-3eb94e611f32" />
          </g>
        </g>
        <path
           fill="none"
           stroke-width="0.956"
           stroke-linecap="butt"
           stroke-linejoin="miter"
           stroke="#000000"
           stroke-opacity="1"
           stroke-miterlimit="10"
           d="m 150.86734,-34.125061 h 25.77734"
           id="id-eebaf1ac-cef8-420a-9e1e-5d3bac267163" />
        <g
           fill="#000000"
           fill-opacity="1"
           id="id-6f8d5bd3-619a-41ed-b2fd-b278f58e830a"
           transform="translate(0.9613383,-174.899)">
          <g
             transform="translate(150.843,155.518)"
             id="g10">
            <path
               d="m 7.8125,-5.75 c -0.09375,-0.96875 -0.703125,-2.125 -2.25,-2.125 -2.421875,0 -4.90625,2.46875 -4.90625,5.203125 0,1.046875 0.71875,3.03125 3.0625,3.03125 4.0625,0 5.796875,-5.921875 5.796875,-8.28125 0,-2.484375 -1.390625,-4.390625 -3.59375,-4.390625 -2.5,0 -3.234375,2.1875 -3.234375,2.65625 C 2.6875,-9.5 2.796875,-9.125 3.265625,-9.125 3.875,-9.125 4.125,-9.671875 4.125,-9.96875 4.125,-10.5 3.59375,-10.5 3.375,-10.5 c 0.703125,-1.28125 2.015625,-1.390625 2.484375,-1.390625 1.515625,0 2.46875,1.203125 2.46875,3.125 0,1.109375 -0.328125,2.375 -0.5,3.015625 z M 3.765625,-0.109375 C 2.15625,-0.109375 1.875,-1.375 1.875,-2.09375 c 0,-0.765625 0.484375,-2.53125 0.75,-3.171875 0.21875,-0.515625 1.203125,-2.265625 2.984375,-2.265625 1.578125,0 1.9375,1.359375 1.9375,2.296875 0,1.28125 -1.125,5.125 -3.78125,5.125 z m 0,0"
               id="id-e3f3da74-57dd-4592-98b7-26ae77ce13eb" />
          </g>
        </g>
        <g
           fill="#000000"
           fill-opacity="1"
           id="id-05b42225-add1-4410-92f1-c180fea8255c"
           transform="translate(0.9613383,-174.899)">
          <g
             transform="translate(160.671,155.518)"
             id="g11">
            <path
               d="m 8.15625,-7.03125 c -0.546875,0.109375 -0.75,0.515625 -0.75,0.84375 0,0.421875 0.328125,0.5625 0.5625,0.5625 0.515625,0 0.875,-0.453125 0.875,-0.921875 0,-0.71875 -0.8125,-1.046875 -1.546875,-1.046875 -1.046875,0 -1.625,1.03125 -1.78125,1.359375 -0.40625,-1.296875 -1.46875,-1.359375 -1.78125,-1.359375 -1.75,0 -2.6875,2.25 -2.6875,2.640625 0,0.0625 0.078125,0.15625 0.1875,0.15625 0.140625,0 0.171875,-0.109375 0.21875,-0.171875 C 2.03125,-6.890625 3.1875,-7.25 3.6875,-7.25 c 0.765625,0 0.921875,0.71875 0.921875,1.140625 0,0.375 -0.09375,0.765625 -0.296875,1.59375 L 3.71875,-2.15625 c -0.25,1.03125 -0.75,1.984375 -1.671875,1.984375 -0.078125,0 -0.515625,0 -0.875,-0.21875 0.625,-0.125 0.75,-0.640625 0.75,-0.84375 0,-0.34375 -0.25,-0.5625 -0.578125,-0.5625 -0.40625,0 -0.859375,0.375 -0.859375,0.921875 0,0.71875 0.8125,1.046875 1.546875,1.046875 0.828125,0 1.40625,-0.65625 1.78125,-1.359375 0.265625,1.015625 1.125,1.359375 1.765625,1.359375 1.75,0 2.6875,-2.25 2.6875,-2.640625 0,-0.078125 -0.0625,-0.15625 -0.171875,-0.15625 -0.15625,0 -0.171875,0.09375 -0.21875,0.234375 -0.46875,1.515625 -1.46875,2.21875 -2.25,2.21875 -0.59375,0 -0.921875,-0.453125 -0.921875,-1.15625 0,-0.375 0.0625,-0.65625 0.34375,-1.78125 l 0.59375,-2.34375 C 5.90625,-6.484375 6.484375,-7.25 7.28125,-7.25 c 0.03125,0 0.515625,0 0.875,0.21875 z m 0,0"
               id="id-44fb2f2d-d001-4e31-9faa-e8b69210e9c7" />
          </g>
        </g>
        <g
           fill="#000000"
           fill-opacity="1"
           id="id-06a75489-0e24-4745-8f9f-59a77966b4c7"
           transform="translate(0.9613383,-174.899)">
          <g
             transform="translate(170.257,158.101)"
             id="g12">
            <path
               d="m 3.375,-1.703125 c 0,-0.0625 -0.046875,-0.109375 -0.109375,-0.109375 -0.109375,0 -0.125,0.03125 -0.1875,0.234375 -0.3125,1.09375 -0.796875,1.453125 -1.1875,1.453125 -0.140625,0 -0.3125,-0.03125 -0.3125,-0.390625 0,-0.328125 0.140625,-0.671875 0.28125,-1.03125 L 2.6875,-3.78125 c 0.03125,-0.09375 0.125,-0.3125 0.125,-0.53125 0,-0.5 -0.359375,-0.953125 -0.953125,-0.953125 -1.09375,0 -1.53125,1.734375 -1.53125,1.828125 0,0.046875 0.046875,0.109375 0.125,0.109375 0.109375,0 0.125,-0.046875 0.171875,-0.21875 0.28125,-1 0.734375,-1.484375 1.203125,-1.484375 0.109375,0 0.3125,0.015625 0.3125,0.390625 0,0.3125 -0.15625,0.703125 -0.25,0.96875 l -0.84375,2.21875 C 0.984375,-1.25 0.90625,-1.0625 0.90625,-0.84375 c 0,0.53125 0.375,0.96875 0.953125,0.96875 1.09375,0 1.515625,-1.75 1.515625,-1.828125 z m -0.09375,-5.75 c 0,-0.1875 -0.140625,-0.40625 -0.40625,-0.40625 -0.265625,0 -0.578125,0.265625 -0.578125,0.578125 0,0.296875 0.25,0.390625 0.390625,0.390625 0.328125,0 0.59375,-0.3125 0.59375,-0.5625 z m 0,0"
               id="id-fa3e5c7f-e5c8-4077-85e2-e6706d99eacf" />
          </g>
        </g>
      </g>
    </g>
  </g>
  <path
     style="fill:none;stroke:#000000;stroke-width:1.07;stroke-dasharray:none;stroke-opacity:1"
     d="M 17.74427,88.772812 C 36.765859,18.129382 75.609613,21.5805 114.04143,21.884286"
     id="path49"
     sodipodi:nodetypes="cc" />
  <text
     xml:space="preserve"
     style="font-style:normal;font-variant:normal;font-weight:normal;font-stretch:normal;font-size:6.35px;font-family:Calibri;-inkscape-font-specification:'Calibri, Normal';font-variant-ligatures:normal;font-variant-caps:normal;font-variant-numeric:normal;font-variant-east-asian:normal;text-align:start;writing-mode:lr-tb;direction:ltr;text-anchor:start;fill:#000000;fill-opacity:1;stroke:none;stroke-width:1.065;stroke-dasharray:none;stroke-opacity:1"
     x="48.077183"
     y="66.833717"
     id="text3"
     inkscape:export-filename="utility_function.svg"
     inkscape:export-xdpi="96"
     inkscape:export-ydpi="96"><tspan
       sodipodi:role="line"
       id="tspan3"
       style="font-style:normal;font-variant:normal;font-weight:normal;font-stretch:normal;font-size:6.35px;font-family:Calibri;-inkscape-font-specification:'Calibri, Normal';font-variant-ligatures:normal;font-variant-caps:normal;font-variant-numeric:normal;font-variant-east-asian:normal;fill:#000000;fill-opacity:1;stroke:none;stroke-width:1.065;stroke-dasharray:none;stroke-opacity:1"
       x="48.077183"
       y="66.833717">Decreasing Marginal Rate </tspan><tspan
       sodipodi:role="line"
       style="font-style:normal;font-variant:normal;font-weight:normal;font-stretch:normal;font-size:6.35px;font-family:Calibri;-inkscape-font-specification:'Calibri, Normal';font-variant-ligatures:normal;font-variant-caps:normal;font-variant-numeric:normal;font-variant-east-asian:normal;fill:#000000;fill-opacity:1;stroke:none;stroke-width:1.065;stroke-dasharray:none;stroke-opacity:1"
       x="48.077183"
       y="74.771217"
       id="tspan9">of Consumption: </tspan><tspan
       sodipodi:role="line"
       style="font-style:normal;font-variant:normal;font-weight:normal;font-stretch:normal;font-size:6.35px;font-family:Calibri;-inkscape-font-specification:'Calibri, Normal';font-variant-ligatures:normal;font-variant-caps:normal;font-variant-numeric:normal;font-variant-east-asian:normal;fill:#000000;fill-opacity:1;stroke:none;stroke-width:1.065;stroke-dasharray:none;stroke-opacity:1"
       x="48.077183"
       y="82.708717"
       id="tspan4">Diminishing Marginal Utility</tspan></text>
</svg>
