<?xml version="1.0" encoding="UTF-8" standalone="no"?>
<!-- Created with Inkscape (http://www.inkscape.org/) -->

<svg
   width="5.2199998in"
   height="2.3in"
   viewBox="0 0 132.58799 58.419997"
   version="1.1"
   id="svg1"
   inkscape:version="1.4 (86a8ad7, 2024-10-11)"
   sodipodi:docname="aggregation_forecast.svg"
   inkscape:export-filename="binary_multi_choice1.svg"
   inkscape:export-xdpi="300"
   inkscape:export-ydpi="300"
   xmlns:inkscape="http://www.inkscape.org/namespaces/inkscape"
   xmlns:sodipodi="http://sodipodi.sourceforge.net/DTD/sodipodi-0.dtd"
   xmlns="http://www.w3.org/2000/svg"
   xmlns:svg="http://www.w3.org/2000/svg">
  <sodipodi:namedview
     id="namedview1"
     pagecolor="#ffffff"
     bordercolor="#000000"
     borderopacity="0.25"
     inkscape:showpageshadow="2"
     inkscape:pageopacity="0.0"
     inkscape:pagecheckerboard="0"
     inkscape:deskcolor="#d1d1d1"
     inkscape:document-units="mm"
     inkscape:zoom="2.0334082"
     inkscape:cx="312.03769"
     inkscape:cy="145.32252"
     inkscape:window-width="1920"
     inkscape:window-height="1009"
     inkscape:window-x="-8"
     inkscape:window-y="-8"
     inkscape:window-maximized="1"
     inkscape:current-layer="layer1"
     showgrid="true">
    <inkscape:grid
       id="grid23"
       units="mm"
       originx="0"
       originy="0"
       spacingx="1"
       spacingy="0.99999994"
       empcolor="#0099e5"
       empopacity="0.30196078"
       color="#0099e5"
       opacity="0.14901961"
       empspacing="5"
       enabled="true"
       visible="true" />
  </sodipodi:namedview>
  <defs
     id="defs1">
    <marker
       style="overflow:visible"
       id="marker12"
       refX="0"
       refY="0"
       orient="auto-start-reverse"
       inkscape:stockid="Triangle arrow"
       markerWidth="1"
       markerHeight="1"
       viewBox="0 0 1 1"
       inkscape:isstock="true"
       inkscape:collect="always"
       preserveAspectRatio="xMidYMid">
      <path
         transform="scale(0.5)"
         style="fill:context-stroke;fill-rule:evenodd;stroke:context-stroke;stroke-width:1pt"
         d="M 5.77,0 -2.88,5 V -5 Z"
         id="path12" />
    </marker>
    <marker
       style="overflow:visible"
       id="Triangle"
       refX="0"
       refY="0"
       orient="auto-start-reverse"
       inkscape:stockid="Triangle arrow"
       markerWidth="1"
       markerHeight="1"
       viewBox="0 0 1 1"
       inkscape:isstock="true"
       inkscape:collect="always"
       preserveAspectRatio="xMidYMid">
      <path
         transform="scale(0.5)"
         style="fill:context-stroke;fill-rule:evenodd;stroke:context-stroke;stroke-width:1pt"
         d="M 5.77,0 -2.88,5 V -5 Z"
         id="path135" />
    </marker>
    <rect
       x="-162.74449"
       y="-125.18807"
       width="963.94812"
       height="595.33881"
       id="rect5" />
    <g
       id="id-237aa2cc-9047-474b-85be-092b252c42b2-2">
      <g
         id="id-9b1d0606-b366-42dd-9336-ebca83651b23-4">
        <path
           d="M 4.859375,-2.765625 C 4.921875,-2.9375 4.9375,-3.078125 4.9375,-3.34375 c 0,-0.640625 -0.390625,-1.0625 -1.140625,-1.0625 -0.78125,0 -1.296875,0.515625 -1.546875,0.875 -0.046875,-0.578125 -0.46875,-0.875 -0.921875,-0.875 -0.453125,0 -0.640625,0.390625 -0.734375,0.5625 C 0.421875,-3.5 0.296875,-2.90625 0.296875,-2.875 c 0,0.109375 0.09375,0.109375 0.109375,0.109375 0.109375,0 0.109375,-0.015625 0.171875,-0.234375 0.171875,-0.703125 0.375,-1.1875 0.734375,-1.1875 0.15625,0 0.296875,0.078125 0.296875,0.453125 0,0.21875 -0.03125,0.328125 -0.15625,0.84375 L 0.875,-0.59375 c -0.03125,0.15625 -0.09375,0.390625 -0.09375,0.4375 0,0.171875 0.140625,0.265625 0.296875,0.265625 0.125,0 0.296875,-0.078125 0.375,-0.28125 0,-0.015625 0.125,-0.484375 0.1875,-0.734375 l 0.21875,-0.890625 C 1.90625,-2.03125 1.96875,-2.25 2.03125,-2.46875 2.046875,-2.53125 2.125,-2.859375 2.140625,-2.921875 2.15625,-3.015625 2.46875,-3.5625 2.8125,-3.84375 3.03125,-4 3.34375,-4.1875 3.765625,-4.1875 c 0.4375,0 0.546875,0.34375 0.546875,0.703125 0,0.046875 0,0.21875 -0.109375,0.625 l -1.125,4.578125 c -0.03125,0.125 -0.03125,0.140625 -0.03125,0.171875 0,0.140625 0.109375,0.265625 0.265625,0.265625 0.3125,0 0.390625,-0.296875 0.421875,-0.40625 z m 0,0"
           id="id-d6e86d4b-06b9-4baa-84d9-55cfc7d53292-5" />
      </g>
      <g
         id="id-1981db31-d913-4130-9e80-f43e0db4df01-5">
        <path
           d="m 2.328125,-4.4375 c 0,-0.1875 0,-0.1875 -0.203125,-0.1875 -0.453125,0.4375 -1.078125,0.4375 -1.359375,0.4375 v 0.25 c 0.15625,0 0.625,0 1,-0.1875 v 3.546875 c 0,0.234375 0,0.328125 -0.6875,0.328125 H 0.8125 V 0 c 0.125,0 0.984375,-0.03125 1.234375,-0.03125 0.21875,0 1.09375,0.03125 1.25,0.03125 V -0.25 H 3.03125 c -0.703125,0 -0.703125,-0.09375 -0.703125,-0.328125 z m 0,0"
           id="id-6aa62f4e-53b1-4ba5-846d-8a6c4e190cfd-1" />
      </g>
    </g>
    <g
       id="id-237aa2cc-9047-474b-85be-092b252c42b2-8">
      <g
         id="id-9b1d0606-b366-42dd-9336-ebca83651b23-5">
        <path
           d="M 4.859375,-2.765625 C 4.921875,-2.9375 4.9375,-3.078125 4.9375,-3.34375 c 0,-0.640625 -0.390625,-1.0625 -1.140625,-1.0625 -0.78125,0 -1.296875,0.515625 -1.546875,0.875 -0.046875,-0.578125 -0.46875,-0.875 -0.921875,-0.875 -0.453125,0 -0.640625,0.390625 -0.734375,0.5625 C 0.421875,-3.5 0.296875,-2.90625 0.296875,-2.875 c 0,0.109375 0.09375,0.109375 0.109375,0.109375 0.109375,0 0.109375,-0.015625 0.171875,-0.234375 0.171875,-0.703125 0.375,-1.1875 0.734375,-1.1875 0.15625,0 0.296875,0.078125 0.296875,0.453125 0,0.21875 -0.03125,0.328125 -0.15625,0.84375 L 0.875,-0.59375 c -0.03125,0.15625 -0.09375,0.390625 -0.09375,0.4375 0,0.171875 0.140625,0.265625 0.296875,0.265625 0.125,0 0.296875,-0.078125 0.375,-0.28125 0,-0.015625 0.125,-0.484375 0.1875,-0.734375 l 0.21875,-0.890625 C 1.90625,-2.03125 1.96875,-2.25 2.03125,-2.46875 2.046875,-2.53125 2.125,-2.859375 2.140625,-2.921875 2.15625,-3.015625 2.46875,-3.5625 2.8125,-3.84375 3.03125,-4 3.34375,-4.1875 3.765625,-4.1875 c 0.4375,0 0.546875,0.34375 0.546875,0.703125 0,0.046875 0,0.21875 -0.109375,0.625 l -1.125,4.578125 c -0.03125,0.125 -0.03125,0.140625 -0.03125,0.171875 0,0.140625 0.109375,0.265625 0.265625,0.265625 0.3125,0 0.390625,-0.296875 0.421875,-0.40625 z m 0,0"
           id="id-d6e86d4b-06b9-4baa-84d9-55cfc7d53292-7" />
      </g>
      <g
         id="id-1981db31-d913-4130-9e80-f43e0db4df01-6">
        <path
           d="m 2.328125,-4.4375 c 0,-0.1875 0,-0.1875 -0.203125,-0.1875 -0.453125,0.4375 -1.078125,0.4375 -1.359375,0.4375 v 0.25 c 0.15625,0 0.625,0 1,-0.1875 v 3.546875 c 0,0.234375 0,0.328125 -0.6875,0.328125 H 0.8125 V 0 c 0.125,0 0.984375,-0.03125 1.234375,-0.03125 0.21875,0 1.09375,0.03125 1.25,0.03125 V -0.25 H 3.03125 c -0.703125,0 -0.703125,-0.09375 -0.703125,-0.328125 z m 0,0"
           id="id-6aa62f4e-53b1-4ba5-846d-8a6c4e190cfd-18" />
      </g>
    </g>
    <g
       id="id-9557b879-9fde-4643-8c28-37327b418c35-2">
      <g
         id="id-3a52fd0f-35a8-4245-853b-63c4d683aa71-3">
        <path
           d="M 4.859375,-2.765625 C 4.921875,-2.9375 4.9375,-3.078125 4.9375,-3.34375 c 0,-0.640625 -0.390625,-1.0625 -1.140625,-1.0625 -0.78125,0 -1.296875,0.515625 -1.546875,0.875 -0.046875,-0.578125 -0.46875,-0.875 -0.921875,-0.875 -0.453125,0 -0.640625,0.390625 -0.734375,0.5625 C 0.421875,-3.5 0.296875,-2.90625 0.296875,-2.875 c 0,0.109375 0.09375,0.109375 0.109375,0.109375 0.109375,0 0.109375,-0.015625 0.171875,-0.234375 0.171875,-0.703125 0.375,-1.1875 0.734375,-1.1875 0.15625,0 0.296875,0.078125 0.296875,0.453125 0,0.21875 -0.03125,0.328125 -0.15625,0.84375 L 0.875,-0.59375 c -0.03125,0.15625 -0.09375,0.390625 -0.09375,0.4375 0,0.171875 0.140625,0.265625 0.296875,0.265625 0.125,0 0.296875,-0.078125 0.375,-0.28125 0,-0.015625 0.125,-0.484375 0.1875,-0.734375 l 0.21875,-0.890625 C 1.90625,-2.03125 1.96875,-2.25 2.03125,-2.46875 2.046875,-2.53125 2.125,-2.859375 2.140625,-2.921875 2.15625,-3.015625 2.46875,-3.5625 2.8125,-3.84375 3.03125,-4 3.34375,-4.1875 3.765625,-4.1875 c 0.4375,0 0.546875,0.34375 0.546875,0.703125 0,0.046875 0,0.21875 -0.109375,0.625 l -1.125,4.578125 c -0.03125,0.125 -0.03125,0.140625 -0.03125,0.171875 0,0.140625 0.109375,0.265625 0.265625,0.265625 0.3125,0 0.390625,-0.296875 0.421875,-0.40625 z m 0,0"
           id="id-262127ed-92fa-4bf9-9183-0168235a0238-3" />
      </g>
      <g
         id="id-008ebc28-9b35-452a-93be-611a93239981-4">
        <path
           d="M 3.515625,-1.265625 H 3.28125 c -0.015625,0.15625 -0.09375,0.5625 -0.1875,0.625 C 3.046875,-0.59375 2.515625,-0.59375 2.40625,-0.59375 H 1.125 c 0.734375,-0.640625 0.984375,-0.84375 1.390625,-1.171875 0.515625,-0.40625 1,-0.84375 1,-1.5 0,-0.84375 -0.734375,-1.359375 -1.625,-1.359375 -0.859375,0 -1.453125,0.609375 -1.453125,1.25 0,0.34375 0.296875,0.390625 0.375,0.390625 0.15625,0 0.359375,-0.125 0.359375,-0.375 0,-0.125 -0.046875,-0.375 -0.40625,-0.375 C 0.984375,-4.21875 1.453125,-4.375 1.78125,-4.375 c 0.703125,0 1.0625,0.546875 1.0625,1.109375 0,0.609375 -0.4375,1.078125 -0.65625,1.328125 L 0.515625,-0.265625 C 0.4375,-0.203125 0.4375,-0.1875 0.4375,0 h 2.875 z m 0,0"
           id="id-a9b6cb73-9461-4d14-881e-0ad9b6129ad3-1" />
      </g>
    </g>
    <g
       id="id-53e1abb1-8b7b-4c5d-b81d-e647bc64fd39">
      <g
         id="id-85b42c2f-b809-4276-a2f7-9cc488ede256">
        <path
           d="m 2.296875,-3.5 c 0.0625,-0.203125 0.15625,-0.59375 0.15625,-0.640625 0,-0.171875 -0.125,-0.265625 -0.296875,-0.265625 -0.015625,0 -0.296875,0.015625 -0.390625,0.359375 l -1.4375,5.765625 c -0.03125,0.125 -0.03125,0.140625 -0.03125,0.171875 0,0.140625 0.109375,0.265625 0.28125,0.265625 0.203125,0 0.328125,-0.1875 0.34375,-0.21875 C 0.96875,1.859375 1.09375,1.328125 1.46875,-0.203125 1.796875,0.0625 2.25,0.109375 2.4375,0.109375 c 0.703125,0 1.09375,-0.453125 1.328125,-0.734375 0.09375,0.453125 0.46875,0.734375 0.90625,0.734375 0.34375,0 0.578125,-0.234375 0.734375,-0.546875 0.171875,-0.359375 0.296875,-0.96875 0.296875,-0.984375 0,-0.109375 -0.09375,-0.109375 -0.125,-0.109375 -0.09375,0 -0.109375,0.046875 -0.140625,0.1875 -0.15625,0.640625 -0.34375,1.234375 -0.75,1.234375 -0.265625,0 -0.296875,-0.265625 -0.296875,-0.453125 0,-0.21875 0.109375,-0.6875 0.1875,-1.046875 L 4.859375,-2.6875 C 4.890625,-2.828125 5,-3.203125 5.03125,-3.359375 5.078125,-3.59375 5.1875,-3.96875 5.1875,-4.03125 c 0,-0.171875 -0.140625,-0.265625 -0.296875,-0.265625 -0.046875,0 -0.3125,0.015625 -0.390625,0.34375 l -0.46875,1.875 c -0.109375,0.5 -0.21875,0.90625 -0.25,1.015625 -0.015625,0.046875 -0.484375,0.953125 -1.296875,0.953125 -0.5,0 -0.734375,-0.328125 -0.734375,-0.875 0,-0.28125 0.0625,-0.5625 0.140625,-0.84375 z m 0,0"
           id="id-a738865e-125c-47eb-920b-fdfac7a38edf" />
      </g>
      <g
         id="id-23a113f8-a081-426b-9c61-aa8d019970d4">
        <path
           d="m 2.328125,-4.4375 c 0,-0.1875 0,-0.1875 -0.203125,-0.1875 -0.453125,0.4375 -1.078125,0.4375 -1.359375,0.4375 v 0.25 c 0.15625,0 0.625,0 1,-0.1875 v 3.546875 c 0,0.234375 0,0.328125 -0.6875,0.328125 H 0.8125 V 0 c 0.125,0 0.984375,-0.03125 1.234375,-0.03125 0.21875,0 1.09375,0.03125 1.25,0.03125 V -0.25 H 3.03125 c -0.703125,0 -0.703125,-0.09375 -0.703125,-0.328125 z m 0,0"
           id="id-290a0646-60d6-42ab-813e-f85fc7fe229a" />
      </g>
    </g>
    <g
       id="id-4077d690-7dc9-4a3d-8022-992769306c7f">
      <g
         id="id-b1be593c-198d-416f-8704-0d00607c63e8">
        <path
           d="m 2.296875,-3.5 c 0.0625,-0.203125 0.15625,-0.59375 0.15625,-0.640625 0,-0.171875 -0.125,-0.265625 -0.296875,-0.265625 -0.015625,0 -0.296875,0.015625 -0.390625,0.359375 l -1.4375,5.765625 c -0.03125,0.125 -0.03125,0.140625 -0.03125,0.171875 0,0.140625 0.109375,0.265625 0.28125,0.265625 0.203125,0 0.328125,-0.1875 0.34375,-0.21875 C 0.96875,1.859375 1.09375,1.328125 1.46875,-0.203125 1.796875,0.0625 2.25,0.109375 2.4375,0.109375 c 0.703125,0 1.09375,-0.453125 1.328125,-0.734375 0.09375,0.453125 0.46875,0.734375 0.90625,0.734375 0.34375,0 0.578125,-0.234375 0.734375,-0.546875 0.171875,-0.359375 0.296875,-0.96875 0.296875,-0.984375 0,-0.109375 -0.09375,-0.109375 -0.125,-0.109375 -0.09375,0 -0.109375,0.046875 -0.140625,0.1875 -0.15625,0.640625 -0.34375,1.234375 -0.75,1.234375 -0.265625,0 -0.296875,-0.265625 -0.296875,-0.453125 0,-0.21875 0.109375,-0.6875 0.1875,-1.046875 L 4.859375,-2.6875 C 4.890625,-2.828125 5,-3.203125 5.03125,-3.359375 5.078125,-3.59375 5.1875,-3.96875 5.1875,-4.03125 c 0,-0.171875 -0.140625,-0.265625 -0.296875,-0.265625 -0.046875,0 -0.3125,0.015625 -0.390625,0.34375 l -0.46875,1.875 c -0.109375,0.5 -0.21875,0.90625 -0.25,1.015625 -0.015625,0.046875 -0.484375,0.953125 -1.296875,0.953125 -0.5,0 -0.734375,-0.328125 -0.734375,-0.875 0,-0.28125 0.0625,-0.5625 0.140625,-0.84375 z m 0,0"
           id="id-35c0f069-87e4-4407-b88f-8ecb26466e53" />
      </g>
      <g
         id="id-f08bc2e0-8998-4f19-a435-bcdce39b4044">
        <path
           d="M 3.515625,-1.265625 H 3.28125 c -0.015625,0.15625 -0.09375,0.5625 -0.1875,0.625 C 3.046875,-0.59375 2.515625,-0.59375 2.40625,-0.59375 H 1.125 c 0.734375,-0.640625 0.984375,-0.84375 1.390625,-1.171875 0.515625,-0.40625 1,-0.84375 1,-1.5 0,-0.84375 -0.734375,-1.359375 -1.625,-1.359375 -0.859375,0 -1.453125,0.609375 -1.453125,1.25 0,0.34375 0.296875,0.390625 0.375,0.390625 0.15625,0 0.359375,-0.125 0.359375,-0.375 0,-0.125 -0.046875,-0.375 -0.40625,-0.375 C 0.984375,-4.21875 1.453125,-4.375 1.78125,-4.375 c 0.703125,0 1.0625,0.546875 1.0625,1.109375 0,0.609375 -0.4375,1.078125 -0.65625,1.328125 L 0.515625,-0.265625 C 0.4375,-0.203125 0.4375,-0.1875 0.4375,0 h 2.875 z m 0,0"
           id="id-a4f6a5f4-ebd8-4b09-992f-d821be5e40d8" />
      </g>
    </g>
    <g
       id="id-bab95e3a-1ab6-4e31-b0f7-5e7543a59d4c">
      <g
         id="id-d033603e-5614-4c27-9405-0b2fd9b97f1b">
        <path
           d="m 2.296875,-3.5 c 0.0625,-0.203125 0.15625,-0.59375 0.15625,-0.640625 0,-0.171875 -0.125,-0.265625 -0.296875,-0.265625 -0.015625,0 -0.296875,0.015625 -0.390625,0.359375 l -1.4375,5.765625 c -0.03125,0.125 -0.03125,0.140625 -0.03125,0.171875 0,0.140625 0.109375,0.265625 0.28125,0.265625 0.203125,0 0.328125,-0.1875 0.34375,-0.21875 C 0.96875,1.859375 1.09375,1.328125 1.46875,-0.203125 1.796875,0.0625 2.25,0.109375 2.4375,0.109375 c 0.703125,0 1.09375,-0.453125 1.328125,-0.734375 0.09375,0.453125 0.46875,0.734375 0.90625,0.734375 0.34375,0 0.578125,-0.234375 0.734375,-0.546875 0.171875,-0.359375 0.296875,-0.96875 0.296875,-0.984375 0,-0.109375 -0.09375,-0.109375 -0.125,-0.109375 -0.09375,0 -0.109375,0.046875 -0.140625,0.1875 -0.15625,0.640625 -0.34375,1.234375 -0.75,1.234375 -0.265625,0 -0.296875,-0.265625 -0.296875,-0.453125 0,-0.21875 0.109375,-0.6875 0.1875,-1.046875 L 4.859375,-2.6875 C 4.890625,-2.828125 5,-3.203125 5.03125,-3.359375 5.078125,-3.59375 5.1875,-3.96875 5.1875,-4.03125 c 0,-0.171875 -0.140625,-0.265625 -0.296875,-0.265625 -0.046875,0 -0.3125,0.015625 -0.390625,0.34375 l -0.46875,1.875 c -0.109375,0.5 -0.21875,0.90625 -0.25,1.015625 -0.015625,0.046875 -0.484375,0.953125 -1.296875,0.953125 -0.5,0 -0.734375,-0.328125 -0.734375,-0.875 0,-0.28125 0.0625,-0.5625 0.140625,-0.84375 z m 0,0"
           id="id-b6009300-3a39-4987-b1b8-5b8400a0e70a" />
      </g>
      <g
         id="id-53227421-c0c6-4583-a5d7-fae3cb6f9baa">
        <path
           d="M 6.734375,-2.265625 C 6.84375,-2.328125 6.921875,-2.375 6.921875,-2.5 c 0,-0.109375 -0.078125,-0.15625 -0.1875,-0.21875 L 1.203125,-5.3125 C 1.078125,-5.390625 1.0625,-5.390625 1.03125,-5.390625 c -0.109375,0 -0.203125,0.09375 -0.203125,0.203125 0,0.09375 0.046875,0.15625 0.1875,0.21875 L 6.25,-2.5 1.015625,-0.015625 c -0.140625,0.0625 -0.1875,0.125 -0.1875,0.21875 0,0.109375 0.09375,0.203125 0.203125,0.203125 0.03125,0 0.046875,0 0.171875,-0.078125 z m 0,0"
           id="id-0ba2fa40-b85e-4386-82f1-564d3b764367" />
      </g>
      <g
         id="id-0c84fb92-a27f-4ea1-bddf-020c8c7ef02e">
        <path
           d="m 2.328125,-4.4375 c 0,-0.1875 0,-0.1875 -0.203125,-0.1875 -0.453125,0.4375 -1.078125,0.4375 -1.359375,0.4375 v 0.25 c 0.15625,0 0.625,0 1,-0.1875 v 3.546875 c 0,0.234375 0,0.328125 -0.6875,0.328125 H 0.8125 V 0 c 0.125,0 0.984375,-0.03125 1.234375,-0.03125 0.21875,0 1.09375,0.03125 1.25,0.03125 V -0.25 H 3.03125 c -0.703125,0 -0.703125,-0.09375 -0.703125,-0.328125 z m 0,0"
           id="id-ec4684e2-0f29-438f-9abe-27283d66e68f" />
      </g>
      <g
         id="id-63d230cd-32ae-4f4b-b788-da64f470e6ed">
        <path
           d="M 3.515625,-1.265625 H 3.28125 c -0.015625,0.15625 -0.09375,0.5625 -0.1875,0.625 C 3.046875,-0.59375 2.515625,-0.59375 2.40625,-0.59375 H 1.125 c 0.734375,-0.640625 0.984375,-0.84375 1.390625,-1.171875 0.515625,-0.40625 1,-0.84375 1,-1.5 0,-0.84375 -0.734375,-1.359375 -1.625,-1.359375 -0.859375,0 -1.453125,0.609375 -1.453125,1.25 0,0.34375 0.296875,0.390625 0.375,0.390625 0.15625,0 0.359375,-0.125 0.359375,-0.375 0,-0.125 -0.046875,-0.375 -0.40625,-0.375 C 0.984375,-4.21875 1.453125,-4.375 1.78125,-4.375 c 0.703125,0 1.0625,0.546875 1.0625,1.109375 0,0.609375 -0.4375,1.078125 -0.65625,1.328125 L 0.515625,-0.265625 C 0.4375,-0.203125 0.4375,-0.1875 0.4375,0 h 2.875 z m 0,0"
           id="id-1a70475b-093e-4e3f-979f-4fd97915439e" />
      </g>
    </g>
  </defs>
  <g
     inkscape:label="Layer 1"
     inkscape:groupmode="layer"
     id="layer1">
    <text
       xml:space="preserve"
       style="font-size:4.9389px;line-height:1.25;font-family:Arial;-inkscape-font-specification:'Arial, Normal';font-variant-ligatures:none;text-align:center;text-anchor:middle;stroke-width:0.264583"
       x="59.98885"
       y="91.455391"
       id="text2"><tspan
         sodipodi:role="line"
         id="tspan2"
         style="stroke-width:0.264583"
         x="59.98885"
         y="91.455391" /></text>
    <text
       xml:space="preserve"
       style="font-size:4.9389px;line-height:1.25;font-family:Arial;-inkscape-font-specification:'Arial, Normal';font-variant-ligatures:none;text-align:center;text-anchor:middle;stroke-width:0.264583"
       x="104.70446"
       y="52.076206"
       id="text3"><tspan
         sodipodi:role="line"
         id="tspan3"
         style="stroke-width:0.264583"
         x="104.70446"
         y="52.076206" /></text>
    <text
       xml:space="preserve"
       style="font-size:4.9389px;line-height:1.25;font-family:Arial;-inkscape-font-specification:'Arial, Normal';font-variant-ligatures:none;text-align:center;text-anchor:middle;stroke-width:0.264583"
       x="164.10129"
       y="91.523033"
       id="text2-5"><tspan
         sodipodi:role="line"
         id="tspan2-1"
         style="stroke-width:0.264583"
         x="164.10129"
         y="91.523033" /></text>
    <text
       xml:space="preserve"
       style="font-size:4.9389px;line-height:1.25;font-family:Arial;-inkscape-font-specification:'Arial, Normal';font-variant-ligatures:none;text-align:center;text-anchor:middle;stroke-width:0.264583"
       x="208.81689"
       y="52.143848"
       id="text3-7"><tspan
         sodipodi:role="line"
         id="tspan3-1"
         style="stroke-width:0.264583"
         x="208.81689"
         y="52.143848" /></text>
    <g
       id="text1"
       style="font-size:4.9389px;line-height:1.25;font-family:Arial;-inkscape-font-specification:'Arial, Normal';font-variant-ligatures:none;text-align:center;white-space:pre-wrap;stroke-width:0.264583"
       transform="translate(-0.1905142,1.8642392)"
       aria-label="Disaggregate model">
      <path
         d="m 14.250736,5.3823298 v -3.535365 h 1.217844 q 0.412378,0 0.62942,0.050643 0.303858,0.069936 0.518488,0.2532151 0.279742,0.2363341 0.417202,0.6053047 0.139871,0.366559 0.139871,0.8392271 0,0.4027326 -0.09405,0.7138254 -0.09405,0.3110928 -0.241157,0.5160765 -0.147106,0.202572 -0.323151,0.3207391 -0.173633,0.1157554 -0.422025,0.1760448 -0.245981,0.060289 -0.56672,0.060289 z m 0.467845,-0.417202 h 0.754822 q 0.349678,0 0.547427,-0.065113 0.20016,-0.065112 0.318327,-0.1832795 0.166399,-0.1663985 0.258038,-0.4461409 0.09405,-0.2821539 0.09405,-0.6824749 0,-0.5546616 -0.18328,-0.851285 Q 16.327099,2.4378 16.066649,2.336514 15.878547,2.2641668 15.461345,2.2641668 H 14.718581 Z M 17.764396,2.3461603 V 1.8469648 h 0.434083 v 0.4991955 z m 0,3.0361695 V 2.82124 h 0.434083 v 2.5610898 z m 0.921221,-0.7644684 0.42926,-0.067524 q 0.03617,0.2580383 0.20016,0.3954979 0.166399,0.1374596 0.463022,0.1374596 0.299035,0 0.44373,-0.1205786 0.144694,-0.1229902 0.144694,-0.2869771 0,-0.1471059 -0.127813,-0.2315109 -0.08923,-0.057878 -0.44373,-0.147106 -0.477491,-0.1205786 -0.663182,-0.2073952 -0.18328,-0.089228 -0.279742,-0.2435688 -0.09405,-0.1567522 -0.09405,-0.3448548 0,-0.1712216 0.07717,-0.315916 0.07958,-0.1471059 0.21463,-0.2435688 0.101286,-0.074759 0.274919,-0.1254017 0.176045,-0.053055 0.376205,-0.053055 0.301447,0 0.528134,0.086817 0.2291,0.086817 0.33762,0.2363341 0.108521,0.1471059 0.149518,0.3954978 l -0.424437,0.057878 Q 20.262785,3.3421396 20.122914,3.2312073 19.985455,3.120275 19.732239,3.120275 q -0.299034,0 -0.426848,0.098874 -0.127813,0.098874 -0.127813,0.231511 0,0.084405 0.05305,0.151929 0.05306,0.069936 0.166399,0.1157555 0.06511,0.024116 0.38344,0.1109323 0.46061,0.1229902 0.641478,0.2025721 0.18328,0.07717 0.286977,0.2266878 0.103698,0.1495175 0.103698,0.3713821 0,0.2170415 -0.127813,0.4099673 -0.125402,0.1905142 -0.364148,0.2966234 -0.238746,0.1036976 -0.540192,0.1036976 -0.499196,0 -0.762057,-0.2073952 -0.26045,-0.2073952 -0.332797,-0.6149509 z m 4.314303,0.4485524 q -0.241157,0.2049836 -0.465434,0.2893887 -0.221864,0.084405 -0.477491,0.084405 -0.422025,0 -0.648713,-0.2049836 -0.226688,-0.2073953 -0.226688,-0.5281344 0,-0.1881026 0.08441,-0.3424432 0.08682,-0.1567522 0.224277,-0.2508035 0.139871,-0.094051 0.313504,-0.1422828 0.127813,-0.033762 0.385852,-0.065113 0.525722,-0.062701 0.774114,-0.1495174 0.0024,-0.089228 0.0024,-0.1133439 0,-0.265273 -0.12299,-0.3737937 -0.166399,-0.1471059 -0.494373,-0.1471059 -0.306269,0 -0.453375,0.1085207 -0.144695,0.1061092 -0.21463,0.3786168 l -0.424437,-0.057878 q 0.05788,-0.2725077 0.190514,-0.4389061 0.132637,-0.1688101 0.38344,-0.2580383 0.250804,-0.09164 0.581189,-0.09164 0.327974,0 0.532958,0.07717 0.204983,0.07717 0.301446,0.1953374 0.09646,0.1157554 0.135048,0.2942118 0.0217,0.1109323 0.0217,0.400321 v 0.5787773 q 0,0.6053046 0.02653,0.76688 0.02894,0.1591638 0.110932,0.3062697 h -0.453376 q -0.06752,-0.1350481 -0.08682,-0.315916 z m -0.03617,-0.9694521 q -0.236334,0.096463 -0.709002,0.163987 -0.267684,0.038585 -0.378617,0.086817 -0.110932,0.048231 -0.171221,0.1422827 -0.06029,0.09164 -0.06029,0.2049837 0,0.1736332 0.130225,0.2893886 0.132637,0.1157555 0.385852,0.1157555 0.250803,0 0.446141,-0.1085207 0.195337,-0.1109324 0.286977,-0.3014466 0.06994,-0.1471059 0.06994,-0.434083 z m 1.032153,1.4975864 0.422025,0.062701 q 0.02653,0.1953374 0.147106,0.2845655 0.161576,0.1205786 0.441318,0.1205786 0.301447,0 0.465434,-0.1205786 0.163986,-0.1205786 0.221864,-0.3376201 0.03376,-0.1326365 0.03135,-0.5570732 -0.284566,0.3352086 -0.709003,0.3352086 -0.528134,0 -0.817523,-0.3810285 -0.289388,-0.3810284 -0.289388,-0.9139858 0,-0.366559 0.132636,-0.6752403 0.132637,-0.3110928 0.38344,-0.4799029 0.253215,-0.16881 0.593247,-0.16881 0.453376,0 0.747587,0.366559 V 2.82124 h 0.400321 v 2.2138234 q 0,0.5980699 -0.12299,0.8464618 -0.120578,0.2508035 -0.385851,0.3954979 -0.262862,0.1446943 -0.648713,0.1446943 -0.458199,0 -0.740353,-0.2073952 Q 23.986253,6.0093385 23.995899,5.5945481 Z M 24.355224,4.055965 q 0,0.5040186 0.20016,0.7355296 0.200161,0.2315109 0.501607,0.2315109 0.299035,0 0.501607,-0.2290994 0.202572,-0.2315109 0.202572,-0.7234716 0,-0.4702566 -0.209807,-0.7090023 -0.207395,-0.2387456 -0.501607,-0.2387456 -0.289388,0 -0.49196,0.236334 -0.202572,0.2339225 -0.202572,0.6969444 z m 2.387456,1.5385831 0.422025,0.062701 q 0.02653,0.1953374 0.147106,0.2845655 0.161575,0.1205786 0.441317,0.1205786 0.301447,0 0.465434,-0.1205786 0.163987,-0.1205786 0.221865,-0.3376201 0.03376,-0.1326365 0.03135,-0.5570732 -0.284566,0.3352086 -0.709002,0.3352086 -0.528135,0 -0.817523,-0.3810285 -0.289389,-0.3810284 -0.289389,-0.9139858 0,-0.366559 0.132637,-0.6752403 0.132636,-0.3110928 0.38344,-0.4799029 0.253215,-0.16881 0.593246,-0.16881 0.453376,0 0.747588,0.366559 V 2.82124 h 0.400321 v 2.2138234 q 0,0.5980699 -0.12299,0.8464618 -0.120579,0.2508035 -0.385852,0.3954979 -0.262861,0.1446943 -0.648713,0.1446943 -0.458199,0 -0.740353,-0.2073952 Q 26.733033,6.0093385 26.74268,5.5945481 Z M 27.102004,4.055965 q 0,0.5040186 0.20016,0.7355296 0.200161,0.2315109 0.501607,0.2315109 0.299035,0 0.501608,-0.2290994 0.202572,-0.2315109 0.202572,-0.7234716 0,-0.4702566 -0.209807,-0.7090023 -0.207395,-0.2387456 -0.501607,-0.2387456 -0.289389,0 -0.491961,0.236334 -0.202572,0.2339225 -0.202572,0.6969444 z M 29.56422,5.3823298 V 2.82124 h 0.390674 v 0.3882632 q 0.149518,-0.2725077 0.27492,-0.3593243 0.127813,-0.086817 0.279742,-0.086817 0.219453,0 0.446141,0.1398712 L 30.806179,3.305966 q -0.159163,-0.094051 -0.318327,-0.094051 -0.142283,0 -0.255627,0.086817 -0.113344,0.084405 -0.161575,0.2363341 -0.07235,0.2315109 -0.07235,0.5064302 V 5.3823298 Z M 32.966947,4.557572 33.4155,4.6130382 q -0.106109,0.3930863 -0.393086,0.6101278 -0.286978,0.2170415 -0.733118,0.2170415 -0.561897,0 -0.892282,-0.3448548 Q 31.06904,4.7480863 31.06904,4.123489 q 0,-0.6463013 0.332797,-1.003214 0.332797,-0.3569127 0.863343,-0.3569127 0.513665,0 0.839227,0.349678 0.325562,0.3496779 0.325562,0.9839214 0,0.038585 -0.0024,0.1157555 h -1.909965 q 0.02411,0.4220252 0.238745,0.6463014 0.21463,0.2242762 0.535369,0.2242762 0.238746,0 0.407556,-0.1254018 0.16881,-0.1254017 0.267684,-0.400321 z M 31.541708,3.8558045 h 1.430063 Q 32.942832,3.5326538 32.807784,3.3710785 32.600388,3.120275 32.270003,3.120275 q -0.299035,0 -0.504019,0.2001605 -0.202572,0.2001605 -0.224276,0.535369 z m 2.339227,1.7387436 0.422025,0.062701 q 0.02653,0.1953374 0.147106,0.2845655 0.161575,0.1205786 0.441318,0.1205786 0.301446,0 0.465433,-0.1205786 0.163987,-0.1205786 0.221865,-0.3376201 0.03376,-0.1326365 0.03135,-0.5570732 -0.284565,0.3352086 -0.709002,0.3352086 -0.528134,0 -0.817523,-0.3810285 -0.289389,-0.3810284 -0.289389,-0.9139858 0,-0.366559 0.132637,-0.6752403 0.132636,-0.3110928 0.38344,-0.4799029 0.253215,-0.16881 0.593246,-0.16881 0.453376,0 0.747588,0.366559 V 2.82124 h 0.400321 v 2.2138234 q 0,0.5980699 -0.12299,0.8464618 -0.120579,0.2508035 -0.385852,0.3954979 -0.262861,0.1446943 -0.648713,0.1446943 -0.458199,0 -0.740353,-0.2073952 Q 33.871289,6.0093385 33.880935,5.5945481 Z M 34.240259,4.055965 q 0,0.5040186 0.200161,0.7355296 0.20016,0.2315109 0.501607,0.2315109 0.299035,0 0.501607,-0.2290994 0.202572,-0.2315109 0.202572,-0.7234716 0,-0.4702566 -0.209807,-0.7090023 -0.207395,-0.2387456 -0.501607,-0.2387456 -0.289389,0 -0.491961,0.236334 -0.202572,0.2339225 -0.202572,0.6969444 z m 4.138258,1.0104488 q -0.241158,0.2049836 -0.465434,0.2893887 -0.221864,0.084405 -0.477491,0.084405 -0.422025,0 -0.648713,-0.2049836 -0.226688,-0.2073953 -0.226688,-0.5281344 0,-0.1881026 0.0844,-0.3424432 0.08682,-0.1567522 0.224276,-0.2508035 0.139872,-0.094051 0.313505,-0.1422828 0.127813,-0.033762 0.385851,-0.065113 0.525723,-0.062701 0.774115,-0.1495174 0.0024,-0.089228 0.0024,-0.1133439 0,-0.265273 -0.122991,-0.3737937 -0.166398,-0.1471059 -0.494372,-0.1471059 -0.30627,0 -0.453375,0.1085207 -0.144695,0.1061092 -0.21463,0.3786168 L 36.63495,3.5519464 q 0.05788,-0.2725077 0.190514,-0.4389061 0.132637,-0.1688101 0.38344,-0.2580383 0.250804,-0.09164 0.581189,-0.09164 0.327974,0 0.532958,0.07717 0.204983,0.07717 0.301446,0.1953374 0.09646,0.1157554 0.135048,0.2942118 0.0217,0.1109323 0.0217,0.400321 v 0.5787773 q 0,0.6053046 0.02653,0.76688 0.02894,0.1591638 0.110932,0.3062697 h -0.453376 q -0.06752,-0.1350481 -0.08682,-0.315916 z m -0.03617,-0.9694521 q -0.236334,0.096463 -0.709002,0.163987 -0.267685,0.038585 -0.378617,0.086817 -0.110932,0.048231 -0.171222,0.1422827 -0.06029,0.09164 -0.06029,0.2049837 0,0.1736332 0.130225,0.2893886 0.132636,0.1157555 0.385852,0.1157555 0.250803,0 0.44614,-0.1085207 0.195338,-0.1109324 0.286977,-0.3014466 0.06994,-0.1471059 0.06994,-0.434083 z m 2.059482,0.8971049 0.0627,0.38344 q -0.183279,0.038585 -0.327974,0.038585 -0.236334,0 -0.366559,-0.074759 -0.130224,-0.074759 -0.183279,-0.1953373 -0.05306,-0.1229902 -0.05306,-0.5136649 V 3.1588601 H 39.215332 V 2.82124 h 0.318327 V 2.1869965 L 39.965331,1.9265467 V 2.82124 h 0.436494 v 0.3376201 h -0.436494 v 1.4975864 q 0,0.1856911 0.0217,0.2387457 0.02412,0.053055 0.07476,0.084405 0.05305,0.03135 0.149517,0.03135 0.07235,0 0.190514,-0.016881 z m 2.17765,-0.4364946 0.448553,0.055466 q -0.106109,0.3930863 -0.393087,0.6101278 -0.286977,0.2170415 -0.733118,0.2170415 -0.561896,0 -0.892281,-0.3448548 -0.327974,-0.3472664 -0.327974,-0.9718637 0,-0.6463013 0.332797,-1.003214 0.332797,-0.3569127 0.863343,-0.3569127 0.513665,0 0.839227,0.349678 0.325562,0.3496779 0.325562,0.9839214 0,0.038585 -0.0024,0.1157555 H 41.13012 q 0.02412,0.4220252 0.238746,0.6463014 0.21463,0.2242762 0.535369,0.2242762 0.238746,0 0.407556,-0.1254018 0.16881,-0.1254017 0.267684,-0.400321 z M 41.154236,3.8558045 h 1.430062 Q 42.55536,3.5326538 42.420312,3.3710785 42.212916,3.120275 41.882531,3.120275 q -0.299035,0 -0.504019,0.2001605 -0.202572,0.2001605 -0.224276,0.535369 z"
         id="path8" />
      <path
         d="m 22.158281,11.555955 v -2.56109 h 0.388263 v 0.3593243 q 0.120579,-0.1881027 0.320739,-0.3014466 0.200161,-0.1157554 0.455787,-0.1157554 0.284566,0 0.465434,0.118167 0.183279,0.1181671 0.258038,0.3303854 0.303858,-0.4485524 0.790996,-0.4485524 0.381028,0 0.586012,0.2122183 0.204983,0.2098068 0.204983,0.648713 V 11.555955 H 25.196862 V 9.9426129 q 0,-0.2604498 -0.04341,-0.3737937 -0.041,-0.1157555 -0.151929,-0.1856911 -0.110933,-0.069936 -0.26045,-0.069936 -0.270096,0 -0.448553,0.180868 -0.178456,0.1784563 -0.178456,0.5739545 v 1.48794 H 23.679983 V 9.8919699 q 0,-0.2893887 -0.106109,-0.434083 -0.106109,-0.1446944 -0.347267,-0.1446944 -0.183279,0 -0.340031,0.096463 -0.154341,0.096463 -0.224276,0.282154 -0.06994,0.1856911 -0.06994,0.5353686 v 1.328777 z m 3.952567,-1.280545 q 0,-0.7114139 0.395498,-1.0538572 0.330385,-0.2845655 0.805465,-0.2845655 0.528134,0 0.863343,0.3472664 0.335208,0.3448548 0.335208,0.9549823 0,0.494373 -0.149517,0.778938 -0.147106,0.282154 -0.431671,0.438906 -0.282154,0.156752 -0.617363,0.156752 -0.537781,0 -0.870578,-0.344854 -0.330385,-0.344855 -0.330385,-0.993568 z m 0.446141,0 q 0,0.491961 0.21463,0.737941 0.21463,0.243569 0.540192,0.243569 0.323151,0 0.537781,-0.245981 0.21463,-0.24598 0.21463,-0.749999 0,-0.4750793 -0.217042,-0.7186481 -0.21463,-0.2459804 -0.535369,-0.2459804 -0.325562,0 -0.540192,0.2435688 -0.21463,0.2435688 -0.21463,0.7355297 z m 4.123789,1.280545 v -0.323151 q -0.243569,0.381028 -0.716237,0.381028 -0.30627,0 -0.564308,-0.16881 -0.255627,-0.16881 -0.39791,-0.470256 -0.139871,-0.303858 -0.139871,-0.696945 0,-0.3834395 0.127813,-0.6945324 0.127814,-0.3135044 0.38344,-0.4799028 0.255627,-0.1663985 0.571543,-0.1663985 0.231511,0 0.412379,0.098874 0.180868,0.096463 0.294212,0.2532151 v -1.268487 h 0.431671 v 3.5353652 z m -1.372185,-1.278134 q 0,0.491961 0.207395,0.73553 0.207395,0.243569 0.489549,0.243569 0.284566,0 0.482315,-0.231511 0.20016,-0.233923 0.20016,-0.711414 0,-0.5257227 -0.202572,-0.7717031 -0.202572,-0.2459804 -0.499195,-0.2459804 -0.289389,0 -0.484726,0.2363341 -0.192926,0.2363341 -0.192926,0.7451754 z m 4.210605,0.453376 0.448553,0.05547 q -0.10611,0.393086 -0.393087,0.610128 -0.286977,0.217041 -0.733118,0.217041 -0.561896,0 -0.892281,-0.344854 -0.327974,-0.347267 -0.327974,-0.971864 0,-0.6463013 0.332797,-1.003214 0.332797,-0.3569127 0.863343,-0.3569127 0.513665,0 0.839227,0.349678 0.325562,0.3496779 0.325562,0.9839217 0,0.03858 -0.0024,0.115755 h -1.909965 q 0.02412,0.422025 0.238746,0.646302 0.21463,0.224276 0.535369,0.224276 0.238746,0 0.407556,-0.125402 0.16881,-0.125402 0.267684,-0.400321 z M 32.093959,10.02943 h 1.430062 Q 33.495082,9.7062788 33.360034,9.5447035 33.152639,9.2939 32.822254,9.2939 q -0.299035,0 -0.504019,0.2001605 -0.202572,0.2001605 -0.224276,0.5353695 z m 2.40916,1.526525 V 8.0205898 h 0.434083 v 3.5353652 z"
         id="path13" />
    </g>
    <g
       id="text1-8"
       style="font-size:4.9389px;line-height:1.25;font-family:Arial;-inkscape-font-specification:'Arial, Normal';font-variant-ligatures:none;white-space:pre-wrap;stroke-width:0.264583"
       transform="translate(0.49574051,3.4830179)"
       aria-label="Population for forecast year with all characteristics">
      <path
         style="text-align:center;text-anchor:middle"
         d="m 4.2306528,36.052252 v -3.535365 h 1.3335994 q 0.3520896,0 0.5377806,0.03376 0.2604498,0.04341 0.4364946,0.166398 0.1760448,0.120579 0.282154,0.340032 0.1085207,0.219453 0.1085207,0.482314 0,0.450964 -0.2869771,0.764469 -0.2869771,0.311093 -1.036976,0.311093 H 4.6984978 v 1.437297 z m 0.467845,-1.854499 h 0.9139859 q 0.4533756,0 0.6438898,-0.16881 0.1905142,-0.168811 0.1905142,-0.47508 0,-0.221865 -0.1133439,-0.378617 Q 6.2226115,33.016082 6.039332,32.965439 5.9211649,32.934089 5.6028374,32.934089 H 4.6984978 Z m 2.6093213,0.573954 q 0,-0.711414 0.3954978,-1.053857 0.3303854,-0.284566 0.8054652,-0.284566 0.5281343,0 0.8633428,0.347267 0.3352086,0.344854 0.3352086,0.954982 0,0.494372 -0.1495175,0.778938 -0.1471059,0.282154 -0.4316714,0.438906 -0.282154,0.156752 -0.6173625,0.156752 -0.5377807,0 -0.8705776,-0.344854 Q 7.3078191,35.42042 7.3078191,34.771707 Z m 0.4461408,0 q 0,0.491961 0.21463,0.737941 0.2146299,0.243569 0.5401922,0.243569 0.3231506,0 0.5377806,-0.245981 0.2146299,-0.24598 0.2146299,-0.749999 0,-0.475079 -0.2170415,-0.718648 -0.2146299,-0.245981 -0.535369,-0.245981 -0.3255623,0 -0.5401922,0.243569 -0.21463,0.243569 -0.21463,0.73553 z m 2.4622161,2.262055 v -3.5426 h 0.395497 v 0.332797 q 0.139872,-0.195337 0.315916,-0.2918 0.176045,-0.09887 0.426849,-0.09887 0.327973,0 0.578777,0.16881 0.250803,0.16881 0.378617,0.477492 0.127813,0.306269 0.127813,0.672828 0,0.393086 -0.142283,0.709002 -0.139871,0.313505 -0.409967,0.482315 -0.267684,0.166398 -0.564308,0.166398 -0.217041,0 -0.390675,-0.09164 -0.171221,-0.09164 -0.282153,-0.231511 v 1.246783 z m 0.393086,-2.247586 q 0,0.494373 0.20016,0.730707 0.200161,0.236334 0.484726,0.236334 0.289389,0 0.494373,-0.243569 0.207395,-0.24598 0.207395,-0.759645 0,-0.48955 -0.202572,-0.733118 -0.200161,-0.243569 -0.479903,-0.243569 -0.277331,0 -0.491961,0.26045 -0.212218,0.258038 -0.212218,0.75241 z m 4.032148,1.266076 v -0.376206 q -0.299035,0.434083 -0.8127,0.434083 -0.226687,0 -0.424436,-0.08682 -0.195338,-0.08682 -0.291801,-0.217042 -0.09405,-0.132636 -0.132636,-0.32315 -0.02653,-0.127814 -0.02653,-0.405145 v -1.586814 h 0.434083 v 1.420416 q 0,0.340032 0.02653,0.458199 0.041,0.171221 0.173633,0.270096 0.132637,0.09646 0.327974,0.09646 0.195337,0 0.366559,-0.09887 0.171222,-0.101286 0.241157,-0.272507 0.07235,-0.173634 0.07235,-0.501607 v -1.372185 h 0.434083 v 2.56109 z m 1.058681,0 v -3.535365 h 0.434083 v 3.535365 z m 2.778131,-0.315916 q -0.241157,0.204983 -0.465433,0.289388 -0.221865,0.08441 -0.477492,0.08441 -0.422025,0 -0.648713,-0.204983 -0.226687,-0.207395 -0.226687,-0.528135 0,-0.188102 0.08441,-0.342443 0.08682,-0.156752 0.224276,-0.250803 0.139871,-0.09405 0.313504,-0.142283 0.127814,-0.03376 0.385852,-0.06511 0.525723,-0.0627 0.774115,-0.149517 0.0024,-0.08923 0.0024,-0.113344 0,-0.265273 -0.12299,-0.373794 -0.166399,-0.147106 -0.494372,-0.147106 -0.30627,0 -0.453376,0.108521 -0.144694,0.106109 -0.21463,0.378617 l -0.424437,-0.05788 q 0.05788,-0.272507 0.190515,-0.438906 0.132636,-0.16881 0.38344,-0.258038 0.250803,-0.09164 0.581188,-0.09164 0.327974,0 0.532958,0.07717 0.204984,0.07717 0.301446,0.195338 0.09646,0.115755 0.135049,0.294212 0.0217,0.110932 0.0217,0.400321 v 0.578777 q 0,0.605305 0.02653,0.76688 0.02894,0.159164 0.110932,0.30627 h -0.453375 q -0.06752,-0.135048 -0.08682,-0.315916 z m -0.03617,-0.969452 q -0.236335,0.09646 -0.709003,0.163987 -0.267684,0.03858 -0.378617,0.08682 -0.110932,0.04823 -0.171221,0.142283 -0.06029,0.09164 -0.06029,0.204984 0,0.173633 0.130225,0.289388 0.132637,0.115756 0.385852,0.115756 0.250803,0 0.446141,-0.108521 0.195337,-0.110932 0.286977,-0.301447 0.06994,-0.147106 0.06994,-0.434083 z m 2.059482,0.897105 0.0627,0.383439 q -0.18328,0.03859 -0.327974,0.03859 -0.236334,0 -0.366559,-0.07476 -0.130225,-0.07476 -0.18328,-0.195337 -0.05305,-0.122991 -0.05305,-0.513665 v -1.473471 h -0.318328 v -0.33762 h 0.318328 v -0.634244 l 0.431671,-0.260449 v 0.894693 h 0.436495 v 0.33762 h -0.436495 v 1.497586 q 0,0.185691 0.0217,0.238746 0.02412,0.05306 0.07476,0.0844 0.05306,0.03135 0.149518,0.03135 0.07235,0 0.190514,-0.01688 z m 0.426849,-2.647907 v -0.499195 h 0.434083 v 0.499195 z m 0,3.03617 v -2.56109 h 0.434083 v 2.56109 z m 0.933279,-1.280545 q 0,-0.711414 0.395497,-1.053857 0.330386,-0.284566 0.805466,-0.284566 0.528134,0 0.863342,0.347267 0.335209,0.344854 0.335209,0.954982 0,0.494372 -0.149518,0.778938 -0.147105,0.282154 -0.431671,0.438906 -0.282154,0.156752 -0.617362,0.156752 -0.537781,0 -0.870578,-0.344854 -0.330385,-0.344855 -0.330385,-0.993568 z m 0.44614,0 q 0,0.491961 0.21463,0.737941 0.21463,0.243569 0.540193,0.243569 0.32315,0 0.53778,-0.245981 0.21463,-0.24598 0.21463,-0.749999 0,-0.475079 -0.217041,-0.718648 -0.21463,-0.245981 -0.535369,-0.245981 -0.325563,0 -0.540193,0.243569 -0.21463,0.243569 -0.21463,0.73553 z m 2.462215,1.280545 v -2.56109 h 0.390675 v 0.364147 q 0.282154,-0.422025 0.815111,-0.422025 0.231511,0 0.424437,0.0844 0.195337,0.08199 0.2918,0.217042 0.09646,0.135048 0.135048,0.320739 0.02412,0.120578 0.02412,0.422025 v 1.574757 h -0.434083 v -1.557876 q 0,-0.265273 -0.05064,-0.395498 -0.05064,-0.132636 -0.180868,-0.209807 -0.127813,-0.07958 -0.301446,-0.07958 -0.277331,0 -0.479903,0.176045 -0.200161,0.176045 -0.200161,0.668006 v 1.398712 z m 4.222663,0 v -2.22347 h -0.38344 v -0.33762 h 0.38344 v -0.272508 q 0,-0.258038 0.04582,-0.38344 0.0627,-0.16881 0.219453,-0.272507 0.159164,-0.10611 0.443729,-0.10611 0.18328,0 0.405144,0.04341 l -0.06511,0.378617 q -0.135048,-0.02412 -0.255627,-0.02412 -0.197749,0 -0.279742,0.08441 -0.08199,0.0844 -0.08199,0.315916 v 0.236334 h 0.499196 v 0.33762 h -0.499196 v 2.22347 z m 1.106912,-1.280545 q 0,-0.711414 0.395498,-1.053857 0.330385,-0.284566 0.805465,-0.284566 0.528134,0 0.863343,0.347267 0.335208,0.344854 0.335208,0.954982 0,0.494372 -0.149517,0.778938 -0.147106,0.282154 -0.431672,0.438906 -0.282154,0.156752 -0.617362,0.156752 -0.537781,0 -0.870578,-0.344854 -0.330385,-0.344855 -0.330385,-0.993568 z m 0.446141,0 q 0,0.491961 0.21463,0.737941 0.21463,0.243569 0.540192,0.243569 0.32315,0 0.53778,-0.245981 0.21463,-0.24598 0.21463,-0.749999 0,-0.475079 -0.217041,-0.718648 -0.21463,-0.245981 -0.535369,-0.245981 -0.325562,0 -0.540192,0.243569 -0.21463,0.243569 -0.21463,0.73553 z m 2.457391,1.280545 v -2.56109 h 0.390675 v 0.388263 q 0.149518,-0.272508 0.274919,-0.359324 0.127814,-0.08682 0.279743,-0.08682 0.219453,0 0.446141,0.139871 l -0.149518,0.402733 q -0.159164,-0.09405 -0.318327,-0.09405 -0.142283,0 -0.255627,0.08682 -0.113344,0.0844 -0.161575,0.236334 -0.07235,0.231511 -0.07235,0.50643 v 1.340835 z m 3.125399,0 v -2.22347 h -0.38344 v -0.33762 h 0.38344 v -0.272508 q 0,-0.258038 0.04582,-0.38344 0.0627,-0.16881 0.219453,-0.272507 0.159164,-0.10611 0.44373,-0.10611 0.183279,0 0.405144,0.04341 l -0.06511,0.378617 q -0.135048,-0.02412 -0.255626,-0.02412 -0.197749,0 -0.279743,0.08441 -0.08199,0.0844 -0.08199,0.315916 v 0.236334 h 0.499195 v 0.33762 h -0.499195 v 2.22347 z m 1.106912,-1.280545 q 0,-0.711414 0.395498,-1.053857 0.330385,-0.284566 0.805465,-0.284566 0.528134,0 0.863343,0.347267 0.335208,0.344854 0.335208,0.954982 0,0.494372 -0.149517,0.778938 -0.147106,0.282154 -0.431671,0.438906 -0.282154,0.156752 -0.617363,0.156752 -0.537781,0 -0.870578,-0.344854 -0.330385,-0.344855 -0.330385,-0.993568 z m 0.446141,0 q 0,0.491961 0.21463,0.737941 0.21463,0.243569 0.540192,0.243569 0.323151,0 0.537781,-0.245981 0.21463,-0.24598 0.21463,-0.749999 0,-0.475079 -0.217042,-0.718648 -0.21463,-0.245981 -0.535369,-0.245981 -0.325562,0 -0.540192,0.243569 -0.21463,0.243569 -0.21463,0.73553 z m 2.457392,1.280545 v -2.56109 h 0.390674 v 0.388263 q 0.149518,-0.272508 0.27492,-0.359324 0.127813,-0.08682 0.279742,-0.08682 0.219453,0 0.446141,0.139871 l -0.149518,0.402733 q -0.159163,-0.09405 -0.318327,-0.09405 -0.142283,0 -0.255627,0.08682 -0.113344,0.0844 -0.161575,0.236334 -0.07235,0.231511 -0.07235,0.50643 v 1.340835 z m 3.402727,-0.824758 0.448553,0.05547 q -0.106109,0.393086 -0.393087,0.610128 -0.286977,0.217041 -0.733117,0.217041 -0.561897,0 -0.892282,-0.344854 -0.327974,-0.347267 -0.327974,-0.971864 0,-0.646301 0.332797,-1.003214 0.332797,-0.356913 0.863343,-0.356913 0.513665,0 0.839227,0.349678 0.325562,0.349678 0.325562,0.983922 0,0.03859 -0.0024,0.115755 h -1.909966 q 0.02412,0.422025 0.238746,0.646301 0.21463,0.224277 0.535369,0.224277 0.238746,0 0.407556,-0.125402 0.16881,-0.125402 0.267684,-0.400321 z m -1.425239,-0.701768 h 1.430062 q -0.02894,-0.32315 -0.163986,-0.484726 -0.207396,-0.250803 -0.537781,-0.250803 -0.299035,0 -0.504019,0.20016 -0.202572,0.200161 -0.224276,0.535369 z m 4.090026,0.588424 0.426849,0.05547 q -0.06994,0.441318 -0.359325,0.692121 -0.286977,0.248392 -0.70659,0.248392 -0.525723,0 -0.846462,-0.342443 -0.318328,-0.344855 -0.318328,-0.986333 0,-0.41479 0.13746,-0.725883 0.137459,-0.311093 0.417202,-0.465434 0.282154,-0.156752 0.612539,-0.156752 0.417202,0 0.682475,0.212219 0.265273,0.209806 0.340032,0.598069 l -0.422025,0.06511 q -0.06029,-0.258038 -0.21463,-0.388263 -0.151929,-0.130225 -0.368971,-0.130225 -0.327974,0 -0.532957,0.236334 -0.204984,0.233922 -0.204984,0.742764 0,0.516077 0.197749,0.749999 0.197749,0.233923 0.516076,0.233923 0.255627,0 0.426849,-0.156753 0.171221,-0.156752 0.217041,-0.482314 z m 2.469452,0.622186 q -0.241157,0.204983 -0.465433,0.289388 -0.221865,0.08441 -0.477492,0.08441 -0.422025,0 -0.648713,-0.204983 -0.226687,-0.207395 -0.226687,-0.528135 0,-0.188102 0.08441,-0.342443 0.08682,-0.156752 0.224276,-0.250803 0.139871,-0.09405 0.313504,-0.142283 0.127814,-0.03376 0.385852,-0.06511 0.525723,-0.0627 0.774115,-0.149517 0.0024,-0.08923 0.0024,-0.113344 0,-0.265273 -0.12299,-0.373794 -0.166399,-0.147106 -0.494372,-0.147106 -0.30627,0 -0.453376,0.108521 -0.144694,0.106109 -0.21463,0.378617 l -0.424437,-0.05788 q 0.05788,-0.272507 0.190515,-0.438906 0.132636,-0.16881 0.38344,-0.258038 0.250803,-0.09164 0.581189,-0.09164 0.327973,0 0.532957,0.07717 0.204984,0.07717 0.301447,0.195338 0.09646,0.115755 0.135048,0.294212 0.0217,0.110932 0.0217,0.400321 v 0.578777 q 0,0.605305 0.02653,0.76688 0.02894,0.159164 0.110932,0.30627 h -0.453375 q -0.06752,-0.135048 -0.08682,-0.315916 z m -0.03617,-0.969452 q -0.236334,0.09646 -0.709003,0.163987 -0.267684,0.03858 -0.378617,0.08682 -0.110932,0.04823 -0.171221,0.142283 -0.06029,0.09164 -0.06029,0.204984 0,0.173633 0.130224,0.289388 0.132637,0.115756 0.385852,0.115756 0.250804,0 0.446141,-0.108521 0.195337,-0.110932 0.286977,-0.301447 0.06994,-0.147106 0.06994,-0.434083 z m 0.938101,0.520899 0.42926,-0.06752 q 0.03617,0.258038 0.20016,0.395498 0.166399,0.13746 0.463022,0.13746 0.299035,0 0.443729,-0.120579 0.144695,-0.12299 0.144695,-0.286977 0,-0.147106 -0.127814,-0.231511 -0.08923,-0.05788 -0.443729,-0.147106 -0.477491,-0.120578 -0.663182,-0.207395 -0.18328,-0.08923 -0.279743,-0.243569 -0.09405,-0.156752 -0.09405,-0.344855 0,-0.171221 0.07717,-0.315916 0.07958,-0.147106 0.21463,-0.243568 0.101286,-0.07476 0.274919,-0.125402 0.176045,-0.05306 0.376206,-0.05306 0.301446,0 0.528134,0.08682 0.229099,0.08682 0.33762,0.236334 0.108521,0.147106 0.149518,0.395498 l -0.424437,0.05788 q -0.02894,-0.197748 -0.16881,-0.308681 -0.13746,-0.110932 -0.390675,-0.110932 -0.299035,0 -0.426848,0.09887 -0.127813,0.09887 -0.127813,0.231511 0,0.08441 0.05305,0.151929 0.05305,0.06994 0.166399,0.115756 0.06511,0.02412 0.38344,0.110932 0.46061,0.12299 0.641478,0.202572 0.183279,0.07717 0.286977,0.226688 0.103698,0.149517 0.103698,0.371382 0,0.217042 -0.127814,0.409967 -0.125402,0.190515 -0.364147,0.296624 -0.238746,0.103697 -0.540192,0.103697 -0.499196,0 -0.762057,-0.207395 -0.26045,-0.207395 -0.332797,-0.614951 z m 3.590829,0.376206 0.0627,0.383439 q -0.18328,0.03859 -0.327974,0.03859 -0.236334,0 -0.366559,-0.07476 -0.130225,-0.07476 -0.183279,-0.195337 -0.05306,-0.122991 -0.05306,-0.513665 v -1.473471 h -0.318328 v -0.33762 h 0.318328 v -0.634244 l 0.431671,-0.260449 v 0.894693 h 0.436495 v 0.33762 h -0.436495 v 1.497586 q 0,0.185691 0.0217,0.238746 0.02412,0.05306 0.07476,0.0844 0.05306,0.03135 0.149518,0.03135 0.07235,0 0.190514,-0.01688 z"
         id="path1" />
      <path
         style="text-align:center;text-anchor:middle"
         d="m 15.826698,43.212211 -0.04823,-0.407556 q 0.142282,0.03859 0.248391,0.03859 0.144695,0 0.231511,-0.04823 0.08682,-0.04823 0.142283,-0.135048 0.041,-0.06511 0.132637,-0.323151 0.01206,-0.03617 0.03859,-0.106109 L 15.60001,39.664788 h 0.467845 l 0.532958,1.483117 q 0.103697,0.282154 0.185691,0.593247 0.07476,-0.299035 0.178456,-0.583601 l 0.547427,-1.492763 h 0.434083 l -0.974275,2.604498 q -0.156752,0.422025 -0.243569,0.581189 -0.115755,0.21463 -0.265273,0.313504 -0.149517,0.101286 -0.356913,0.101286 -0.125401,0 -0.279742,-0.05305 z m 4.241956,-1.811091 0.448552,0.05547 q -0.106109,0.393086 -0.393086,0.610128 -0.286977,0.217041 -0.733118,0.217041 -0.561897,0 -0.892282,-0.344855 -0.327974,-0.347266 -0.327974,-0.971863 0,-0.646302 0.332797,-1.003214 0.332797,-0.356913 0.863343,-0.356913 0.513665,0 0.839227,0.349678 0.325562,0.349678 0.325562,0.983922 0,0.03858 -0.0024,0.115755 h -1.909965 q 0.02411,0.422025 0.238745,0.646301 0.21463,0.224277 0.535369,0.224277 0.238746,0 0.407556,-0.125402 0.16881,-0.125402 0.267685,-0.400321 z m -1.42524,-0.701768 h 1.430063 q -0.02894,-0.32315 -0.163987,-0.484726 -0.207395,-0.250803 -0.537781,-0.250803 -0.299035,0 -0.504018,0.20016 -0.202572,0.200161 -0.224277,0.535369 z m 4.090027,1.21061 q -0.241157,0.204983 -0.465433,0.289388 -0.221865,0.0844 -0.477492,0.0844 -0.422025,0 -0.648713,-0.204983 -0.226687,-0.207396 -0.226687,-0.528135 0,-0.188102 0.08441,-0.342443 0.08682,-0.156752 0.224276,-0.250803 0.139871,-0.09405 0.313504,-0.142283 0.127814,-0.03376 0.385852,-0.06511 0.525722,-0.0627 0.774114,-0.149517 0.0024,-0.08923 0.0024,-0.113344 0,-0.265273 -0.12299,-0.373794 -0.166399,-0.147106 -0.494372,-0.147106 -0.30627,0 -0.453376,0.108521 -0.144694,0.106109 -0.21463,0.378617 l -0.424437,-0.05788 q 0.05788,-0.272507 0.190514,-0.438906 0.132637,-0.16881 0.38344,-0.258038 0.250804,-0.09164 0.581189,-0.09164 0.327974,0 0.532958,0.07717 0.204983,0.07717 0.301446,0.195338 0.09646,0.115755 0.135048,0.294212 0.02171,0.110932 0.02171,0.400321 v 0.578777 q 0,0.605305 0.02653,0.76688 0.02894,0.159164 0.110932,0.30627 h -0.453375 q -0.06752,-0.135048 -0.08682,-0.315916 z m -0.03617,-0.969452 q -0.236334,0.09646 -0.709002,0.163986 -0.267684,0.03859 -0.378617,0.08682 -0.110932,0.04823 -0.171221,0.142283 -0.06029,0.09164 -0.06029,0.204983 0,0.173634 0.130225,0.289389 0.132637,0.115756 0.385852,0.115756 0.250803,0 0.446141,-0.108521 0.195337,-0.110932 0.286977,-0.301447 0.06994,-0.147106 0.06994,-0.434083 z m 1.106912,1.285368 v -2.56109 h 0.390675 v 0.388263 q 0.149517,-0.272508 0.274919,-0.359324 0.127813,-0.08682 0.279742,-0.08682 0.219454,0 0.446141,0.139871 l -0.149517,0.402733 q -0.159164,-0.09405 -0.318328,-0.09405 -0.142282,0 -0.255626,0.08682 -0.113344,0.0844 -0.161576,0.236334 -0.07235,0.231511 -0.07235,0.50643 v 1.340835 z m 3.494369,0 -0.783761,-2.56109 h 0.448552 l 0.407556,1.478294 0.151929,0.549838 q 0.0096,-0.041 0.132636,-0.528134 l 0.407556,-1.499998 h 0.446141 l 0.38344,1.485528 0.127813,0.48955 0.147106,-0.494373 0.438906,-1.480705 h 0.422025 l -0.800642,2.56109 h -0.450964 l -0.407555,-1.53376 -0.09887,-0.436495 -0.518488,1.970255 z m 3.096458,-3.03617 v -0.499195 h 0.434083 v 0.499195 z m 0,3.03617 v -2.56109 h 0.434083 v 2.56109 z m 2.042602,-0.388264 0.0627,0.38344 q -0.18328,0.03859 -0.327974,0.03859 -0.236334,0 -0.366559,-0.07476 -0.130225,-0.07476 -0.18328,-0.195337 -0.05305,-0.122991 -0.05305,-0.513665 v -1.473471 h -0.318328 v -0.33762 h 0.318328 v -0.634244 l 0.431671,-0.260449 v 0.894693 h 0.436495 v 0.33762 h -0.436495 v 1.497586 q 0,0.185691 0.0217,0.238746 0.02412,0.05306 0.07476,0.0844 0.05306,0.03135 0.149518,0.03135 0.07235,0 0.190514,-0.01688 z m 0.424437,0.388264 v -3.535365 h 0.434083 V 39.959 q 0.303858,-0.35209 0.76688,-0.35209 0.284565,0 0.494372,0.113344 0.209807,0.110932 0.299035,0.308681 0.09164,0.197749 0.09164,0.573954 v 1.622989 h -0.434083 v -1.622989 q 0,-0.325562 -0.142283,-0.472668 -0.139871,-0.149517 -0.397909,-0.149517 -0.192926,0 -0.364148,0.101286 -0.16881,0.09887 -0.241157,0.270096 -0.07235,0.171222 -0.07235,0.472668 v 1.401124 z m 5.790184,-0.315916 q -0.241157,0.204983 -0.465433,0.289388 -0.221865,0.0844 -0.477491,0.0844 -0.422025,0 -0.648713,-0.204983 -0.226688,-0.207396 -0.226688,-0.528135 0,-0.188102 0.08441,-0.342443 0.08682,-0.156752 0.224276,-0.250803 0.139871,-0.09405 0.313505,-0.142283 0.127813,-0.03376 0.385851,-0.06511 0.525723,-0.0627 0.774115,-0.149517 0.0024,-0.08923 0.0024,-0.113344 0,-0.265273 -0.12299,-0.373794 -0.166398,-0.147106 -0.494372,-0.147106 -0.30627,0 -0.453376,0.108521 -0.144694,0.106109 -0.21463,0.378617 l -0.424436,-0.05788 q 0.05788,-0.272507 0.190514,-0.438906 0.132636,-0.16881 0.38344,-0.258038 0.250803,-0.09164 0.581189,-0.09164 0.327974,0 0.532957,0.07717 0.204984,0.07717 0.301447,0.195338 0.09646,0.115755 0.135048,0.294212 0.0217,0.110932 0.0217,0.400321 v 0.578777 q 0,0.605305 0.02653,0.76688 0.02894,0.159164 0.110933,0.30627 h -0.453376 q -0.06752,-0.135048 -0.08682,-0.315916 z m -0.03617,-0.969452 q -0.236334,0.09646 -0.709002,0.163986 -0.267685,0.03859 -0.378617,0.08682 -0.110933,0.04823 -0.171222,0.142283 -0.06029,0.09164 -0.06029,0.204983 0,0.173634 0.130225,0.289389 0.132636,0.115756 0.385851,0.115756 0.250804,0 0.446141,-0.108521 0.195338,-0.110932 0.286977,-0.301447 0.06994,-0.147106 0.06994,-0.434083 z m 1.102088,1.285368 v -3.535365 h 0.434083 v 3.535365 z m 1.097265,0 v -3.535365 h 0.434083 v 3.535365 z"
         id="path2" />
      <path
         style="text-align:center;text-anchor:middle"
         d="m 14.774047,47.461402 0.426848,0.05547 q -0.06994,0.441318 -0.359324,0.692121 -0.286977,0.248392 -0.706591,0.248392 -0.525723,0 -0.846462,-0.342443 -0.318327,-0.344855 -0.318327,-0.986333 0,-0.41479 0.137459,-0.725883 0.13746,-0.311093 0.417202,-0.465434 0.282154,-0.156752 0.61254,-0.156752 0.417202,0 0.682475,0.212218 0.265273,0.209807 0.340031,0.59807 l -0.422025,0.06511 q -0.06029,-0.258038 -0.21463,-0.388263 -0.151929,-0.130225 -0.36897,-0.130225 -0.327974,0 -0.532958,0.236334 -0.204983,0.233922 -0.204983,0.742764 0,0.516077 0.197748,0.749999 0.197749,0.233923 0.516077,0.233923 0.255627,0 0.426848,-0.156753 0.171222,-0.156752 0.217042,-0.482314 z m 0.79823,0.938102 v -3.535365 h 0.434083 v 1.268487 q 0.303858,-0.35209 0.76688,-0.35209 0.284566,0 0.494372,0.113344 0.209807,0.110932 0.299035,0.308681 0.09164,0.197749 0.09164,0.573954 v 1.622989 h -0.434083 v -1.622989 q 0,-0.325562 -0.142283,-0.472668 -0.139871,-0.149517 -0.397909,-0.149517 -0.192926,0 -0.364147,0.101286 -0.168811,0.09887 -0.241158,0.270096 -0.07235,0.171222 -0.07235,0.472668 v 1.401124 z m 4.418001,-0.315916 q -0.241158,0.204983 -0.465434,0.289388 -0.221865,0.0844 -0.477491,0.0844 -0.422025,0 -0.648713,-0.204983 -0.226688,-0.207396 -0.226688,-0.528135 0,-0.188102 0.08441,-0.342443 0.08682,-0.156752 0.224276,-0.250803 0.139872,-0.09405 0.313505,-0.142283 0.127813,-0.03376 0.385851,-0.06511 0.525723,-0.0627 0.774115,-0.149517 0.0024,-0.08923 0.0024,-0.113344 0,-0.265273 -0.122991,-0.373794 -0.166398,-0.147106 -0.494372,-0.147106 -0.30627,0 -0.453376,0.108521 -0.144694,0.106109 -0.214629,0.378617 l -0.424437,-0.05788 q 0.05788,-0.272507 0.190514,-0.438906 0.132637,-0.16881 0.38344,-0.258038 0.250804,-0.09164 0.581189,-0.09164 0.327974,0 0.532957,0.07717 0.204984,0.07717 0.301447,0.195338 0.09646,0.115755 0.135048,0.294212 0.0217,0.110932 0.0217,0.400321 v 0.578777 q 0,0.605305 0.02653,0.76688 0.02894,0.159164 0.110933,0.30627 h -0.453376 q -0.06752,-0.135049 -0.08682,-0.315916 z m -0.03617,-0.969452 q -0.236334,0.09646 -0.709002,0.163986 -0.267685,0.03859 -0.378617,0.08682 -0.110932,0.04823 -0.171222,0.142283 -0.06029,0.09164 -0.06029,0.204983 0,0.173634 0.130225,0.289389 0.132636,0.115756 0.385851,0.115756 0.250804,0 0.446141,-0.108521 0.195338,-0.110933 0.286977,-0.301447 0.06994,-0.147106 0.06994,-0.434083 z m 1.106912,1.285368 v -2.56109 h 0.390674 v 0.388263 q 0.149518,-0.272508 0.27492,-0.359324 0.127813,-0.08682 0.279742,-0.08682 0.219453,0 0.446141,0.139871 l -0.149518,0.402733 q -0.159163,-0.09405 -0.318327,-0.09405 -0.142283,0 -0.255627,0.08682 -0.113344,0.0844 -0.161575,0.236334 -0.07235,0.231511 -0.07235,0.50643 v 1.340835 z m 3.320735,-0.315916 q -0.241157,0.204983 -0.465434,0.289388 -0.221864,0.0844 -0.477491,0.0844 -0.422025,0 -0.648713,-0.204983 -0.226688,-0.207396 -0.226688,-0.528135 0,-0.188102 0.08441,-0.342443 0.08682,-0.156752 0.224277,-0.250803 0.139871,-0.09405 0.313504,-0.142283 0.127813,-0.03376 0.385852,-0.06511 0.525722,-0.0627 0.774114,-0.149517 0.0024,-0.08923 0.0024,-0.113344 0,-0.265273 -0.12299,-0.373794 -0.166399,-0.147106 -0.494373,-0.147106 -0.306269,0 -0.453375,0.108521 -0.144695,0.106109 -0.21463,0.378617 l -0.424437,-0.05788 q 0.05788,-0.272507 0.190514,-0.438906 0.132637,-0.16881 0.38344,-0.258038 0.250804,-0.09164 0.581189,-0.09164 0.327974,0 0.532958,0.07717 0.204983,0.07717 0.301446,0.195338 0.09646,0.115755 0.135048,0.294212 0.0217,0.110932 0.0217,0.400321 v 0.578777 q 0,0.605305 0.02653,0.76688 0.02894,0.159164 0.110932,0.30627 h -0.453376 q -0.06752,-0.135049 -0.08682,-0.315916 z m -0.03617,-0.969452 q -0.236334,0.09646 -0.709002,0.163986 -0.267684,0.03859 -0.378617,0.08682 -0.110932,0.04823 -0.171221,0.142283 -0.06029,0.09164 -0.06029,0.204983 0,0.173634 0.130225,0.289389 0.132637,0.115756 0.385852,0.115756 0.250803,0 0.446141,-0.108521 0.195337,-0.110933 0.286977,-0.301447 0.06993,-0.147106 0.06993,-0.434083 z m 2.782954,0.347266 0.426849,0.05547 q -0.06994,0.441318 -0.359325,0.692121 -0.286977,0.248392 -0.70659,0.248392 -0.525723,0 -0.846462,-0.342443 -0.318328,-0.344855 -0.318328,-0.986333 0,-0.41479 0.13746,-0.725883 0.137459,-0.311093 0.417202,-0.465434 0.282154,-0.156752 0.612539,-0.156752 0.417202,0 0.682475,0.212218 0.265273,0.209807 0.340032,0.59807 l -0.422025,0.06511 q -0.06029,-0.258038 -0.21463,-0.388263 -0.151929,-0.130225 -0.368971,-0.130225 -0.327974,0 -0.532957,0.236334 -0.204984,0.233922 -0.204984,0.742764 0,0.516077 0.197749,0.749999 0.197749,0.233923 0.516076,0.233923 0.255627,0 0.426849,-0.156753 0.171221,-0.156752 0.217041,-0.482314 z m 1.745979,0.549838 0.0627,0.38344 q -0.183279,0.03859 -0.327973,0.03859 -0.236334,0 -0.366559,-0.07476 -0.130225,-0.07476 -0.18328,-0.195338 -0.05305,-0.12299 -0.05305,-0.513664 v -1.473471 h -0.318328 v -0.33762 h 0.318328 V 45.20417 l 0.431671,-0.26045 v 0.894694 h 0.436495 v 0.33762 h -0.436495 v 1.497586 q 0,0.185691 0.0217,0.238746 0.02412,0.05306 0.07476,0.08441 0.05305,0.03135 0.149517,0.03135 0.07235,0 0.190515,-0.01688 z m 2.177649,-0.436494 0.448553,0.05547 q -0.106109,0.393086 -0.393086,0.610128 -0.286977,0.217041 -0.733118,0.217041 -0.561897,0 -0.892282,-0.344855 -0.327974,-0.347266 -0.327974,-0.971863 0,-0.646302 0.332797,-1.003214 0.332797,-0.356913 0.863343,-0.356913 0.513665,0 0.839227,0.349678 0.325562,0.349678 0.325562,0.983922 0,0.03858 -0.0024,0.115755 h -1.909965 q 0.02411,0.422025 0.238745,0.646301 0.21463,0.224277 0.535369,0.224277 0.238746,0 0.407556,-0.125402 0.16881,-0.125402 0.267684,-0.400321 z M 29.62692,46.872978 h 1.430063 q -0.02894,-0.32315 -0.163987,-0.484726 -0.207396,-0.250803 -0.537781,-0.250803 -0.299035,0 -0.504019,0.20016 -0.202572,0.200161 -0.224276,0.535369 z m 2.413984,1.526526 v -2.56109 h 0.390674 v 0.388263 q 0.149518,-0.272508 0.27492,-0.359324 0.127813,-0.08682 0.279742,-0.08682 0.219453,0 0.446141,0.139871 l -0.149518,0.402733 q -0.159163,-0.09405 -0.318327,-0.09405 -0.142283,0 -0.255627,0.08682 -0.113344,0.0844 -0.161575,0.236334 -0.07235,0.231511 -0.07235,0.50643 v 1.340835 z m 1.651928,-3.03617 v -0.499195 h 0.434083 v 0.499195 z m 0,3.03617 v -2.56109 h 0.434083 v 2.56109 z m 0.92122,-0.764469 0.42926,-0.06752 q 0.03617,0.258038 0.200161,0.395498 0.166398,0.13746 0.463021,0.13746 0.299035,0 0.44373,-0.120579 0.144694,-0.12299 0.144694,-0.286977 0,-0.147106 -0.127813,-0.231511 -0.08923,-0.05788 -0.44373,-0.147106 -0.477491,-0.120579 -0.663182,-0.207395 -0.183279,-0.08923 -0.279742,-0.243569 -0.09405,-0.156752 -0.09405,-0.344855 0,-0.171221 0.07717,-0.315916 0.07958,-0.147106 0.21463,-0.243569 0.101286,-0.07476 0.274919,-0.125401 0.176045,-0.05306 0.376205,-0.05306 0.301447,0 0.528134,0.08682 0.2291,0.08682 0.337621,0.236334 0.10852,0.147106 0.149517,0.395498 l -0.424437,0.05788 q -0.02894,-0.197749 -0.16881,-0.308681 -0.137459,-0.110932 -0.390674,-0.110932 -0.299035,0 -0.426849,0.09887 -0.127813,0.09887 -0.127813,0.231511 0,0.0844 0.05306,0.151929 0.05305,0.06994 0.166398,0.115756 0.06511,0.02412 0.38344,0.110932 0.46061,0.12299 0.641478,0.202572 0.18328,0.07717 0.286977,0.226688 0.103698,0.149517 0.103698,0.371382 0,0.217041 -0.127813,0.409967 -0.125402,0.190514 -0.364148,0.296624 -0.238745,0.103697 -0.540192,0.103697 -0.499195,0 -0.762057,-0.207395 -0.26045,-0.207395 -0.332797,-0.614951 z m 3.590831,0.376205 0.0627,0.38344 q -0.183279,0.03859 -0.327974,0.03859 -0.236334,0 -0.366559,-0.07476 -0.130224,-0.07476 -0.183279,-0.195338 -0.05306,-0.12299 -0.05306,-0.513664 V 46.176034 H 37.01839 v -0.33762 h 0.318327 V 45.20417 l 0.431672,-0.26045 v 0.894694 h 0.436494 v 0.33762 h -0.436494 v 1.497586 q 0,0.185691 0.0217,0.238746 0.02412,0.05306 0.07476,0.08441 0.05305,0.03135 0.149517,0.03135 0.07235,0 0.190514,-0.01688 z m 0.426849,-2.647906 v -0.499195 h 0.434083 v 0.499195 z m 0,3.03617 v -2.56109 h 0.434083 v 2.56109 z m 2.766073,-0.938102 0.426848,0.05547 q -0.06994,0.441318 -0.359324,0.692121 -0.286977,0.248392 -0.706591,0.248392 -0.525722,0 -0.846462,-0.342443 -0.318327,-0.344855 -0.318327,-0.986333 0,-0.41479 0.13746,-0.725883 0.137459,-0.311093 0.417202,-0.465434 0.282154,-0.156752 0.612539,-0.156752 0.417202,0 0.682475,0.212218 0.265273,0.209807 0.340032,0.59807 l -0.422026,0.06511 q -0.06029,-0.258038 -0.21463,-0.388263 -0.151929,-0.130225 -0.36897,-0.130225 -0.327974,0 -0.532958,0.236334 -0.204983,0.233922 -0.204983,0.742764 0,0.516077 0.197749,0.749999 0.197749,0.233923 0.516076,0.233923 0.255627,0 0.426849,-0.156753 0.171221,-0.156752 0.217041,-0.482314 z m 0.624597,0.173633 0.42926,-0.06752 q 0.03617,0.258038 0.200161,0.395498 0.166398,0.13746 0.463021,0.13746 0.299035,0 0.44373,-0.120579 0.144694,-0.12299 0.144694,-0.286977 0,-0.147106 -0.127813,-0.231511 -0.08923,-0.05788 -0.44373,-0.147106 -0.477491,-0.120579 -0.663182,-0.207395 -0.183279,-0.08923 -0.279742,-0.243569 -0.09405,-0.156752 -0.09405,-0.344855 0,-0.171221 0.07717,-0.315916 0.07958,-0.147106 0.21463,-0.243569 0.101286,-0.07476 0.274919,-0.125401 0.176045,-0.05306 0.376205,-0.05306 0.301447,0 0.528134,0.08682 0.2291,0.08682 0.337621,0.236334 0.10852,0.147106 0.149517,0.395498 l -0.424437,0.05788 q -0.02894,-0.197749 -0.16881,-0.308681 -0.137459,-0.110932 -0.390674,-0.110932 -0.299035,0 -0.426849,0.09887 -0.127813,0.09887 -0.127813,0.231511 0,0.0844 0.05306,0.151929 0.05305,0.06994 0.166398,0.115756 0.06511,0.02412 0.38344,0.110932 0.46061,0.12299 0.641478,0.202572 0.18328,0.07717 0.286977,0.226688 0.103698,0.149517 0.103698,0.371382 0,0.217041 -0.127813,0.409967 -0.125402,0.190514 -0.364148,0.296624 -0.238745,0.103697 -0.540192,0.103697 -0.499195,0 -0.762057,-0.207395 -0.26045,-0.207395 -0.332797,-0.614951 z"
         id="path3" />
    </g>
    <g
       id="text6"
       style="font-size:4.9389px;line-height:1.25;font-family:Arial;-inkscape-font-specification:'Arial, Normal';font-variant-ligatures:none;text-align:center;white-space:pre-wrap;stroke-width:0.264583"
       aria-label="Aggregation procedure"
       transform="translate(0,1.0583333)">
      <path
         d="m 67.733451,23.41358 1.357715,-3.535365 h 0.504019 l 1.446943,3.535365 h -0.532957 l -0.412379,-1.070738 h -1.478294 l -0.388263,1.070738 z m 1.020095,-1.451767 h 1.198552 l -0.368971,-0.979098 q -0.16881,-0.446141 -0.250803,-0.733118 -0.06752,0.340032 -0.190515,0.67524 z m 2.527328,1.663985 0.422025,0.0627 q 0.02653,0.195337 0.147106,0.284566 0.161576,0.120578 0.441318,0.120578 0.301446,0 0.465433,-0.120578 0.163987,-0.120579 0.221865,-0.337621 0.03376,-0.132636 0.03135,-0.557073 -0.284565,0.335209 -0.709002,0.335209 -0.528134,0 -0.817523,-0.381029 -0.289388,-0.381028 -0.289388,-0.913986 0,-0.366559 0.132636,-0.67524 0.132636,-0.311093 0.38344,-0.479903 0.253215,-0.16881 0.593247,-0.16881 0.453375,0 0.747587,0.366559 v -0.30868 h 0.400321 v 2.213823 q 0,0.59807 -0.12299,0.846462 -0.120579,0.250804 -0.385852,0.395498 -0.262861,0.144694 -0.648713,0.144694 -0.458198,0 -0.740352,-0.207395 -0.282154,-0.204983 -0.272508,-0.619774 z m 0.359324,-1.538583 q 0,0.504019 0.200161,0.73553 0.20016,0.23151 0.501607,0.23151 0.299035,0 0.501607,-0.229099 0.202572,-0.231511 0.202572,-0.723472 0,-0.470256 -0.209807,-0.709002 -0.207395,-0.238745 -0.501607,-0.238745 -0.289388,0 -0.491961,0.236334 -0.202572,0.233922 -0.202572,0.696944 z m 2.387457,1.538583 0.422025,0.0627 q 0.02653,0.195337 0.147106,0.284566 0.161576,0.120578 0.441318,0.120578 0.301447,0 0.465433,-0.120578 0.163987,-0.120579 0.221865,-0.337621 0.03376,-0.132636 0.03135,-0.557073 -0.284566,0.335209 -0.709003,0.335209 -0.528134,0 -0.817523,-0.381029 -0.289388,-0.381028 -0.289388,-0.913986 0,-0.366559 0.132636,-0.67524 0.132637,-0.311093 0.38344,-0.479903 0.253215,-0.16881 0.593247,-0.16881 0.453375,0 0.747587,0.366559 v -0.30868 h 0.400321 v 2.213823 q 0,0.59807 -0.12299,0.846462 -0.120579,0.250804 -0.385851,0.395498 -0.262862,0.144694 -0.648713,0.144694 -0.458199,0 -0.740353,-0.207395 -0.282154,-0.204983 -0.272507,-0.619774 z m 0.359324,-1.538583 q 0,0.504019 0.200161,0.73553 0.20016,0.23151 0.501607,0.23151 0.299035,0 0.501607,-0.229099 0.202572,-0.231511 0.202572,-0.723472 0,-0.470256 -0.209807,-0.709002 -0.207395,-0.238745 -0.501607,-0.238745 -0.289388,0 -0.49196,0.236334 -0.202573,0.233922 -0.202573,0.696944 z m 2.462215,1.326365 v -2.56109 h 0.390675 v 0.388263 q 0.149518,-0.272508 0.274919,-0.359324 0.127814,-0.08682 0.279743,-0.08682 0.219453,0 0.446141,0.139871 l -0.149518,0.402733 q -0.159164,-0.09405 -0.318327,-0.09405 -0.142283,0 -0.255627,0.08682 -0.113344,0.08441 -0.161575,0.236334 -0.07235,0.231511 -0.07235,0.506431 v 1.340834 z m 3.402729,-0.824758 0.448552,0.05547 q -0.106109,0.393086 -0.393086,0.610128 -0.286977,0.217041 -0.733118,0.217041 -0.561896,0 -0.892282,-0.344854 -0.327973,-0.347267 -0.327973,-0.971864 0,-0.646301 0.332797,-1.003214 0.332797,-0.356913 0.863342,-0.356913 0.513665,0 0.839228,0.349678 0.325562,0.349678 0.325562,0.983922 0,0.03858 -0.0024,0.115755 H 78.80258 q 0.02412,0.422025 0.238746,0.646302 0.21463,0.224276 0.535369,0.224276 0.238745,0 0.407555,-0.125402 0.16881,-0.125402 0.267685,-0.400321 z m -1.425239,-0.701767 h 1.430062 q -0.02894,-0.323151 -0.163987,-0.484727 -0.207395,-0.250803 -0.53778,-0.250803 -0.299035,0 -0.504019,0.20016 -0.202572,0.200161 -0.224276,0.53537 z m 2.339225,1.738743 0.422026,0.0627 q 0.02653,0.195337 0.147105,0.284566 0.161576,0.120578 0.441318,0.120578 0.301447,0 0.465434,-0.120578 0.163987,-0.120579 0.221864,-0.337621 0.03376,-0.132636 0.03135,-0.557073 -0.284566,0.335209 -0.709003,0.335209 -0.528134,0 -0.817523,-0.381029 -0.289388,-0.381028 -0.289388,-0.913986 0,-0.366559 0.132636,-0.67524 0.132637,-0.311093 0.38344,-0.479903 0.253215,-0.16881 0.593247,-0.16881 0.453376,0 0.747587,0.366559 v -0.30868 h 0.400321 v 2.213823 q 0,0.59807 -0.12299,0.846462 -0.120578,0.250804 -0.385851,0.395498 -0.262862,0.144694 -0.648713,0.144694 -0.458199,0 -0.740353,-0.207395 -0.282154,-0.204983 -0.272507,-0.619774 z m 0.359325,-1.538583 q 0,0.504019 0.20016,0.73553 0.200161,0.23151 0.501607,0.23151 0.299035,0 0.501607,-0.229099 0.202572,-0.231511 0.202572,-0.723472 0,-0.470256 -0.209807,-0.709002 -0.207395,-0.238745 -0.501607,-0.238745 -0.289388,0 -0.49196,0.236334 -0.202572,0.233922 -0.202572,0.696944 z m 4.138257,1.010449 q -0.241157,0.204983 -0.465433,0.289388 -0.221865,0.08441 -0.477492,0.08441 -0.422025,0 -0.648712,-0.204983 -0.226688,-0.207395 -0.226688,-0.528134 0,-0.188103 0.0844,-0.342444 0.08682,-0.156752 0.224276,-0.250803 0.139871,-0.09405 0.313504,-0.142283 0.127814,-0.03376 0.385852,-0.06511 0.525723,-0.0627 0.774115,-0.149518 0.0024,-0.08923 0.0024,-0.113344 0,-0.265273 -0.12299,-0.373794 -0.166398,-0.147105 -0.494372,-0.147105 -0.30627,0 -0.453376,0.10852 -0.144694,0.106109 -0.21463,0.378617 l -0.424436,-0.05788 q 0.05788,-0.272507 0.190514,-0.438906 0.132636,-0.16881 0.38344,-0.258038 0.250803,-0.09164 0.581189,-0.09164 0.327973,0 0.532957,0.07717 0.204984,0.07717 0.301447,0.195337 0.09646,0.115755 0.135048,0.294212 0.0217,0.110932 0.0217,0.400321 v 0.578777 q 0,0.605305 0.02653,0.76688 0.02894,0.159164 0.110932,0.30627 h -0.453375 q -0.06752,-0.135048 -0.08682,-0.315916 z m -0.03617,-0.969452 q -0.236334,0.09646 -0.709003,0.163987 -0.267684,0.03859 -0.378616,0.08682 -0.110933,0.04823 -0.171222,0.142283 -0.06029,0.09164 -0.06029,0.204984 0,0.173633 0.130225,0.289388 0.132636,0.115756 0.385851,0.115756 0.250804,0 0.446141,-0.108521 0.195337,-0.110932 0.286977,-0.301446 0.06994,-0.147106 0.06994,-0.434083 z m 2.059482,0.897105 0.0627,0.38344 q -0.18328,0.03858 -0.327974,0.03858 -0.236334,0 -0.366559,-0.07476 -0.130225,-0.07476 -0.183279,-0.195337 -0.05306,-0.122991 -0.05306,-0.513665 V 21.19011 h -0.318328 v -0.33762 h 0.318328 v -0.634243 l 0.431671,-0.26045 V 20.85249 H 87.6868 v 0.33762 h -0.436495 v 1.497587 q 0,0.185691 0.0217,0.238745 0.02412,0.05305 0.07476,0.0844 0.05306,0.03135 0.149518,0.03135 0.07235,0 0.190514,-0.01688 z m 0.426848,-2.647907 v -0.499195 h 0.434083 v 0.499195 z m 0,3.03617 v -2.56109 h 0.434083 v 2.56109 z m 0.933279,-1.280545 q 0,-0.711414 0.395498,-1.053857 0.330385,-0.284566 0.805465,-0.284566 0.528134,0 0.863343,0.347267 0.335208,0.344855 0.335208,0.954982 0,0.494373 -0.149517,0.778938 -0.147106,0.282154 -0.431672,0.438906 -0.282154,0.156752 -0.617362,0.156752 -0.537781,0 -0.870578,-0.344854 -0.330385,-0.344855 -0.330385,-0.993568 z m 0.446141,0 q 0,0.491961 0.21463,0.737941 0.214629,0.243569 0.540192,0.243569 0.32315,0 0.53778,-0.245981 0.21463,-0.24598 0.21463,-0.749999 0,-0.475079 -0.217041,-0.718648 -0.21463,-0.24598 -0.535369,-0.24598 -0.325563,0 -0.540192,0.243568 -0.21463,0.243569 -0.21463,0.73553 z m 2.462216,1.280545 v -2.56109 h 0.390675 v 0.364147 q 0.282154,-0.422025 0.815111,-0.422025 0.231511,0 0.424437,0.08441 0.195338,0.08199 0.2918,0.217042 0.09646,0.135048 0.135049,0.320739 0.02412,0.120579 0.02412,0.422025 v 1.574757 h -0.434083 v -1.557876 q 0,-0.265273 -0.05064,-0.395498 -0.05064,-0.132636 -0.180868,-0.209807 -0.127813,-0.07958 -0.301446,-0.07958 -0.277331,0 -0.479903,0.176044 -0.200161,0.176045 -0.200161,0.668006 v 1.398712 z"
         id="path4" />
      <path
         d="m 70.264396,30.568716 v -3.5426 h 0.395498 v 0.332797 q 0.139871,-0.195337 0.315916,-0.2918 0.176045,-0.09887 0.426848,-0.09887 0.327974,0 0.578778,0.16881 0.250803,0.16881 0.378617,0.477492 0.127813,0.306269 0.127813,0.672828 0,0.393087 -0.142283,0.709003 -0.139871,0.313504 -0.409967,0.482314 -0.267685,0.166398 -0.564308,0.166398 -0.217042,0 -0.390675,-0.09164 -0.171221,-0.09164 -0.282154,-0.231511 v 1.246783 z m 0.393087,-2.247586 q 0,0.494373 0.20016,0.730707 0.200161,0.236334 0.484726,0.236334 0.289389,0 0.494372,-0.243569 0.207396,-0.24598 0.207396,-0.759645 0,-0.489549 -0.202572,-0.733118 -0.200161,-0.243569 -0.479903,-0.243569 -0.277331,0 -0.491961,0.26045 -0.212218,0.258038 -0.212218,0.75241 z m 2.348871,1.266076 v -2.56109 h 0.390675 v 0.388263 q 0.149517,-0.272508 0.274919,-0.359324 0.127813,-0.08682 0.279742,-0.08682 0.219453,0 0.446141,0.139871 l -0.149517,0.402733 q -0.159164,-0.09405 -0.318328,-0.09405 -0.142283,0 -0.255626,0.08682 -0.113344,0.08441 -0.161576,0.236334 -0.07235,0.231511 -0.07235,0.506431 v 1.340834 z m 1.48794,-1.280545 q 0,-0.711414 0.395498,-1.053857 0.330386,-0.284566 0.805465,-0.284566 0.528135,0 0.863343,0.347267 0.335209,0.344854 0.335209,0.954982 0,0.494373 -0.149518,0.778938 -0.147106,0.282154 -0.431671,0.438906 -0.282154,0.156752 -0.617363,0.156752 -0.53778,0 -0.870577,-0.344854 -0.330386,-0.344855 -0.330386,-0.993568 z m 0.446141,0 q 0,0.491961 0.21463,0.737941 0.21463,0.243569 0.540192,0.243569 0.323151,0 0.537781,-0.245981 0.21463,-0.24598 0.21463,-0.749999 0,-0.475079 -0.217042,-0.718648 -0.21463,-0.245981 -0.535369,-0.245981 -0.325562,0 -0.540192,0.243569 -0.21463,0.243569 -0.21463,0.73553 z m 4.133435,0.342443 0.426848,0.05547 q -0.06994,0.441318 -0.359324,0.692121 -0.286977,0.248392 -0.706591,0.248392 -0.525722,0 -0.846461,-0.342443 -0.318328,-0.344855 -0.318328,-0.986333 0,-0.41479 0.13746,-0.725883 0.137459,-0.311093 0.417202,-0.465434 0.282154,-0.156752 0.612539,-0.156752 0.417202,0 0.682475,0.212219 0.265273,0.209806 0.340032,0.59807 l -0.422026,0.06511 q -0.06029,-0.258038 -0.214629,-0.388263 -0.15193,-0.130225 -0.368971,-0.130225 -0.327974,0 -0.532957,0.236334 -0.204984,0.233923 -0.204984,0.742764 0,0.516077 0.197749,0.749999 0.197749,0.233923 0.516076,0.233923 0.255627,0 0.426849,-0.156752 0.171221,-0.156753 0.217041,-0.482315 z m 2.551443,0.113344 0.448553,0.05547 q -0.106109,0.393086 -0.393086,0.610128 -0.286977,0.217041 -0.733118,0.217041 -0.561897,0 -0.892282,-0.344854 -0.327974,-0.347267 -0.327974,-0.971864 0,-0.646301 0.332797,-1.003214 0.332797,-0.356913 0.863343,-0.356913 0.513665,0 0.839227,0.349678 0.325562,0.349678 0.325562,0.983922 0,0.03859 -0.0024,0.115755 H 80.17597 q 0.02411,0.422025 0.238745,0.646302 0.21463,0.224276 0.535369,0.224276 0.238746,0 0.407556,-0.125402 0.16881,-0.125402 0.267684,-0.400321 z M 80.200074,28.06068 h 1.430063 q -0.02894,-0.32315 -0.163987,-0.484726 -0.207395,-0.250803 -0.537781,-0.250803 -0.299035,0 -0.504018,0.20016 -0.202573,0.200161 -0.224277,0.535369 z m 4.08038,1.526526 v -0.323151 q -0.243569,0.381028 -0.716237,0.381028 -0.306269,0 -0.564308,-0.16881 -0.255626,-0.16881 -0.397909,-0.470256 -0.139871,-0.303858 -0.139871,-0.696945 0,-0.38344 0.127813,-0.694532 0.127813,-0.313505 0.38344,-0.479903 0.255627,-0.166399 0.571543,-0.166399 0.231511,0 0.412378,0.09887 0.180868,0.09646 0.294212,0.253215 v -1.268487 h 0.431672 v 3.535365 z M 82.90827,28.309072 q 0,0.491961 0.207395,0.73553 0.207395,0.243569 0.489549,0.243569 0.284565,0 0.482314,-0.231511 0.200161,-0.233923 0.200161,-0.711414 0,-0.525723 -0.202572,-0.771703 -0.202572,-0.245981 -0.499196,-0.245981 -0.289388,0 -0.484726,0.236335 -0.192925,0.236334 -0.192925,0.745175 z m 4.135847,1.278134 V 29.211 q -0.299035,0.434083 -0.8127,0.434083 -0.226688,0 -0.424437,-0.08682 -0.195337,-0.08682 -0.2918,-0.217042 -0.09405,-0.132636 -0.132637,-0.32315 -0.02653,-0.127814 -0.02653,-0.405144 v -1.586815 h 0.434083 v 1.420416 q 0,0.340032 0.02653,0.458199 0.041,0.171221 0.173633,0.270096 0.132637,0.09646 0.327974,0.09646 0.195338,0 0.366559,-0.09887 0.171222,-0.101286 0.241157,-0.272507 0.07235,-0.173634 0.07235,-0.501607 v -1.372185 h 0.434083 v 2.56109 z m 1.063503,0 v -2.56109 h 0.390675 v 0.388263 q 0.149518,-0.272508 0.274919,-0.359324 0.127814,-0.08682 0.279743,-0.08682 0.219453,0 0.446141,0.139871 l -0.149518,0.402733 q -0.159164,-0.09405 -0.318327,-0.09405 -0.142283,0 -0.255627,0.08682 -0.113344,0.08441 -0.161575,0.236334 -0.07235,0.231511 -0.07235,0.506431 v 1.340834 z m 3.402728,-0.824758 0.448553,0.05547 q -0.10611,0.393086 -0.393087,0.610128 -0.286977,0.217041 -0.733118,0.217041 -0.561896,0 -0.892281,-0.344854 -0.327974,-0.347267 -0.327974,-0.971864 0,-0.646301 0.332797,-1.003214 0.332797,-0.356913 0.863343,-0.356913 0.513664,0 0.839227,0.349678 0.325562,0.349678 0.325562,0.983922 0,0.03859 -0.0024,0.115755 h -1.909965 q 0.02412,0.422025 0.238746,0.646302 0.21463,0.224276 0.535369,0.224276 0.238745,0 0.407556,-0.125402 0.16881,-0.125402 0.267684,-0.400321 z M 90.085109,28.06068 h 1.430062 q -0.02894,-0.32315 -0.163987,-0.484726 -0.207395,-0.250803 -0.53778,-0.250803 -0.299035,0 -0.504019,0.20016 -0.202572,0.200161 -0.224276,0.535369 z"
         id="path5" />
    </g>
    <g
       id="text8"
       style="font-size:4.9389px;line-height:1.25;font-family:Arial;-inkscape-font-specification:'Arial, Normal';font-variant-ligatures:none;text-align:center;white-space:pre-wrap;stroke-width:0.264583"
       aria-label="Aggregate&#10;forecast"
       transform="translate(0,1.0583333)">
      <path
         d="m 105.05196,23.253424 1.35771,-3.535365 h 0.50402 l 1.44695,3.535365 h -0.53296 l -0.41238,-1.070739 h -1.47829 l -0.38827,1.070739 z m 1.02009,-1.451767 h 1.19856 l -0.36898,-0.979098 q -0.16881,-0.446141 -0.2508,-0.733118 -0.0675,0.340031 -0.19051,0.67524 z m 2.52733,1.663985 0.42203,0.0627 q 0.0265,0.195337 0.1471,0.284565 0.16158,0.120579 0.44132,0.120579 0.30145,0 0.46543,-0.120579 0.16399,-0.120578 0.22187,-0.33762 0.0338,-0.132636 0.0314,-0.557073 -0.28457,0.335209 -0.709,0.335209 -0.52814,0 -0.81753,-0.381029 -0.28939,-0.381028 -0.28939,-0.913986 0,-0.366559 0.13264,-0.67524 0.13264,-0.311093 0.38344,-0.479903 0.25322,-0.16881 0.59325,-0.16881 0.45337,0 0.74759,0.366559 v -0.308681 h 0.40032 v 2.213823 q 0,0.59807 -0.12299,0.846462 -0.12058,0.250803 -0.38586,0.395498 -0.26286,0.144694 -0.64871,0.144694 -0.4582,0 -0.74035,-0.207395 -0.28215,-0.204984 -0.27251,-0.619774 z m 0.35933,-1.538583 q 0,0.504018 0.20016,0.735529 0.20016,0.231511 0.5016,0.231511 0.29904,0 0.50161,-0.229099 0.20257,-0.231511 0.20257,-0.723472 0,-0.470256 -0.2098,-0.709002 -0.2074,-0.238746 -0.50161,-0.238746 -0.28939,0 -0.49196,0.236334 -0.20257,0.233923 -0.20257,0.696945 z m 2.38745,1.538583 0.42203,0.0627 q 0.0265,0.195337 0.1471,0.284565 0.16158,0.120579 0.44132,0.120579 0.30145,0 0.46543,-0.120579 0.16399,-0.120578 0.22187,-0.33762 0.0338,-0.132636 0.0314,-0.557073 -0.28457,0.335209 -0.709,0.335209 -0.52814,0 -0.81753,-0.381029 -0.28938,-0.381028 -0.28938,-0.913986 0,-0.366559 0.13263,-0.67524 0.13264,-0.311093 0.38344,-0.479903 0.25322,-0.16881 0.59325,-0.16881 0.45337,0 0.74759,0.366559 v -0.308681 h 0.40032 v 2.213823 q 0,0.59807 -0.12299,0.846462 -0.12058,0.250803 -0.38585,0.395498 -0.26287,0.144694 -0.64872,0.144694 -0.4582,0 -0.74035,-0.207395 -0.28215,-0.204984 -0.27251,-0.619774 z m 0.35933,-1.538583 q 0,0.504018 0.20016,0.735529 0.20016,0.231511 0.5016,0.231511 0.29904,0 0.50161,-0.229099 0.20257,-0.231511 0.20257,-0.723472 0,-0.470256 -0.2098,-0.709002 -0.2074,-0.238746 -0.50161,-0.238746 -0.28939,0 -0.49196,0.236334 -0.20257,0.233923 -0.20257,0.696945 z m 2.46221,1.326365 v -2.56109 h 0.39068 v 0.388263 q 0.14951,-0.272508 0.27492,-0.359324 0.12781,-0.08682 0.27974,-0.08682 0.21945,0 0.44614,0.139871 l -0.14952,0.402733 q -0.15916,-0.09405 -0.31833,-0.09405 -0.14228,0 -0.25562,0.08682 -0.11335,0.08441 -0.16158,0.236334 -0.0724,0.231511 -0.0724,0.50643 v 1.340835 z m 3.40273,-0.824758 0.44855,0.05547 q -0.10611,0.393086 -0.39308,0.610128 -0.28698,0.217041 -0.73312,0.217041 -0.5619,0 -0.89228,-0.344855 -0.32798,-0.347266 -0.32798,-0.971863 0,-0.646302 0.3328,-1.003214 0.3328,-0.356913 0.86334,-0.356913 0.51367,0 0.83923,0.349678 0.32556,0.349678 0.32556,0.983921 0,0.03859 -0.002,0.115756 h -1.90996 q 0.0241,0.422025 0.23874,0.646301 0.21463,0.224277 0.53537,0.224277 0.23875,0 0.40756,-0.125402 0.16881,-0.125402 0.26768,-0.400321 z m -1.42524,-0.701768 h 1.43006 q -0.0289,-0.32315 -0.16398,-0.484726 -0.2074,-0.250803 -0.53778,-0.250803 -0.29904,0 -0.50402,0.20016 -0.20257,0.200161 -0.22428,0.535369 z m 2.33923,1.738744 0.42202,0.0627 q 0.0265,0.195337 0.14711,0.284565 0.16157,0.120579 0.44132,0.120579 0.30144,0 0.46543,-0.120579 0.16399,-0.120578 0.22186,-0.33762 0.0338,-0.132636 0.0314,-0.557073 -0.28456,0.335209 -0.709,0.335209 -0.52813,0 -0.81752,-0.381029 -0.28939,-0.381028 -0.28939,-0.913986 0,-0.366559 0.13264,-0.67524 0.13263,-0.311093 0.38344,-0.479903 0.25321,-0.16881 0.59324,-0.16881 0.45338,0 0.74759,0.366559 v -0.308681 h 0.40032 v 2.213823 q 0,0.59807 -0.12299,0.846462 -0.12058,0.250803 -0.38585,0.395498 -0.26286,0.144694 -0.64871,0.144694 -0.4582,0 -0.74036,-0.207395 -0.28215,-0.204984 -0.2725,-0.619774 z m 0.35932,-1.538583 q 0,0.504018 0.20016,0.735529 0.20016,0.231511 0.50161,0.231511 0.29903,0 0.50161,-0.229099 0.20257,-0.231511 0.20257,-0.723472 0,-0.470256 -0.20981,-0.709002 -0.20739,-0.238746 -0.50161,-0.238746 -0.28938,0 -0.49196,0.236334 -0.20257,0.233923 -0.20257,0.696945 z m 4.13826,1.010449 q -0.24116,0.204983 -0.46543,0.289388 -0.22187,0.08441 -0.4775,0.08441 -0.42202,0 -0.64871,-0.204983 -0.22669,-0.207396 -0.22669,-0.528135 0,-0.188102 0.0844,-0.342443 0.0868,-0.156752 0.22427,-0.250803 0.13988,-0.09405 0.31351,-0.142283 0.12781,-0.03376 0.38585,-0.06511 0.52572,-0.0627 0.77412,-0.149517 0.002,-0.08923 0.002,-0.113344 0,-0.265273 -0.12299,-0.373794 -0.1664,-0.147106 -0.49438,-0.147106 -0.30627,0 -0.45337,0.108521 -0.1447,0.106109 -0.21463,0.378617 l -0.42444,-0.05788 q 0.0579,-0.272508 0.19052,-0.438906 0.13263,-0.16881 0.38344,-0.258038 0.2508,-0.09164 0.58119,-0.09164 0.32797,0 0.53295,0.07717 0.20499,0.07717 0.30145,0.195338 0.0965,0.115755 0.13505,0.294212 0.0217,0.110932 0.0217,0.400321 v 0.578777 q 0,0.605304 0.0265,0.76688 0.0289,0.159164 0.11093,0.30627 h -0.45337 q -0.0675,-0.135049 -0.0868,-0.315916 z m -0.0362,-0.969453 q -0.23634,0.09646 -0.70901,0.163987 -0.26768,0.03859 -0.37861,0.08682 -0.11094,0.04823 -0.17123,0.142283 -0.0603,0.09164 -0.0603,0.204983 0,0.173634 0.13022,0.289389 0.13264,0.115756 0.38585,0.115756 0.25081,0 0.44614,-0.108521 0.19534,-0.110933 0.28698,-0.301447 0.0699,-0.147106 0.0699,-0.434083 z m 2.05948,0.897105 0.0627,0.38344 q -0.18328,0.03859 -0.32798,0.03859 -0.23633,0 -0.36655,-0.07476 -0.13023,-0.07476 -0.18328,-0.195338 -0.0531,-0.12299 -0.0531,-0.513664 v -1.473471 h -0.31833 v -0.33762 h 0.31833 V 20.05809 l 0.43167,-0.26045 v 0.894694 h 0.4365 v 0.33762 h -0.4365 v 1.497586 q 0,0.185691 0.0217,0.238746 0.0241,0.05306 0.0748,0.08441 0.053,0.03135 0.14951,0.03135 0.0724,0 0.19052,-0.01688 z m 2.17765,-0.436494 0.44855,0.05547 q -0.10611,0.393086 -0.39309,0.610128 -0.28697,0.217041 -0.73311,0.217041 -0.5619,0 -0.89229,-0.344855 -0.32797,-0.347266 -0.32797,-0.971863 0,-0.646302 0.3328,-1.003214 0.33279,-0.356913 0.86334,-0.356913 0.51366,0 0.83923,0.349678 0.32556,0.349678 0.32556,0.983921 0,0.03859 -0.002,0.115756 h -1.90997 q 0.0241,0.422025 0.23875,0.646301 0.21463,0.224277 0.53537,0.224277 0.23874,0 0.40755,-0.125402 0.16881,-0.125402 0.26769,-0.400321 z m -1.42524,-0.701768 h 1.43006 q -0.0289,-0.32315 -0.16399,-0.484726 -0.20739,-0.250803 -0.53778,-0.250803 -0.29903,0 -0.50402,0.20016 -0.20257,0.200161 -0.22427,0.535369 z"
         id="path6" />
      <path
         d="M 108.10019,29.427049 V 27.20358 h -0.38344 v -0.33762 h 0.38344 v -0.272508 q 0,-0.258038 0.0458,-0.38344 0.0627,-0.16881 0.21945,-0.272508 0.15916,-0.106109 0.44373,-0.106109 0.18328,0 0.40514,0.04341 l -0.0651,0.378616 q -0.13505,-0.02411 -0.25563,-0.02411 -0.19775,0 -0.27974,0.08441 -0.082,0.08441 -0.082,0.315916 v 0.236334 h 0.49919 v 0.33762 h -0.49919 v 2.223469 z m 1.10691,-1.280544 q 0,-0.711414 0.3955,-1.053857 0.33038,-0.284566 0.80546,-0.284566 0.52814,0 0.86334,0.347266 0.33521,0.344855 0.33521,0.954983 0,0.494372 -0.14952,0.778938 -0.1471,0.282154 -0.43167,0.438906 -0.28215,0.156752 -0.61736,0.156752 -0.53778,0 -0.87058,-0.344855 -0.33038,-0.344854 -0.33038,-0.993567 z m 0.44614,0 q 0,0.49196 0.21463,0.737941 0.21463,0.243568 0.54019,0.243568 0.32315,0 0.53778,-0.24598 0.21463,-0.24598 0.21463,-0.749999 0,-0.47508 -0.21704,-0.718648 -0.21463,-0.245981 -0.53537,-0.245981 -0.32556,0 -0.54019,0.243569 -0.21463,0.243569 -0.21463,0.73553 z m 2.45739,1.280544 V 26.86596 h 0.39068 v 0.388263 q 0.14951,-0.272508 0.27491,-0.359324 0.12782,-0.08682 0.27975,-0.08682 0.21945,0 0.44614,0.139871 l -0.14952,0.402733 q -0.15916,-0.09405 -0.31833,-0.09405 -0.14228,0 -0.25562,0.08682 -0.11335,0.0844 -0.16158,0.236334 -0.0724,0.231511 -0.0724,0.50643 v 1.340834 z m 3.40273,-0.824757 0.44855,0.05547 q -0.10611,0.393086 -0.39308,0.610128 -0.28698,0.217041 -0.73312,0.217041 -0.5619,0 -0.89228,-0.344855 -0.32798,-0.347266 -0.32798,-0.971863 0,-0.646302 0.3328,-1.003214 0.3328,-0.356913 0.86334,-0.356913 0.51367,0 0.83923,0.349678 0.32556,0.349678 0.32556,0.983921 0,0.03859 -0.002,0.115756 H 114.064 q 0.0241,0.422025 0.23875,0.646301 0.21463,0.224276 0.53537,0.224276 0.23874,0 0.40755,-0.125401 0.16881,-0.125402 0.26769,-0.400321 z m -1.42524,-0.701768 h 1.43006 q -0.0289,-0.32315 -0.16398,-0.484726 -0.2074,-0.250803 -0.53779,-0.250803 -0.29903,0 -0.50401,0.20016 -0.20258,0.200161 -0.22428,0.535369 z m 4.09003,0.588424 0.42685,0.05547 q -0.0699,0.441318 -0.35933,0.692121 -0.28698,0.248392 -0.70659,0.248392 -0.52572,0 -0.84646,-0.342443 -0.31833,-0.344855 -0.31833,-0.986333 0,-0.414791 0.13746,-0.725883 0.13746,-0.311093 0.4172,-0.465434 0.28216,-0.156752 0.61254,-0.156752 0.4172,0 0.68248,0.212218 0.26527,0.209807 0.34003,0.59807 l -0.42203,0.06511 q -0.0603,-0.258039 -0.21463,-0.388263 -0.15193,-0.130225 -0.36897,-0.130225 -0.32797,0 -0.53295,0.236334 -0.20499,0.233922 -0.20499,0.742764 0,0.516076 0.19775,0.749999 0.19775,0.233922 0.51608,0.233922 0.25562,0 0.42685,-0.156752 0.17122,-0.156752 0.21704,-0.482314 z m 2.46945,0.622185 q -0.24116,0.204984 -0.46544,0.289389 -0.22186,0.08441 -0.47749,0.08441 -0.42202,0 -0.64871,-0.204983 -0.22669,-0.207396 -0.22669,-0.528135 0,-0.188102 0.0844,-0.342443 0.0868,-0.156752 0.22427,-0.250804 0.13987,-0.09405 0.31351,-0.142282 0.12781,-0.03376 0.38585,-0.06511 0.52572,-0.0627 0.77411,-0.149517 0.002,-0.08923 0.002,-0.113344 0,-0.265273 -0.12299,-0.373794 -0.16639,-0.147106 -0.49437,-0.147106 -0.30627,0 -0.45337,0.108521 -0.1447,0.106109 -0.21463,0.378617 l -0.42444,-0.05788 q 0.0579,-0.272508 0.19051,-0.438906 0.13264,-0.16881 0.38344,-0.258038 0.25081,-0.09164 0.58119,-0.09164 0.32798,0 0.53296,0.07717 0.20498,0.07717 0.30145,0.195338 0.0965,0.115755 0.13505,0.294211 0.0217,0.110933 0.0217,0.400321 V 28.3539 q 0,0.605304 0.0265,0.76688 0.0289,0.159164 0.11093,0.306269 h -0.45338 q -0.0675,-0.135048 -0.0868,-0.315916 z m -0.0362,-0.969452 q -0.23633,0.09646 -0.709,0.163987 -0.26768,0.03859 -0.37862,0.08682 -0.11093,0.04823 -0.17122,0.142283 -0.0603,0.09164 -0.0603,0.204983 0,0.173634 0.13023,0.289389 0.13263,0.115756 0.38585,0.115756 0.2508,0 0.44614,-0.108521 0.19534,-0.110933 0.28698,-0.301447 0.0699,-0.147106 0.0699,-0.434083 z m 0.9381,0.5209 0.42926,-0.06752 q 0.0362,0.258038 0.20016,0.395498 0.1664,0.137459 0.46303,0.137459 0.29903,0 0.44373,-0.120578 0.14469,-0.12299 0.14469,-0.286977 0,-0.147106 -0.12781,-0.231511 -0.0892,-0.05788 -0.44373,-0.147106 -0.47749,-0.120579 -0.66318,-0.207395 -0.18328,-0.08923 -0.27975,-0.243569 -0.094,-0.156752 -0.094,-0.344855 0,-0.171222 0.0772,-0.315916 0.0796,-0.147106 0.21463,-0.243569 0.10129,-0.07476 0.27492,-0.125401 0.17605,-0.05306 0.37621,-0.05306 0.30144,0 0.52813,0.08682 0.2291,0.08682 0.33762,0.236334 0.10852,0.147106 0.14952,0.395498 l -0.42444,0.05788 q -0.0289,-0.197749 -0.16881,-0.308681 -0.13746,-0.110932 -0.39067,-0.110932 -0.29904,0 -0.42685,0.09887 -0.12781,0.09887 -0.12781,0.231511 0,0.08441 0.053,0.151929 0.053,0.06994 0.1664,0.115756 0.0651,0.02411 0.38344,0.110932 0.46061,0.12299 0.64148,0.202572 0.18328,0.07717 0.28697,0.226688 0.1037,0.149517 0.1037,0.371382 0,0.217041 -0.12781,0.409967 -0.1254,0.190514 -0.36415,0.296624 -0.23875,0.103697 -0.54019,0.103697 -0.4992,0 -0.76206,-0.207395 -0.26045,-0.207395 -0.3328,-0.614951 z m 3.59084,0.376205 0.0627,0.38344 q -0.18328,0.03859 -0.32798,0.03859 -0.23633,0 -0.36656,-0.07476 -0.13022,-0.07476 -0.18328,-0.195338 -0.053,-0.12299 -0.053,-0.513665 v -1.47347 h -0.31833 v -0.33762 h 0.31833 v -0.634244 l 0.43167,-0.26045 v 0.894694 h 0.4365 v 0.33762 h -0.4365 v 1.497586 q 0,0.185691 0.0217,0.238746 0.0241,0.05305 0.0747,0.08441 0.0531,0.03135 0.14952,0.03135 0.0724,0 0.19052,-0.01688 z"
         id="path7" />
    </g>
    <rect
       style="fill:none;fill-opacity:0.430809;stroke:#000000;stroke-width:0.908827;stroke-dasharray:none"
       id="rect9"
       width="25.00359"
       height="12.392464"
       x="103.95253"
       y="19.862101" />
    <rect
       style="fill:none;fill-opacity:0.430809;stroke:#000000;stroke-width:0.926452;stroke-dasharray:none"
       id="rect9-5"
       width="29.585154"
       height="12.571033"
       x="66.265915"
       y="19.985773" />
    <rect
       style="fill:none;fill-opacity:0.430809;stroke:#000000;stroke-width:0.944914;stroke-dasharray:none"
       id="rect9-1"
       width="54.558674"
       height="24.229761"
       x="1.279157"
       y="31.603344" />
    <rect
       style="fill:none;fill-opacity:0.430809;stroke:#000000;stroke-width:1;stroke-dasharray:none"
       id="rect9-1-6"
       width="31.843834"
       height="15.372501"
       x="12.636577"
       y="0.93306047" />
    <path
       style="fill:none;fill-rule:evenodd;stroke:#000000;stroke-width:0.643799;stroke-linecap:butt;stroke-linejoin:miter;stroke-dasharray:none;stroke-opacity:1;marker-end:url(#Triangle)"
       d="M 28.558497,16.30556 63.934368,26.305561"
       id="path9"
       inkscape:connector-type="polyline"
       inkscape:connector-curvature="0" />
    <path
       style="fill:none;fill-rule:evenodd;stroke:#000000;stroke-width:0.648217;stroke-linecap:butt;stroke-linejoin:miter;stroke-dasharray:none;stroke-opacity:1;marker-end:url(#Triangle)"
       d="M 28.595748,31.641221 64.072619,26.284687"
       id="path10"
       inkscape:connector-type="polyline"
       inkscape:connector-curvature="0" />
    <path
       style="fill:none;fill-rule:evenodd;stroke:#000000;stroke-width:0.665;stroke-linecap:butt;stroke-linejoin:miter;stroke-dasharray:none;stroke-opacity:1;marker-end:url(#marker12)"
       d="m 95.814291,27.363895 5.495999,-3e-6"
       id="path11"
       inkscape:connector-type="polyline"
       inkscape:connector-curvature="0" />
  </g>
</svg>
