<?xml version="1.0" encoding="UTF-8" standalone="no"?>
<!-- Created with Inkscape (http://www.inkscape.org/) -->

<svg
   width="4.4000001in"
   height="3.6500001in"
   viewBox="0 0 111.76 92.710001"
   version="1.1"
   id="svg1"
   inkscape:version="1.4 (86a8ad7, 2024-10-11)"
   sodipodi:docname="consumer_surplus.svg"
   inkscape:export-filename="binary_multi_choice1.svg"
   inkscape:export-xdpi="300"
   inkscape:export-ydpi="300"
   xmlns:inkscape="http://www.inkscape.org/namespaces/inkscape"
   xmlns:sodipodi="http://sodipodi.sourceforge.net/DTD/sodipodi-0.dtd"
   xmlns="http://www.w3.org/2000/svg"
   xmlns:svg="http://www.w3.org/2000/svg"
   xmlns:ns2="http://www.iki.fi/pav/software/textext/">
  <sodipodi:namedview
     id="namedview1"
     pagecolor="#ffffff"
     bordercolor="#000000"
     borderopacity="0.25"
     inkscape:showpageshadow="2"
     inkscape:pageopacity="0.0"
     inkscape:pagecheckerboard="0"
     inkscape:deskcolor="#d1d1d1"
     inkscape:document-units="mm"
     inkscape:zoom="1.0167041"
     inkscape:cx="206.54978"
     inkscape:cy="231.63082"
     inkscape:window-width="1920"
     inkscape:window-height="1009"
     inkscape:window-x="-8"
     inkscape:window-y="-8"
     inkscape:window-maximized="1"
     inkscape:current-layer="layer1"
     showgrid="true">
    <inkscape:grid
       id="grid23"
       units="mm"
       originx="0"
       originy="0"
       spacingx="1"
       spacingy="0.99999994"
       empcolor="#0099e5"
       empopacity="0.30196078"
       color="#0099e5"
       opacity="0.14901961"
       empspacing="5"
       enabled="true"
       visible="true" />
  </sodipodi:namedview>
  <defs
     id="defs1">
    <marker
       style="overflow:visible"
       id="marker30"
       refX="0"
       refY="0"
       orient="auto-start-reverse"
       inkscape:stockid="Triangle arrow"
       markerWidth="1"
       markerHeight="1"
       viewBox="0 0 1 1"
       inkscape:isstock="true"
       inkscape:collect="always"
       preserveAspectRatio="xMidYMid">
      <path
         transform="scale(0.5)"
         style="fill:context-stroke;fill-rule:evenodd;stroke:context-stroke;stroke-width:1pt"
         d="M 5.77,0 -2.88,5 V -5 Z"
         id="path30" />
    </marker>
    <marker
       style="overflow:visible"
       id="Triangle"
       refX="0"
       refY="0"
       orient="auto-start-reverse"
       inkscape:stockid="Triangle arrow"
       markerWidth="1"
       markerHeight="1"
       viewBox="0 0 1 1"
       inkscape:isstock="true"
       inkscape:collect="always"
       preserveAspectRatio="xMidYMid">
      <path
         transform="scale(0.5)"
         style="fill:context-stroke;fill-rule:evenodd;stroke:context-stroke;stroke-width:1pt"
         d="M 5.77,0 -2.88,5 V -5 Z"
         id="path135" />
    </marker>
    <rect
       x="-162.74449"
       y="-125.18807"
       width="963.94812"
       height="595.33881"
       id="rect5" />
    <g
       id="id-237aa2cc-9047-474b-85be-092b252c42b2-2">
      <g
         id="id-9b1d0606-b366-42dd-9336-ebca83651b23-4">
        <path
           d="M 4.859375,-2.765625 C 4.921875,-2.9375 4.9375,-3.078125 4.9375,-3.34375 c 0,-0.640625 -0.390625,-1.0625 -1.140625,-1.0625 -0.78125,0 -1.296875,0.515625 -1.546875,0.875 -0.046875,-0.578125 -0.46875,-0.875 -0.921875,-0.875 -0.453125,0 -0.640625,0.390625 -0.734375,0.5625 C 0.421875,-3.5 0.296875,-2.90625 0.296875,-2.875 c 0,0.109375 0.09375,0.109375 0.109375,0.109375 0.109375,0 0.109375,-0.015625 0.171875,-0.234375 0.171875,-0.703125 0.375,-1.1875 0.734375,-1.1875 0.15625,0 0.296875,0.078125 0.296875,0.453125 0,0.21875 -0.03125,0.328125 -0.15625,0.84375 L 0.875,-0.59375 c -0.03125,0.15625 -0.09375,0.390625 -0.09375,0.4375 0,0.171875 0.140625,0.265625 0.296875,0.265625 0.125,0 0.296875,-0.078125 0.375,-0.28125 0,-0.015625 0.125,-0.484375 0.1875,-0.734375 l 0.21875,-0.890625 C 1.90625,-2.03125 1.96875,-2.25 2.03125,-2.46875 2.046875,-2.53125 2.125,-2.859375 2.140625,-2.921875 2.15625,-3.015625 2.46875,-3.5625 2.8125,-3.84375 3.03125,-4 3.34375,-4.1875 3.765625,-4.1875 c 0.4375,0 0.546875,0.34375 0.546875,0.703125 0,0.046875 0,0.21875 -0.109375,0.625 l -1.125,4.578125 c -0.03125,0.125 -0.03125,0.140625 -0.03125,0.171875 0,0.140625 0.109375,0.265625 0.265625,0.265625 0.3125,0 0.390625,-0.296875 0.421875,-0.40625 z m 0,0"
           id="id-d6e86d4b-06b9-4baa-84d9-55cfc7d53292-5" />
      </g>
      <g
         id="id-1981db31-d913-4130-9e80-f43e0db4df01-5">
        <path
           d="m 2.328125,-4.4375 c 0,-0.1875 0,-0.1875 -0.203125,-0.1875 -0.453125,0.4375 -1.078125,0.4375 -1.359375,0.4375 v 0.25 c 0.15625,0 0.625,0 1,-0.1875 v 3.546875 c 0,0.234375 0,0.328125 -0.6875,0.328125 H 0.8125 V 0 c 0.125,0 0.984375,-0.03125 1.234375,-0.03125 0.21875,0 1.09375,0.03125 1.25,0.03125 V -0.25 H 3.03125 c -0.703125,0 -0.703125,-0.09375 -0.703125,-0.328125 z m 0,0"
           id="id-6aa62f4e-53b1-4ba5-846d-8a6c4e190cfd-1" />
      </g>
    </g>
    <g
       id="id-237aa2cc-9047-474b-85be-092b252c42b2-8">
      <g
         id="id-9b1d0606-b366-42dd-9336-ebca83651b23-5">
        <path
           d="M 4.859375,-2.765625 C 4.921875,-2.9375 4.9375,-3.078125 4.9375,-3.34375 c 0,-0.640625 -0.390625,-1.0625 -1.140625,-1.0625 -0.78125,0 -1.296875,0.515625 -1.546875,0.875 -0.046875,-0.578125 -0.46875,-0.875 -0.921875,-0.875 -0.453125,0 -0.640625,0.390625 -0.734375,0.5625 C 0.421875,-3.5 0.296875,-2.90625 0.296875,-2.875 c 0,0.109375 0.09375,0.109375 0.109375,0.109375 0.109375,0 0.109375,-0.015625 0.171875,-0.234375 0.171875,-0.703125 0.375,-1.1875 0.734375,-1.1875 0.15625,0 0.296875,0.078125 0.296875,0.453125 0,0.21875 -0.03125,0.328125 -0.15625,0.84375 L 0.875,-0.59375 c -0.03125,0.15625 -0.09375,0.390625 -0.09375,0.4375 0,0.171875 0.140625,0.265625 0.296875,0.265625 0.125,0 0.296875,-0.078125 0.375,-0.28125 0,-0.015625 0.125,-0.484375 0.1875,-0.734375 l 0.21875,-0.890625 C 1.90625,-2.03125 1.96875,-2.25 2.03125,-2.46875 2.046875,-2.53125 2.125,-2.859375 2.140625,-2.921875 2.15625,-3.015625 2.46875,-3.5625 2.8125,-3.84375 3.03125,-4 3.34375,-4.1875 3.765625,-4.1875 c 0.4375,0 0.546875,0.34375 0.546875,0.703125 0,0.046875 0,0.21875 -0.109375,0.625 l -1.125,4.578125 c -0.03125,0.125 -0.03125,0.140625 -0.03125,0.171875 0,0.140625 0.109375,0.265625 0.265625,0.265625 0.3125,0 0.390625,-0.296875 0.421875,-0.40625 z m 0,0"
           id="id-d6e86d4b-06b9-4baa-84d9-55cfc7d53292-7" />
      </g>
      <g
         id="id-1981db31-d913-4130-9e80-f43e0db4df01-6">
        <path
           d="m 2.328125,-4.4375 c 0,-0.1875 0,-0.1875 -0.203125,-0.1875 -0.453125,0.4375 -1.078125,0.4375 -1.359375,0.4375 v 0.25 c 0.15625,0 0.625,0 1,-0.1875 v 3.546875 c 0,0.234375 0,0.328125 -0.6875,0.328125 H 0.8125 V 0 c 0.125,0 0.984375,-0.03125 1.234375,-0.03125 0.21875,0 1.09375,0.03125 1.25,0.03125 V -0.25 H 3.03125 c -0.703125,0 -0.703125,-0.09375 -0.703125,-0.328125 z m 0,0"
           id="id-6aa62f4e-53b1-4ba5-846d-8a6c4e190cfd-18" />
      </g>
    </g>
    <g
       id="id-9557b879-9fde-4643-8c28-37327b418c35-2">
      <g
         id="id-3a52fd0f-35a8-4245-853b-63c4d683aa71-3">
        <path
           d="M 4.859375,-2.765625 C 4.921875,-2.9375 4.9375,-3.078125 4.9375,-3.34375 c 0,-0.640625 -0.390625,-1.0625 -1.140625,-1.0625 -0.78125,0 -1.296875,0.515625 -1.546875,0.875 -0.046875,-0.578125 -0.46875,-0.875 -0.921875,-0.875 -0.453125,0 -0.640625,0.390625 -0.734375,0.5625 C 0.421875,-3.5 0.296875,-2.90625 0.296875,-2.875 c 0,0.109375 0.09375,0.109375 0.109375,0.109375 0.109375,0 0.109375,-0.015625 0.171875,-0.234375 0.171875,-0.703125 0.375,-1.1875 0.734375,-1.1875 0.15625,0 0.296875,0.078125 0.296875,0.453125 0,0.21875 -0.03125,0.328125 -0.15625,0.84375 L 0.875,-0.59375 c -0.03125,0.15625 -0.09375,0.390625 -0.09375,0.4375 0,0.171875 0.140625,0.265625 0.296875,0.265625 0.125,0 0.296875,-0.078125 0.375,-0.28125 0,-0.015625 0.125,-0.484375 0.1875,-0.734375 l 0.21875,-0.890625 C 1.90625,-2.03125 1.96875,-2.25 2.03125,-2.46875 2.046875,-2.53125 2.125,-2.859375 2.140625,-2.921875 2.15625,-3.015625 2.46875,-3.5625 2.8125,-3.84375 3.03125,-4 3.34375,-4.1875 3.765625,-4.1875 c 0.4375,0 0.546875,0.34375 0.546875,0.703125 0,0.046875 0,0.21875 -0.109375,0.625 l -1.125,4.578125 c -0.03125,0.125 -0.03125,0.140625 -0.03125,0.171875 0,0.140625 0.109375,0.265625 0.265625,0.265625 0.3125,0 0.390625,-0.296875 0.421875,-0.40625 z m 0,0"
           id="id-262127ed-92fa-4bf9-9183-0168235a0238-3" />
      </g>
      <g
         id="id-008ebc28-9b35-452a-93be-611a93239981-4">
        <path
           d="M 3.515625,-1.265625 H 3.28125 c -0.015625,0.15625 -0.09375,0.5625 -0.1875,0.625 C 3.046875,-0.59375 2.515625,-0.59375 2.40625,-0.59375 H 1.125 c 0.734375,-0.640625 0.984375,-0.84375 1.390625,-1.171875 0.515625,-0.40625 1,-0.84375 1,-1.5 0,-0.84375 -0.734375,-1.359375 -1.625,-1.359375 -0.859375,0 -1.453125,0.609375 -1.453125,1.25 0,0.34375 0.296875,0.390625 0.375,0.390625 0.15625,0 0.359375,-0.125 0.359375,-0.375 0,-0.125 -0.046875,-0.375 -0.40625,-0.375 C 0.984375,-4.21875 1.453125,-4.375 1.78125,-4.375 c 0.703125,0 1.0625,0.546875 1.0625,1.109375 0,0.609375 -0.4375,1.078125 -0.65625,1.328125 L 0.515625,-0.265625 C 0.4375,-0.203125 0.4375,-0.1875 0.4375,0 h 2.875 z m 0,0"
           id="id-a9b6cb73-9461-4d14-881e-0ad9b6129ad3-1" />
      </g>
    </g>
    <g
       id="id-53e1abb1-8b7b-4c5d-b81d-e647bc64fd39">
      <g
         id="id-85b42c2f-b809-4276-a2f7-9cc488ede256">
        <path
           d="m 2.296875,-3.5 c 0.0625,-0.203125 0.15625,-0.59375 0.15625,-0.640625 0,-0.171875 -0.125,-0.265625 -0.296875,-0.265625 -0.015625,0 -0.296875,0.015625 -0.390625,0.359375 l -1.4375,5.765625 c -0.03125,0.125 -0.03125,0.140625 -0.03125,0.171875 0,0.140625 0.109375,0.265625 0.28125,0.265625 0.203125,0 0.328125,-0.1875 0.34375,-0.21875 C 0.96875,1.859375 1.09375,1.328125 1.46875,-0.203125 1.796875,0.0625 2.25,0.109375 2.4375,0.109375 c 0.703125,0 1.09375,-0.453125 1.328125,-0.734375 0.09375,0.453125 0.46875,0.734375 0.90625,0.734375 0.34375,0 0.578125,-0.234375 0.734375,-0.546875 0.171875,-0.359375 0.296875,-0.96875 0.296875,-0.984375 0,-0.109375 -0.09375,-0.109375 -0.125,-0.109375 -0.09375,0 -0.109375,0.046875 -0.140625,0.1875 -0.15625,0.640625 -0.34375,1.234375 -0.75,1.234375 -0.265625,0 -0.296875,-0.265625 -0.296875,-0.453125 0,-0.21875 0.109375,-0.6875 0.1875,-1.046875 L 4.859375,-2.6875 C 4.890625,-2.828125 5,-3.203125 5.03125,-3.359375 5.078125,-3.59375 5.1875,-3.96875 5.1875,-4.03125 c 0,-0.171875 -0.140625,-0.265625 -0.296875,-0.265625 -0.046875,0 -0.3125,0.015625 -0.390625,0.34375 l -0.46875,1.875 c -0.109375,0.5 -0.21875,0.90625 -0.25,1.015625 -0.015625,0.046875 -0.484375,0.953125 -1.296875,0.953125 -0.5,0 -0.734375,-0.328125 -0.734375,-0.875 0,-0.28125 0.0625,-0.5625 0.140625,-0.84375 z m 0,0"
           id="id-a738865e-125c-47eb-920b-fdfac7a38edf" />
      </g>
      <g
         id="id-23a113f8-a081-426b-9c61-aa8d019970d4">
        <path
           d="m 2.328125,-4.4375 c 0,-0.1875 0,-0.1875 -0.203125,-0.1875 -0.453125,0.4375 -1.078125,0.4375 -1.359375,0.4375 v 0.25 c 0.15625,0 0.625,0 1,-0.1875 v 3.546875 c 0,0.234375 0,0.328125 -0.6875,0.328125 H 0.8125 V 0 c 0.125,0 0.984375,-0.03125 1.234375,-0.03125 0.21875,0 1.09375,0.03125 1.25,0.03125 V -0.25 H 3.03125 c -0.703125,0 -0.703125,-0.09375 -0.703125,-0.328125 z m 0,0"
           id="id-290a0646-60d6-42ab-813e-f85fc7fe229a" />
      </g>
    </g>
    <g
       id="id-4077d690-7dc9-4a3d-8022-992769306c7f">
      <g
         id="id-b1be593c-198d-416f-8704-0d00607c63e8">
        <path
           d="m 2.296875,-3.5 c 0.0625,-0.203125 0.15625,-0.59375 0.15625,-0.640625 0,-0.171875 -0.125,-0.265625 -0.296875,-0.265625 -0.015625,0 -0.296875,0.015625 -0.390625,0.359375 l -1.4375,5.765625 c -0.03125,0.125 -0.03125,0.140625 -0.03125,0.171875 0,0.140625 0.109375,0.265625 0.28125,0.265625 0.203125,0 0.328125,-0.1875 0.34375,-0.21875 C 0.96875,1.859375 1.09375,1.328125 1.46875,-0.203125 1.796875,0.0625 2.25,0.109375 2.4375,0.109375 c 0.703125,0 1.09375,-0.453125 1.328125,-0.734375 0.09375,0.453125 0.46875,0.734375 0.90625,0.734375 0.34375,0 0.578125,-0.234375 0.734375,-0.546875 0.171875,-0.359375 0.296875,-0.96875 0.296875,-0.984375 0,-0.109375 -0.09375,-0.109375 -0.125,-0.109375 -0.09375,0 -0.109375,0.046875 -0.140625,0.1875 -0.15625,0.640625 -0.34375,1.234375 -0.75,1.234375 -0.265625,0 -0.296875,-0.265625 -0.296875,-0.453125 0,-0.21875 0.109375,-0.6875 0.1875,-1.046875 L 4.859375,-2.6875 C 4.890625,-2.828125 5,-3.203125 5.03125,-3.359375 5.078125,-3.59375 5.1875,-3.96875 5.1875,-4.03125 c 0,-0.171875 -0.140625,-0.265625 -0.296875,-0.265625 -0.046875,0 -0.3125,0.015625 -0.390625,0.34375 l -0.46875,1.875 c -0.109375,0.5 -0.21875,0.90625 -0.25,1.015625 -0.015625,0.046875 -0.484375,0.953125 -1.296875,0.953125 -0.5,0 -0.734375,-0.328125 -0.734375,-0.875 0,-0.28125 0.0625,-0.5625 0.140625,-0.84375 z m 0,0"
           id="id-35c0f069-87e4-4407-b88f-8ecb26466e53" />
      </g>
      <g
         id="id-f08bc2e0-8998-4f19-a435-bcdce39b4044">
        <path
           d="M 3.515625,-1.265625 H 3.28125 c -0.015625,0.15625 -0.09375,0.5625 -0.1875,0.625 C 3.046875,-0.59375 2.515625,-0.59375 2.40625,-0.59375 H 1.125 c 0.734375,-0.640625 0.984375,-0.84375 1.390625,-1.171875 0.515625,-0.40625 1,-0.84375 1,-1.5 0,-0.84375 -0.734375,-1.359375 -1.625,-1.359375 -0.859375,0 -1.453125,0.609375 -1.453125,1.25 0,0.34375 0.296875,0.390625 0.375,0.390625 0.15625,0 0.359375,-0.125 0.359375,-0.375 0,-0.125 -0.046875,-0.375 -0.40625,-0.375 C 0.984375,-4.21875 1.453125,-4.375 1.78125,-4.375 c 0.703125,0 1.0625,0.546875 1.0625,1.109375 0,0.609375 -0.4375,1.078125 -0.65625,1.328125 L 0.515625,-0.265625 C 0.4375,-0.203125 0.4375,-0.1875 0.4375,0 h 2.875 z m 0,0"
           id="id-a4f6a5f4-ebd8-4b09-992f-d821be5e40d8" />
      </g>
    </g>
    <g
       id="id-bab95e3a-1ab6-4e31-b0f7-5e7543a59d4c">
      <g
         id="id-d033603e-5614-4c27-9405-0b2fd9b97f1b">
        <path
           d="m 2.296875,-3.5 c 0.0625,-0.203125 0.15625,-0.59375 0.15625,-0.640625 0,-0.171875 -0.125,-0.265625 -0.296875,-0.265625 -0.015625,0 -0.296875,0.015625 -0.390625,0.359375 l -1.4375,5.765625 c -0.03125,0.125 -0.03125,0.140625 -0.03125,0.171875 0,0.140625 0.109375,0.265625 0.28125,0.265625 0.203125,0 0.328125,-0.1875 0.34375,-0.21875 C 0.96875,1.859375 1.09375,1.328125 1.46875,-0.203125 1.796875,0.0625 2.25,0.109375 2.4375,0.109375 c 0.703125,0 1.09375,-0.453125 1.328125,-0.734375 0.09375,0.453125 0.46875,0.734375 0.90625,0.734375 0.34375,0 0.578125,-0.234375 0.734375,-0.546875 0.171875,-0.359375 0.296875,-0.96875 0.296875,-0.984375 0,-0.109375 -0.09375,-0.109375 -0.125,-0.109375 -0.09375,0 -0.109375,0.046875 -0.140625,0.1875 -0.15625,0.640625 -0.34375,1.234375 -0.75,1.234375 -0.265625,0 -0.296875,-0.265625 -0.296875,-0.453125 0,-0.21875 0.109375,-0.6875 0.1875,-1.046875 L 4.859375,-2.6875 C 4.890625,-2.828125 5,-3.203125 5.03125,-3.359375 5.078125,-3.59375 5.1875,-3.96875 5.1875,-4.03125 c 0,-0.171875 -0.140625,-0.265625 -0.296875,-0.265625 -0.046875,0 -0.3125,0.015625 -0.390625,0.34375 l -0.46875,1.875 c -0.109375,0.5 -0.21875,0.90625 -0.25,1.015625 -0.015625,0.046875 -0.484375,0.953125 -1.296875,0.953125 -0.5,0 -0.734375,-0.328125 -0.734375,-0.875 0,-0.28125 0.0625,-0.5625 0.140625,-0.84375 z m 0,0"
           id="id-b6009300-3a39-4987-b1b8-5b8400a0e70a" />
      </g>
      <g
         id="id-53227421-c0c6-4583-a5d7-fae3cb6f9baa">
        <path
           d="M 6.734375,-2.265625 C 6.84375,-2.328125 6.921875,-2.375 6.921875,-2.5 c 0,-0.109375 -0.078125,-0.15625 -0.1875,-0.21875 L 1.203125,-5.3125 C 1.078125,-5.390625 1.0625,-5.390625 1.03125,-5.390625 c -0.109375,0 -0.203125,0.09375 -0.203125,0.203125 0,0.09375 0.046875,0.15625 0.1875,0.21875 L 6.25,-2.5 1.015625,-0.015625 c -0.140625,0.0625 -0.1875,0.125 -0.1875,0.21875 0,0.109375 0.09375,0.203125 0.203125,0.203125 0.03125,0 0.046875,0 0.171875,-0.078125 z m 0,0"
           id="id-0ba2fa40-b85e-4386-82f1-564d3b764367" />
      </g>
      <g
         id="id-0c84fb92-a27f-4ea1-bddf-020c8c7ef02e">
        <path
           d="m 2.328125,-4.4375 c 0,-0.1875 0,-0.1875 -0.203125,-0.1875 -0.453125,0.4375 -1.078125,0.4375 -1.359375,0.4375 v 0.25 c 0.15625,0 0.625,0 1,-0.1875 v 3.546875 c 0,0.234375 0,0.328125 -0.6875,0.328125 H 0.8125 V 0 c 0.125,0 0.984375,-0.03125 1.234375,-0.03125 0.21875,0 1.09375,0.03125 1.25,0.03125 V -0.25 H 3.03125 c -0.703125,0 -0.703125,-0.09375 -0.703125,-0.328125 z m 0,0"
           id="id-ec4684e2-0f29-438f-9abe-27283d66e68f" />
      </g>
      <g
         id="id-63d230cd-32ae-4f4b-b788-da64f470e6ed">
        <path
           d="M 3.515625,-1.265625 H 3.28125 c -0.015625,0.15625 -0.09375,0.5625 -0.1875,0.625 C 3.046875,-0.59375 2.515625,-0.59375 2.40625,-0.59375 H 1.125 c 0.734375,-0.640625 0.984375,-0.84375 1.390625,-1.171875 0.515625,-0.40625 1,-0.84375 1,-1.5 0,-0.84375 -0.734375,-1.359375 -1.625,-1.359375 -0.859375,0 -1.453125,0.609375 -1.453125,1.25 0,0.34375 0.296875,0.390625 0.375,0.390625 0.15625,0 0.359375,-0.125 0.359375,-0.375 0,-0.125 -0.046875,-0.375 -0.40625,-0.375 C 0.984375,-4.21875 1.453125,-4.375 1.78125,-4.375 c 0.703125,0 1.0625,0.546875 1.0625,1.109375 0,0.609375 -0.4375,1.078125 -0.65625,1.328125 L 0.515625,-0.265625 C 0.4375,-0.203125 0.4375,-0.1875 0.4375,0 h 2.875 z m 0,0"
           id="id-1a70475b-093e-4e3f-979f-4fd97915439e" />
      </g>
    </g>
  </defs>
  <g
     inkscape:label="Layer 1"
     inkscape:groupmode="layer"
     id="layer1">
    <path
       style="fill:none;fill-rule:evenodd;stroke:#000000;stroke-width:0.642;stroke-linecap:butt;stroke-linejoin:miter;stroke-dasharray:none;stroke-opacity:1"
       d="M 9.3441866,1.0418018e-4 9.3168336,84.280177"
       id="path1"
       inkscape:connector-type="polyline"
       inkscape:connector-curvature="0" />
    <path
       style="fill:none;fill-rule:evenodd;stroke:#000000;stroke-width:0.69602;stroke-linecap:butt;stroke-linejoin:miter;stroke-dasharray:none;stroke-opacity:1"
       d="M 108.05589,84.628627 8.9959376,84.601277"
       id="path1-8"
       inkscape:connector-type="polyline"
       inkscape:connector-curvature="0" />
    <text
       xml:space="preserve"
       style="font-size:4.9389px;line-height:1.25;font-family:Arial;-inkscape-font-specification:'Arial, Normal';font-variant-ligatures:none;text-align:center;text-anchor:middle;stroke-width:0.264583"
       x="59.98885"
       y="91.455391"
       id="text2"><tspan
         sodipodi:role="line"
         id="tspan2"
         style="stroke-width:0.264583"
         x="59.98885"
         y="91.455391" /></text>
    <text
       xml:space="preserve"
       style="font-size:4.9389px;line-height:1.25;font-family:Arial;-inkscape-font-specification:'Arial, Normal';font-variant-ligatures:none;text-align:center;text-anchor:middle;stroke-width:0.264583"
       x="104.70446"
       y="52.076206"
       id="text3"><tspan
         sodipodi:role="line"
         id="tspan3"
         style="stroke-width:0.264583"
         x="104.70446"
         y="52.076206" /></text>
    <text
       xml:space="preserve"
       style="font-size:4.9389px;line-height:1.25;font-family:Arial;-inkscape-font-specification:'Arial, Normal';font-variant-ligatures:none;text-align:center;text-anchor:middle;stroke-width:0.264583"
       x="164.10129"
       y="91.523033"
       id="text2-5"><tspan
         sodipodi:role="line"
         id="tspan2-1"
         style="stroke-width:0.264583"
         x="164.10129"
         y="91.523033" /></text>
    <text
       xml:space="preserve"
       style="font-size:4.9389px;line-height:1.25;font-family:Arial;-inkscape-font-specification:'Arial, Normal';font-variant-ligatures:none;text-align:center;text-anchor:middle;stroke-width:0.264583"
       x="208.81689"
       y="52.143848"
       id="text3-7"><tspan
         sodipodi:role="line"
         id="tspan3-1"
         style="stroke-width:0.264583"
         x="208.81689"
         y="52.143848" /></text>
    <g
       transform="matrix(0.440972,0,0,0.440972,0.52911155,0.59140743)"
       ns2:version="1.11.0"
       ns2:texconverter="pdflatex"
       ns2:pdfconverter="inkscape"
       ns2:text="$-V_j$"
       ns2:preamble="C:\Users\jfhaw\AppData\Roaming\inkscape\extensions\textext\default_packages.tex"
       ns2:scale="1.25"
       ns2:alignment="middle center"
       ns2:inkscapeversion="1.4"
       ns2:jacobian_sqrt="0.440972"
       id="g4">
      <defs
         id="id-5a969996-dc80-455f-9b8c-2b01ce1f4868">
        <g
           id="id-8b4c756c-2d0a-4c83-9e23-5375d8586934">
          <g
             id="id-fb1cd06d-c9e9-4e75-863b-66f394e88e9e">
            <path
               d="m 6.5625,-2.296875 c 0.171875,0 0.359375,0 0.359375,-0.203125 0,-0.1875 -0.1875,-0.1875 -0.359375,-0.1875 H 1.171875 c -0.171875,0 -0.34375,0 -0.34375,0.1875 0,0.203125 0.171875,0.203125 0.34375,0.203125 z m 0,0"
               id="id-9f0679fa-36fd-4cce-b67a-6101263378f5" />
          </g>
          <g
             id="id-d999d857-40a7-4b6a-a8c6-0ebab28c7800">
            <path
               d="M 6.265625,-5.671875 C 6.75,-6.453125 7.171875,-6.484375 7.53125,-6.5 c 0.125,-0.015625 0.140625,-0.171875 0.140625,-0.1875 0,-0.078125 -0.0625,-0.125 -0.140625,-0.125 -0.25,0 -0.546875,0.03125 -0.8125,0.03125 -0.328125,0 -0.671875,-0.03125 -0.984375,-0.03125 -0.0625,0 -0.1875,0 -0.1875,0.1875 0,0.109375 0.078125,0.125 0.15625,0.125 0.265625,0.015625 0.453125,0.125 0.453125,0.328125 0,0.15625 -0.140625,0.375 -0.140625,0.375 l -3.0625,4.875 -0.6875,-5.28125 C 2.265625,-6.375 2.5,-6.5 2.953125,-6.5 c 0.140625,0 0.25,0 0.25,-0.203125 0,-0.078125 -0.078125,-0.109375 -0.125,-0.109375 -0.40625,0 -0.828125,0.03125 -1.25,0.03125 -0.171875,0 -0.359375,0 -0.546875,0 -0.171875,0 -0.359375,-0.03125 -0.53125,-0.03125 -0.078125,0 -0.1875,0 -0.1875,0.1875 0,0.125 0.078125,0.125 0.25,0.125 0.546875,0 0.5625,0.09375 0.59375,0.34375 L 2.1875,-0.015625 C 2.21875,0.1875 2.265625,0.21875 2.390625,0.21875 c 0.15625,0 0.203125,-0.046875 0.28125,-0.171875 z m 0,0"
               id="id-7e1a8ec6-a0c4-40eb-8ebc-5c436f58ceb3" />
          </g>
          <g
             id="id-aa5003d4-f67c-4e87-90fe-bf1fbb96030d">
            <path
               d="M 3.0625,-4.359375 C 3.0625,-4.46875 2.96875,-4.625 2.78125,-4.625 c -0.203125,0 -0.390625,0.203125 -0.390625,0.390625 0,0.109375 0.078125,0.265625 0.28125,0.265625 0.1875,0 0.390625,-0.1875 0.390625,-0.390625 z M 1.578125,0.34375 C 1.46875,0.828125 1.09375,1.21875 0.6875,1.21875 c -0.09375,0 -0.171875,0 -0.25,-0.03125 0.171875,-0.09375 0.234375,-0.25 0.234375,-0.359375 0,-0.171875 -0.140625,-0.25 -0.28125,-0.25 C 0.1875,0.578125 0,0.765625 0,0.984375 c 0,0.265625 0.265625,0.4375 0.6875,0.4375 0.421875,0 1.234375,-0.25 1.453125,-1.09375 l 0.625,-2.5 c 0.015625,-0.078125 0.03125,-0.140625 0.03125,-0.25 0,-0.375 -0.328125,-0.65625 -0.734375,-0.65625 -0.78125,0 -1.21875,0.96875 -1.21875,1.078125 0,0.078125 0.09375,0.078125 0.109375,0.078125 0.078125,0 0.09375,-0.015625 0.140625,-0.125 C 1.265625,-2.453125 1.625,-2.875 2.03125,-2.875 c 0.171875,0 0.234375,0.109375 0.234375,0.34375 0,0.078125 0,0.171875 -0.015625,0.203125 z m 0,0"
               id="id-de3dc3b7-c5ac-430c-b383-14cf479f7a0c" />
          </g>
        </g>
      </defs>
      <g
         fill="#000000"
         fill-opacity="1"
         id="id-f631a957-cc68-4d71-8a36-a1098440e8dc"
         transform="translate(-149.54,-127.953)">
        <g
           transform="translate(148.712,134.765)"
           id="g1">
          <path
             d="m 6.5625,-2.296875 c 0.171875,0 0.359375,0 0.359375,-0.203125 0,-0.1875 -0.1875,-0.1875 -0.359375,-0.1875 H 1.171875 c -0.171875,0 -0.34375,0 -0.34375,0.1875 0,0.203125 0.171875,0.203125 0.34375,0.203125 z m 0,0"
             id="id-aa5fce6f-b593-42bb-a617-aa139dc71f23" />
        </g>
      </g>
      <g
         fill="#000000"
         fill-opacity="1"
         id="id-b6ade58a-2f30-4014-8c42-9e4033363ebc"
         transform="translate(-149.54,-127.953)">
        <g
           transform="translate(156.461,134.765)"
           id="g2">
          <path
             d="M 6.265625,-5.671875 C 6.75,-6.453125 7.171875,-6.484375 7.53125,-6.5 c 0.125,-0.015625 0.140625,-0.171875 0.140625,-0.1875 0,-0.078125 -0.0625,-0.125 -0.140625,-0.125 -0.25,0 -0.546875,0.03125 -0.8125,0.03125 -0.328125,0 -0.671875,-0.03125 -0.984375,-0.03125 -0.0625,0 -0.1875,0 -0.1875,0.1875 0,0.109375 0.078125,0.125 0.15625,0.125 0.265625,0.015625 0.453125,0.125 0.453125,0.328125 0,0.15625 -0.140625,0.375 -0.140625,0.375 l -3.0625,4.875 -0.6875,-5.28125 C 2.265625,-6.375 2.5,-6.5 2.953125,-6.5 c 0.140625,0 0.25,0 0.25,-0.203125 0,-0.078125 -0.078125,-0.109375 -0.125,-0.109375 -0.40625,0 -0.828125,0.03125 -1.25,0.03125 -0.171875,0 -0.359375,0 -0.546875,0 -0.171875,0 -0.359375,-0.03125 -0.53125,-0.03125 -0.078125,0 -0.1875,0 -0.1875,0.1875 0,0.125 0.078125,0.125 0.25,0.125 0.546875,0 0.5625,0.09375 0.59375,0.34375 L 2.1875,-0.015625 C 2.21875,0.1875 2.265625,0.21875 2.390625,0.21875 c 0.15625,0 0.203125,-0.046875 0.28125,-0.171875 z m 0,0"
             id="id-e280c2bc-37a3-41e6-b94d-5255a5f35009" />
        </g>
      </g>
      <g
         fill="#000000"
         fill-opacity="1"
         id="id-21a0c0a4-2198-4b11-a7ee-ec2e8822df6d"
         transform="translate(-149.54,-127.953)">
        <g
           transform="translate(162.273,136.259)"
           id="g3">
          <path
             d="M 3.0625,-4.359375 C 3.0625,-4.46875 2.96875,-4.625 2.78125,-4.625 c -0.203125,0 -0.390625,0.203125 -0.390625,0.390625 0,0.109375 0.078125,0.265625 0.28125,0.265625 0.1875,0 0.390625,-0.1875 0.390625,-0.390625 z M 1.578125,0.34375 C 1.46875,0.828125 1.09375,1.21875 0.6875,1.21875 c -0.09375,0 -0.171875,0 -0.25,-0.03125 0.171875,-0.09375 0.234375,-0.25 0.234375,-0.359375 0,-0.171875 -0.140625,-0.25 -0.28125,-0.25 C 0.1875,0.578125 0,0.765625 0,0.984375 c 0,0.265625 0.265625,0.4375 0.6875,0.4375 0.421875,0 1.234375,-0.25 1.453125,-1.09375 l 0.625,-2.5 c 0.015625,-0.078125 0.03125,-0.140625 0.03125,-0.25 0,-0.375 -0.328125,-0.65625 -0.734375,-0.65625 -0.78125,0 -1.21875,0.96875 -1.21875,1.078125 0,0.078125 0.09375,0.078125 0.109375,0.078125 0.078125,0 0.09375,-0.015625 0.140625,-0.125 C 1.265625,-2.453125 1.625,-2.875 2.03125,-2.875 c 0.171875,0 0.234375,0.109375 0.234375,0.34375 0,0.078125 0,0.171875 -0.015625,0.203125 z m 0,0"
             id="id-3c2fb899-1f97-42fd-b6d4-4e2d21e8bd08" />
        </g>
      </g>
    </g>
    <g
       transform="matrix(0.440972,0,0,0.440972,-5.51215e-5,33.732698)"
       ns2:version="1.11.0"
       ns2:texconverter="pdflatex"
       ns2:pdfconverter="inkscape"
       ns2:text="$-V_j^1$"
       ns2:preamble="C:\Users\jfhaw\AppData\Roaming\inkscape\extensions\textext\default_packages.tex"
       ns2:scale="1.25"
       ns2:alignment="middle center"
       ns2:inkscapeversion="1.4"
       ns2:jacobian_sqrt="0.440972"
       id="g9">
      <defs
         id="id-ac1875ea-b326-4afc-9909-dc09ebb0d1a7">
        <g
           id="id-122206fa-f394-4dea-857e-1a6e84027a87">
          <g
             id="id-0041d7b9-b898-4558-8078-5e7ea9377805">
            <path
               d="m 6.5625,-2.296875 c 0.171875,0 0.359375,0 0.359375,-0.203125 0,-0.1875 -0.1875,-0.1875 -0.359375,-0.1875 H 1.171875 c -0.171875,0 -0.34375,0 -0.34375,0.1875 0,0.203125 0.171875,0.203125 0.34375,0.203125 z m 0,0"
               id="id-1a2dbec6-9dfd-4a89-a0dc-c674e650e3ec" />
          </g>
          <g
             id="id-628989bb-4625-40e3-ae19-1c5a27085443">
            <path
               d="M 6.265625,-5.671875 C 6.75,-6.453125 7.171875,-6.484375 7.53125,-6.5 c 0.125,-0.015625 0.140625,-0.171875 0.140625,-0.1875 0,-0.078125 -0.0625,-0.125 -0.140625,-0.125 -0.25,0 -0.546875,0.03125 -0.8125,0.03125 -0.328125,0 -0.671875,-0.03125 -0.984375,-0.03125 -0.0625,0 -0.1875,0 -0.1875,0.1875 0,0.109375 0.078125,0.125 0.15625,0.125 0.265625,0.015625 0.453125,0.125 0.453125,0.328125 0,0.15625 -0.140625,0.375 -0.140625,0.375 l -3.0625,4.875 -0.6875,-5.28125 C 2.265625,-6.375 2.5,-6.5 2.953125,-6.5 c 0.140625,0 0.25,0 0.25,-0.203125 0,-0.078125 -0.078125,-0.109375 -0.125,-0.109375 -0.40625,0 -0.828125,0.03125 -1.25,0.03125 -0.171875,0 -0.359375,0 -0.546875,0 -0.171875,0 -0.359375,-0.03125 -0.53125,-0.03125 -0.078125,0 -0.1875,0 -0.1875,0.1875 0,0.125 0.078125,0.125 0.25,0.125 0.546875,0 0.5625,0.09375 0.59375,0.34375 L 2.1875,-0.015625 C 2.21875,0.1875 2.265625,0.21875 2.390625,0.21875 c 0.15625,0 0.203125,-0.046875 0.28125,-0.171875 z m 0,0"
               id="id-06ac9925-d7a3-49db-8e54-da1c59fab370" />
          </g>
          <g
             id="id-efd498cc-50aa-4b88-93c7-cfb3b6eed8ec">
            <path
               d="m 2.328125,-4.4375 c 0,-0.1875 0,-0.1875 -0.203125,-0.1875 -0.453125,0.4375 -1.078125,0.4375 -1.359375,0.4375 v 0.25 c 0.15625,0 0.625,0 1,-0.1875 v 3.546875 c 0,0.234375 0,0.328125 -0.6875,0.328125 H 0.8125 V 0 c 0.125,0 0.984375,-0.03125 1.234375,-0.03125 0.21875,0 1.09375,0.03125 1.25,0.03125 V -0.25 H 3.03125 c -0.703125,0 -0.703125,-0.09375 -0.703125,-0.328125 z m 0,0"
               id="id-d9d81062-052c-4d6a-955a-6d958bbf406e" />
          </g>
          <g
             id="id-aa52b1df-bc59-4acc-8969-957d2224aff1">
            <path
               d="M 3.0625,-4.359375 C 3.0625,-4.46875 2.96875,-4.625 2.78125,-4.625 c -0.203125,0 -0.390625,0.203125 -0.390625,0.390625 0,0.109375 0.078125,0.265625 0.28125,0.265625 0.1875,0 0.390625,-0.1875 0.390625,-0.390625 z M 1.578125,0.34375 C 1.46875,0.828125 1.09375,1.21875 0.6875,1.21875 c -0.09375,0 -0.171875,0 -0.25,-0.03125 0.171875,-0.09375 0.234375,-0.25 0.234375,-0.359375 0,-0.171875 -0.140625,-0.25 -0.28125,-0.25 C 0.1875,0.578125 0,0.765625 0,0.984375 c 0,0.265625 0.265625,0.4375 0.6875,0.4375 0.421875,0 1.234375,-0.25 1.453125,-1.09375 l 0.625,-2.5 c 0.015625,-0.078125 0.03125,-0.140625 0.03125,-0.25 0,-0.375 -0.328125,-0.65625 -0.734375,-0.65625 -0.78125,0 -1.21875,0.96875 -1.21875,1.078125 0,0.078125 0.09375,0.078125 0.109375,0.078125 0.078125,0 0.09375,-0.015625 0.140625,-0.125 C 1.265625,-2.453125 1.625,-2.875 2.03125,-2.875 c 0.171875,0 0.234375,0.109375 0.234375,0.34375 0,0.078125 0,0.171875 -0.015625,0.203125 z m 0,0"
               id="id-d8a1824c-55e8-4b95-b6e6-b8b00337eda6" />
          </g>
        </g>
      </defs>
      <g
         fill="#000000"
         fill-opacity="1"
         id="id-aa8bd487-ea9e-476e-83c2-c411035f6f34"
         transform="translate(-149.54,-126.524)">
        <g
           transform="translate(148.712,134.765)"
           id="g5">
          <path
             d="m 6.5625,-2.296875 c 0.171875,0 0.359375,0 0.359375,-0.203125 0,-0.1875 -0.1875,-0.1875 -0.359375,-0.1875 H 1.171875 c -0.171875,0 -0.34375,0 -0.34375,0.1875 0,0.203125 0.171875,0.203125 0.34375,0.203125 z m 0,0"
             id="id-e814c8c8-819e-4904-87fd-eb2ce33e756c" />
        </g>
      </g>
      <g
         fill="#000000"
         fill-opacity="1"
         id="id-70b3480c-e8e3-4085-9d6b-872e93990806"
         transform="translate(-149.54,-126.524)">
        <g
           transform="translate(156.461,134.765)"
           id="g6">
          <path
             d="M 6.265625,-5.671875 C 6.75,-6.453125 7.171875,-6.484375 7.53125,-6.5 c 0.125,-0.015625 0.140625,-0.171875 0.140625,-0.1875 0,-0.078125 -0.0625,-0.125 -0.140625,-0.125 -0.25,0 -0.546875,0.03125 -0.8125,0.03125 -0.328125,0 -0.671875,-0.03125 -0.984375,-0.03125 -0.0625,0 -0.1875,0 -0.1875,0.1875 0,0.109375 0.078125,0.125 0.15625,0.125 0.265625,0.015625 0.453125,0.125 0.453125,0.328125 0,0.15625 -0.140625,0.375 -0.140625,0.375 l -3.0625,4.875 -0.6875,-5.28125 C 2.265625,-6.375 2.5,-6.5 2.953125,-6.5 c 0.140625,0 0.25,0 0.25,-0.203125 0,-0.078125 -0.078125,-0.109375 -0.125,-0.109375 -0.40625,0 -0.828125,0.03125 -1.25,0.03125 -0.171875,0 -0.359375,0 -0.546875,0 -0.171875,0 -0.359375,-0.03125 -0.53125,-0.03125 -0.078125,0 -0.1875,0 -0.1875,0.1875 0,0.125 0.078125,0.125 0.25,0.125 0.546875,0 0.5625,0.09375 0.59375,0.34375 L 2.1875,-0.015625 C 2.21875,0.1875 2.265625,0.21875 2.390625,0.21875 c 0.15625,0 0.203125,-0.046875 0.28125,-0.171875 z m 0,0"
             id="id-37298439-b48e-469e-b7c0-17f4b57e16ef" />
        </g>
      </g>
      <g
         fill="#000000"
         fill-opacity="1"
         id="id-aa0c9af0-c49e-481b-bf4b-07b795870912"
         transform="translate(-149.54,-126.524)">
        <g
           transform="translate(164.487,131.149)"
           id="g7">
          <path
             d="m 2.328125,-4.4375 c 0,-0.1875 0,-0.1875 -0.203125,-0.1875 -0.453125,0.4375 -1.078125,0.4375 -1.359375,0.4375 v 0.25 c 0.15625,0 0.625,0 1,-0.1875 v 3.546875 c 0,0.234375 0,0.328125 -0.6875,0.328125 H 0.8125 V 0 c 0.125,0 0.984375,-0.03125 1.234375,-0.03125 0.21875,0 1.09375,0.03125 1.25,0.03125 V -0.25 H 3.03125 c -0.703125,0 -0.703125,-0.09375 -0.703125,-0.328125 z m 0,0"
             id="id-9df873cf-89c2-47e2-bb8e-9a6276f342d6" />
        </g>
      </g>
      <g
         fill="#000000"
         fill-opacity="1"
         id="id-9a701d38-33b1-4981-8fcd-837904251537"
         transform="translate(-149.54,-126.524)">
        <g
           transform="translate(162.273,137.358)"
           id="g8">
          <path
             d="M 3.0625,-4.359375 C 3.0625,-4.46875 2.96875,-4.625 2.78125,-4.625 c -0.203125,0 -0.390625,0.203125 -0.390625,0.390625 0,0.109375 0.078125,0.265625 0.28125,0.265625 0.1875,0 0.390625,-0.1875 0.390625,-0.390625 z M 1.578125,0.34375 C 1.46875,0.828125 1.09375,1.21875 0.6875,1.21875 c -0.09375,0 -0.171875,0 -0.25,-0.03125 0.171875,-0.09375 0.234375,-0.25 0.234375,-0.359375 0,-0.171875 -0.140625,-0.25 -0.28125,-0.25 C 0.1875,0.578125 0,0.765625 0,0.984375 c 0,0.265625 0.265625,0.4375 0.6875,0.4375 0.421875,0 1.234375,-0.25 1.453125,-1.09375 l 0.625,-2.5 c 0.015625,-0.078125 0.03125,-0.140625 0.03125,-0.25 0,-0.375 -0.328125,-0.65625 -0.734375,-0.65625 -0.78125,0 -1.21875,0.96875 -1.21875,1.078125 0,0.078125 0.09375,0.078125 0.109375,0.078125 0.078125,0 0.09375,-0.015625 0.140625,-0.125 C 1.265625,-2.453125 1.625,-2.875 2.03125,-2.875 c 0.171875,0 0.234375,0.109375 0.234375,0.34375 0,0.078125 0,0.171875 -0.015625,0.203125 z m 0,0"
             id="id-c7bc8579-9009-4724-9629-edd32e55cf00" />
        </g>
      </g>
    </g>
    <g
       transform="matrix(0.440972,0,0,0.440972,0.18920876,56.183671)"
       ns2:version="1.11.0"
       ns2:texconverter="pdflatex"
       ns2:pdfconverter="inkscape"
       ns2:text="$-V_j^2$"
       ns2:preamble="C:\Users\jfhaw\AppData\Roaming\inkscape\extensions\textext\default_packages.tex"
       ns2:scale="1.25"
       ns2:alignment="middle center"
       ns2:inkscapeversion="1.4"
       ns2:jacobian_sqrt="0.440972"
       id="g14">
      <defs
         id="id-3f3ebf08-66db-495d-a197-d6acb417ab9c">
        <g
           id="id-402c682e-3b1b-4c3c-b795-ab750c171c00">
          <g
             id="id-86da73c0-fe0e-426f-8624-57578d63564c">
            <path
               d="m 6.5625,-2.296875 c 0.171875,0 0.359375,0 0.359375,-0.203125 0,-0.1875 -0.1875,-0.1875 -0.359375,-0.1875 H 1.171875 c -0.171875,0 -0.34375,0 -0.34375,0.1875 0,0.203125 0.171875,0.203125 0.34375,0.203125 z m 0,0"
               id="id-60a40683-e802-41e5-8d40-852027143876" />
          </g>
          <g
             id="id-1785014e-4d2c-40f2-ad68-8dd417c90143">
            <path
               d="M 6.265625,-5.671875 C 6.75,-6.453125 7.171875,-6.484375 7.53125,-6.5 c 0.125,-0.015625 0.140625,-0.171875 0.140625,-0.1875 0,-0.078125 -0.0625,-0.125 -0.140625,-0.125 -0.25,0 -0.546875,0.03125 -0.8125,0.03125 -0.328125,0 -0.671875,-0.03125 -0.984375,-0.03125 -0.0625,0 -0.1875,0 -0.1875,0.1875 0,0.109375 0.078125,0.125 0.15625,0.125 0.265625,0.015625 0.453125,0.125 0.453125,0.328125 0,0.15625 -0.140625,0.375 -0.140625,0.375 l -3.0625,4.875 -0.6875,-5.28125 C 2.265625,-6.375 2.5,-6.5 2.953125,-6.5 c 0.140625,0 0.25,0 0.25,-0.203125 0,-0.078125 -0.078125,-0.109375 -0.125,-0.109375 -0.40625,0 -0.828125,0.03125 -1.25,0.03125 -0.171875,0 -0.359375,0 -0.546875,0 -0.171875,0 -0.359375,-0.03125 -0.53125,-0.03125 -0.078125,0 -0.1875,0 -0.1875,0.1875 0,0.125 0.078125,0.125 0.25,0.125 0.546875,0 0.5625,0.09375 0.59375,0.34375 L 2.1875,-0.015625 C 2.21875,0.1875 2.265625,0.21875 2.390625,0.21875 c 0.15625,0 0.203125,-0.046875 0.28125,-0.171875 z m 0,0"
               id="id-b01f258a-a667-4447-9c3c-ec19ccf88a0b" />
          </g>
          <g
             id="id-54e98335-d666-4207-86fa-d3591d5643e5">
            <path
               d="M 3.515625,-1.265625 H 3.28125 c -0.015625,0.15625 -0.09375,0.5625 -0.1875,0.625 C 3.046875,-0.59375 2.515625,-0.59375 2.40625,-0.59375 H 1.125 c 0.734375,-0.640625 0.984375,-0.84375 1.390625,-1.171875 0.515625,-0.40625 1,-0.84375 1,-1.5 0,-0.84375 -0.734375,-1.359375 -1.625,-1.359375 -0.859375,0 -1.453125,0.609375 -1.453125,1.25 0,0.34375 0.296875,0.390625 0.375,0.390625 0.15625,0 0.359375,-0.125 0.359375,-0.375 0,-0.125 -0.046875,-0.375 -0.40625,-0.375 C 0.984375,-4.21875 1.453125,-4.375 1.78125,-4.375 c 0.703125,0 1.0625,0.546875 1.0625,1.109375 0,0.609375 -0.4375,1.078125 -0.65625,1.328125 L 0.515625,-0.265625 C 0.4375,-0.203125 0.4375,-0.1875 0.4375,0 h 2.875 z m 0,0"
               id="id-d2957fe5-3f34-48d1-bb58-4f30c4255079" />
          </g>
          <g
             id="id-1370c48e-7ef6-4602-9c59-e737a0a480e2">
            <path
               d="M 3.0625,-4.359375 C 3.0625,-4.46875 2.96875,-4.625 2.78125,-4.625 c -0.203125,0 -0.390625,0.203125 -0.390625,0.390625 0,0.109375 0.078125,0.265625 0.28125,0.265625 0.1875,0 0.390625,-0.1875 0.390625,-0.390625 z M 1.578125,0.34375 C 1.46875,0.828125 1.09375,1.21875 0.6875,1.21875 c -0.09375,0 -0.171875,0 -0.25,-0.03125 0.171875,-0.09375 0.234375,-0.25 0.234375,-0.359375 0,-0.171875 -0.140625,-0.25 -0.28125,-0.25 C 0.1875,0.578125 0,0.765625 0,0.984375 c 0,0.265625 0.265625,0.4375 0.6875,0.4375 0.421875,0 1.234375,-0.25 1.453125,-1.09375 l 0.625,-2.5 c 0.015625,-0.078125 0.03125,-0.140625 0.03125,-0.25 0,-0.375 -0.328125,-0.65625 -0.734375,-0.65625 -0.78125,0 -1.21875,0.96875 -1.21875,1.078125 0,0.078125 0.09375,0.078125 0.109375,0.078125 0.078125,0 0.09375,-0.015625 0.140625,-0.125 C 1.265625,-2.453125 1.625,-2.875 2.03125,-2.875 c 0.171875,0 0.234375,0.109375 0.234375,0.34375 0,0.078125 0,0.171875 -0.015625,0.203125 z m 0,0"
               id="id-f27269d3-294d-42a3-ae2f-ff51fa70a963" />
          </g>
        </g>
      </defs>
      <g
         fill="#000000"
         fill-opacity="1"
         id="id-7782519e-eda9-47c5-813c-50f409a92975"
         transform="translate(-149.54,-126.524)">
        <g
           transform="translate(148.712,134.765)"
           id="g10">
          <path
             d="m 6.5625,-2.296875 c 0.171875,0 0.359375,0 0.359375,-0.203125 0,-0.1875 -0.1875,-0.1875 -0.359375,-0.1875 H 1.171875 c -0.171875,0 -0.34375,0 -0.34375,0.1875 0,0.203125 0.171875,0.203125 0.34375,0.203125 z m 0,0"
             id="id-85a78530-22dd-4c17-b3e5-0999a32b4c42" />
        </g>
      </g>
      <g
         fill="#000000"
         fill-opacity="1"
         id="id-76b07652-ad98-446d-8d10-e648e80af722"
         transform="translate(-149.54,-126.524)">
        <g
           transform="translate(156.461,134.765)"
           id="g11">
          <path
             d="M 6.265625,-5.671875 C 6.75,-6.453125 7.171875,-6.484375 7.53125,-6.5 c 0.125,-0.015625 0.140625,-0.171875 0.140625,-0.1875 0,-0.078125 -0.0625,-0.125 -0.140625,-0.125 -0.25,0 -0.546875,0.03125 -0.8125,0.03125 -0.328125,0 -0.671875,-0.03125 -0.984375,-0.03125 -0.0625,0 -0.1875,0 -0.1875,0.1875 0,0.109375 0.078125,0.125 0.15625,0.125 0.265625,0.015625 0.453125,0.125 0.453125,0.328125 0,0.15625 -0.140625,0.375 -0.140625,0.375 l -3.0625,4.875 -0.6875,-5.28125 C 2.265625,-6.375 2.5,-6.5 2.953125,-6.5 c 0.140625,0 0.25,0 0.25,-0.203125 0,-0.078125 -0.078125,-0.109375 -0.125,-0.109375 -0.40625,0 -0.828125,0.03125 -1.25,0.03125 -0.171875,0 -0.359375,0 -0.546875,0 -0.171875,0 -0.359375,-0.03125 -0.53125,-0.03125 -0.078125,0 -0.1875,0 -0.1875,0.1875 0,0.125 0.078125,0.125 0.25,0.125 0.546875,0 0.5625,0.09375 0.59375,0.34375 L 2.1875,-0.015625 C 2.21875,0.1875 2.265625,0.21875 2.390625,0.21875 c 0.15625,0 0.203125,-0.046875 0.28125,-0.171875 z m 0,0"
             id="id-9031cdc2-1492-45e3-a989-073d65164633" />
        </g>
      </g>
      <g
         fill="#000000"
         fill-opacity="1"
         id="id-1df3b348-f6ff-4521-81d2-11e0a533534b"
         transform="translate(-149.54,-126.524)">
        <g
           transform="translate(164.487,131.149)"
           id="g12">
          <path
             d="M 3.515625,-1.265625 H 3.28125 c -0.015625,0.15625 -0.09375,0.5625 -0.1875,0.625 C 3.046875,-0.59375 2.515625,-0.59375 2.40625,-0.59375 H 1.125 c 0.734375,-0.640625 0.984375,-0.84375 1.390625,-1.171875 0.515625,-0.40625 1,-0.84375 1,-1.5 0,-0.84375 -0.734375,-1.359375 -1.625,-1.359375 -0.859375,0 -1.453125,0.609375 -1.453125,1.25 0,0.34375 0.296875,0.390625 0.375,0.390625 0.15625,0 0.359375,-0.125 0.359375,-0.375 0,-0.125 -0.046875,-0.375 -0.40625,-0.375 C 0.984375,-4.21875 1.453125,-4.375 1.78125,-4.375 c 0.703125,0 1.0625,0.546875 1.0625,1.109375 0,0.609375 -0.4375,1.078125 -0.65625,1.328125 L 0.515625,-0.265625 C 0.4375,-0.203125 0.4375,-0.1875 0.4375,0 h 2.875 z m 0,0"
             id="id-5f0ef985-580c-4757-bfd4-99642e2b981f" />
        </g>
      </g>
      <g
         fill="#000000"
         fill-opacity="1"
         id="id-ec7109dd-e379-46d7-b216-35e3f3747724"
         transform="translate(-149.54,-126.524)">
        <g
           transform="translate(162.273,137.358)"
           id="g13">
          <path
             d="M 3.0625,-4.359375 C 3.0625,-4.46875 2.96875,-4.625 2.78125,-4.625 c -0.203125,0 -0.390625,0.203125 -0.390625,0.390625 0,0.109375 0.078125,0.265625 0.28125,0.265625 0.1875,0 0.390625,-0.1875 0.390625,-0.390625 z M 1.578125,0.34375 C 1.46875,0.828125 1.09375,1.21875 0.6875,1.21875 c -0.09375,0 -0.171875,0 -0.25,-0.03125 0.171875,-0.09375 0.234375,-0.25 0.234375,-0.359375 0,-0.171875 -0.140625,-0.25 -0.28125,-0.25 C 0.1875,0.578125 0,0.765625 0,0.984375 c 0,0.265625 0.265625,0.4375 0.6875,0.4375 0.421875,0 1.234375,-0.25 1.453125,-1.09375 l 0.625,-2.5 c 0.015625,-0.078125 0.03125,-0.140625 0.03125,-0.25 0,-0.375 -0.328125,-0.65625 -0.734375,-0.65625 -0.78125,0 -1.21875,0.96875 -1.21875,1.078125 0,0.078125 0.09375,0.078125 0.109375,0.078125 0.078125,0 0.09375,-0.015625 0.140625,-0.125 C 1.265625,-2.453125 1.625,-2.875 2.03125,-2.875 c 0.171875,0 0.234375,0.109375 0.234375,0.34375 0,0.078125 0,0.171875 -0.015625,0.203125 z m 0,0"
             id="id-db9a9932-e185-443f-828c-0ff328bd3ac2" />
        </g>
      </g>
    </g>
    <g
       transform="matrix(0.440972,0,0,0.440972,49.80773,86.650484)"
       ns2:version="1.11.0"
       ns2:texconverter="pdflatex"
       ns2:pdfconverter="inkscape"
       ns2:text="$Pr_i(j)$"
       ns2:preamble="C:\Users\jfhaw\AppData\Roaming\inkscape\extensions\textext\default_packages.tex"
       ns2:scale="1.25"
       ns2:alignment="middle center"
       ns2:inkscapeversion="1.4"
       ns2:jacobian_sqrt="0.440972"
       id="g21">
      <defs
         id="id-e72c5267-2e67-4349-866e-62ead44b9d6e">
        <g
           id="id-48976f7f-96f8-49dc-9696-59b8936c5e69">
          <g
             id="id-90047d39-acd3-41fc-90cb-ca5f6b7d12e4">
            <path
               d="M 3.015625,-3.15625 H 4.71875 c 1.40625,0 2.796875,-1.03125 2.796875,-2.140625 0,-0.78125 -0.65625,-1.515625 -1.96875,-1.515625 h -3.21875 c -0.1875,0 -0.296875,0 -0.296875,0.1875 0,0.125 0.078125,0.125 0.28125,0.125 0.125,0 0.3125,0.015625 0.421875,0.015625 0.171875,0.03125 0.21875,0.046875 0.21875,0.171875 0,0.03125 0,0.0625 -0.03125,0.1875 l -1.34375,5.34375 c -0.09375,0.390625 -0.109375,0.46875 -0.90625,0.46875 -0.15625,0 -0.265625,0 -0.265625,0.1875 C 0.40625,0 0.515625,0 0.546875,0 0.828125,0 1.53125,-0.03125 1.8125,-0.03125 c 0.21875,0 0.4375,0.015625 0.640625,0.015625 0.21875,0 0.4375,0.015625 0.640625,0.015625 0.078125,0 0.203125,0 0.203125,-0.203125 0,-0.109375 -0.09375,-0.109375 -0.28125,-0.109375 -0.359375,0 -0.640625,0 -0.640625,-0.171875 0,-0.0625 0.015625,-0.109375 0.03125,-0.171875 z M 3.734375,-6.125 C 3.828125,-6.46875 3.84375,-6.5 4.28125,-6.5 h 0.953125 c 0.828125,0 1.359375,0.265625 1.359375,0.953125 0,0.390625 -0.203125,1.25 -0.59375,1.609375 -0.5,0.453125 -1.09375,0.53125 -1.53125,0.53125 H 3.0625 Z m 0,0"
               id="id-0052e5ef-5707-4947-9cdc-93c472e734cd" />
          </g>
          <g
             id="id-6ee98d6d-45b8-4c81-a241-21d5c5a11250">
            <path
               d="m 0.875,-0.59375 c -0.03125,0.15625 -0.09375,0.390625 -0.09375,0.4375 0,0.171875 0.140625,0.265625 0.296875,0.265625 0.125,0 0.296875,-0.078125 0.375,-0.28125 C 1.46875,-0.203125 1.796875,-1.5625 1.84375,-1.75 c 0.078125,-0.328125 0.265625,-1.015625 0.3125,-1.296875 0.046875,-0.125 0.328125,-0.59375 0.5625,-0.8125 0.078125,-0.0625 0.375,-0.328125 0.796875,-0.328125 0.265625,0 0.40625,0.125 0.421875,0.125 -0.296875,0.046875 -0.515625,0.28125 -0.515625,0.546875 0,0.15625 0.109375,0.34375 0.375,0.34375 0.265625,0 0.546875,-0.234375 0.546875,-0.59375 0,-0.34375 -0.3125,-0.640625 -0.828125,-0.640625 C 2.875,-4.40625 2.4375,-3.921875 2.25,-3.640625 2.15625,-4.09375 1.796875,-4.40625 1.328125,-4.40625 0.875,-4.40625 0.6875,-4.015625 0.59375,-3.84375 0.421875,-3.5 0.296875,-2.90625 0.296875,-2.875 c 0,0.109375 0.09375,0.109375 0.109375,0.109375 0.109375,0 0.109375,-0.015625 0.171875,-0.234375 0.171875,-0.703125 0.375,-1.1875 0.734375,-1.1875 0.15625,0 0.296875,0.078125 0.296875,0.453125 0,0.21875 -0.03125,0.328125 -0.15625,0.84375 z m 0,0"
               id="id-1cf329f9-6d3c-4bcc-931a-2a0a9c86c284" />
          </g>
          <g
             id="id-4045fde1-447d-458b-8b69-c13caa9f1046">
            <path
               d="m 3.953125,-6.234375 c 0,-0.1875 -0.140625,-0.359375 -0.375,-0.359375 -0.234375,0 -0.53125,0.234375 -0.53125,0.53125 0,0.203125 0.140625,0.359375 0.375,0.359375 0.265625,0 0.53125,-0.265625 0.53125,-0.53125 z m -2,6.734375 c -0.1875,0.75 -0.671875,1.328125 -1.21875,1.328125 -0.0625,0 -0.21875,0 -0.390625,-0.09375 0.296875,-0.0625 0.4375,-0.328125 0.4375,-0.53125 0,-0.15625 -0.109375,-0.34375 -0.375,-0.34375 -0.25,0 -0.53125,0.203125 -0.53125,0.5625 0,0.40625 0.390625,0.625 0.875,0.625 0.703125,0 1.625,-0.53125 1.875,-1.515625 L 3.53125,-3.125 c 0.0625,-0.1875 0.0625,-0.328125 0.0625,-0.359375 0,-0.578125 -0.421875,-0.921875 -0.921875,-0.921875 -1.015625,0 -1.578125,1.453125 -1.578125,1.53125 0,0.109375 0.09375,0.109375 0.109375,0.109375 0.09375,0 0.109375,-0.015625 0.1875,-0.203125 0.25,-0.609375 0.703125,-1.21875 1.25,-1.21875 0.140625,0 0.3125,0.046875 0.3125,0.453125 0,0.234375 -0.015625,0.34375 -0.0625,0.515625 z m 0,0"
               id="id-f507ff8a-789f-49c8-b6e1-007ce40ee72d" />
          </g>
          <g
             id="id-76497c38-f6f3-489f-989d-b51bd14e8338">
            <path
               d="m 2.265625,-4.359375 c 0,-0.109375 -0.09375,-0.265625 -0.28125,-0.265625 -0.1875,0 -0.390625,0.1875 -0.390625,0.390625 0,0.109375 0.078125,0.265625 0.28125,0.265625 0.1875,0 0.390625,-0.203125 0.390625,-0.390625 z M 0.84375,-0.8125 c -0.03125,0.09375 -0.0625,0.171875 -0.0625,0.296875 0,0.328125 0.265625,0.578125 0.65625,0.578125 0.6875,0 1,-0.953125 1,-1.0625 0,-0.09375 -0.09375,-0.09375 -0.109375,-0.09375 -0.09375,0 -0.109375,0.046875 -0.140625,0.125 -0.15625,0.5625 -0.453125,0.84375 -0.734375,0.84375 -0.140625,0 -0.171875,-0.09375 -0.171875,-0.25 0,-0.15625 0.046875,-0.28125 0.109375,-0.4375 C 1.46875,-1 1.546875,-1.1875 1.609375,-1.375 1.671875,-1.546875 1.9375,-2.171875 1.953125,-2.265625 1.984375,-2.328125 2,-2.40625 2,-2.484375 2,-2.8125 1.71875,-3.078125 1.34375,-3.078125 0.640625,-3.078125 0.328125,-2.125 0.328125,-2 c 0,0.078125 0.09375,0.078125 0.125,0.078125 0.09375,0 0.09375,-0.03125 0.125,-0.109375 C 0.75,-2.625 1.0625,-2.875 1.3125,-2.875 c 0.109375,0 0.171875,0.046875 0.171875,0.234375 0,0.171875 -0.03125,0.265625 -0.203125,0.703125 z m 0,0"
               id="id-3db4766b-ca03-4411-b7d4-0a71dbb58310" />
          </g>
          <g
             id="id-79bf3054-740e-4968-b9de-4e171d33f8f5">
            <path
               d="m 3.296875,2.390625 c 0,-0.03125 0,-0.046875 -0.171875,-0.21875 C 1.890625,0.921875 1.5625,-0.96875 1.5625,-2.5 c 0,-1.734375 0.375,-3.46875 1.609375,-4.703125 0.125,-0.125 0.125,-0.140625 0.125,-0.171875 0,-0.078125 -0.03125,-0.109375 -0.09375,-0.109375 -0.109375,0 -1,0.6875 -1.59375,1.953125 -0.5,1.09375 -0.625,2.203125 -0.625,3.03125 0,0.78125 0.109375,1.984375 0.65625,3.125 C 2.25,1.84375 3.09375,2.5 3.203125,2.5 c 0.0625,0 0.09375,-0.03125 0.09375,-0.109375 z m 0,0"
               id="id-03645869-b738-4771-955c-bba525c28b15" />
          </g>
          <g
             id="id-d564f50c-97c6-4901-a11b-6f0c48bf7f42">
            <path
               d="m 2.875,-2.5 c 0,-0.765625 -0.109375,-1.96875 -0.65625,-3.109375 -0.59375,-1.21875 -1.453125,-1.875 -1.546875,-1.875 -0.0625,0 -0.109375,0.046875 -0.109375,0.109375 0,0.03125 0,0.046875 0.1875,0.234375 0.984375,0.984375 1.546875,2.5625 1.546875,4.640625 0,1.71875 -0.359375,3.46875 -1.59375,4.71875 C 0.5625,2.34375 0.5625,2.359375 0.5625,2.390625 0.5625,2.453125 0.609375,2.5 0.671875,2.5 0.765625,2.5 1.671875,1.8125 2.25,0.546875 2.765625,-0.546875 2.875,-1.65625 2.875,-2.5 Z m 0,0"
               id="id-8a8aa4e9-0761-44f1-9eae-a85729cf7669" />
          </g>
        </g>
      </defs>
      <g
         fill="#000000"
         fill-opacity="1"
         id="id-0895c786-0f8a-4116-8de9-aa074652aa92"
         transform="translate(-149.118,-127.281)">
        <g
           transform="translate(148.712,134.765)"
           id="g15">
          <path
             d="M 3.015625,-3.15625 H 4.71875 c 1.40625,0 2.796875,-1.03125 2.796875,-2.140625 0,-0.78125 -0.65625,-1.515625 -1.96875,-1.515625 h -3.21875 c -0.1875,0 -0.296875,0 -0.296875,0.1875 0,0.125 0.078125,0.125 0.28125,0.125 0.125,0 0.3125,0.015625 0.421875,0.015625 0.171875,0.03125 0.21875,0.046875 0.21875,0.171875 0,0.03125 0,0.0625 -0.03125,0.1875 l -1.34375,5.34375 c -0.09375,0.390625 -0.109375,0.46875 -0.90625,0.46875 -0.15625,0 -0.265625,0 -0.265625,0.1875 C 0.40625,0 0.515625,0 0.546875,0 0.828125,0 1.53125,-0.03125 1.8125,-0.03125 c 0.21875,0 0.4375,0.015625 0.640625,0.015625 0.21875,0 0.4375,0.015625 0.640625,0.015625 0.078125,0 0.203125,0 0.203125,-0.203125 0,-0.109375 -0.09375,-0.109375 -0.28125,-0.109375 -0.359375,0 -0.640625,0 -0.640625,-0.171875 0,-0.0625 0.015625,-0.109375 0.03125,-0.171875 z M 3.734375,-6.125 C 3.828125,-6.46875 3.84375,-6.5 4.28125,-6.5 h 0.953125 c 0.828125,0 1.359375,0.265625 1.359375,0.953125 0,0.390625 -0.203125,1.25 -0.59375,1.609375 -0.5,0.453125 -1.09375,0.53125 -1.53125,0.53125 H 3.0625 Z m 0,0"
             id="id-5a0ac89a-05ea-4d2d-b5db-7dbd2a7ad363" />
        </g>
      </g>
      <g
         fill="#000000"
         fill-opacity="1"
         id="id-d7ce75a3-641e-40b9-a2c1-5e282cd0d58e"
         transform="translate(-149.118,-127.281)">
        <g
           transform="translate(156.493,134.765)"
           id="g16">
          <path
             d="m 0.875,-0.59375 c -0.03125,0.15625 -0.09375,0.390625 -0.09375,0.4375 0,0.171875 0.140625,0.265625 0.296875,0.265625 0.125,0 0.296875,-0.078125 0.375,-0.28125 C 1.46875,-0.203125 1.796875,-1.5625 1.84375,-1.75 c 0.078125,-0.328125 0.265625,-1.015625 0.3125,-1.296875 0.046875,-0.125 0.328125,-0.59375 0.5625,-0.8125 0.078125,-0.0625 0.375,-0.328125 0.796875,-0.328125 0.265625,0 0.40625,0.125 0.421875,0.125 -0.296875,0.046875 -0.515625,0.28125 -0.515625,0.546875 0,0.15625 0.109375,0.34375 0.375,0.34375 0.265625,0 0.546875,-0.234375 0.546875,-0.59375 0,-0.34375 -0.3125,-0.640625 -0.828125,-0.640625 C 2.875,-4.40625 2.4375,-3.921875 2.25,-3.640625 2.15625,-4.09375 1.796875,-4.40625 1.328125,-4.40625 0.875,-4.40625 0.6875,-4.015625 0.59375,-3.84375 0.421875,-3.5 0.296875,-2.90625 0.296875,-2.875 c 0,0.109375 0.09375,0.109375 0.109375,0.109375 0.109375,0 0.109375,-0.015625 0.171875,-0.234375 0.171875,-0.703125 0.375,-1.1875 0.734375,-1.1875 0.15625,0 0.296875,0.078125 0.296875,0.453125 0,0.21875 -0.03125,0.328125 -0.15625,0.84375 z m 0,0"
             id="id-e12f5f22-2383-45ee-b2fa-918481f4f223" />
        </g>
      </g>
      <g
         fill="#000000"
         fill-opacity="1"
         id="id-96e1e496-dc4d-4906-9cd7-72abd6f609ce"
         transform="translate(-149.118,-127.281)">
        <g
           transform="translate(160.987,136.259)"
           id="g17">
          <path
             d="m 2.265625,-4.359375 c 0,-0.109375 -0.09375,-0.265625 -0.28125,-0.265625 -0.1875,0 -0.390625,0.1875 -0.390625,0.390625 0,0.109375 0.078125,0.265625 0.28125,0.265625 0.1875,0 0.390625,-0.203125 0.390625,-0.390625 z M 0.84375,-0.8125 c -0.03125,0.09375 -0.0625,0.171875 -0.0625,0.296875 0,0.328125 0.265625,0.578125 0.65625,0.578125 0.6875,0 1,-0.953125 1,-1.0625 0,-0.09375 -0.09375,-0.09375 -0.109375,-0.09375 -0.09375,0 -0.109375,0.046875 -0.140625,0.125 -0.15625,0.5625 -0.453125,0.84375 -0.734375,0.84375 -0.140625,0 -0.171875,-0.09375 -0.171875,-0.25 0,-0.15625 0.046875,-0.28125 0.109375,-0.4375 C 1.46875,-1 1.546875,-1.1875 1.609375,-1.375 1.671875,-1.546875 1.9375,-2.171875 1.953125,-2.265625 1.984375,-2.328125 2,-2.40625 2,-2.484375 2,-2.8125 1.71875,-3.078125 1.34375,-3.078125 0.640625,-3.078125 0.328125,-2.125 0.328125,-2 c 0,0.078125 0.09375,0.078125 0.125,0.078125 0.09375,0 0.09375,-0.03125 0.125,-0.109375 C 0.75,-2.625 1.0625,-2.875 1.3125,-2.875 c 0.109375,0 0.171875,0.046875 0.171875,0.234375 0,0.171875 -0.03125,0.265625 -0.203125,0.703125 z m 0,0"
             id="id-3e840b74-d4c0-406c-b774-54db35d05621" />
        </g>
      </g>
      <g
         fill="#000000"
         fill-opacity="1"
         id="id-fbf9baf3-439b-4763-becd-8e03351fb1b5"
         transform="translate(-149.118,-127.281)">
        <g
           transform="translate(164.304,134.765)"
           id="g18">
          <path
             d="m 3.296875,2.390625 c 0,-0.03125 0,-0.046875 -0.171875,-0.21875 C 1.890625,0.921875 1.5625,-0.96875 1.5625,-2.5 c 0,-1.734375 0.375,-3.46875 1.609375,-4.703125 0.125,-0.125 0.125,-0.140625 0.125,-0.171875 0,-0.078125 -0.03125,-0.109375 -0.09375,-0.109375 -0.109375,0 -1,0.6875 -1.59375,1.953125 -0.5,1.09375 -0.625,2.203125 -0.625,3.03125 0,0.78125 0.109375,1.984375 0.65625,3.125 C 2.25,1.84375 3.09375,2.5 3.203125,2.5 c 0.0625,0 0.09375,-0.03125 0.09375,-0.109375 z m 0,0"
             id="id-0d25e5b5-865a-44e3-9d31-f352bc64ffb6" />
        </g>
      </g>
      <g
         fill="#000000"
         fill-opacity="1"
         id="id-d070248a-80fd-40fc-a1f2-b0758f85eee8"
         transform="translate(-149.118,-127.281)">
        <g
           transform="translate(168.178,134.765)"
           id="g19">
          <path
             d="m 3.953125,-6.234375 c 0,-0.1875 -0.140625,-0.359375 -0.375,-0.359375 -0.234375,0 -0.53125,0.234375 -0.53125,0.53125 0,0.203125 0.140625,0.359375 0.375,0.359375 0.265625,0 0.53125,-0.265625 0.53125,-0.53125 z m -2,6.734375 c -0.1875,0.75 -0.671875,1.328125 -1.21875,1.328125 -0.0625,0 -0.21875,0 -0.390625,-0.09375 0.296875,-0.0625 0.4375,-0.328125 0.4375,-0.53125 0,-0.15625 -0.109375,-0.34375 -0.375,-0.34375 -0.25,0 -0.53125,0.203125 -0.53125,0.5625 0,0.40625 0.390625,0.625 0.875,0.625 0.703125,0 1.625,-0.53125 1.875,-1.515625 L 3.53125,-3.125 c 0.0625,-0.1875 0.0625,-0.328125 0.0625,-0.359375 0,-0.578125 -0.421875,-0.921875 -0.921875,-0.921875 -1.015625,0 -1.578125,1.453125 -1.578125,1.53125 0,0.109375 0.09375,0.109375 0.109375,0.109375 0.09375,0 0.109375,-0.015625 0.1875,-0.203125 0.25,-0.609375 0.703125,-1.21875 1.25,-1.21875 0.140625,0 0.3125,0.046875 0.3125,0.453125 0,0.234375 -0.015625,0.34375 -0.0625,0.515625 z m 0,0"
             id="id-f94c0ba5-59fb-40fe-8593-1472abb44259" />
        </g>
      </g>
      <g
         fill="#000000"
         fill-opacity="1"
         id="id-e043eb60-2b9b-486f-a16d-e8d15e1ff247"
         transform="translate(-149.118,-127.281)">
        <g
           transform="translate(172.851,134.765)"
           id="g20">
          <path
             d="m 2.875,-2.5 c 0,-0.765625 -0.109375,-1.96875 -0.65625,-3.109375 -0.59375,-1.21875 -1.453125,-1.875 -1.546875,-1.875 -0.0625,0 -0.109375,0.046875 -0.109375,0.109375 0,0.03125 0,0.046875 0.1875,0.234375 0.984375,0.984375 1.546875,2.5625 1.546875,4.640625 0,1.71875 -0.359375,3.46875 -1.59375,4.71875 C 0.5625,2.34375 0.5625,2.359375 0.5625,2.390625 0.5625,2.453125 0.609375,2.5 0.671875,2.5 0.765625,2.5 1.671875,1.8125 2.25,0.546875 2.765625,-0.546875 2.875,-1.65625 2.875,-2.5 Z m 0,0"
             id="id-11fb4692-fa01-44d0-a83f-f89700e283e5" />
        </g>
      </g>
    </g>
    <text
       xml:space="preserve"
       style="font-size:4.9389px;line-height:1.25;font-family:Arial;-inkscape-font-specification:'Arial, Normal';font-variant-ligatures:none;text-align:center;text-anchor:middle;stroke-width:0.264583"
       x="7.8587852"
       y="88.526474"
       id="text21"><tspan
         sodipodi:role="line"
         id="tspan21"
         style="stroke-width:0.264583"
         x="7.8587852"
         y="88.526474">0</tspan></text>
    <text
       xml:space="preserve"
       style="font-size:4.9389px;line-height:1.25;font-family:Arial;-inkscape-font-specification:'Arial, Normal';font-variant-ligatures:none;text-align:center;text-anchor:middle;stroke-width:0.264583"
       x="108.58506"
       y="89.391129"
       id="text22"><tspan
         sodipodi:role="line"
         id="tspan22"
         style="stroke-width:0.264583"
         x="108.58506"
         y="89.391129">1</tspan></text>
    <path
       style="fill:none;stroke:#000000;stroke-width:0.706001"
       d="M 9.3441865,1.0418018e-4 C 66.742804,12.872961 22.700743,74.116163 108.05589,84.628626"
       id="path22"
       sodipodi:nodetypes="cc" />
    <path
       style="fill:none;fill-rule:evenodd;stroke:#000000;stroke-width:0.265782px;stroke-linecap:butt;stroke-linejoin:miter;stroke-opacity:1"
       d="m 9.3318242,38.091078 37.0409448,0.01095"
       id="path23"
       inkscape:connector-type="polyline"
       inkscape:connector-curvature="0" />
    <path
       style="fill:none;fill-rule:evenodd;stroke:#000000;stroke-width:0.300117px;stroke-linecap:butt;stroke-linejoin:miter;stroke-opacity:1"
       d="m 9.3247602,59.856758 47.2295228,0.01095"
       id="path23-8"
       inkscape:connector-type="polyline"
       inkscape:connector-curvature="0" />
    <text
       xml:space="preserve"
       style="font-size:4.9389px;line-height:1.25;font-family:Arial;-inkscape-font-specification:'Arial, Normal';font-variant-ligatures:none;text-align:center;text-anchor:middle;stroke-width:0.264583"
       x="55.266872"
       y="38.535366"
       id="text23"><tspan
         sodipodi:role="line"
         id="tspan23"
         style="stroke-width:0.264583"
         x="55.266872"
         y="38.535366">Base</tspan></text>
    <text
       xml:space="preserve"
       style="font-size:4.9389px;line-height:1.25;font-family:Arial;-inkscape-font-specification:'Arial, Normal';font-variant-ligatures:none;text-align:center;text-anchor:middle;stroke-width:0.264583"
       x="65"
       y="60"
       id="text24"><tspan
         sodipodi:role="line"
         id="tspan24"
         style="stroke-width:0.264583"
         x="65"
         y="60">After</tspan></text>
    <path
       style="fill:#000000;fill-opacity:0.430809;stroke:#000000;stroke-width:1.31225"
       d="M 36.637996,72.729476 V 2.1035709 l 1.844194,0.3418925 c 3.952541,0.7327556 14.721326,3.8491797 22.31362,6.4574324 18.151323,6.2356962 32.655605,13.7577302 46.65925,24.1978572 7.79607,5.812194 20.6391,18.732097 26.59259,26.751751 14.18753,19.111323 22.6818,36.839077 37.12391,77.478506 l 2.14089,6.02437 H 104.97522 36.637996 Z"
       id="path24"
       transform="scale(0.26458333)" />
    <path
       style="fill:#ff0000;fill-opacity:0.430809;stroke:#000000;stroke-width:2.62451"
       d="m 113.35648,224.99181 -75.980806,-0.25812 v -39.82853 -39.82853 l 68.112246,0.0136 68.11225,0.0136 6.39321,17.36241 c 7.03282,19.09944 18.9549,44.50853 25.97663,55.36301 2.48273,3.8379 4.51405,7.1855 4.51405,7.43911 0,0.25362 -4.75802,0.35324 -10.57338,0.22138 -5.81536,-0.13185 -44.76475,-0.35589 -86.5542,-0.49785 z"
       id="path25"
       transform="scale(0.26458333)" />
    <path
       d="m 28.468693,4.9421225 v -3.535365 h 1.217844 q 0.412379,0 0.62942,0.050643 0.303858,0.069936 0.518488,0.2532151 0.279743,0.2363341 0.417202,0.6053047 0.139871,0.3665589 0.139871,0.8392271 0,0.4027326 -0.09405,0.7138254 -0.09405,0.3110928 -0.241157,0.5160765 -0.147106,0.202572 -0.323151,0.3207391 -0.173633,0.1157554 -0.422025,0.1760448 -0.24598,0.060289 -0.566719,0.060289 z m 0.467845,-0.417202 h 0.754822 q 0.349678,0 0.547427,-0.065113 0.20016,-0.065112 0.318327,-0.1832795 0.166399,-0.1663985 0.258039,-0.4461409 0.09405,-0.2821539 0.09405,-0.6824749 0,-0.5546616 -0.183279,-0.851285 -0.180868,-0.299035 -0.441318,-0.400321 -0.188103,-0.072347 -0.605305,-0.072347 h -0.742764 z m 4.796617,-0.4075558 0.448553,0.055466 Q 34.075598,4.565917 33.788621,4.7829585 33.501644,5 33.055503,5 32.493607,5 32.163222,4.6551452 31.835248,4.3078788 31.835248,3.6832815 q 0,-0.6463013 0.332797,-1.003214 0.332797,-0.3569127 0.863343,-0.3569127 0.513665,0 0.839227,0.349678 0.325562,0.3496779 0.325562,0.9839214 0,0.038585 -0.0024,0.1157555 H 32.2838 q 0.02412,0.4220252 0.238746,0.6463014 0.21463,0.2242762 0.535369,0.2242762 0.238746,0 0.407556,-0.1254018 0.16881,-0.1254017 0.267684,-0.4003208 z M 32.307916,3.4155972 h 1.430062 q -0.02894,-0.3231507 -0.163987,-0.484726 -0.207395,-0.2508035 -0.53778,-0.2508035 -0.299035,0 -0.504019,0.2001605 -0.202572,0.2001605 -0.224276,0.535369 z m 2.418807,1.5265253 V 2.3810327 h 0.388263 V 2.740357 q 0.120579,-0.1881027 0.32074,-0.3014465 0.20016,-0.1157555 0.455787,-0.1157555 0.284565,0 0.465433,0.118167 0.18328,0.1181671 0.258038,0.3303854 0.303858,-0.4485524 0.790996,-0.4485524 0.381029,0 0.586012,0.2122183 0.204984,0.2098068 0.204984,0.648713 V 4.9421225 H 37.765304 V 3.3287806 q 0,-0.2604498 -0.04341,-0.3737937 -0.041,-0.1157555 -0.151929,-0.185691 -0.110932,-0.069936 -0.26045,-0.069936 -0.270096,0 -0.448552,0.1808679 -0.178457,0.1784563 -0.178457,0.5739542 V 4.9421225 H 36.248425 V 3.2781376 q 0,-0.2893887 -0.106109,-0.434083 -0.106109,-0.1446943 -0.347266,-0.1446943 -0.18328,0 -0.340032,0.096463 -0.15434,0.096463 -0.224276,0.282154 -0.06994,0.1856911 -0.06994,0.535369 v 1.3287764 z m 5.785362,-0.315916 q -0.241157,0.2049836 -0.465433,0.2893887 -0.221865,0.084405 -0.477491,0.084405 -0.422026,0 -0.648713,-0.2049836 -0.226688,-0.2073953 -0.226688,-0.5281344 0,-0.1881026 0.08441,-0.3424432 0.08682,-0.1567522 0.224276,-0.2508036 0.139871,-0.094051 0.313504,-0.1422827 0.127814,-0.033762 0.385852,-0.065112 0.525723,-0.062701 0.774115,-0.1495174 0.0024,-0.089228 0.0024,-0.1133439 0,-0.265273 -0.12299,-0.3737937 -0.166398,-0.147106 -0.494372,-0.147106 -0.30627,0 -0.453376,0.1085208 -0.144694,0.1061092 -0.21463,0.3786168 l -0.424436,-0.057878 q 0.05788,-0.2725077 0.190514,-0.4389061 0.132636,-0.1688101 0.38344,-0.2580383 0.250803,-0.09164 0.581189,-0.09164 0.327973,0 0.532957,0.07717 0.204984,0.07717 0.301447,0.1953373 0.09646,0.1157555 0.135048,0.2942119 0.0217,0.1109323 0.0217,0.400321 v 0.5787773 q 0,0.6053046 0.02653,0.76688 0.02894,0.1591638 0.110932,0.3062697 h -0.453375 q -0.06752,-0.1350481 -0.08682,-0.315916 z m -0.03617,-0.9694521 q -0.236334,0.096463 -0.709003,0.163987 -0.267684,0.038585 -0.378616,0.086817 -0.110933,0.048231 -0.171222,0.1422827 -0.06029,0.09164 -0.06029,0.2049837 0,0.1736332 0.130225,0.2893886 0.132636,0.1157555 0.385851,0.1157555 0.250804,0 0.446141,-0.1085207 0.195337,-0.1109324 0.286977,-0.3014466 0.06994,-0.1471059 0.06994,-0.434083 z m 1.111734,1.2853681 V 2.3810327 h 0.390675 v 0.3641474 q 0.282154,-0.4220251 0.815111,-0.4220251 0.231511,0 0.424437,0.084405 0.195337,0.081993 0.2918,0.2170415 0.09646,0.1350481 0.135048,0.3207391 0.02412,0.1205786 0.02412,0.4220252 V 4.9421225 H 43.23475 V 3.3842468 q 0,-0.265273 -0.05064,-0.3954979 -0.05064,-0.1326364 -0.180868,-0.2098068 -0.127813,-0.079582 -0.301446,-0.079582 -0.277331,0 -0.479903,0.1760447 -0.200161,0.1760448 -0.200161,0.6680055 v 1.398712 z m 4.408355,0 V 4.6189718 q -0.243569,0.3810284 -0.716237,0.3810284 -0.30627,0 -0.564308,-0.1688101 -0.255627,-0.16881 -0.39791,-0.4702566 -0.139871,-0.3038581 -0.139871,-0.6969443 0,-0.38344 0.127814,-0.6945329 0.127813,-0.3135043 0.38344,-0.4799028 0.255626,-0.1663985 0.571542,-0.1663985 0.231511,0 0.412379,0.098874 0.180868,0.096463 0.294212,0.2532151 v -1.268487 h 0.431671 v 3.535365 z M 44.623816,3.6639892 q 0,0.4919607 0.207395,0.7355295 0.207396,0.2435688 0.48955,0.2435688 0.284565,0 0.482314,-0.2315109 0.20016,-0.2339225 0.20016,-0.7114139 0,-0.5257227 -0.202572,-0.7717031 -0.202572,-0.2459804 -0.499195,-0.2459804 -0.289389,0 -0.484726,0.2363341 -0.192926,0.2363341 -0.192926,0.7451759 z m 5.500797,0.3400316 0.426848,0.055466 Q 50.481521,4.5008045 50.192137,4.7516081 49.90516,5 49.485546,5 48.959824,5 48.639085,4.6575567 48.320757,4.3127019 48.320757,3.6712237 q 0,-0.4147905 0.13746,-0.7258833 0.137459,-0.3110928 0.417202,-0.4654334 0.282154,-0.1567522 0.612539,-0.1567522 0.417202,0 0.682475,0.2122183 0.265273,0.2098068 0.340032,0.59807 L 50.08844,3.1985557 Q 50.02815,2.9405175 49.87381,2.8102926 49.721881,2.6800677 49.504839,2.6800677 q -0.327974,0 -0.532957,0.2363341 -0.204984,0.2339225 -0.204984,0.7427642 0,0.5160765 0.197749,0.749999 0.197749,0.2339225 0.516076,0.2339225 0.255627,0 0.426849,-0.1567522 0.171221,-0.1567522 0.217041,-0.4823145 z m 2.476685,0.9381017 V 4.5659172 q -0.299035,0.434083 -0.8127,0.434083 -0.226688,0 -0.424437,-0.086817 Q 51.168824,4.826367 51.072361,4.6961421 50.97831,4.5635056 50.939725,4.3729914 50.913197,4.2451781 50.913197,3.9678473 V 2.3810327 h 0.434083 v 1.4204161 q 0,0.3400317 0.02653,0.4581987 0.041,0.1712216 0.173633,0.2700961 0.132636,0.096463 0.327974,0.096463 0.195337,0 0.366559,-0.098874 0.171221,-0.101286 0.241157,-0.2725076 0.07235,-0.1736332 0.07235,-0.5016071 V 2.3810327 h 0.434083 v 2.5610898 z m 1.063503,0 V 2.3810327 h 0.390675 v 0.3882632 q 0.149517,-0.2725077 0.274919,-0.3593243 0.127813,-0.086817 0.279742,-0.086817 0.219453,0 0.446141,0.1398712 l -0.149517,0.4027325 q -0.159164,-0.094051 -0.318328,-0.094051 -0.142283,0 -0.255627,0.086817 -0.113344,0.084405 -0.161575,0.2363341 -0.07235,0.2315109 -0.07235,0.5064302 v 1.3408342 z m 2.360928,0 -0.974275,-2.5610898 h 0.458199 l 0.549838,1.53376 q 0.08923,0.2483919 0.163987,0.5160764 0.05788,-0.202572 0.161576,-0.4871376 l 0.569131,-1.5626988 h 0.44614 l -0.969452,2.5610898 z m 3.511249,-0.8247578 0.448553,0.055466 Q 59.879422,4.565917 59.592445,4.7829585 59.305468,5 58.859327,5 58.29743,5 57.967045,4.6551452 57.639071,4.3078788 57.639071,3.6832815 q 0,-0.6463013 0.332797,-1.003214 0.332797,-0.3569127 0.863343,-0.3569127 0.513665,0 0.839227,0.349678 Q 60,3.0225109 60,3.6567544 q 0,0.038585 -0.0024,0.1157555 h -1.909965 q 0.02412,0.4220252 0.238745,0.6463014 0.21463,0.2242762 0.535369,0.2242762 0.238746,0 0.407556,-0.1254018 0.16881,-0.1254017 0.267684,-0.400321 z M 58.111739,3.4155972 h 1.430063 q -0.02894,-0.3231507 -0.163987,-0.484726 -0.207396,-0.2508035 -0.537781,-0.2508035 -0.299035,0 -0.504019,0.2001605 -0.202572,0.2001605 -0.224276,0.535369 z"
       id="text25"
       style="font-size:4.9389px;line-height:1.25;font-family:Arial;-inkscape-font-specification:'Arial, Normal';font-variant-ligatures:none;text-align:center;text-anchor:middle;stroke-width:0.264583"
       aria-label="Demand curve" />
    <text
       xml:space="preserve"
       style="font-size:4.9389px;line-height:1.25;font-family:Arial;-inkscape-font-specification:'Arial, Normal';font-variant-ligatures:none;text-align:center;text-anchor:middle;stroke-width:0.264583"
       x="64.331917"
       y="18.476826"
       id="text26"><tspan
         sodipodi:role="line"
         id="tspan26"
         style="stroke-width:0.264583"
         x="64.331917"
         y="18.476826">Consumer surplus</tspan><tspan
         sodipodi:role="line"
         style="stroke-width:0.264583"
         x="64.331917"
         y="24.650452"
         id="tspan27">at base conditions</tspan></text>
    <text
       xml:space="preserve"
       style="font-size:4.9389px;line-height:1.25;font-family:Arial;-inkscape-font-specification:'Arial, Normal';font-variant-ligatures:none;text-align:center;text-anchor:middle;stroke-width:0.264583"
       x="64.068329"
       y="40.529167"
       id="text26-1"><tspan
         sodipodi:role="line"
         id="tspan26-7"
         style="text-align:start;text-anchor:start;stroke-width:0.264583"
         x="64.068329"
         y="40.529167">Additional </tspan><tspan
         sodipodi:role="line"
         style="text-align:start;text-anchor:start;stroke-width:0.264583"
         x="64.068329"
         y="46.702793"
         id="tspan28">consumer surplus</tspan><tspan
         sodipodi:role="line"
         style="text-align:start;text-anchor:start;stroke-width:0.264583"
         x="64.068329"
         y="52.876419"
         id="tspan27-1">after system change</tspan></text>
    <path
       style="fill:none;fill-rule:evenodd;stroke:#000000;stroke-width:0.685923;stroke-linecap:butt;stroke-linejoin:miter;stroke-dasharray:none;stroke-opacity:1;marker-end:url(#Triangle)"
       d="m 63.173238,45.010311 -29.925,5.332911"
       id="path28"
       inkscape:connector-type="polyline"
       inkscape:connector-curvature="0" />
    <path
       style="fill:none;fill-rule:evenodd;stroke:#000000;stroke-width:0.665;stroke-linecap:butt;stroke-linejoin:miter;stroke-dasharray:none;stroke-opacity:1;marker-end:url(#marker30)"
       d="M 43.999999,19 23,25"
       id="path29"
       inkscape:connector-type="polyline"
       inkscape:connector-curvature="0" />
  </g>
</svg>
