<?xml version="1.0" encoding="UTF-8" standalone="no"?>
<!-- Created with Inkscape (http://www.inkscape.org/) -->

<svg
   width="7.1999998in"
   height="2.1500001in"
   viewBox="0 0 182.88 54.610002"
   version="1.1"
   id="svg1"
   inkscape:version="1.4 (86a8ad7, 2024-10-11)"
   sodipodi:docname="market_segmentation.svg"
   inkscape:export-filename="binary_multi_choice1.svg"
   inkscape:export-xdpi="300"
   inkscape:export-ydpi="300"
   xmlns:inkscape="http://www.inkscape.org/namespaces/inkscape"
   xmlns:sodipodi="http://sodipodi.sourceforge.net/DTD/sodipodi-0.dtd"
   xmlns="http://www.w3.org/2000/svg"
   xmlns:svg="http://www.w3.org/2000/svg">
  <sodipodi:namedview
     id="namedview1"
     pagecolor="#ffffff"
     bordercolor="#000000"
     borderopacity="0.25"
     inkscape:showpageshadow="2"
     inkscape:pageopacity="0.0"
     inkscape:pagecheckerboard="0"
     inkscape:deskcolor="#d1d1d1"
     inkscape:document-units="mm"
     inkscape:zoom="1.4142136"
     inkscape:cx="392.44426"
     inkscape:cy="170.76629"
     inkscape:window-width="1920"
     inkscape:window-height="1017"
     inkscape:window-x="1912"
     inkscape:window-y="-8"
     inkscape:window-maximized="1"
     inkscape:current-layer="layer1" />
  <defs
     id="defs1">
    <marker
       style="overflow:visible"
       id="marker16"
       refX="0"
       refY="0"
       orient="auto-start-reverse"
       inkscape:stockid="Triangle arrow"
       markerWidth="1"
       markerHeight="1"
       viewBox="0 0 1 1"
       inkscape:isstock="true"
       inkscape:collect="always"
       preserveAspectRatio="xMidYMid">
      <path
         transform="scale(0.5)"
         style="fill:context-stroke;fill-rule:evenodd;stroke:context-stroke;stroke-width:1pt"
         d="M 5.77,0 -2.88,5 V -5 Z"
         id="path16" />
    </marker>
    <marker
       style="overflow:visible"
       id="marker14"
       refX="0"
       refY="0"
       orient="auto-start-reverse"
       inkscape:stockid="Triangle arrow"
       markerWidth="1"
       markerHeight="1"
       viewBox="0 0 1 1"
       inkscape:isstock="true"
       inkscape:collect="always"
       preserveAspectRatio="xMidYMid">
      <path
         transform="scale(0.5)"
         style="fill:context-stroke;fill-rule:evenodd;stroke:context-stroke;stroke-width:1pt"
         d="M 5.77,0 -2.88,5 V -5 Z"
         id="path14" />
    </marker>
    <marker
       style="overflow:visible"
       id="marker12"
       refX="0"
       refY="0"
       orient="auto-start-reverse"
       inkscape:stockid="Triangle arrow"
       markerWidth="1"
       markerHeight="1"
       viewBox="0 0 1 1"
       inkscape:isstock="true"
       inkscape:collect="always"
       preserveAspectRatio="xMidYMid">
      <path
         transform="scale(0.5)"
         style="fill:context-stroke;fill-rule:evenodd;stroke:context-stroke;stroke-width:1pt"
         d="M 5.77,0 -2.88,5 V -5 Z"
         id="path12" />
    </marker>
    <marker
       style="overflow:visible"
       id="Triangle"
       refX="0"
       refY="0"
       orient="auto-start-reverse"
       inkscape:stockid="Triangle arrow"
       markerWidth="1"
       markerHeight="1"
       viewBox="0 0 1 1"
       inkscape:isstock="true"
       inkscape:collect="always"
       preserveAspectRatio="xMidYMid">
      <path
         transform="scale(0.5)"
         style="fill:context-stroke;fill-rule:evenodd;stroke:context-stroke;stroke-width:1pt"
         d="M 5.77,0 -2.88,5 V -5 Z"
         id="path135" />
    </marker>
    <rect
       x="-162.74449"
       y="-125.18807"
       width="963.94812"
       height="595.33881"
       id="rect5" />
    <g
       id="id-237aa2cc-9047-474b-85be-092b252c42b2-2">
      <g
         id="id-9b1d0606-b366-42dd-9336-ebca83651b23-4">
        <path
           d="M 4.859375,-2.765625 C 4.921875,-2.9375 4.9375,-3.078125 4.9375,-3.34375 c 0,-0.640625 -0.390625,-1.0625 -1.140625,-1.0625 -0.78125,0 -1.296875,0.515625 -1.546875,0.875 -0.046875,-0.578125 -0.46875,-0.875 -0.921875,-0.875 -0.453125,0 -0.640625,0.390625 -0.734375,0.5625 C 0.421875,-3.5 0.296875,-2.90625 0.296875,-2.875 c 0,0.109375 0.09375,0.109375 0.109375,0.109375 0.109375,0 0.109375,-0.015625 0.171875,-0.234375 0.171875,-0.703125 0.375,-1.1875 0.734375,-1.1875 0.15625,0 0.296875,0.078125 0.296875,0.453125 0,0.21875 -0.03125,0.328125 -0.15625,0.84375 L 0.875,-0.59375 c -0.03125,0.15625 -0.09375,0.390625 -0.09375,0.4375 0,0.171875 0.140625,0.265625 0.296875,0.265625 0.125,0 0.296875,-0.078125 0.375,-0.28125 0,-0.015625 0.125,-0.484375 0.1875,-0.734375 l 0.21875,-0.890625 C 1.90625,-2.03125 1.96875,-2.25 2.03125,-2.46875 2.046875,-2.53125 2.125,-2.859375 2.140625,-2.921875 2.15625,-3.015625 2.46875,-3.5625 2.8125,-3.84375 3.03125,-4 3.34375,-4.1875 3.765625,-4.1875 c 0.4375,0 0.546875,0.34375 0.546875,0.703125 0,0.046875 0,0.21875 -0.109375,0.625 l -1.125,4.578125 c -0.03125,0.125 -0.03125,0.140625 -0.03125,0.171875 0,0.140625 0.109375,0.265625 0.265625,0.265625 0.3125,0 0.390625,-0.296875 0.421875,-0.40625 z m 0,0"
           id="id-d6e86d4b-06b9-4baa-84d9-55cfc7d53292-5" />
      </g>
      <g
         id="id-1981db31-d913-4130-9e80-f43e0db4df01-5">
        <path
           d="m 2.328125,-4.4375 c 0,-0.1875 0,-0.1875 -0.203125,-0.1875 -0.453125,0.4375 -1.078125,0.4375 -1.359375,0.4375 v 0.25 c 0.15625,0 0.625,0 1,-0.1875 v 3.546875 c 0,0.234375 0,0.328125 -0.6875,0.328125 H 0.8125 V 0 c 0.125,0 0.984375,-0.03125 1.234375,-0.03125 0.21875,0 1.09375,0.03125 1.25,0.03125 V -0.25 H 3.03125 c -0.703125,0 -0.703125,-0.09375 -0.703125,-0.328125 z m 0,0"
           id="id-6aa62f4e-53b1-4ba5-846d-8a6c4e190cfd-1" />
      </g>
    </g>
    <g
       id="id-237aa2cc-9047-474b-85be-092b252c42b2-8">
      <g
         id="id-9b1d0606-b366-42dd-9336-ebca83651b23-5">
        <path
           d="M 4.859375,-2.765625 C 4.921875,-2.9375 4.9375,-3.078125 4.9375,-3.34375 c 0,-0.640625 -0.390625,-1.0625 -1.140625,-1.0625 -0.78125,0 -1.296875,0.515625 -1.546875,0.875 -0.046875,-0.578125 -0.46875,-0.875 -0.921875,-0.875 -0.453125,0 -0.640625,0.390625 -0.734375,0.5625 C 0.421875,-3.5 0.296875,-2.90625 0.296875,-2.875 c 0,0.109375 0.09375,0.109375 0.109375,0.109375 0.109375,0 0.109375,-0.015625 0.171875,-0.234375 0.171875,-0.703125 0.375,-1.1875 0.734375,-1.1875 0.15625,0 0.296875,0.078125 0.296875,0.453125 0,0.21875 -0.03125,0.328125 -0.15625,0.84375 L 0.875,-0.59375 c -0.03125,0.15625 -0.09375,0.390625 -0.09375,0.4375 0,0.171875 0.140625,0.265625 0.296875,0.265625 0.125,0 0.296875,-0.078125 0.375,-0.28125 0,-0.015625 0.125,-0.484375 0.1875,-0.734375 l 0.21875,-0.890625 C 1.90625,-2.03125 1.96875,-2.25 2.03125,-2.46875 2.046875,-2.53125 2.125,-2.859375 2.140625,-2.921875 2.15625,-3.015625 2.46875,-3.5625 2.8125,-3.84375 3.03125,-4 3.34375,-4.1875 3.765625,-4.1875 c 0.4375,0 0.546875,0.34375 0.546875,0.703125 0,0.046875 0,0.21875 -0.109375,0.625 l -1.125,4.578125 c -0.03125,0.125 -0.03125,0.140625 -0.03125,0.171875 0,0.140625 0.109375,0.265625 0.265625,0.265625 0.3125,0 0.390625,-0.296875 0.421875,-0.40625 z m 0,0"
           id="id-d6e86d4b-06b9-4baa-84d9-55cfc7d53292-7" />
      </g>
      <g
         id="id-1981db31-d913-4130-9e80-f43e0db4df01-6">
        <path
           d="m 2.328125,-4.4375 c 0,-0.1875 0,-0.1875 -0.203125,-0.1875 -0.453125,0.4375 -1.078125,0.4375 -1.359375,0.4375 v 0.25 c 0.15625,0 0.625,0 1,-0.1875 v 3.546875 c 0,0.234375 0,0.328125 -0.6875,0.328125 H 0.8125 V 0 c 0.125,0 0.984375,-0.03125 1.234375,-0.03125 0.21875,0 1.09375,0.03125 1.25,0.03125 V -0.25 H 3.03125 c -0.703125,0 -0.703125,-0.09375 -0.703125,-0.328125 z m 0,0"
           id="id-6aa62f4e-53b1-4ba5-846d-8a6c4e190cfd-18" />
      </g>
    </g>
    <g
       id="id-9557b879-9fde-4643-8c28-37327b418c35-2">
      <g
         id="id-3a52fd0f-35a8-4245-853b-63c4d683aa71-3">
        <path
           d="M 4.859375,-2.765625 C 4.921875,-2.9375 4.9375,-3.078125 4.9375,-3.34375 c 0,-0.640625 -0.390625,-1.0625 -1.140625,-1.0625 -0.78125,0 -1.296875,0.515625 -1.546875,0.875 -0.046875,-0.578125 -0.46875,-0.875 -0.921875,-0.875 -0.453125,0 -0.640625,0.390625 -0.734375,0.5625 C 0.421875,-3.5 0.296875,-2.90625 0.296875,-2.875 c 0,0.109375 0.09375,0.109375 0.109375,0.109375 0.109375,0 0.109375,-0.015625 0.171875,-0.234375 0.171875,-0.703125 0.375,-1.1875 0.734375,-1.1875 0.15625,0 0.296875,0.078125 0.296875,0.453125 0,0.21875 -0.03125,0.328125 -0.15625,0.84375 L 0.875,-0.59375 c -0.03125,0.15625 -0.09375,0.390625 -0.09375,0.4375 0,0.171875 0.140625,0.265625 0.296875,0.265625 0.125,0 0.296875,-0.078125 0.375,-0.28125 0,-0.015625 0.125,-0.484375 0.1875,-0.734375 l 0.21875,-0.890625 C 1.90625,-2.03125 1.96875,-2.25 2.03125,-2.46875 2.046875,-2.53125 2.125,-2.859375 2.140625,-2.921875 2.15625,-3.015625 2.46875,-3.5625 2.8125,-3.84375 3.03125,-4 3.34375,-4.1875 3.765625,-4.1875 c 0.4375,0 0.546875,0.34375 0.546875,0.703125 0,0.046875 0,0.21875 -0.109375,0.625 l -1.125,4.578125 c -0.03125,0.125 -0.03125,0.140625 -0.03125,0.171875 0,0.140625 0.109375,0.265625 0.265625,0.265625 0.3125,0 0.390625,-0.296875 0.421875,-0.40625 z m 0,0"
           id="id-262127ed-92fa-4bf9-9183-0168235a0238-3" />
      </g>
      <g
         id="id-008ebc28-9b35-452a-93be-611a93239981-4">
        <path
           d="M 3.515625,-1.265625 H 3.28125 c -0.015625,0.15625 -0.09375,0.5625 -0.1875,0.625 C 3.046875,-0.59375 2.515625,-0.59375 2.40625,-0.59375 H 1.125 c 0.734375,-0.640625 0.984375,-0.84375 1.390625,-1.171875 0.515625,-0.40625 1,-0.84375 1,-1.5 0,-0.84375 -0.734375,-1.359375 -1.625,-1.359375 -0.859375,0 -1.453125,0.609375 -1.453125,1.25 0,0.34375 0.296875,0.390625 0.375,0.390625 0.15625,0 0.359375,-0.125 0.359375,-0.375 0,-0.125 -0.046875,-0.375 -0.40625,-0.375 C 0.984375,-4.21875 1.453125,-4.375 1.78125,-4.375 c 0.703125,0 1.0625,0.546875 1.0625,1.109375 0,0.609375 -0.4375,1.078125 -0.65625,1.328125 L 0.515625,-0.265625 C 0.4375,-0.203125 0.4375,-0.1875 0.4375,0 h 2.875 z m 0,0"
           id="id-a9b6cb73-9461-4d14-881e-0ad9b6129ad3-1" />
      </g>
    </g>
    <g
       id="id-53e1abb1-8b7b-4c5d-b81d-e647bc64fd39">
      <g
         id="id-85b42c2f-b809-4276-a2f7-9cc488ede256">
        <path
           d="m 2.296875,-3.5 c 0.0625,-0.203125 0.15625,-0.59375 0.15625,-0.640625 0,-0.171875 -0.125,-0.265625 -0.296875,-0.265625 -0.015625,0 -0.296875,0.015625 -0.390625,0.359375 l -1.4375,5.765625 c -0.03125,0.125 -0.03125,0.140625 -0.03125,0.171875 0,0.140625 0.109375,0.265625 0.28125,0.265625 0.203125,0 0.328125,-0.1875 0.34375,-0.21875 C 0.96875,1.859375 1.09375,1.328125 1.46875,-0.203125 1.796875,0.0625 2.25,0.109375 2.4375,0.109375 c 0.703125,0 1.09375,-0.453125 1.328125,-0.734375 0.09375,0.453125 0.46875,0.734375 0.90625,0.734375 0.34375,0 0.578125,-0.234375 0.734375,-0.546875 0.171875,-0.359375 0.296875,-0.96875 0.296875,-0.984375 0,-0.109375 -0.09375,-0.109375 -0.125,-0.109375 -0.09375,0 -0.109375,0.046875 -0.140625,0.1875 -0.15625,0.640625 -0.34375,1.234375 -0.75,1.234375 -0.265625,0 -0.296875,-0.265625 -0.296875,-0.453125 0,-0.21875 0.109375,-0.6875 0.1875,-1.046875 L 4.859375,-2.6875 C 4.890625,-2.828125 5,-3.203125 5.03125,-3.359375 5.078125,-3.59375 5.1875,-3.96875 5.1875,-4.03125 c 0,-0.171875 -0.140625,-0.265625 -0.296875,-0.265625 -0.046875,0 -0.3125,0.015625 -0.390625,0.34375 l -0.46875,1.875 c -0.109375,0.5 -0.21875,0.90625 -0.25,1.015625 -0.015625,0.046875 -0.484375,0.953125 -1.296875,0.953125 -0.5,0 -0.734375,-0.328125 -0.734375,-0.875 0,-0.28125 0.0625,-0.5625 0.140625,-0.84375 z m 0,0"
           id="id-a738865e-125c-47eb-920b-fdfac7a38edf" />
      </g>
      <g
         id="id-23a113f8-a081-426b-9c61-aa8d019970d4">
        <path
           d="m 2.328125,-4.4375 c 0,-0.1875 0,-0.1875 -0.203125,-0.1875 -0.453125,0.4375 -1.078125,0.4375 -1.359375,0.4375 v 0.25 c 0.15625,0 0.625,0 1,-0.1875 v 3.546875 c 0,0.234375 0,0.328125 -0.6875,0.328125 H 0.8125 V 0 c 0.125,0 0.984375,-0.03125 1.234375,-0.03125 0.21875,0 1.09375,0.03125 1.25,0.03125 V -0.25 H 3.03125 c -0.703125,0 -0.703125,-0.09375 -0.703125,-0.328125 z m 0,0"
           id="id-290a0646-60d6-42ab-813e-f85fc7fe229a" />
      </g>
    </g>
    <g
       id="id-4077d690-7dc9-4a3d-8022-992769306c7f">
      <g
         id="id-b1be593c-198d-416f-8704-0d00607c63e8">
        <path
           d="m 2.296875,-3.5 c 0.0625,-0.203125 0.15625,-0.59375 0.15625,-0.640625 0,-0.171875 -0.125,-0.265625 -0.296875,-0.265625 -0.015625,0 -0.296875,0.015625 -0.390625,0.359375 l -1.4375,5.765625 c -0.03125,0.125 -0.03125,0.140625 -0.03125,0.171875 0,0.140625 0.109375,0.265625 0.28125,0.265625 0.203125,0 0.328125,-0.1875 0.34375,-0.21875 C 0.96875,1.859375 1.09375,1.328125 1.46875,-0.203125 1.796875,0.0625 2.25,0.109375 2.4375,0.109375 c 0.703125,0 1.09375,-0.453125 1.328125,-0.734375 0.09375,0.453125 0.46875,0.734375 0.90625,0.734375 0.34375,0 0.578125,-0.234375 0.734375,-0.546875 0.171875,-0.359375 0.296875,-0.96875 0.296875,-0.984375 0,-0.109375 -0.09375,-0.109375 -0.125,-0.109375 -0.09375,0 -0.109375,0.046875 -0.140625,0.1875 -0.15625,0.640625 -0.34375,1.234375 -0.75,1.234375 -0.265625,0 -0.296875,-0.265625 -0.296875,-0.453125 0,-0.21875 0.109375,-0.6875 0.1875,-1.046875 L 4.859375,-2.6875 C 4.890625,-2.828125 5,-3.203125 5.03125,-3.359375 5.078125,-3.59375 5.1875,-3.96875 5.1875,-4.03125 c 0,-0.171875 -0.140625,-0.265625 -0.296875,-0.265625 -0.046875,0 -0.3125,0.015625 -0.390625,0.34375 l -0.46875,1.875 c -0.109375,0.5 -0.21875,0.90625 -0.25,1.015625 -0.015625,0.046875 -0.484375,0.953125 -1.296875,0.953125 -0.5,0 -0.734375,-0.328125 -0.734375,-0.875 0,-0.28125 0.0625,-0.5625 0.140625,-0.84375 z m 0,0"
           id="id-35c0f069-87e4-4407-b88f-8ecb26466e53" />
      </g>
      <g
         id="id-f08bc2e0-8998-4f19-a435-bcdce39b4044">
        <path
           d="M 3.515625,-1.265625 H 3.28125 c -0.015625,0.15625 -0.09375,0.5625 -0.1875,0.625 C 3.046875,-0.59375 2.515625,-0.59375 2.40625,-0.59375 H 1.125 c 0.734375,-0.640625 0.984375,-0.84375 1.390625,-1.171875 0.515625,-0.40625 1,-0.84375 1,-1.5 0,-0.84375 -0.734375,-1.359375 -1.625,-1.359375 -0.859375,0 -1.453125,0.609375 -1.453125,1.25 0,0.34375 0.296875,0.390625 0.375,0.390625 0.15625,0 0.359375,-0.125 0.359375,-0.375 0,-0.125 -0.046875,-0.375 -0.40625,-0.375 C 0.984375,-4.21875 1.453125,-4.375 1.78125,-4.375 c 0.703125,0 1.0625,0.546875 1.0625,1.109375 0,0.609375 -0.4375,1.078125 -0.65625,1.328125 L 0.515625,-0.265625 C 0.4375,-0.203125 0.4375,-0.1875 0.4375,0 h 2.875 z m 0,0"
           id="id-a4f6a5f4-ebd8-4b09-992f-d821be5e40d8" />
      </g>
    </g>
    <g
       id="id-bab95e3a-1ab6-4e31-b0f7-5e7543a59d4c">
      <g
         id="id-d033603e-5614-4c27-9405-0b2fd9b97f1b">
        <path
           d="m 2.296875,-3.5 c 0.0625,-0.203125 0.15625,-0.59375 0.15625,-0.640625 0,-0.171875 -0.125,-0.265625 -0.296875,-0.265625 -0.015625,0 -0.296875,0.015625 -0.390625,0.359375 l -1.4375,5.765625 c -0.03125,0.125 -0.03125,0.140625 -0.03125,0.171875 0,0.140625 0.109375,0.265625 0.28125,0.265625 0.203125,0 0.328125,-0.1875 0.34375,-0.21875 C 0.96875,1.859375 1.09375,1.328125 1.46875,-0.203125 1.796875,0.0625 2.25,0.109375 2.4375,0.109375 c 0.703125,0 1.09375,-0.453125 1.328125,-0.734375 0.09375,0.453125 0.46875,0.734375 0.90625,0.734375 0.34375,0 0.578125,-0.234375 0.734375,-0.546875 0.171875,-0.359375 0.296875,-0.96875 0.296875,-0.984375 0,-0.109375 -0.09375,-0.109375 -0.125,-0.109375 -0.09375,0 -0.109375,0.046875 -0.140625,0.1875 -0.15625,0.640625 -0.34375,1.234375 -0.75,1.234375 -0.265625,0 -0.296875,-0.265625 -0.296875,-0.453125 0,-0.21875 0.109375,-0.6875 0.1875,-1.046875 L 4.859375,-2.6875 C 4.890625,-2.828125 5,-3.203125 5.03125,-3.359375 5.078125,-3.59375 5.1875,-3.96875 5.1875,-4.03125 c 0,-0.171875 -0.140625,-0.265625 -0.296875,-0.265625 -0.046875,0 -0.3125,0.015625 -0.390625,0.34375 l -0.46875,1.875 c -0.109375,0.5 -0.21875,0.90625 -0.25,1.015625 -0.015625,0.046875 -0.484375,0.953125 -1.296875,0.953125 -0.5,0 -0.734375,-0.328125 -0.734375,-0.875 0,-0.28125 0.0625,-0.5625 0.140625,-0.84375 z m 0,0"
           id="id-b6009300-3a39-4987-b1b8-5b8400a0e70a" />
      </g>
      <g
         id="id-53227421-c0c6-4583-a5d7-fae3cb6f9baa">
        <path
           d="M 6.734375,-2.265625 C 6.84375,-2.328125 6.921875,-2.375 6.921875,-2.5 c 0,-0.109375 -0.078125,-0.15625 -0.1875,-0.21875 L 1.203125,-5.3125 C 1.078125,-5.390625 1.0625,-5.390625 1.03125,-5.390625 c -0.109375,0 -0.203125,0.09375 -0.203125,0.203125 0,0.09375 0.046875,0.15625 0.1875,0.21875 L 6.25,-2.5 1.015625,-0.015625 c -0.140625,0.0625 -0.1875,0.125 -0.1875,0.21875 0,0.109375 0.09375,0.203125 0.203125,0.203125 0.03125,0 0.046875,0 0.171875,-0.078125 z m 0,0"
           id="id-0ba2fa40-b85e-4386-82f1-564d3b764367" />
      </g>
      <g
         id="id-0c84fb92-a27f-4ea1-bddf-020c8c7ef02e">
        <path
           d="m 2.328125,-4.4375 c 0,-0.1875 0,-0.1875 -0.203125,-0.1875 -0.453125,0.4375 -1.078125,0.4375 -1.359375,0.4375 v 0.25 c 0.15625,0 0.625,0 1,-0.1875 v 3.546875 c 0,0.234375 0,0.328125 -0.6875,0.328125 H 0.8125 V 0 c 0.125,0 0.984375,-0.03125 1.234375,-0.03125 0.21875,0 1.09375,0.03125 1.25,0.03125 V -0.25 H 3.03125 c -0.703125,0 -0.703125,-0.09375 -0.703125,-0.328125 z m 0,0"
           id="id-ec4684e2-0f29-438f-9abe-27283d66e68f" />
      </g>
      <g
         id="id-63d230cd-32ae-4f4b-b788-da64f470e6ed">
        <path
           d="M 3.515625,-1.265625 H 3.28125 c -0.015625,0.15625 -0.09375,0.5625 -0.1875,0.625 C 3.046875,-0.59375 2.515625,-0.59375 2.40625,-0.59375 H 1.125 c 0.734375,-0.640625 0.984375,-0.84375 1.390625,-1.171875 0.515625,-0.40625 1,-0.84375 1,-1.5 0,-0.84375 -0.734375,-1.359375 -1.625,-1.359375 -0.859375,0 -1.453125,0.609375 -1.453125,1.25 0,0.34375 0.296875,0.390625 0.375,0.390625 0.15625,0 0.359375,-0.125 0.359375,-0.375 0,-0.125 -0.046875,-0.375 -0.40625,-0.375 C 0.984375,-4.21875 1.453125,-4.375 1.78125,-4.375 c 0.703125,0 1.0625,0.546875 1.0625,1.109375 0,0.609375 -0.4375,1.078125 -0.65625,1.328125 L 0.515625,-0.265625 C 0.4375,-0.203125 0.4375,-0.1875 0.4375,0 h 2.875 z m 0,0"
           id="id-1a70475b-093e-4e3f-979f-4fd97915439e" />
      </g>
    </g>
  </defs>
  <g
     inkscape:label="Layer 1"
     inkscape:groupmode="layer"
     id="layer1">
    <text
       xml:space="preserve"
       style="font-size:4.9389px;line-height:1.25;font-family:Arial;-inkscape-font-specification:'Arial, Normal';font-variant-ligatures:none;text-align:center;text-anchor:middle;stroke-width:0.264583"
       x="60.518017"
       y="91.984558"
       id="text2"><tspan
         sodipodi:role="line"
         id="tspan2"
         style="stroke-width:0.264583"
         x="60.518017"
         y="91.984558" /></text>
    <text
       xml:space="preserve"
       style="font-size:4.9389px;line-height:1.25;font-family:Arial;-inkscape-font-specification:'Arial, Normal';font-variant-ligatures:none;text-align:center;text-anchor:middle;stroke-width:0.264583"
       x="105.23363"
       y="52.605373"
       id="text3"><tspan
         sodipodi:role="line"
         id="tspan3"
         style="stroke-width:0.264583"
         x="105.23363"
         y="52.605373" /></text>
    <text
       xml:space="preserve"
       style="font-size:4.9389px;line-height:1.25;font-family:Arial;-inkscape-font-specification:'Arial, Normal';font-variant-ligatures:none;text-align:center;text-anchor:middle;stroke-width:0.264583"
       x="164.63045"
       y="92.0522"
       id="text2-5"><tspan
         sodipodi:role="line"
         id="tspan2-1"
         style="stroke-width:0.264583"
         x="164.63045"
         y="92.0522" /></text>
    <text
       xml:space="preserve"
       style="font-size:4.9389px;line-height:1.25;font-family:Arial;-inkscape-font-specification:'Arial, Normal';font-variant-ligatures:none;text-align:center;text-anchor:middle;stroke-width:0.264583"
       x="209.34605"
       y="52.673016"
       id="text3-7"><tspan
         sodipodi:role="line"
         id="tspan3-1"
         style="stroke-width:0.264583"
         x="209.34605"
         y="52.673016" /></text>
    <path
       style="font-size:8.46667px;line-height:1;font-family:Arial;-inkscape-font-specification:'Arial, Normal';text-align:center;text-anchor:middle;white-space:pre-wrap"
       d="M 33.424713,8.2424052 V 6.7913308 H 30.795415 V 6.1092016 l 2.765724,-3.9274104 h 0.607715 v 3.9274104 h 0.818555 v 0.6821292 h -0.818555 v 1.4510744 z m 0,-2.1332036 V 3.3765507 l -1.897559,2.7326509 z m 2.323374,-0.8557621 q 0,-1.0748702 0.219108,-1.7280606 0.223242,-0.6573244 0.657324,-1.0128584 0.438216,-0.355534 1.099675,-0.355534 0.487826,0 0.855762,0.1984375 0.367936,0.1943035 0.607715,0.566374 0.239779,0.3679363 0.376205,0.9012373 0.136426,0.5291669 0.136426,1.4304042 0,1.066602 -0.219109,1.7239265 -0.219108,0.6531903 -0.657324,1.0128582 -0.434082,0.355534 -1.099675,0.355534 -0.876433,0 -1.376661,-0.6283854 -0.599446,-0.7565433 -0.599446,-2.4639333 z m 0.764811,0 q 0,1.492416 0.347266,1.9885099 0.3514,0.4919599 0.86403,0.4919599 0.51263,0 0.859896,-0.496094 0.3514,-0.4960939 0.3514,-1.9843758 0,-1.4965501 -0.3514,-1.9885099 -0.347266,-0.4919598 -0.868164,-0.4919598 -0.512631,0 -0.818555,0.4340822 -0.384473,0.5539716 -0.384473,2.0463875 z m 4.084507,-1.6164394 q 0,-0.6490563 0.326595,-1.1038091 0.326595,-0.4547527 0.946713,-0.4547527 0.570508,0 0.942578,0.4092775 0.376205,0.4051433 0.376205,1.1947595 0,0.7689457 -0.380339,1.1864914 -0.376205,0.4134116 -0.930176,0.4134116 -0.549838,0 -0.917774,-0.4092775 -0.363802,-0.4092775 -0.363802,-1.2361007 z m 1.293978,-1.0459314 q -0.276986,0 -0.463021,0.2397787 -0.181901,0.2397787 -0.181901,0.8805668 0,0.5829104 0.186035,0.8226891 0.186036,0.2356446 0.458887,0.2356446 0.28112,0 0.463021,-0.2397787 0.186035,-0.2397788 0.186035,-0.8764327 0,-0.5870445 -0.186035,-0.8226891 -0.186035,-0.2397787 -0.463021,-0.2397787 z m 0.0041,5.8745792 3.315562,-6.3872096 h 0.60358 l -3.303158,6.3872096 z m 2.62103,-1.6453783 q 0,-0.6531904 0.326595,-1.1038091 0.326595,-0.4547528 0.950847,-0.4547528 0.570508,0 0.942578,0.4092776 0.376205,0.4051433 0.376205,1.1947595 0,0.7689457 -0.380339,1.1864914 -0.376204,0.4134117 -0.93431,0.4134117 -0.549837,0 -0.917774,-0.4092777 -0.363768,-0.4134115 -0.363768,-1.2361006 z m 1.298146,-1.0459314 q -0.281119,0 -0.467155,0.2397787 -0.181901,0.2397787 -0.181901,0.8805668 0,0.5787762 0.186035,0.818555 0.186036,0.2397785 0.458887,0.2397785 0.285254,0 0.467156,-0.2397785 0.186035,-0.2397788 0.186035,-0.8764327 0,-0.5870445 -0.186035,-0.8226891 -0.186036,-0.2397787 -0.463022,-0.2397787 z m 4.452443,0.2728516 q 0,-1.2195643 0.677995,-1.8066088 0.566374,-0.4878257 1.380795,-0.4878257 0.905371,0 1.480013,0.5953128 0.574643,0.5911786 0.574643,1.63711 0,0.8474938 -0.256316,1.3353195 -0.252181,0.4836916 -0.740006,0.7524096 -0.483692,0.268717 -1.058334,0.268717 -0.921908,0 -1.492416,-0.5911785 -0.566374,-0.5911786 -0.566374,-1.7032559 z m 0.764811,0 q 0,0.8433597 0.367937,1.2650396 0.367936,0.4175457 0.926042,0.4175457 0.553971,0 0.921908,-0.4216798 0.367936,-0.4216799 0.367936,-1.2857102 0,-0.8144209 -0.37207,-1.2319666 -0.367937,-0.4216799 -0.917774,-0.4216799 -0.558106,0 -0.926042,0.4175458 -0.367937,0.4175457 -0.367937,1.2609054 z m 4.398701,2.1952154 V 4.4307504 H 54.77329 V 3.8519741 h 0.657324 V 3.384819 q 0,-0.4423505 0.07855,-0.6573245 0.107487,-0.2893881 0.376205,-0.4671551 0.272851,-0.1819011 0.760677,-0.1819011 0.314193,0 0.694532,0.074414 l -0.111621,0.6490563 q -0.231511,-0.041341 -0.438217,-0.041341 -0.338997,0 -0.479557,0.1446941 -0.14056,0.1446941 -0.14056,0.5415692 v 0.4051434 h 0.855762 v 0.5787763 h -0.855762 v 3.8116546 z m 4.526857,1.6825851 V 3.8519741 h 0.677995 v 0.5705081 q 0.239779,-0.3348635 0.541569,-0.5002281 0.301791,-0.1694988 0.731739,-0.1694988 0.56224,0 0.992188,0.2893882 0.429948,0.2893881 0.649056,0.818555 0.219108,0.5250327 0.219108,1.1534184 0,0.6738609 -0.243913,1.2154302 -0.239778,0.5374351 -0.702799,0.8268231 -0.458887,0.285254 -0.967383,0.285254 -0.372071,0 -0.669727,-0.157096 -0.293523,-0.157097 -0.483692,-0.3968754 v 2.1373375 z m 0.673861,-3.8529958 q 0,0.8474939 0.343132,1.2526372 0.343131,0.4051434 0.830957,0.4051434 0.496094,0 0.847494,-0.4175457 0.355534,-0.4216799 0.355534,-1.3022466 0,-0.8392256 -0.347266,-1.2567713 -0.343131,-0.4175458 -0.822689,-0.4175458 -0.475423,0 -0.84336,0.4464846 -0.363802,0.4423504 -0.363802,1.2898442 z m 3.757913,-0.024805 q 0,-1.2195643 0.677995,-1.8066088 0.566374,-0.4878257 1.380795,-0.4878257 0.905371,0 1.480013,0.5953128 0.574642,0.5911786 0.574642,1.63711 0,0.8474938 -0.256315,1.3353195 -0.252181,0.4836916 -0.740007,0.7524099 -0.483691,0.268717 -1.058333,0.268717 -0.921908,0 -1.492416,-0.5911788 -0.566374,-0.5911786 -0.566374,-1.7032559 z m 0.764811,0 q 0,0.8433597 0.367937,1.2650396 0.367936,0.4175457 0.926042,0.4175457 0.553971,0 0.921908,-0.4216798 0.367936,-0.4216799 0.367936,-1.2857102 0,-0.8144209 -0.372071,-1.2319666 -0.367936,-0.4216799 -0.917773,-0.4216799 -0.558106,0 -0.926042,0.4175458 -0.367937,0.4175457 -0.367937,1.2609054 z m 4.22093,3.8778008 V 3.8519741 h 0.677995 v 0.5705081 q 0.239779,-0.3348635 0.541569,-0.5002281 0.301791,-0.1694988 0.731739,-0.1694988 0.56224,0 0.992188,0.2893882 0.429948,0.2893881 0.649056,0.818555 0.219108,0.5250327 0.219108,1.1534184 0,0.6738609 -0.243913,1.2154302 -0.239778,0.5374351 -0.702799,0.8268231 -0.458887,0.285254 -0.967384,0.285254 -0.37207,0 -0.669726,-0.157096 -0.293523,-0.157097 -0.483692,-0.3968754 v 2.1373375 z m 0.673861,-3.8529961 q 0,0.8474939 0.343132,1.2526372 0.343131,0.4051434 0.830957,0.4051434 0.496094,0 0.847494,-0.4175457 0.355534,-0.4216799 0.355534,-1.3022466 0,-0.8392256 -0.347266,-1.2567713 -0.343132,-0.4175458 -0.822689,-0.4175458 -0.475423,0 -0.84336,0.4464846 -0.363802,0.4423504 -0.363802,1.2898442 z m 6.912243,2.170411 V 7.5974834 q -0.51263,0.7441408 -1.393197,0.7441408 -0.388607,0 -0.727604,-0.148828 Q 74.505425,8.0439682 74.340061,7.8207257 74.17883,7.5933493 74.112684,7.2667541 74.067209,7.047646 74.067209,6.5722226 V 3.8519741 h 0.744141 v 2.4349945 q 0,0.5829104 0.04547,0.7854821 0.07028,0.2935222 0.297656,0.463021 0.227377,0.1653646 0.56224,0.1653646 0.334864,0 0.628386,-0.1694987 0.293522,-0.1736329 0.413411,-0.4671552 0.124024,-0.2976563 0.124024,-0.8598962 V 3.8519741 h 0.744141 v 4.3904311 z m 1.814878,0 v -6.060614 h 0.744141 v 6.060614 z M 83.538471,7.700836 q -0.413412,0.3514002 -0.797885,0.4960942 -0.380339,0.144694 -0.818555,0.144694 -0.72347,0 -1.112077,-0.3514 -0.388607,-0.355534 -0.388607,-0.9053715 0,-0.3224611 0.144694,-0.5870445 0.148828,-0.2687176 0.384473,-0.4299481 0.239779,-0.1612305 0.537435,-0.2439128 0.219108,-0.057878 0.661459,-0.1116212 0.901237,-0.107487 1.327051,-0.2563152 0.0041,-0.1529623 0.0041,-0.1943035 0,-0.4547527 -0.21084,-0.640788 -0.285254,-0.2521811 -0.847494,-0.2521811 -0.525033,0 -0.777214,0.1860353 -0.248047,0.1819011 -0.367936,0.6490562 l -0.727604,-0.099219 q 0.09922,-0.4671551 0.326595,-0.7524091 0.227376,-0.2893882 0.657324,-0.4423505 0.429948,-0.1570964 0.996322,-0.1570964 0.56224,0 0.91364,0.1322917 0.3514,0.1322918 0.516764,0.3348635 0.165365,0.1984375 0.231511,0.5043621 0.03721,0.1901694 0.03721,0.6862633 v 0.9921879 q 0,1.0376632 0.04547,1.314649 0.04961,0.2728509 0.19017,0.5250319 H 83.687299 Q 83.571543,8.0108952 83.538471,7.700836 Z m -0.06201,-1.6619147 q -0.405144,0.1653646 -1.21543,0.2811199 -0.458887,0.066146 -0.649057,0.1488282 -0.190169,0.082682 -0.293522,0.2439128 -0.103353,0.1570965 -0.103353,0.3513999 0,0.2976564 0.223243,0.496094 0.227376,0.1984376 0.661458,0.1984376 0.429948,0 0.764812,-0.1860353 0.334863,-0.1901693 0.491959,-0.5167645 0.11989,-0.2521811 0.11989,-0.7441409 z m 3.530536,1.5378912 0.107487,0.6573247 q -0.314193,0.06615 -0.56224,0.06615 -0.405143,0 -0.628385,-0.128158 -0.223245,-0.128161 -0.314195,-0.334867 -0.09095,-0.21084 -0.09095,-0.8805668 V 4.4307504 H 84.97301 V 3.8519741 h 0.545703 V 2.7647015 L 86.25872,2.318217 v 1.5337571 h 0.748275 V 4.4307504 H 86.25872 v 2.5672862 q 0,0.3183269 0.03721,0.4092775 0.04134,0.09095 0.128158,0.144694 0.09095,0.053744 0.256315,0.053744 0.124023,0 0.326595,-0.028939 z m 0.731735,-4.5392593 v -0.855762 h 0.744141 v 0.855762 z m 0,5.204852 V 3.8519741 h 0.744141 v 4.3904311 z m 1.599903,-2.1952154 q 0,-1.2195643 0.677995,-1.8066088 0.566374,-0.4878257 1.380795,-0.4878257 0.905371,0 1.480014,0.5953128 0.574642,0.5911786 0.574642,1.63711 0,0.8474938 -0.256315,1.3353195 -0.252182,0.4836916 -0.740007,0.7524096 -0.483692,0.268717 -1.058334,0.268717 -0.921908,0 -1.492416,-0.5911785 -0.566374,-0.5911786 -0.566374,-1.7032559 z m 0.764812,0 q 0,0.8433597 0.367936,1.2650396 0.367936,0.4175457 0.926042,0.4175457 0.553972,0 0.921908,-0.4216798 0.367936,-0.4216799 0.367936,-1.2857102 0,-0.8144209 -0.37207,-1.2319666 -0.367937,-0.4216799 -0.917774,-0.4216799 -0.558106,0 -0.926042,0.4175458 -0.367936,0.4175457 -0.367936,1.2609054 z m 4.220936,2.1952154 V 3.8519741 H 94.9941 v 0.6242516 q 0.483697,-0.7234704 1.397331,-0.7234704 0.39687,0 0.727597,0.1446941 0.334857,0.1405599 0.500227,0.3720705 0.16536,0.2315105 0.23151,0.5498374 0.0413,0.2067058 0.0413,0.7234704 V 8.2424052 H 97.147928 V 5.5717665 q 0,-0.4547528 -0.0868,-0.6779951 -0.0868,-0.2273764 -0.310057,-0.3596681 -0.2191,-0.1364258 -0.516757,-0.1364258 -0.475417,0 -0.822687,0.3017904 Q 95.0685,5.0012584 95.0685,5.8446181 v 2.3977871 z m 7.061027,0 v -6.060614 h 0.74414 v 2.1745451 q 0.5209,-0.603581 1.31465,-0.603581 0.48783,0 0.8475,0.1943035 0.35966,0.1901693 0.51263,0.5291669 0.15709,0.3389975 0.15709,0.9839196 v 2.7822599 h -0.74414 V 5.4601453 q 0,-0.5581057 -0.24391,-0.8102868 -0.23978,-0.2563152 -0.68213,-0.2563152 -0.33073,0 -0.62425,0.1736329 -0.28939,0.1694988 -0.41341,0.463021 -0.12403,0.2935223 -0.12403,0.8102868 v 2.4019212 z m 7.57371,-0.5415689 q -0.41341,0.3513999 -0.79789,0.4960939 -0.38033,0.144694 -0.81855,0.144694 -0.72347,0 -1.11208,-0.3514 -0.38861,-0.3555337 -0.38861,-0.9053712 0,-0.3224611 0.1447,-0.5870445 0.14883,-0.2687176 0.38447,-0.4299481 0.23978,-0.1612305 0.53744,-0.2439128 0.21911,-0.057878 0.66146,-0.1116212 0.90123,-0.107487 1.32705,-0.2563152 0.004,-0.1529623 0.004,-0.1943035 0,-0.4547527 -0.21084,-0.640788 -0.28525,-0.2521811 -0.84749,-0.2521811 -0.52504,0 -0.77722,0.1860353 -0.24804,0.1819011 -0.36793,0.6490562 l -0.72761,-0.099219 q 0.0992,-0.4671551 0.3266,-0.7524091 0.22737,-0.2893882 0.65732,-0.4423505 0.42995,-0.1570964 0.99632,-0.1570964 0.56224,0 0.91364,0.1322917 0.3514,0.1322918 0.51677,0.3348635 0.16536,0.1984375 0.23151,0.5043621 0.0372,0.1901694 0.0372,0.6862633 v 0.9921879 q 0,1.0376632 0.0455,1.314649 0.0496,0.2728516 0.19017,0.5250326 h -0.77721 q -0.11576,-0.23151 -0.14883,-0.5415691 z m -0.062,-1.6619147 q -0.40515,0.1653646 -1.21543,0.2811199 -0.45889,0.066146 -0.64906,0.1488282 -0.19017,0.082682 -0.29352,0.2439128 -0.10335,0.1570965 -0.10335,0.3513999 0,0.2976564 0.22324,0.496094 0.22737,0.1984376 0.66146,0.1984376 0.42994,0 0.76481,-0.1860353 0.33486,-0.1901693 0.49196,-0.5167645 0.11989,-0.2521811 0.11989,-0.7441409 z m 1.60817,0.8929691 0.73587,-0.1157552 q 0.062,0.4423504 0.34313,0.677995 0.28525,0.2356446 0.79375,0.2356446 0.51263,0 0.76068,-0.2067058 0.24804,-0.2108399 0.24804,-0.4919598 0,-0.2521811 -0.2191,-0.3968752 -0.15297,-0.099219 -0.76068,-0.2521811 -0.81856,-0.2067058 -1.13688,-0.3555339 -0.3142,-0.1529623 -0.47956,-0.4175458 -0.16123,-0.2687175 -0.16123,-0.5911786 0,-0.2935223 0.13229,-0.5415692 0.13643,-0.2521811 0.36794,-0.4175458 0.17363,-0.1281576 0.47129,-0.214974 0.30179,-0.090951 0.64492,-0.090951 0.51676,0 0.90537,0.1488282 0.39274,0.1488282 0.57878,0.4051434 0.18603,0.2521811 0.25631,0.6779951 l -0.7276,0.099219 q -0.0496,-0.3389976 -0.28939,-0.5291669 -0.23565,-0.1901694 -0.66973,-0.1901694 -0.51263,0 -0.73174,0.1694988 -0.21911,0.1694988 -0.21911,0.3968752 0,0.144694 0.091,0.2604493 0.091,0.1198893 0.28525,0.1984376 0.11162,0.041341 0.65732,0.1901693 0.78962,0.2108399 1.09968,0.3472658 0.31419,0.1322917 0.49196,0.3886069 0.17777,0.2563152 0.17777,0.6366539 0,0.3720704 -0.21911,0.7027997 -0.21498,0.3265954 -0.62425,0.5084964 -0.40928,0.177767 -0.92605,0.177767 -0.85576,0 -1.30638,-0.355534 -0.44648,-0.3555341 -0.5705,-1.0541997 z m 9.74824,0.7689456 q -0.41341,0.3513999 -0.79788,0.4960939 -0.38034,0.144694 -0.81856,0.144694 -0.72347,0 -1.11208,-0.3514 -0.3886,-0.3555337 -0.3886,-0.9053712 0,-0.3224611 0.14469,-0.5870445 0.14883,-0.2687176 0.38447,-0.4299481 0.23978,-0.1612305 0.53744,-0.2439128 0.21911,-0.057878 0.66146,-0.1116212 0.90124,-0.107487 1.32705,-0.2563152 0.004,-0.1529623 0.004,-0.1943035 0,-0.4547527 -0.21084,-0.640788 -0.28525,-0.2521811 -0.84749,-0.2521811 -0.52503,0 -0.77721,0.1860353 -0.24805,0.1819011 -0.36794,0.6490562 l -0.7276,-0.099219 q 0.0992,-0.4671551 0.32659,-0.7524091 0.22738,-0.2893882 0.65733,-0.4423505 0.42994,-0.1570964 0.99632,-0.1570964 0.56224,0 0.91364,0.1322917 0.3514,0.1322918 0.51676,0.3348635 0.16537,0.1984375 0.23151,0.5043621 0.0372,0.1901694 0.0372,0.6862633 v 0.9921879 q 0,1.0376632 0.0455,1.314649 0.0496,0.2728516 0.19017,0.5250326 h -0.77721 q -0.11576,-0.23151 -0.14883,-0.5415691 z m -0.062,-1.6619147 q -0.40514,0.1653646 -1.21543,0.2811199 -0.45889,0.066146 -0.64906,0.1488282 -0.19017,0.082682 -0.29352,0.2439128 -0.10335,0.1570965 -0.10335,0.3513999 0,0.2976564 0.22324,0.496094 0.22738,0.1984376 0.66146,0.1984376 0.42995,0 0.76481,-0.1860353 0.33486,-0.1901693 0.49196,-0.5167645 0.11989,-0.2521811 0.11989,-0.7441409 z m 5.47771,2.2034836 -1.67019,-4.3904311 h 0.78549 l 0.94257,2.6292979 q 0.15297,0.425814 0.28112,0.8847009 0.0992,-0.3472658 0.27699,-0.8350915 l 0.97565,-2.6789073 h 0.76481 l -1.66191,4.3904311 z m 6.01926,-1.4138674 0.76895,0.095085 q -0.1819,0.6738609 -0.67386,1.0459314 -0.49196,0.37207 -1.25677,0.37207 -0.96325,0 -1.52963,-0.5911782 -0.56223,-0.5953127 -0.56223,-1.6660488 0,-1.1079432 0.5705,-1.7197924 0.57051,-0.6118492 1.48002,-0.6118492 0.88056,0 1.43867,0.5994469 0.5581,0.5994468 0.5581,1.6867194 0,0.066146 -0.004,0.1984376 h -3.27422 q 0.0413,0.7234703 0.40928,1.1079431 0.36793,0.3844728 0.91777,0.3844728 0.40928,0 0.69867,-0.214974 0.28939,-0.2149741 0.45888,-0.6862633 z M 129.24524,5.62551 h 2.45153 q -0.0496,-0.5539716 -0.28112,-0.8309574 -0.35553,-0.4299481 -0.9219,-0.4299481 -0.51264,0 -0.86404,0.3431317 -0.34726,0.3431316 -0.38447,0.9177738 z m 4.14653,2.6168952 v -6.060614 h 0.74414 v 2.1745451 q 0.52089,-0.603581 1.31465,-0.603581 0.48782,0 0.84749,0.1943035 0.35967,0.1901693 0.51263,0.5291669 0.1571,0.3389975 0.1571,0.9839196 v 2.7822599 h -0.74415 V 5.4601453 q 0,-0.5581057 -0.24391,-0.8102868 -0.23978,-0.2563152 -0.68213,-0.2563152 -0.33073,0 -0.62425,0.1736329 -0.28939,0.1694988 -0.41341,0.463021 -0.12402,0.2935223 -0.12402,0.8102868 v 2.4019212 z m 4.71286,-5.204852 v -0.855762 h 0.74415 v 0.855762 z m 0,5.204852 V 3.8519741 h 0.74415 v 4.3904311 z m 4.74184,-1.6081709 0.73174,0.095085 q -0.11989,0.7565433 -0.61598,1.1864909 -0.49196,0.425814 -1.2113,0.425814 -0.90124,0 -1.45108,-0.5870441 -0.5457,-0.5911786 -0.5457,-1.6908535 0,-0.711068 0.23565,-1.244369 0.23564,-0.533301 0.7152,-0.7978844 0.48369,-0.2687176 1.05006,-0.2687176 0.71521,0 1.16996,0.3638023 0.45475,0.3596681 0.58291,1.0252608 l -0.72347,0.1116211 q -0.10335,-0.4423504 -0.36794,-0.6655927 -0.26045,-0.2232423 -0.63252,-0.2232423 -0.56224,0 -0.91364,0.4051434 -0.3514,0.4010093 -0.3514,1.2733078 0,0.8847009 0.339,1.2857102 0.339,0.4010092 0.8847,0.4010092 0.43822,0 0.73174,-0.2687175 0.29352,-0.2687176 0.37207,-0.8268236 z m 1.35185,1.6081709 v -6.060614 h 0.74414 v 6.060614 z m 4.90307,-1.4138674 0.76894,0.095085 q -0.1819,0.6738609 -0.67386,1.0459314 -0.49196,0.37207 -1.25677,0.37207 -0.96325,0 -1.52962,-0.5911782 -0.56224,-0.5953127 -0.56224,-1.6660488 0,-1.1079432 0.57051,-1.7197924 0.5705,-0.6118492 1.48001,-0.6118492 0.88057,0 1.43867,0.5994469 0.55811,0.5994468 0.55811,1.6867194 0,0.066146 -0.004,0.1984376 h -3.27422 q 0.0413,0.7234703 0.40928,1.1079431 0.36794,0.3844728 0.91777,0.3844728 0.40928,0 0.69867,-0.214974 0.28939,-0.2149741 0.45889,-0.6862633 z M 146.65812,5.62551 h 2.45154 q -0.0496,-0.5539716 -0.28112,-0.8309574 -0.35554,-0.4299481 -0.92191,-0.4299481 -0.51263,0 -0.86403,0.3431317 -0.34727,0.3431316 -0.38448,0.9177738 z"
       id="text1"
       aria-label="40% of population has a vehicle" />
    <path
       style="font-size:8.46667px;line-height:1;font-family:Arial;-inkscape-font-specification:'Arial, Normal';text-align:center;text-anchor:middle;white-space:pre-wrap"
       d="M 4.3039223,28.960646 V 22.90003 H 5.105941 v 2.488739 H 8.2561362 V 22.90003 h 0.8020174 v 6.060615 H 8.2561362 V 26.10397 H 5.105941 v 2.856675 z m 5.9985997,-5.204853 v -0.855762 h 0.744141 v 0.855762 z m 0,5.204853 v -4.390432 h 0.744141 v 4.390432 z m 1.740463,0.363802 0.72347,0.107486 q 0.04548,0.334864 0.252182,0.487826 0.276985,0.206705 0.756543,0.206705 0.516764,0 0.797884,-0.206705 0.28112,-0.206705 0.380339,-0.578776 0.05788,-0.227376 0.05374,-0.954981 -0.487825,0.574643 -1.21543,0.574643 -0.905371,0 -1.401465,-0.653191 -0.496094,-0.65319 -0.496094,-1.56683 0,-0.628385 0.227376,-1.157552 0.227377,-0.533301 0.657325,-0.822689 0.434082,-0.289389 1.016992,-0.289389 0.777214,0 1.281576,0.628386 v -0.529167 h 0.686264 v 3.795119 q 0,1.025261 -0.21084,1.451075 -0.206706,0.429948 -0.661459,0.677995 -0.450618,0.248047 -1.112077,0.248047 -0.785482,0 -1.269174,-0.355534 -0.483691,-0.3514 -0.467155,-1.062468 z m 0.615983,-2.637566 q 0,0.86403 0.343132,1.260905 0.343132,0.396875 0.859896,0.396875 0.512631,0 0.859896,-0.392741 0.347266,-0.396875 0.347266,-1.240235 0,-0.806152 -0.359668,-1.21543 -0.355534,-0.409277 -0.859896,-0.409277 -0.496094,0 -0.84336,0.405143 -0.347266,0.401009 -0.347266,1.19476 z m 4.229202,2.273764 V 22.90003 h 0.744141 v 2.174546 q 0.520898,-0.603581 1.314649,-0.603581 0.487825,0 0.847494,0.194304 0.359668,0.190169 0.51263,0.529167 0.157096,0.338997 0.157096,0.983919 v 2.782261 h -0.744141 v -2.782261 q 0,-0.558105 -0.243912,-0.810286 -0.239779,-0.256316 -0.68213,-0.256316 -0.330729,0 -0.624251,0.173633 -0.289388,0.169499 -0.413412,0.463021 -0.124023,0.293523 -0.124023,0.810287 v 2.401922 z m 7.71426,-1.413868 0.768945,0.09509 q -0.181901,0.673861 -0.673861,1.045931 -0.491959,0.37207 -1.256771,0.37207 -0.963249,0 -1.529623,-0.591177 -0.56224,-0.595314 -0.56224,-1.66605 0,-1.107942 0.570508,-1.719791 0.570508,-0.61185 1.480014,-0.61185 0.880567,0 1.438672,0.599447 0.558106,0.599447 0.558106,1.68672 0,0.06615 -0.0041,0.198437 h -3.27422 q 0.04134,0.723471 0.409277,1.107943 0.367937,0.384473 0.917774,0.384473 0.409278,0 0.698666,-0.214975 0.289388,-0.214974 0.458887,-0.686263 z M 22.159167,26.34375 h 2.451531 q -0.04961,-0.553973 -0.28112,-0.830958 -0.355534,-0.429948 -0.921908,-0.429948 -0.51263,0 -0.86403,0.343131 -0.347266,0.343132 -0.384473,0.917775 z m 4.138251,2.616896 v -4.390432 h 0.669727 v 0.665593 q 0.256315,-0.467155 0.471289,-0.615983 0.219109,-0.148829 0.479558,-0.148829 0.376204,0 0.764811,0.239779 l -0.256315,0.690397 q -0.272852,-0.161231 -0.545703,-0.161231 -0.243913,0 -0.438217,0.148829 -0.194303,0.144694 -0.276985,0.405144 -0.124024,0.396875 -0.124024,0.868164 v 2.298569 z m 5.411559,0 V 22.90003 h 0.802018 v 6.060615 z m 2.120801,0 v -4.390432 h 0.669727 v 0.624251 q 0.483692,-0.723471 1.397331,-0.723471 0.396876,0 0.727605,0.144695 0.334863,0.14056 0.500228,0.37207 0.165365,0.23151 0.23151,0.549837 0.04134,0.206706 0.04134,0.723471 v 2.699578 H 36.65338 v -2.670638 q 0,-0.454753 -0.08682,-0.677996 -0.08682,-0.227376 -0.310059,-0.359668 -0.219108,-0.136425 -0.516764,-0.136425 -0.475423,0 -0.822689,0.30179 -0.343132,0.30179 -0.343132,1.14515 v 2.397788 z m 7.573702,-1.608172 0.731739,0.09509 q -0.11989,0.756543 -0.615984,1.186491 -0.491959,0.425813 -1.211296,0.425813 -0.901237,0 -1.451074,-0.587043 -0.545704,-0.591179 -0.545704,-1.690855 0,-0.711068 0.235645,-1.244368 Q 38.78245,25.0043 39.262008,24.739718 39.7457,24.471 40.312073,24.471 q 0.715203,0 1.169955,0.363803 0.454753,0.359668 0.582911,1.02526 l -0.723471,0.111622 q -0.103353,-0.442351 -0.367936,-0.665593 -0.260449,-0.223242 -0.63252,-0.223242 -0.56224,0 -0.913639,0.405143 -0.3514,0.401008 -0.3514,1.273308 0,0.8847 0.338997,1.285709 0.338998,0.401009 0.884701,0.401009 0.438216,0 0.731739,-0.268717 0.293522,-0.268718 0.37207,-0.826824 z m 1.091405,-0.587044 q 0,-1.219564 0.677995,-1.806609 0.566374,-0.487826 1.380795,-0.487826 0.905372,0 1.480014,0.595313 0.574642,0.591179 0.574642,1.63711 0,0.847494 -0.256315,1.33532 -0.252181,0.483691 -0.740007,0.752409 -0.483692,0.268717 -1.058334,0.268717 -0.921908,0 -1.492416,-0.591178 -0.566374,-0.591179 -0.566374,-1.703256 z m 0.764812,0 q 0,0.84336 0.367936,1.265039 0.367937,0.417546 0.926042,0.417546 0.553972,0 0.921908,-0.42168 0.367937,-0.42168 0.367937,-1.28571 0,-0.814421 -0.372071,-1.231966 -0.367936,-0.42168 -0.917774,-0.42168 -0.558105,0 -0.926042,0.417545 -0.367936,0.417546 -0.367936,1.260906 z m 4.220933,2.195216 v -4.390432 h 0.665593 v 0.615983 q 0.206706,-0.322461 0.549838,-0.516764 0.343131,-0.198438 0.781348,-0.198438 0.487825,0 0.797884,0.202572 0.314193,0.202572 0.44235,0.566374 0.520899,-0.768946 1.355991,-0.768946 0.65319,0 1.00459,0.363803 0.3514,0.359668 0.3514,1.112077 v 3.013771 h -0.740007 v -2.765724 q 0,-0.446485 -0.07441,-0.640788 -0.07028,-0.198438 -0.26045,-0.318327 -0.190169,-0.119889 -0.446484,-0.119889 -0.463021,0 -0.768946,0.310058 -0.305924,0.305925 -0.305924,0.98392 v 2.55075 h -0.744141 v -2.852541 q 0,-0.496094 -0.181901,-0.744141 -0.181901,-0.248046 -0.595313,-0.248046 -0.314193,0 -0.58291,0.165364 -0.264584,0.165365 -0.384473,0.483692 -0.11989,0.318327 -0.11989,0.917774 v 2.277898 z m 10.058302,-1.413868 0.768946,0.09509 q -0.181901,0.673861 -0.673861,1.045931 -0.49196,0.37207 -1.256771,0.37207 -0.96325,0 -1.529623,-0.591177 -0.56224,-0.595314 -0.56224,-1.66605 0,-1.107942 0.570508,-1.719791 0.570508,-0.61185 1.480013,-0.61185 0.880567,0 1.438673,0.599447 0.558105,0.599447 0.558105,1.68672 0,0.06615 -0.0041,0.198437 h -3.27422 q 0.04134,0.723471 0.409278,1.107943 0.367936,0.384473 0.917774,0.384473 0.409277,0 0.698665,-0.214975 0.289388,-0.214974 0.458887,-0.686263 z M 55.095669,26.34375 H 57.5472 q -0.04961,-0.553973 -0.281119,-0.830958 -0.355534,-0.429948 -0.921908,-0.429948 -0.512631,0 -0.864031,0.343131 -0.347265,0.343132 -0.384473,0.917775 z m 7.92097,4.398699 q -0.615983,-0.777214 -1.041797,-1.819011 -0.425814,-1.041798 -0.425814,-2.158009 0,-0.98392 0.318327,-1.885157 0.37207,-1.045932 1.149284,-2.083594 h 0.533301 q -0.500228,0.859895 -0.661459,1.227833 -0.252181,0.570508 -0.396875,1.190625 -0.177767,0.77308 -0.177767,1.554428 0,1.98851 1.236101,3.972886 z m 5.051888,-6.358271 -0.740006,0.05788 q -0.09922,-0.438217 -0.28112,-0.636654 -0.301791,-0.318327 -0.744141,-0.318327 -0.355534,0 -0.624252,0.198437 -0.3514,0.256315 -0.553971,0.748275 -0.202572,0.49196 -0.21084,1.401466 0.268717,-0.409278 0.657324,-0.607715 0.388607,-0.198438 0.814421,-0.198438 0.744141,0 1.26504,0.549838 0.525032,0.545703 0.525032,1.413867 0,0.570508 -0.248047,1.062468 -0.243912,0.487826 -0.673861,0.748275 -0.429948,0.26045 -0.975651,0.26045 -0.930176,0 -1.517221,-0.68213 -0.587044,-0.686263 -0.587044,-2.257227 0,-1.757 0.649056,-2.554884 0.566374,-0.694531 1.525489,-0.694531 0.715202,0 1.169955,0.401009 0.458887,0.401009 0.549837,1.107943 z m -3.038575,2.612761 q 0,0.384473 0.16123,0.735873 0.165365,0.3514 0.458887,0.537435 0.293523,0.181901 0.615984,0.181901 0.471289,0 0.810286,-0.380338 0.338998,-0.380339 0.338998,-1.033529 0,-0.628386 -0.334863,-0.988054 -0.334864,-0.363802 -0.84336,-0.363802 -0.504362,0 -0.855762,0.363802 -0.3514,0.359668 -0.3514,0.946712 z m 3.88607,-1.02526 q 0,-1.074871 0.219108,-1.728061 0.223243,-0.657324 0.657325,-1.012858 0.438216,-0.355534 1.099675,-0.355534 0.487825,0 0.855762,0.198437 0.367936,0.194304 0.607715,0.566374 0.239779,0.367936 0.376204,0.901237 0.136426,0.529167 0.136426,1.430405 0,1.066602 -0.219108,1.723926 -0.219108,0.65319 -0.657324,1.012859 -0.434083,0.355534 -1.099675,0.355534 -0.876433,0 -1.376661,-0.628386 -0.599447,-0.756543 -0.599447,-2.463933 z m 0.764812,0 q 0,1.492416 0.347265,1.988509 0.3514,0.49196 0.864031,0.49196 0.51263,0 0.859896,-0.496094 0.3514,-0.496094 0.3514,-1.984375 0,-1.496551 -0.3514,-1.98851 -0.347266,-0.49196 -0.868165,-0.49196 -0.51263,0 -0.818555,0.434082 -0.384472,0.553972 -0.384472,2.046388 z m 4.084504,-1.61644 q 0,-0.649056 0.326595,-1.103809 0.326595,-0.454753 0.946712,-0.454753 0.570508,0 0.942579,0.409278 0.376204,0.405143 0.376204,1.194759 0,0.768946 -0.380338,1.186493 -0.376205,0.413411 -0.930176,0.413411 -0.549838,0 -0.917774,-0.409277 -0.363802,-0.409278 -0.363802,-1.236102 z m 1.293978,-1.045931 q -0.276986,0 -0.463021,0.239778 -0.181901,0.239779 -0.181901,0.880567 0,0.582911 0.186035,0.822689 0.186035,0.235645 0.458887,0.235645 0.28112,0 0.463021,-0.239779 0.186035,-0.239778 0.186035,-0.876432 0,-0.587045 -0.186035,-0.82269 -0.186035,-0.239778 -0.463021,-0.239778 z m 0.0041,5.874579 3.315561,-6.38721 h 0.603581 l -3.303159,6.38721 z m 2.62103,-1.645378 q 0,-0.653191 0.326595,-1.103809 0.326595,-0.454753 0.950847,-0.454753 0.570508,0 0.942578,0.409277 0.376205,0.405144 0.376205,1.19476 0,0.768946 -0.380339,1.186491 -0.376205,0.413412 -0.93431,0.413412 -0.549838,0 -0.917774,-0.409278 -0.363802,-0.413411 -0.363802,-1.2361 z m 1.298112,-1.045932 q -0.28112,0 -0.467155,0.239779 -0.181901,0.239779 -0.181901,0.880567 0,0.578776 0.186035,0.818555 0.186035,0.239778 0.458887,0.239778 0.285254,0 0.467155,-0.239778 0.186035,-0.239779 0.186035,-0.876433 0,-0.587044 -0.186035,-0.822689 -0.186035,-0.239779 -0.463021,-0.239779 z m 2.864946,4.249872 h -0.533301 q 1.236101,-1.984376 1.236101,-3.972886 0,-0.777214 -0.177767,-1.542025 -0.14056,-0.620118 -0.392741,-1.190626 -0.161231,-0.37207 -0.665593,-1.240235 h 0.533301 q 0.777214,1.037663 1.149284,2.083595 0.318327,0.901237 0.318327,1.885157 0,1.116211 -0.429948,2.158009 -0.425814,1.041797 -1.037663,1.819011 z"
       id="text1-2"
       aria-label="Higher Income (60%)" />
    <path
       d="m 101.34472,28.960645 v -6.060614 h 0.80202 v 5.345412 h 2.98483 v 0.715202 z m 4.36976,-2.195216 q 0,-1.219564 0.678,-1.806609 0.56637,-0.487825 1.38079,-0.487825 0.90538,0 1.48002,0.595312 0.57464,0.591179 0.57464,1.637111 0,0.847493 -0.25632,1.335319 -0.25218,0.483692 -0.74,0.752409 -0.48369,0.268718 -1.05834,0.268718 -0.9219,0 -1.49241,-0.591179 -0.56638,-0.591178 -0.56638,-1.703256 z m 0.76482,0 q 0,0.84336 0.36793,1.26504 0.36794,0.417546 0.92604,0.417546 0.55398,0 0.92191,-0.42168 0.36794,-0.42168 0.36794,-1.28571 0,-0.814421 -0.37207,-1.231967 -0.36794,-0.42168 -0.91778,-0.42168 -0.5581,0 -0.92604,0.417546 -0.36793,0.417546 -0.36793,1.260905 z m 5.03122,2.195216 -1.34359,-4.390431 h 0.76894 l 0.69867,2.534213 0.26045,0.942578 q 0.0165,-0.07028 0.22737,-0.905371 l 0.69867,-2.57142 h 0.76481 l 0.65733,2.546615 0.2191,0.839226 0.25219,-0.847494 0.7524,-2.538347 h 0.72347 l -1.37252,4.390431 h -0.77308 l -0.69867,-2.629298 -0.1695,-0.748275 -0.88883,3.377573 z m 8.30957,-1.413868 0.76894,0.09509 q -0.1819,0.673861 -0.67386,1.045931 -0.49196,0.372071 -1.25677,0.372071 -0.96325,0 -1.52962,-0.591179 -0.56224,-0.595313 -0.56224,-1.666049 0,-1.107943 0.57051,-1.719792 0.57051,-0.611849 1.48001,-0.611849 0.88057,0 1.43867,0.599447 0.55811,0.599446 0.55811,1.686719 0,0.06615 -0.004,0.198438 h -3.27423 q 0.0413,0.72347 0.40928,1.107943 0.36794,0.384473 0.91778,0.384473 0.40927,0 0.69866,-0.214974 0.28939,-0.214975 0.45889,-0.686264 z m -2.44326,-1.203028 h 2.45153 q -0.0496,-0.553971 -0.28112,-0.830957 -0.35554,-0.429948 -0.92191,-0.429948 -0.51263,0 -0.86403,0.343132 -0.34727,0.343131 -0.38447,0.917773 z m 4.13825,2.616896 v -4.390431 h 0.66972 v 0.665592 q 0.25632,-0.467155 0.47129,-0.615983 0.21911,-0.148828 0.47956,-0.148828 0.3762,0 0.76481,0.239778 l -0.25631,0.690398 q -0.27286,-0.161231 -0.54571,-0.161231 -0.24391,0 -0.43821,0.148829 -0.19431,0.144694 -0.27699,0.405143 -0.12402,0.396875 -0.12402,0.868164 v 2.298569 z m 5.41155,0 v -6.060614 h 0.80202 v 6.060614 z m 2.12081,0 v -4.390431 h 0.66972 v 0.624251 q 0.48369,-0.72347 1.39733,-0.72347 0.39688,0 0.72761,0.144694 0.33486,0.14056 0.50023,0.37207 0.16536,0.231511 0.23151,0.549838 0.0413,0.206706 0.0413,0.72347 v 2.699578 H 131.871 v -2.670639 q 0,-0.454753 -0.0868,-0.677995 -0.0868,-0.227377 -0.31006,-0.359668 -0.21911,-0.136426 -0.51676,-0.136426 -0.47543,0 -0.82269,0.30179 -0.34313,0.301791 -0.34313,1.145151 v 2.397787 z m 7.5737,-1.608171 0.73174,0.09508 q -0.11989,0.756544 -0.61599,1.186492 -0.49196,0.425814 -1.21129,0.425814 -0.90124,0 -1.45108,-0.587045 -0.5457,-0.591178 -0.5457,-1.690853 0,-0.711068 0.23564,-1.244369 0.23565,-0.533301 0.71521,-0.797885 0.48369,-0.268717 1.05006,-0.268717 0.7152,0 1.16996,0.363802 0.45475,0.359668 0.58291,1.025261 l -0.72347,0.111625 q -0.10336,-0.44235 -0.36794,-0.665593 -0.26045,-0.223242 -0.63252,-0.223242 -0.56224,0 -0.91364,0.405143 -0.3514,0.40101 -0.3514,1.273308 0,0.884701 0.339,1.28571 0.339,0.40101 0.8847,0.40101 0.43822,0 0.73174,-0.268718 0.29352,-0.268718 0.37207,-0.826823 z m 1.0914,-0.587045 q 0,-1.219564 0.678,-1.806609 0.56637,-0.487825 1.38079,-0.487825 0.90537,0 1.48002,0.595312 0.57464,0.591179 0.57464,1.637111 0,0.847493 -0.25632,1.335319 -0.25218,0.483692 -0.74,0.752409 -0.48369,0.268718 -1.05834,0.268718 -0.9219,0 -1.49241,-0.591179 -0.56638,-0.591178 -0.56638,-1.703256 z m 0.76482,0 q 0,0.84336 0.36793,1.26504 0.36794,0.417546 0.92604,0.417546 0.55397,0 0.92191,-0.42168 0.36794,-0.42168 0.36794,-1.28571 0,-0.814421 -0.37207,-1.231967 -0.36794,-0.42168 -0.91778,-0.42168 -0.5581,0 -0.92604,0.417546 -0.36793,0.417546 -0.36793,1.260905 z m 4.22093,2.195216 v -4.390431 h 0.66559 v 0.615983 q 0.20671,-0.322461 0.54984,-0.516765 0.34313,-0.198437 0.78135,-0.198437 0.48782,0 0.79788,0.202571 0.31419,0.202572 0.44235,0.566374 0.5209,-0.768945 1.35599,-0.768945 0.65319,0 1.00459,0.363802 0.3514,0.359668 0.3514,1.112077 v 3.013771 h -0.74 v -2.765724 q 0,-0.446484 -0.0744,-0.640788 -0.0703,-0.198437 -0.26045,-0.318327 -0.19017,-0.119889 -0.44648,-0.119889 -0.46302,0 -0.76895,0.310059 -0.30592,0.305924 -0.30592,0.983919 v 2.55075 h -0.74414 v -2.85254 q 0,-0.496094 -0.18191,-0.744141 -0.1819,-0.248047 -0.59531,-0.248047 -0.31419,0 -0.58291,0.165365 -0.26458,0.165364 -0.38447,0.483691 -0.11989,0.318327 -0.11989,0.917774 v 2.277898 z m 10.0583,-1.413868 0.76895,0.09509 q -0.1819,0.673861 -0.67386,1.045931 -0.49196,0.372071 -1.25677,0.372071 -0.96325,0 -1.52963,-0.591179 -0.56224,-0.595313 -0.56224,-1.666049 0,-1.107943 0.57051,-1.719792 0.57051,-0.611849 1.48002,-0.611849 0.88056,0 1.43867,0.599447 0.5581,0.599446 0.5581,1.686719 0,0.06615 -0.004,0.198438 h -3.27422 q 0.0413,0.72347 0.40928,1.107943 0.36793,0.384473 0.91777,0.384473 0.40928,0 0.69867,-0.214974 0.28939,-0.214975 0.45888,-0.686264 z m -2.44326,-1.203028 h 2.45153 q -0.0496,-0.553971 -0.28112,-0.830957 -0.35553,-0.429948 -0.92191,-0.429948 -0.51263,0 -0.86403,0.343132 -0.34726,0.343131 -0.38447,0.917773 z m 7.92097,4.3987 q -0.61599,-0.777214 -1.0418,-1.819011 -0.42581,-1.041797 -0.42581,-2.158009 0,-0.983919 0.31832,-1.885157 0.37207,-1.045931 1.14929,-2.083594 h 0.5333 q -0.50023,0.859896 -0.66146,1.227832 -0.25218,0.570508 -0.39688,1.190626 -0.17776,0.773079 -0.17776,1.554427 0,1.98851 1.2361,3.972886 z m 3.57601,-1.781804 V 27.50957 h -2.6293 v -0.682129 l 2.76572,-3.92741 h 0.60772 v 3.92741 h 0.81855 v 0.682129 h -0.81855 v 1.451075 z m 0,-2.133204 V 24.09479 l -1.89756,2.732651 z m 2.32337,-0.855762 q 0,-1.07487 0.21911,-1.728061 0.22324,-0.657324 0.65732,-1.012858 0.43822,-0.355534 1.09968,-0.355534 0.48782,0 0.85576,0.198437 0.36794,0.194304 0.60771,0.566374 0.23978,0.367937 0.37621,0.901238 0.13643,0.529167 0.13643,1.430404 0,1.066602 -0.21911,1.723926 -0.21911,0.653191 -0.65733,1.012859 -0.43408,0.355534 -1.09967,0.355534 -0.87643,0 -1.37666,-0.628386 -0.59945,-0.756543 -0.59945,-2.463933 z m 0.76481,0 q 0,1.492416 0.34727,1.98851 0.3514,0.49196 0.86403,0.49196 0.51263,0 0.85989,-0.496094 0.3514,-0.496094 0.3514,-1.984376 0,-1.49655 -0.3514,-1.98851 -0.34726,-0.49196 -0.86816,-0.49196 -0.51263,0 -0.81856,0.434082 -0.38447,0.553972 -0.38447,2.046388 z m 4.08451,-1.61644 q 0,-0.649056 0.32659,-1.103809 0.3266,-0.454752 0.94672,-0.454752 0.57051,0 0.94258,0.409277 0.3762,0.405144 0.3762,1.19476 0,0.768945 -0.38034,1.186491 -0.3762,0.413412 -0.93017,0.413412 -0.54984,0 -0.91778,-0.409278 -0.3638,-0.409277 -0.3638,-1.236101 z m 1.29398,-1.045931 q -0.27699,0 -0.46302,0.239779 -0.1819,0.239779 -0.1819,0.880567 0,0.58291 0.18603,0.822689 0.18604,0.235644 0.45889,0.235644 0.28112,0 0.46302,-0.239778 0.18603,-0.239779 0.18603,-0.876433 0,-0.587045 -0.18603,-0.822689 -0.18604,-0.239779 -0.46302,-0.239779 z m 0.004,5.874579 3.31556,-6.387209 h 0.60358 l -3.30315,6.387209 z m 2.62103,-1.645378 q 0,-0.65319 0.3266,-1.103809 0.32659,-0.454753 0.95084,-0.454753 0.57051,0 0.94258,0.409278 0.37621,0.405143 0.37621,1.194759 0,0.768946 -0.38034,1.186492 -0.37621,0.413411 -0.93431,0.413411 -0.54984,0 -0.91778,-0.409277 -0.3638,-0.413412 -0.3638,-1.236101 z m 1.29811,-1.045931 q -0.28112,0 -0.46715,0.239778 -0.1819,0.239779 -0.1819,0.880567 0,0.578776 0.18603,0.818555 0.18604,0.239779 0.45889,0.239779 0.28525,0 0.46716,-0.239779 0.18603,-0.239779 0.18603,-0.876433 0,-0.587044 -0.18603,-0.822689 -0.18604,-0.239778 -0.46303,-0.239778 z m 2.86494,4.249871 h -0.5333 q 1.2361,-1.984376 1.2361,-3.972886 0,-0.777213 -0.17776,-1.542025 -0.14056,-0.620117 -0.39275,-1.190625 -0.16123,-0.372071 -0.66559,-1.240235 h 0.5333 q 0.77722,1.037663 1.14929,2.083594 0.31832,0.901238 0.31832,1.885157 0,1.116212 -0.42994,2.158009 -0.42582,1.041797 -1.03767,1.819011 z"
       id="text4"
       style="font-size:8.46667px;line-height:1;font-family:Arial;-inkscape-font-specification:'Arial, Normal';text-align:center;text-anchor:middle;white-space:pre-wrap"
       aria-label="Lower Income (40%)" />
    <path
       style="font-size:8.46667px;line-height:1;font-family:Arial;-inkscape-font-specification:'Arial, Normal';text-align:center;text-anchor:middle;white-space:pre-wrap"
       d="m 20.743293,48.218133 -1.608171,-6.060614 h 0.822689 l 0.921908,3.972885 q 0.148828,0.624252 0.256315,1.240235 0.231511,-0.971517 0.272852,-1.120345 l 1.153419,-4.092775 h 0.967383 l 0.868164,3.067514 q 0.326595,1.141016 0.471289,2.145606 0.115756,-0.574642 0.301791,-1.318783 l 0.950847,-3.894337 h 0.806152 l -1.661914,6.060614 h -0.77308 l -1.277442,-4.617808 q -0.161231,-0.578776 -0.190169,-0.711068 -0.09509,0.417546 -0.177767,0.711068 l -1.285711,4.617808 z m 6.837829,0 v -6.060614 h 0.744141 v 2.174545 q 0.520898,-0.603581 1.314649,-0.603581 0.487825,0 0.847493,0.194303 0.359669,0.19017 0.512631,0.529167 0.157096,0.338998 0.157096,0.98392 v 2.78226 h -0.744141 v -2.78226 q 0,-0.558106 -0.243913,-0.810287 -0.239778,-0.256315 -0.682129,-0.256315 -0.330729,0 -0.624251,0.173633 -0.289388,0.169498 -0.413412,0.463021 -0.124023,0.293522 -0.124023,0.810286 v 2.401922 z m 4.712892,-5.204852 v -0.855762 h 0.744141 v 0.855762 z m 0,5.204852 v -4.390431 h 0.744141 v 4.390431 z m 3.501597,-0.665593 0.107487,0.657325 q -0.314193,0.06615 -0.56224,0.06615 -0.405144,0 -0.628386,-0.128158 -0.223242,-0.128158 -0.314193,-0.334863 -0.09095,-0.21084 -0.09095,-0.880567 v -2.525945 h -0.545704 v -0.578776 h 0.545704 v -1.087273 l 0.740007,-0.446485 v 1.533758 h 0.748275 v 0.578776 h -0.748275 v 2.567286 q 0,0.318327 0.03721,0.409277 0.04134,0.09095 0.128157,0.144695 0.09095,0.05374 0.256315,0.05374 0.124024,0 0.326596,-0.02894 z m 3.733107,-0.748275 0.768945,0.09508 q -0.181901,0.673861 -0.673861,1.045931 -0.49196,0.372071 -1.256771,0.372071 -0.963249,0 -1.529623,-0.591179 -0.56224,-0.595313 -0.56224,-1.666049 0,-1.107943 0.570508,-1.719792 0.570508,-0.611849 1.480014,-0.611849 0.880567,0 1.438672,0.599447 0.558106,0.599446 0.558106,1.686719 0,0.06615 -0.0041,0.198438 h -3.27422 q 0.04134,0.72347 0.409277,1.107943 0.367937,0.384473 0.917774,0.384473 0.409278,0 0.698666,-0.214974 0.289388,-0.214975 0.458887,-0.686264 z m -2.443263,-1.203028 h 2.451531 q -0.04961,-0.553971 -0.28112,-0.830957 -0.355534,-0.429948 -0.921908,-0.429948 -0.51263,0 -0.86403,0.343132 -0.347266,0.343131 -0.384473,0.917773 z m 10.918202,0.49196 0.802018,0.202572 q -0.252181,0.988054 -0.909505,1.508952 -0.653191,0.516765 -1.599903,0.516765 -0.979786,0 -1.595769,-0.396875 -0.611849,-0.40101 -0.93431,-1.157553 -0.318327,-0.756543 -0.318327,-1.624707 0,-0.946713 0.359668,-1.649513 0.363802,-0.706934 1.029395,-1.070736 0.669727,-0.367936 1.471745,-0.367936 0.909506,0 1.529623,0.463021 0.620117,0.463021 0.86403,1.302246 l -0.789616,0.186036 q -0.21084,-0.661459 -0.611849,-0.96325 -0.401009,-0.30179 -1.008724,-0.30179 -0.698666,0 -1.169955,0.334863 -0.467155,0.334864 -0.657325,0.901238 -0.190169,0.56224 -0.190169,1.161686 0,0.77308 0.223242,1.351856 0.227377,0.574643 0.7028,0.859897 0.475423,0.285254 1.029395,0.285254 0.673861,0 1.141016,-0.388607 0.467155,-0.388607 0.63252,-1.153419 z m 1.418001,-0.07028 q 0,-1.219564 0.677995,-1.806609 0.566374,-0.487825 1.380795,-0.487825 0.905371,0 1.480013,0.595312 0.574642,0.591179 0.574642,1.637111 0,0.847493 -0.256315,1.335319 -0.252181,0.483692 -0.740007,0.752409 -0.483691,0.268718 -1.058333,0.268718 -0.921908,0 -1.492416,-0.591179 -0.566374,-0.591178 -0.566374,-1.703256 z m 0.764811,0 q 0,0.84336 0.367937,1.26504 0.367936,0.417546 0.926042,0.417546 0.553971,0 0.921907,-0.42168 0.367937,-0.42168 0.367937,-1.28571 0,-0.814421 -0.372071,-1.231967 -0.367936,-0.42168 -0.917773,-0.42168 -0.558106,0 -0.926042,0.417546 -0.367937,0.417546 -0.367937,1.260905 z m 4.204397,2.195216 v -6.060614 h 0.744141 v 6.060614 z m 1.881024,0 v -6.060614 h 0.744141 v 6.060614 z m 4.762502,-0.541569 q -0.413411,0.3514 -0.797884,0.496094 -0.380339,0.144694 -0.818555,0.144694 -0.723471,0 -1.112078,-0.3514 -0.388607,-0.355534 -0.388607,-0.905372 0,-0.322461 0.144695,-0.587044 0.148828,-0.268718 0.384472,-0.429948 0.239779,-0.161231 0.537435,-0.243913 0.219109,-0.05788 0.661459,-0.111621 0.901237,-0.107487 1.327051,-0.256315 0.0041,-0.152963 0.0041,-0.194304 0,-0.454753 -0.21084,-0.640788 -0.285254,-0.252181 -0.847494,-0.252181 -0.525033,0 -0.777214,0.186035 -0.248047,0.181901 -0.367936,0.649057 l -0.727605,-0.09922 q 0.09922,-0.467155 0.326595,-0.752409 0.227377,-0.289389 0.657325,-0.442351 0.429948,-0.157096 0.996322,-0.157096 0.56224,0 0.913639,0.132291 0.3514,0.132292 0.516765,0.334864 0.165365,0.198437 0.23151,0.504362 0.03721,0.190169 0.03721,0.686263 v 0.992188 q 0,1.037663 0.04548,1.314649 0.04961,0.272852 0.190169,0.525033 h -0.777214 q -0.115755,-0.231511 -0.148828,-0.541569 z m -0.06201,-1.661915 q -0.405143,0.165365 -1.21543,0.28112 -0.458887,0.06615 -0.649056,0.148828 -0.190169,0.08268 -0.293522,0.243913 -0.103353,0.157096 -0.103353,0.3514 0,0.297656 0.223242,0.496094 0.227376,0.198437 0.661459,0.198437 0.429948,0 0.764811,-0.186035 0.334864,-0.190169 0.49196,-0.516764 0.119889,-0.252181 0.119889,-0.744141 z m 1.897557,2.203484 v -4.390431 h 0.669727 v 0.665592 q 0.256315,-0.467155 0.471289,-0.615983 0.219108,-0.148828 0.479557,-0.148828 0.376205,0 0.764812,0.239778 l -0.256315,0.690398 q -0.272852,-0.161231 -0.545704,-0.161231 -0.243913,0 -0.438216,0.148829 -0.194303,0.144694 -0.276986,0.405143 -0.124023,0.396875 -0.124023,0.868164 v 2.298569 z m 6.602184,1.781804 q -0.615984,-0.777214 -1.041798,-1.819011 -0.425814,-1.041797 -0.425814,-2.158009 0,-0.983919 0.318327,-1.885157 0.372071,-1.045931 1.149285,-2.083594 h 0.533301 q -0.500228,0.859896 -0.661459,1.227832 -0.252181,0.570508 -0.396875,1.190626 -0.177767,0.773079 -0.177767,1.554427 0,1.98851 1.236101,3.972886 z m 5.051892,-6.358271 -0.740007,0.05788 q -0.09922,-0.438216 -0.28112,-0.636654 -0.30179,-0.318327 -0.744141,-0.318327 -0.355534,0 -0.624251,0.198438 -0.3514,0.256315 -0.553972,0.748275 -0.202572,0.49196 -0.21084,1.401465 0.268718,-0.409277 0.657325,-0.607715 0.388607,-0.198438 0.814421,-0.198438 0.744141,0 1.265039,0.549838 0.525033,0.545703 0.525033,1.413868 0,0.570508 -0.248047,1.062468 -0.243913,0.487825 -0.673861,0.748275 -0.429948,0.260449 -0.975651,0.260449 -0.930177,0 -1.517221,-0.682129 -0.587045,-0.686264 -0.587045,-2.257228 0,-1.756999 0.649057,-2.554884 0.566374,-0.694531 1.525489,-0.694531 0.715202,0 1.169954,0.401009 0.458887,0.401009 0.549838,1.107943 z m -3.038576,2.612762 q 0,0.384473 0.161231,0.735872 0.165365,0.3514 0.458887,0.537436 0.293522,0.181901 0.615983,0.181901 0.471289,0 0.810287,-0.380339 0.338998,-0.380339 0.338998,-1.033529 0,-0.628386 -0.334864,-0.988054 -0.334863,-0.363802 -0.84336,-0.363802 -0.504362,0 -0.855762,0.363802 -0.3514,0.359668 -0.3514,0.946713 z m 3.886067,-1.025261 q 0,-1.07487 0.219108,-1.728061 0.223242,-0.657324 0.657324,-1.012858 0.438217,-0.355534 1.099675,-0.355534 0.487826,0 0.855762,0.198437 0.367937,0.194304 0.607716,0.566374 0.239778,0.367937 0.376204,0.901238 0.136426,0.529167 0.136426,1.430404 0,1.066602 -0.219108,1.723926 -0.219108,0.653191 -0.657325,1.012859 -0.434082,0.355534 -1.099675,0.355534 -0.876432,0 -1.37666,-0.628386 -0.599447,-0.756543 -0.599447,-2.463933 z m 0.764811,0 q 0,1.492416 0.347266,1.98851 0.3514,0.49196 0.86403,0.49196 0.512631,0 0.859897,-0.496094 0.351399,-0.496094 0.351399,-1.984376 0,-1.49655 -0.351399,-1.98851 -0.347266,-0.49196 -0.868165,-0.49196 -0.51263,0 -0.818555,0.434082 -0.384473,0.553972 -0.384473,2.046388 z m 4.084508,-1.61644 q 0,-0.649056 0.326595,-1.103809 0.326595,-0.454752 0.946713,-0.454752 0.570508,0 0.942578,0.409277 0.376205,0.405144 0.376205,1.19476 0,0.768945 -0.380339,1.186491 -0.376204,0.413412 -0.930176,0.413412 -0.549837,0 -0.917774,-0.409278 -0.363802,-0.409277 -0.363802,-1.236101 z m 1.293978,-1.045931 q -0.276985,0 -0.463021,0.239779 -0.181901,0.239779 -0.181901,0.880567 0,0.58291 0.186036,0.822689 0.186035,0.235644 0.458886,0.235644 0.28112,0 0.463021,-0.239778 0.186036,-0.239779 0.186036,-0.876433 0,-0.587045 -0.186036,-0.822689 -0.186035,-0.239779 -0.463021,-0.239779 z m 0.0041,5.874579 3.315561,-6.387209 h 0.603581 l -3.303159,6.387209 z m 2.621029,-1.645378 q 0,-0.65319 0.326595,-1.103809 0.326596,-0.454753 0.950847,-0.454753 0.570508,0 0.942579,0.409278 0.376204,0.405143 0.376204,1.194759 0,0.768946 -0.380338,1.186492 -0.376205,0.413411 -0.934311,0.413411 -0.549837,0 -0.917773,-0.409277 -0.363803,-0.413412 -0.363803,-1.236101 z m 1.298113,-1.045931 q -0.28112,0 -0.467155,0.239778 -0.181901,0.239779 -0.181901,0.880567 0,0.578776 0.186035,0.818555 0.186035,0.239779 0.458887,0.239779 0.285254,0 0.467155,-0.239779 0.186035,-0.239779 0.186035,-0.876433 0,-0.587044 -0.186035,-0.822689 -0.186035,-0.239778 -0.463021,-0.239778 z m 2.864942,4.249871 h -0.533301 q 1.2361,-1.984376 1.2361,-3.972886 0,-0.777213 -0.177767,-1.542025 -0.14056,-0.620117 -0.392741,-1.190625 -0.16123,-0.372071 -0.665592,-1.240235 h 0.533301 q 0.777213,1.037663 1.149284,2.083594 0.318327,0.901238 0.318327,1.885157 0,1.116212 -0.429948,2.158009 -0.425814,1.041797 -1.037663,1.819011 z"
       id="text1-2-7"
       aria-label="White Collar (60%)" />
    <path
       d="M 104.49515,48.218134 V 42.15752 h 2.27376 q 0.69453,0 1.11208,0.186035 0.42168,0.181901 0.65732,0.566374 0.23978,0.380339 0.23978,0.797884 0,0.388607 -0.21084,0.731739 -0.21084,0.343132 -0.63665,0.553972 0.54984,0.16123 0.84336,0.549837 0.29766,0.388607 0.29766,0.917774 0,0.425814 -0.18191,0.79375 -0.17776,0.363802 -0.44235,0.56224 -0.26458,0.198438 -0.66559,0.30179 -0.39687,0.09922 -0.97565,0.09922 z m 0.80202,-3.513999 h 1.31051 q 0.5333,0 0.76481,-0.07028 0.30593,-0.09095 0.45889,-0.30179 0.1571,-0.21084 0.1571,-0.529167 0,-0.30179 -0.1447,-0.529167 -0.14469,-0.23151 -0.41341,-0.314193 -0.26872,-0.08682 -0.92191,-0.08682 h -1.21129 z m 0,2.798797 h 1.50895 q 0.38861,0 0.5457,-0.02894 0.27699,-0.04961 0.46302,-0.165364 0.18604,-0.115756 0.30593,-0.334864 0.11989,-0.223242 0.11989,-0.51263 0,-0.338998 -0.17363,-0.587045 -0.17364,-0.252181 -0.4837,-0.3514 -0.30592,-0.103352 -0.8847,-0.103352 h -1.40146 z m 4.76663,0.715202 V 42.15752 h 0.74414 v 6.060614 z m 4.77491,0 v -0.644922 q -0.51263,0.744141 -1.3932,0.744141 -0.38861,0 -0.7276,-0.148828 -0.33487,-0.148828 -0.50023,-0.372071 -0.16123,-0.227376 -0.22738,-0.553971 -0.0455,-0.219108 -0.0455,-0.694532 v -2.720248 h 0.74414 v 2.434994 q 0,0.582911 0.0455,0.785482 0.0703,0.293523 0.29766,0.463021 0.22738,0.165365 0.56224,0.165365 0.33486,0 0.62838,-0.169499 0.29353,-0.173633 0.41342,-0.467155 0.12402,-0.297656 0.12402,-0.859896 v -2.352312 h 0.74414 v 4.390431 z m 4.83691,-1.413868 0.76895,0.09509 q -0.1819,0.673861 -0.67386,1.045932 -0.49196,0.37207 -1.25677,0.37207 -0.96325,0 -1.52963,-0.591179 -0.56224,-0.595312 -0.56224,-1.666048 0,-1.107944 0.57051,-1.719793 0.57051,-0.611849 1.48002,-0.611849 0.88056,0 1.43867,0.599447 0.5581,0.599447 0.5581,1.686719 0,0.06615 -0.004,0.198438 h -3.27422 q 0.0413,0.72347 0.40928,1.107943 0.36793,0.384473 0.91777,0.384473 0.40928,0 0.69867,-0.214974 0.28939,-0.214974 0.45888,-0.686264 z m -2.44326,-1.203027 h 2.45153 q -0.0496,-0.553972 -0.28112,-0.830958 -0.35553,-0.429948 -0.92191,-0.429948 -0.51263,0 -0.86403,0.343132 -0.34726,0.343131 -0.38447,0.917774 z m 10.9182,0.491959 0.80202,0.202572 q -0.25218,0.988054 -0.90951,1.508953 -0.65319,0.516764 -1.5999,0.516764 -0.97978,0 -1.59577,-0.396875 -0.61185,-0.401009 -0.93431,-1.157553 -0.31832,-0.756543 -0.31832,-1.624707 0,-0.946713 0.35966,-1.649513 0.36381,-0.706934 1.0294,-1.070736 0.66972,-0.367936 1.47174,-0.367936 0.90951,0 1.52963,0.463021 0.62011,0.463021 0.86403,1.302247 l -0.78962,0.186035 q -0.21084,-0.661459 -0.61185,-0.963249 -0.40101,-0.301791 -1.00872,-0.301791 -0.69867,0 -1.16996,0.334864 -0.46715,0.334863 -0.65732,0.901237 -0.19017,0.56224 -0.19017,1.161687 0,0.773079 0.22324,1.351856 0.22738,0.574642 0.7028,0.859896 0.47542,0.285254 1.0294,0.285254 0.67386,0 1.14101,-0.388607 0.46716,-0.388607 0.63252,-1.153419 z m 1.418,-0.07028 q 0,-1.219565 0.678,-1.806609 0.56637,-0.487826 1.38079,-0.487826 0.90538,0 1.48002,0.595313 0.57464,0.591178 0.57464,1.63711 0,0.847494 -0.25632,1.335319 -0.25218,0.483692 -0.74,0.752409 -0.48369,0.268718 -1.05834,0.268718 -0.9219,0 -1.49241,-0.591179 -0.56638,-0.591178 -0.56638,-1.703255 z m 0.76482,0 q 0,0.843359 0.36793,1.265039 0.36794,0.417546 0.92604,0.417546 0.55398,0 0.92191,-0.42168 0.36794,-0.42168 0.36794,-1.28571 0,-0.814421 -0.37207,-1.231967 -0.36794,-0.42168 -0.91778,-0.42168 -0.5581,0 -0.92604,0.417546 -0.36793,0.417546 -0.36793,1.260906 z m 4.20439,2.195215 V 42.15752 h 0.74414 v 6.060614 z m 1.88102,0 V 42.15752 h 0.74415 v 6.060614 z m 4.76251,-0.541569 q -0.41342,0.3514 -0.79789,0.496094 -0.38034,0.144694 -0.81855,0.144694 -0.72347,0 -1.11208,-0.3514 -0.38861,-0.355534 -0.38861,-0.905371 0,-0.322461 0.1447,-0.587045 0.14883,-0.268717 0.38447,-0.429948 0.23978,-0.16123 0.53743,-0.243913 0.21911,-0.05788 0.66146,-0.111621 0.90124,-0.107487 1.32705,-0.256315 0.004,-0.152962 0.004,-0.194304 0,-0.454752 -0.21084,-0.640788 -0.28525,-0.252181 -0.84749,-0.252181 -0.52504,0 -0.77722,0.186036 -0.24805,0.181901 -0.36793,0.649056 l -0.72747,-0.09922 q 0.0992,-0.467155 0.3266,-0.752409 0.22737,-0.289388 0.65732,-0.442351 0.42995,-0.157096 0.99632,-0.157096 0.56224,0 0.91364,0.132292 0.3514,0.132291 0.51677,0.334863 0.16536,0.198438 0.23151,0.504362 0.0372,0.19017 0.0372,0.686264 v 0.992188 q 0,1.037663 0.0455,1.314648 0.0496,0.272852 0.19017,0.525033 h -0.77722 q -0.11575,-0.23151 -0.14882,-0.541569 z m -0.062,-1.661915 q -0.40514,0.165365 -1.21543,0.28112 -0.45888,0.06615 -0.64905,0.148828 -0.19017,0.08268 -0.29352,0.243913 -0.10336,0.157097 -0.10336,0.3514 0,0.297656 0.22325,0.496094 0.22737,0.198438 0.66145,0.198438 0.42995,0 0.76482,-0.186036 0.33486,-0.190169 0.49196,-0.516764 0.11988,-0.252181 0.11988,-0.744141 z m 1.89757,2.203484 v -4.390431 h 0.66972 v 0.665593 q 0.25632,-0.467156 0.47129,-0.615984 0.21911,-0.148828 0.47956,-0.148828 0.3762,0 0.76481,0.239779 l -0.25632,0.690397 q -0.27285,-0.16123 -0.5457,-0.16123 -0.24391,0 -0.43821,0.148828 -0.19431,0.144694 -0.27699,0.405143 -0.12402,0.396875 -0.12402,0.868165 v 2.298568 z m 6.60218,1.781804 q -0.61598,-0.777214 -1.0418,-1.819011 -0.42581,-1.041797 -0.42581,-2.158008 0,-0.98392 0.31832,-1.885157 0.37208,-1.045932 1.14929,-2.083595 h 0.5333 q -0.50023,0.859896 -0.66146,1.227832 -0.25218,0.570508 -0.39687,1.190626 -0.17777,0.77308 -0.17777,1.554428 0,1.98851 1.2361,3.972885 z m 3.57601,-1.781804 v -1.451075 h -2.6293 V 46.08493 l 2.76572,-3.92741 h 0.60772 v 3.92741 h 0.81855 v 0.682129 h -0.81855 v 1.451075 z m 0,-2.133204 v -2.732651 l -1.89756,2.732651 z m 2.32337,-0.855762 q 0,-1.07487 0.21911,-1.72806 0.22324,-0.657325 0.65732,-1.012859 0.43822,-0.355534 1.09968,-0.355534 0.48783,0 0.85576,0.198438 0.36794,0.194303 0.60772,0.566374 0.23978,0.367936 0.3762,0.901237 0.13643,0.529167 0.13643,1.430404 0,1.066602 -0.21911,1.723927 -0.21911,0.65319 -0.65733,1.012858 -0.43408,0.355534 -1.09967,0.355534 -0.87643,0 -1.37666,-0.628386 -0.59945,-0.756543 -0.59945,-2.463933 z m 0.76481,0 q 0,1.492416 0.34727,1.98851 0.3514,0.49196 0.86403,0.49196 0.51263,0 0.8599,-0.496094 0.3514,-0.496094 0.3514,-1.984376 0,-1.49655 -0.3514,-1.98851 -0.34727,-0.49196 -0.86817,-0.49196 -0.51263,0 -0.81855,0.434083 -0.38448,0.553971 -0.38448,2.046387 z m 4.08451,-1.616439 q 0,-0.649057 0.3266,-1.103809 0.32659,-0.454753 0.94671,-0.454753 0.57051,0 0.94258,0.409277 0.3762,0.405144 0.3762,1.19476 0,0.768946 -0.38034,1.186491 -0.3762,0.413412 -0.93017,0.413412 -0.54984,0 -0.91778,-0.409278 -0.3638,-0.409277 -0.3638,-1.2361 z m 1.29398,-1.045932 q -0.27699,0 -0.46302,0.239779 -0.1819,0.239779 -0.1819,0.880567 0,0.58291 0.18603,0.822689 0.18604,0.235645 0.45889,0.235645 0.28112,0 0.46302,-0.239779 0.18604,-0.239779 0.18604,-0.876433 0,-0.587044 -0.18604,-0.822689 -0.18603,-0.239779 -0.46302,-0.239779 z m 0.004,5.87458 3.31557,-6.38721 h 0.60358 l -3.30316,6.38721 z m 2.62103,-1.645379 q 0,-0.65319 0.3266,-1.103809 0.32659,-0.454753 0.95085,-0.454753 0.5705,0 0.94257,0.409278 0.37621,0.405143 0.37621,1.19476 0,0.768945 -0.38034,1.186491 -0.3762,0.413412 -0.93431,0.413412 -0.54984,0 -0.91777,-0.409278 -0.36381,-0.413412 -0.36381,-1.236101 z m 1.29812,-1.045931 q -0.28112,0 -0.46716,0.239779 -0.1819,0.239778 -0.1819,0.880566 0,0.578777 0.18604,0.818555 0.18603,0.239779 0.45888,0.239779 0.28526,0 0.46716,-0.239779 0.18603,-0.239778 0.18603,-0.876432 0,-0.587045 -0.18603,-0.822689 -0.18604,-0.239779 -0.46302,-0.239779 z m 2.86494,4.249871 h -0.5333 q 1.2361,-1.984375 1.2361,-3.972885 0,-0.777214 -0.17777,-1.542026 -0.14056,-0.620117 -0.39274,-1.190625 -0.16123,-0.372071 -0.66559,-1.240235 h 0.5333 q 0.77721,1.037663 1.14928,2.083595 0.31833,0.901237 0.31833,1.885157 0,1.116211 -0.42995,2.158008 -0.42581,1.041797 -1.03766,1.819011 z"
       id="text5"
       style="font-size:8.46667px;line-height:1;font-family:Arial;-inkscape-font-specification:'Arial, Normal';text-align:center;text-anchor:middle;white-space:pre-wrap"
       aria-label="Blue Collar (40%)" />
    <path
       id="rect6"
       style="fill:none;stroke:#000000;stroke-width:0.671835"
       d="m 15.35446,41.699189 h 78.399055 v 8.655725 H 15.35446 Z" />
    <path
       id="rect7"
       style="fill:none;stroke:#000000;stroke-width:0.715609"
       d="m 101.51453,42.11143 h 71.06868 v 7.831244 h -71.06868 z" />
    <path
       id="rect8"
       style="fill:none;stroke:#000000;stroke-width:0.834133"
       d="M 1.3828502,22.522849 H 85.865276 v 8.493429 H 1.3828502 Z" />
    <path
       id="rect9"
       style="fill:none;stroke:#000000;stroke-width:0.801518"
       d="m 98.434659,22.766778 h 82.693391 v 8.005571 H 98.434659 Z" />
    <path
       id="rect10"
       style="fill:none;stroke:#000000;stroke-width:0.773618"
       d="M 28.156931,1.6736872 H 152.77624 V 9.4469216 H 28.156931 Z" />
    <path
       style="fill:none;fill-rule:evenodd;stroke:#000000;stroke-width:0.932066;stroke-linecap:butt;stroke-linejoin:miter;stroke-dasharray:none;stroke-opacity:1;marker-end:url(#Triangle)"
       d="M 90.581332,9.4894053 39.223529,20.467223"
       id="path10"
       inkscape:connector-type="polyline"
       inkscape:connector-curvature="0" />
    <path
       style="fill:none;fill-rule:evenodd;stroke:#000000;stroke-width:0.906967;stroke-linecap:butt;stroke-linejoin:miter;stroke-dasharray:none;stroke-opacity:1;marker-end:url(#marker12)"
       d="M 90.301643,9.5071653 140.04963,20.368522"
       id="path11"
       inkscape:connector-type="polyline"
       inkscape:connector-curvature="0" />
    <path
       style="fill:none;fill-rule:evenodd;stroke:#000000;stroke-width:0.894778;stroke-linecap:butt;stroke-linejoin:miter;stroke-dasharray:none;stroke-opacity:1;marker-end:url(#marker14)"
       d="M 139.95458,30.830984 55.157064,39.623662"
       id="path13"
       inkscape:connector-type="polyline"
       inkscape:connector-curvature="0" />
    <path
       style="fill:none;fill-rule:evenodd;stroke:#000000;stroke-width:0.893672;stroke-linecap:butt;stroke-linejoin:miter;stroke-dasharray:none;stroke-opacity:1;marker-end:url(#marker16)"
       d="m 140.10701,31.06674 -3.11653,7.940001"
       id="path15"
       inkscape:connector-type="polyline"
       inkscape:connector-curvature="0" />
  </g>
</svg>
