<svg width="1259" height="606" xmlns="http://www.w3.org/2000/svg" xmlns:xlink="http://www.w3.org/1999/xlink" xml:space="preserve" overflow="hidden"><g transform="translate(-450 -1005)"><path d="M460 1019 460 1598.65" stroke="#000000" stroke-width="13.75" stroke-miterlimit="8" fill="none" fill-rule="evenodd"/><path d="M0 0 1130.13 0.000360892" stroke="#000000" stroke-width="13.75" stroke-miterlimit="8" fill="none" fill-rule="evenodd" transform="matrix(-1 0 0 1 1587.13 1596)"/><path d="M0 0C237.647 45.8668 475.295 91.7335 654.128 149.067 832.961 206.4 952.981 275.2 1073 344" stroke="#000000" stroke-width="10.3125" stroke-miterlimit="8" fill="none" fill-rule="evenodd" transform="matrix(1 0 0 -1 466 1407)"/><text font-family="Aptos,Aptos_MSFontService,sans-serif" font-weight="700" font-size="83" transform="matrix(1 0 0 1 1263.93 1106)">GDP</text><text fill="#4EA72E" font-family="Aptos,Aptos_MSFontService,sans-serif" font-weight="700" font-size="83" transform="matrix(1 0 0 1 1094.88 1439)">Environmental </text><text fill="#4EA72E" font-family="Aptos,Aptos_MSFontService,sans-serif" font-weight="700" font-size="83" transform="matrix(1 0 0 1 1094.88 1538)">Impacts</text><path d="M0 0C237.648 22.4 475.295 44.8 654.128 72.8 832.962 100.8 952.981 134.4 1073 168" stroke="#4EA72E" stroke-width="10.3125" stroke-miterlimit="8" fill="none" fill-rule="evenodd" transform="matrix(1 0 0 -1 457 1405)"/></g></svg>